<mxfile host="app.diagrams.net" agent="Mozilla/5.0 (Windows NT 10.0; Win64; x64) AppleWebKit/537.36 (KHTML, like Gecko) Chrome/136.0.0.0 Safari/537.36" version="27.0.8">
  <diagram id="AuIy6Xb-cXR3u7J2SyLp" name="PÃ¡gina-1">
    <mxGraphModel dx="1281" dy="562" grid="1" gridSize="10" guides="1" tooltips="1" connect="1" arrows="1" fold="1" page="1" pageScale="1" pageWidth="827" pageHeight="1169" math="0" shadow="0">
      <root>
        <mxCell id="0" />
        <mxCell id="1" parent="0" />
        <mxCell id="kxb5aIU8mdvdAVlikhvM-10" value="" style="edgeStyle=orthogonalEdgeStyle;rounded=0;orthogonalLoop=1;jettySize=auto;html=1;" parent="1" source="kxb5aIU8mdvdAVlikhvM-2" target="kxb5aIU8mdvdAVlikhvM-6" edge="1">
          <mxGeometry relative="1" as="geometry" />
        </mxCell>
        <mxCell id="kxb5aIU8mdvdAVlikhvM-2" value="" style="ellipse;whiteSpace=wrap;html=1;aspect=fixed;" parent="1" vertex="1">
          <mxGeometry x="398" y="75" width="50" height="50" as="geometry" />
        </mxCell>
        <mxCell id="kxb5aIU8mdvdAVlikhvM-9" value="" style="edgeStyle=orthogonalEdgeStyle;rounded=0;orthogonalLoop=1;jettySize=auto;html=1;entryX=0;entryY=0.5;entryDx=0;entryDy=0;" parent="1" source="kxb5aIU8mdvdAVlikhvM-3" target="kxb5aIU8mdvdAVlikhvM-2" edge="1">
          <mxGeometry relative="1" as="geometry">
            <mxPoint x="380" y="100" as="targetPoint" />
          </mxGeometry>
        </mxCell>
        <mxCell id="kxb5aIU8mdvdAVlikhvM-3" value="&lt;div&gt;&lt;font style=&quot;vertical-align: inherit;&quot;&gt;&lt;font style=&quot;vertical-align: inherit;&quot;&gt;&lt;font style=&quot;vertical-align: inherit;&quot;&gt;&lt;font style=&quot;vertical-align: inherit;&quot;&gt;&lt;br&gt;&lt;/font&gt;&lt;/font&gt;&lt;/font&gt;&lt;/font&gt;&lt;/div&gt;&lt;font style=&quot;vertical-align: inherit;&quot;&gt;&lt;font style=&quot;vertical-align: inherit;&quot;&gt;&lt;font style=&quot;vertical-align: inherit;&quot;&gt;&lt;font style=&quot;vertical-align: inherit;&quot;&gt;&lt;div&gt;&lt;font style=&quot;vertical-align: inherit;&quot;&gt;&lt;font style=&quot;vertical-align: inherit;&quot;&gt;&lt;font style=&quot;vertical-align: inherit;&quot;&gt;&lt;font style=&quot;vertical-align: inherit;&quot;&gt;&lt;br&gt;&lt;/font&gt;&lt;/font&gt;&lt;/font&gt;&lt;/font&gt;&lt;/div&gt;&lt;div&gt;&lt;font style=&quot;vertical-align: inherit;&quot;&gt;&lt;font style=&quot;vertical-align: inherit;&quot;&gt;&lt;font style=&quot;vertical-align: inherit;&quot;&gt;&lt;font style=&quot;vertical-align: inherit;&quot;&gt;&lt;br&gt;&lt;/font&gt;&lt;/font&gt;&lt;/font&gt;&lt;/font&gt;&lt;/div&gt;Coleta de dados em tempo real&lt;/font&gt;&lt;/font&gt;&lt;/font&gt;&lt;/font&gt;" style="rounded=1;whiteSpace=wrap;html=1;" parent="1" vertex="1">
          <mxGeometry x="180" y="45" width="140" height="110" as="geometry" />
        </mxCell>
        <mxCell id="kxb5aIU8mdvdAVlikhvM-4" value="" style="shape=image;verticalLabelPosition=bottom;labelBackgroundColor=default;verticalAlign=top;aspect=fixed;imageAspect=0;image=data:image/png,iVBORw0KGgoAAAANSUhEUgAAAgAAAAIACAYAAAD0eNT6AAAABHNCSVQICAgIfAhkiAAAAAlwSFlzAAAOxAAADsQBlSsOGwAAABl0RVh0U29mdHdhcmUAd3d3Lmlua3NjYXBlLm9yZ5vuPBoAACAASURBVHic7d152F1Vfejx75tAAiQQwAByGWS4WIbIIBYBg6KCFxRrW629goperbXWeUL79Fbtba1YBxSnVpQWUFs7XK2l9ipTISAik0BAbBmqVUBmEiTze/9YefVNeIdzzpr28P08z+9RY7L3b69zzlprr732WiBJkiRJkiRJkiRJkiRJkiRJkiRJkiRJkiRJkiRJkiRJkiRJkiRJkiRJkiRJkiRJkiRJkiRJkiRJkiRJkiRJkiRJkiRJkiRJkiRJkiRJkiRJkiRJkiRJkiRJkiRJkiRJkiRJkiRJkiRJkiRJkiRJkiRJkiRJkiRJkiRJkiRJkiRJkiRJkiRJkiRJkiRJkiRJkiRJkiRJkiRJkiRJkiRJkiRJkiRJkiRJkiRJkiRJkiRJkiRJkiRJkiRJkiRJkiRJkiRJkiRJkiRJkiRJkiRJkiRJkiRJkiRJkiRJkiRJkiRJkiRJkiRJkiRJkiRJkiQpl7HaCaiz5gEHA0uAvYC9N8auwFbAAmBbYItK+UlNsA5YATwKrALuAu7YGHcCNwI3AGsr5acOswOgVBYBxwPPBp4GHALMr5qR1A2rge8D3wMuAi4AHqmakTrBDoBi7AP8FnAi8Ay8m5dKWAtcAXwT+CphtEAamh0ADWsH4IXAK4Dn4ndIqu0a4Fzgy8C9lXNRi1h5a1CHAG8gNPxbV85F0uOtAf4W+Ahh3oA0IzsAmskY8ALg7YRn+5La4SLgY8D5tROR1D5LgUuBccMwWhtXEh7ZSY/jCIA2dyRwOvDM2olISuYS4DTgqsp5qEHsAGjCjsD7gDcCcyrnIim9ceA84J3AzyrnogaYWzsBVTcH+F3g68Cx2CmUumqMMJn3NYR1BK6pm45qs7Lvtz2Bs4Hn1E5EUnGXA6cCt9VORHU4AtBfv0WYIXxg7UQkVbEn8CrgARwN6CVHAPpnIfAF4KW1E5HUGH8DvJawJ4F6wg5Av+wH/CNhgx5JmuxW4DeAW2onojKc7d0fLwKuxsZf0tR+BfgOrhvQG84B6Ic3An9F2IZXkqazFeHx4H2E3QfVYT4C6LYx4IPAeyrmcC/wXcIko/8gzDj+CWEP9BWE/dClvtqSMC9nO2A3wg6b+wGHA08HFtdLjT8F/jdh/QBJLTKX8Ipf6aVH1xD2K38r8OTsVyl1268Q9uK4kPDbKv17PgsfFUutMgb8JWUriuWEpUZ3LnB9Uh/tALwOWEbZ3/bZ2AmQWmEM+Azl7va/Stg/QFI5hwHnUG5U4Cx8ZCw13hmUafg/A+xe6JokTW0P4LOU6Qh8vNA1SRrBW8hbAWwgbCayT6kLkjSQfYEvEX6jOeuAN5W6IEmDOxFYS74f/g+A44pdjaRRHAPcQL56YB2uEyA1ylMIu3vl+MGvIkzu26LY1UiKsQXwXmA1eeqEh4GDil2NpGktAG4mzw/9RsJkI0ntswS4ljx1w3Jgm3KXImkqXyDPD/wcYOuC1yEpvfnAJ8hTR3yu4HVI2sxvk/5H/XPCHuGSuuM1wGOkry9eUvIiJAVPICyzm/LHfD+wtORFSCrmSNLXGfdRd7liqZfOJu0P+TZculfqugOAO0lbd5xV8gKkvjuGtO/73gnsVTB/SfXsQejwp6o/NgDHlrwAqa/mEGbnp7zz36PoFUiq7UnAHaSrR67H/QKk7F5Guh/tvYStRyX1zz7APaSrT15aNn2pX+aS7p3/nwNHlU1fUsMcATxKmjplOY4CSNmcQrre+ssK5y6pmV5Bunrl5MK5S71xPWl+pC7gIWmyL5KmbrkRtw2WkjuBND/Qm3CFP0mb2oZ0jxdPKJy71HkXEv/DXA88o3TiklphKWleL76gdOJSlx1Cmh/mZ0snLqlVPk+aUYCnlk5c6qovEf+DXAHsVDpxSa2ymDRbi59XOnGpi3YH1hD/g/w/pROX1EofJL6+WUtYbEhShI8S/2N8BNihdOKSWmlH0owCfKx04lKXbAc8RPwP8SOlE5fUah8jzY3H9qUTl7riNOJ/hGuAPUsnLqnVUj16PK104lIXbAn8mPgf4LmlE5fUCSkmH/8EmFc6cantXkX8j28cOKxw3pK6IdXrx6eWTlxquxTL/n6reNaSuuQC4ushlweWhnAiae7+/0fpxCV1Sqq6yOWBpQGlWPb3Bux1S4qXYjTS5YGlAaR67vbK0olL6qRXkWYUwOWBpVmkmHn7XzjzVlIaWwI/Ir5e+lLpxKU2SfXu7btKJy6p01KsSeLywNIMXH1LUhOlWpXU5YGlKbjsr6Qm8wZFysRlfyU1mcsDSxm47K+kNnB5YCmxVxH/oxrHZX8l5XUwaV5TflXhvKXGSrHQxreLZy2pj1weWErEZX8ltckJpKmzTiyduNQ0KXrTLvsrqSSXB5YiueyvpDY6lTSjAC4PrN5y2V9JbeTywFIEl/2V1GYuDyyNyFW1JLWZywNLI9iB0HjH/nA+WjpxSZok1Y3MDqUTVx1LgDOAm4CVxH95csfKjbmeATwlURm8P0FeLvsrqbY9SfMo8wOJ8mlz+7IkURk00jzg08B66hf6qLEe+BRxk+62Bx5MkMt5ETlIUiopJjM/CCyKyKEL7cs64Ew6OKl7HnAh9Qs4VVzI6B/S+xLl4LK/kprgMNLUaX804vm71r5cQMc6AZ+mfqGmjk+NUA6LgAcSnNsFNCQ1SYoFze4nTCwcVhfbl0+OUA6NtIQwtFG7QFPHOoZ/ZnN6onOfMOR5JSmnVMsDf3DI83a5fTloyLJopE9QvzBzxRlDlMPewGMJzumyv5Ka6Dri67fVwL5DnLPL7UsnXo9cTv2CzBXLhyiHryY65ylDnFOSSjmFNHXc3wxxzi63LzcOUQ6NtYL6BZkrVg5YBkeRZs3/HwJbDHhOSSppLnALaerWYwY8Z5fbl0cGLINGq12IuWPOLNc/F/heonN59y+pyVKNAnyPUHfOpnb9nztar3YB5o7ZOgBvTnQe7/4lNV3KUYA3DXC+2vV/7mi92gWYO2bqAOxKmrWyx4GTZy5mSWqEl5OmznuEsGnaTGrX/7mj9WoXYO6YqQPwj4nOcf0s55GkppgDXE2auu8fZjlX7fo/d7Re7QLMHdM1zM9PeI7jZi9mSWqMY0lX/71ohvPUrv9zR+vVLsDcMVUHYAfgvxId/2uDFbMkNcrXSFMH/pjptz2vXf/njtarXYC5Y6oOwLmJjr0aePJgxSxJjbIvsIo0deE505yjdv2fO1qvdgHmjs07AL+W8NgfHbyYJalxPka6+vAlUxy/dv2fO7IqsaRs7EXkzjE2v7mERX4AFhP2dt4l8piSpE3dR1j7/55Jf9b19iVrfs4sT+tz2PhLUg6Lgc/gXijJ2AFI58+AF9dOQpI67DeBj9dOoivsAKTxXuA9tZOQpB54C/AHtZPoAucAxOe3F3ArMD8+FUnSANYA+wH/GXmcprcvzgFouA9g4y9JJc0D/rh2Em3nCECBVy0kSY3U9PbFEQBJkpSWHQBJknqoDfvLvwu4BriWsLWuJElNtT3wVODw2onMpg1zACa7i9AZmIjvEFaHiuEcAEnqp9g2cDvgYEJjPxH7k250PWsb3bYOwFRiOwV2ACSpn4ZpA3M39lOxAzCCzTsFVwL3TvN37QBIUj9N1wbWaOynYgcgkek6BU3JT5JU1hjNaeynYgcgo9sIe1ZLkvqn6W2AHQBJknooaxtd4jXAR4EFBc7TBo8ARwK31E5EkhpmP+Aqwmt0gpW5T1DiGcePCpyjDTYAJ2PjL0lT+XfgFYS6UvEbHc2qRAfgwgLnaIP3A+fXTkKSGuyfCRusCS6qnUAKSwg9uvEex9coM99CktpuDPg69evtmrEBODC2IJviU9Qv0FrxA2BRfBFKUm9sCyynfv1dKz4ZX4TNsTVwAfULtXQ8THifVJI0nAMIE6dr1+Ol49vAVgnKr1G2IowErKd+AZeIDcCLkpScJPXTb9CfR8jrgTPpYOM/2YHAGYTZ8F3+YN+fqLwkqc/+mPr1ea7YQHhMfAYVnvnXnpi2LXAIzVyCMcZXgFMIH7AkaXRjwF8Br6ycRwo5drQdWe0OwFTa3im4BDgBWF05D0nqii0Jr1EfXzuRITSqsZ9KEzsAU2lLp2A5sBR4qHYiktQx2wGXEtqCpml8Yz+VtnQAptK0TsFPgaNw5UNJymU3QuO6R8UcWtnYT6XNHYCp1OoUrACOAb6f+TyS1HdLgMsos2dAZxr7vtoeeAHhQ8sxi3MNcFyxq5EkPY9Q9+ao0+8DTsJNiTrhScC15PmirCdsXiFJKutU8r1Kfh2wV7ErURbPBO4m3/ubv1fuUiRJm3kN+RaXu492vXWgSV5HviGiDcDvl7sUSdI0fod8IwHrgNPo3ny5ztoKOJs8X4aJxv9Nxa5GkjSbN5N3ZdmvAAuKXY1GsjtwFfm+BOOE3qAkqVneSt66/3pg72JXo6HkfN4/Ee8tdjWSpGG9jbxtgPMCGuhtwFryfvDvKXY1kqRRvZe8bcFa4B3FrkbTyv28f5zwXMkPW5La443k33reeQEVlXjevxZ4dakLkiQlczL53gSbCOcFVPAc4F7yfrArgBNLXZAkKbkTCXV5zrbiXuC5pS6o73K+3z8RPyHsIyBJareDgTvJ22ZMrBegTEo8758Y0qm505QkKa1dge+Sv/34CrBNoWvqjSeRbz1/PzxJ6r6tgfPI345ci/sIJFPi/X6Xe5SkfijxGNn1AhIo8UHdT9haUpLUDyVvLDWkUs/7vw/sU+iaJEnNUeJV8nF8tDyUUh/K3+AiDpLUZyUnl7tewCx83i9JKs15AZX5vF+SVIvzAioo9WrGDTgEI0ma3pMIw/W526PzcF5Asef948BjwFeB44pcmSSpTQ4H/oL8SwdPRK/nBZQYbpkubiYMw+yY/SolSU21HeHxc4mF5qaK++jhTWmJ5/2OCkiSplL6bn+m6M28gFLP+0eJ64DfI/QIJUndsgh4A2We8Y8S5xHayE56AnAZ9Qt5tnBUQJK6o0l3+7PFlcAueYqhnv2AH1K/cIcN5wpIUvvUfrYfE7cDB6QvkjqOBB6kfqHGxErgLOCIxGUjSUrn6cAXCHV27XYjJh6gA+3NUcDD1C/MlOGogCQ1R5vv9meKhwg30K10NN1r/CeHcwUkqZ42PdsfNVYAz0pVYKUcSrcb/83DNwgkKb9FwO8TdnKtXe+XioeAg1MUXgm7Az+mfqHVCEcFJCm9PtztzxQ/ISxT3GhPAG4hXyFcA3wReDTjOVLFxKjAoqgSlaR+atPd/krC5MOc8xCW0+C5Z1sAF5Pv4s/ll4sktPGL8fQRy1WS+uRI2nOjdz1hcaGJG71tgC9lPN+FhLa2cc4gzwXPtkzixNBQG1778A0CSXq8iZn811G/np4tBnnUm3O5+48MVKIFvYw8FzrMRgld+wJJUtd1+QbumcA9mXJ55YA5ZHcgeYZqrmX0SQ9tHkKSpC7r0yPcvchzU7qSBqwWOJ88Gyt8lTSbIvTpiyZJTdbXG7NtgL/PkOO1wLwE+Y3sY1MkFRsfBMYy5NrXL58k1eJNWDAHOD1Dzh/OkOtAjgc2DJDgMPGOAnn7hZSkvLzhmtppiXNfDzynQN6bWAjcGZH0VPHWkhewkV9SSUrDm6vBvHOEfGeK2wiPGYr5eOILOL1k8lNo02YSvkEgqUm6PJM/l9SPz4s9CvhVwrv5qRL/O8LzkaZo05KTTfkyS+oXX7uOMwf4B9Jd41pC25XVXNLeJV9Bmtn+OUwMZ+V4yyF1TAxnVX8tRFKnHYSPTVPZBriSdNf7PTLfTP9OwmRvB3bKmWxCTyc0sE0f4loHnEnlV0Mkdc484FOESWe167mZom0Tp3cB7iDd9b86V6LbAXcnSnIt7fmAJltE6FE2fVTgYsJETUmKtRC4hPr12kzR9Lv9mRxFaBNTlMNPgW1zJPnhRAmOA3+YI8HCmj5X4HIyfREk9cYC8m7yFhNNfLY/qveRrlz+NHVyewCrEiV3KWEuQVc0eVTgMhwJkDSahYQ6pHY9tnm0+W5/OnOBZaTrGO2WMrnPJUrsIcLayF3VxFEBRwIkDatpd/5dutufzh7AA6Qpr0+lSmovYHWipE5NlVTDNW1UwJEASYNq0p1/F+/2Z/Jq0pTbakbfTG8TZyVKaBl51vhvuqaMCjgSIGk2Tbjz78Pd/nTGgH8jTTn+ZWwyewBrEiSyDjg0NpmWa8KogCMBkqZT+86/b3f70zmMNIvtrQF2j0nkowmSGCe8m65fqjkq4EiApM3VuvPv893+TD5FmvIdeYng7QiT9mITuA94wqhJdFytPQjsBEiaUKPxdxnzme0A3EN8OT/MiCMq70pw8nHgjFFO3kOlVxv0cYCkksP+bVulr7YzSFPubxv2xHNItzzhsmFP3nMlRwUcCZD6q9Sdv3f7o7mCNOV/G0PuEXBCohOPE5Y43G7oSxeUmStgJ0Dqn9yNv8/242xLmgn4EzHU5/D3CU88Drx02KvXJibeILiZPD9WHwdI/ZFz2P9mnMmfwstI+7n87aAn3oW0PY9xwvK/ipez1+5IgNR9OeuQZViHpJJq+H8iVgM7D3LityU+8UQ8daRi0GS5J+w4EiB1l/VHO/wqeT6ftwxy8u9mOvkVdGsToNJKTdhxJEDqHuuPdphDvk7aFbOdfG9gQ6aTD9wD0eOUfk/XH7HUHdYf7fFO8n0uG5hlM773ZDz5OOE5xAtHK5feqrVClz9iqf2sP9rjBMLbEzk/l3fOlECu4f/J8RjwgpGKp39qr83tMz2pvaw/2uMkYBX5P5NpHwMsBtYXSGCcMBTxF/jlmEkTduUax5681EbWH+2wDfAhyrW965hmaf5TCiUwOf4TeDew0ygl12G1e+6bhz15qT2sP5pvJ8LqiD+i/OfxsqkSOrdCIhOxCvhX4APA84EDgV2BrYcp0Y5o2o/XH7HUHtYfzbI18N+AgwiPvj8A/D/KDPdPF+dMJDc2KdG7gCcmvXRJsR4F7gQuAD4PLK+azeyWAK8lLD26F2EoWlJz3EXolPyiA/DfgX+vlo6kQawHPgu8g7BaZ5PMAz4OvJ4hNx6RVNy+wO0TP9Sja2YiaSBzgTcC36JZw6kLCTm9ARt/qQ2Ohl/+WJ9RMRHlswy3Y+6iZwHfpBmdgIWEXJ5VOxElZ/3RXZt0AI6omIjyWAacuDH8EXfPUup3AiYa/6UVc1Ae1h/ddgSEOQBbACuB+VXTUUqXE364Kzb+7wXAPwPH1kpI2VxBWEFsxWx/MTG/U91l/dF9jwHbziFMBrDx747Nf7wQZpKfBFxSIyFldTThFdqSi63YIHSX9Uc/bA3sPYfwfmKMtcCbCav7qa6pfrwT/BF3V8lOgI1/d1l/tMM48C7i3wQ6COI3ALpx48FeSegM1F5woq8x6EIbTV0oxCj3HRiV353uhvVHO2It8PKNn8WNkcd69xxgD+LctPE/zwGeS1hkQGVdTlhBceUAf3cl4ZnxJTkTUhVLCauM5RgJWAB8Ayf8dZH1RzvcSxihOW/j/7458ni7z2HjikARJidxKfA0wiYUKmMZw08Ce5SwLbOze7vnaOBfSDsSsJDwiOHYhMdUM1h/tMOFwCGEFUEn3DTN3x3UbgBXETeM8OIpDjwGnAr8LPLYxswRO+TrcF53I9XjAL8j3Q3rj+bHPYTH65OX7Z/wkshjXwlwR+RBjpkisQk7An8CPNiAguxaWMEbub8jfje6G9YfzY4HgT8Gdpih7J8ZeY7bAO6OPMiSGRKcsIiw9eHNlQu1K3Ex6Yd4L2nAdRnpY9SK3oq9u3Ex1h9NjeXAu4HtBij3JZHnugvg4ciDDDuH4DDgdMKjB98aGC7WAZ8kbLyS2jzgzI3nqH2dRtoYthNg49/NsP5oXqwltIUfAg4dssx3izz3w2OEdwm3HPLEk21DWFVoFNsCRxF6MvsSdiXck7BIwXaEiigmty54lPCYZmI72NiZn7M5iLCd6/G4nWuXTCztOttMb5f37Rbrj7rWEn5zjxDayf8kDL3fRpjEdwWDvX0xla2Bn0fmFt2DkZTOAsIQbY67jcuZ+RXBnOdeNsu5JQ0vuv22AyA1S41OgI2/1D52AKQOKtkJsPGX2skOgNRRJToBNv5Se9kBkDos54z8yzIfO+e+BJLsAEidl/MuPUd45y+VYQdA6oG2dAJs/KVy7ABIPdH0ToCNv1SWHQCpR5raCbDxl8qzAyD1TNM6ATb+Uh12AKQeakonwMZfqscOgNRTtTsBNv5SXXYApB6r1Qmw8ZfqswMg9VzpToCNv9QMdgAkFesE2PhLzWEHQBKQvxNg4y81ix0ASb+QqxNg4y81jx0ASZtI3Qmw8ZeayQ6ApMdJ1Qmw8Zeayw6ApCnFdgJs/KVmswMgaVqjdgJs/KXmswMgaUYLGa4TcPHGfyOp2ewASJrVPOBMYB3T/5bXAZ/c+HclNZ8dAEkDOxD4OHAjsHJj3LDxzw6omJek4UW132N0vxFfBTwMPLQx7gZuJlR6NwG3AmurZSdJqmFLYH/gIOBgQud4V2ARsP3G/9yqWnYF9KEDMJs1wBXAt4BvA9cCG6pmJElKbQ7wVOB5wPHA0fi4K/oRQNfiPuCvgeMIXxhJUjvNITT25xDq9trtS6PCEYCZ/RdwHuHLc0vlXCRJgzkQeCVwCrB75VwarXovpCWxDHjhiGUsScpvKfANwmPc2m1GG6J6Am2Lq4CX4OMBSWqCucBLgaup3z60Laon0Na4FngWkqRajgWuo3570NaonkDb4xvAPkiSStmDMDfLof64qJ5AF+Ix4DR8LCBJOc0F3kuoc2vX+12I6gl0Ka4A9kWSlNqewCXUr+e7FNUT6Fo8BJyMJCmVlxPq1tr1e9eiegJdjU/gIwFJijEGvJ/69XlXo3oCXY5zcKlJSRrFPOBc6tfjnQ1XAszvAuBFwM9rJyJJLbEN8E/Ac2sn0mUOUed3HPDF2klIUkuMAWdj45+dIwDl/BphzQBJ0vR+Hfi/tZPogxQdgLFZ/v/cx5/N1sATgMWEDSIOA54GHAXMjzz2ML5D2H5SkjS97wBHFjzfasIr3FcD1wM3A/cCDxDWG4jR9PY1eiJB7eOPagFhc5/PAfcnyHO2WA/snPF6JKntdiHUlbnr4/uBzwInEdqCXBrfvjY+wQLmEzb4OZ+8X76lha5HktroGPLVv+sJdfyLKTf62/j2tfEJFnYAcBawasR8Z4oTC16HJLXN80lf764CPg/sX/A6JjS+fW18gpXsTpiJmnJE4LCiVyBJ7XI46erb9YQ3sHYregWbanz72vgEKzsUuIz463gYFwWSpJnMBx4hvr69FDikcO5TaXz72vgEG2AO8A7idqD6QvGsJal9zmb0evbnwNtpzho3jW9fG59ggzwFuIPRvpR7lU9XklpnH0KdOWw9eztwUIV8Z9L49jV3gqsjj9+0YfMnAlcx3DW8rEqmktROLwE2MHgdexXhFcImmU9c27dqgHM0vgNwX+TxFw9wjtK2Ab7C7Ln/HBt/SRrFyQw2EvBlQp3cNDsT1/bdO8A5Gt8BuDPy+EcMcI5aXghczuPfFHiY8Mx/r2qZSVL77UWYyf8wm9ax64FlhIV8mupI4tq+2wc4R+M7AFdHHv93BjhHbTsBzwBOILzqt2XddCSpU7Yk1K0nEOraneqmM5DfJa7tu2qAczS+A/DlyON/ZYBzSJLUJF8lru07b4BzRLXfJV6VuDXy358ELEyRiCRJBSwgfuXXH6RIZCYlOgA3Rf77hcD/TJGIJEkFnEL8jevyFInMJvcjgJ0Y7nWOqeLf8bm6JKn55hMm8MW0eesJ29jPpvFzAABuSHCe0wY8lyRJtfwB8e3dtQOeqxUdgI8mOM8q4OgBzydJUmlLiV/8bhw4fcDztaIDkGqHp7uBPQY8pyRJpexJaKNStHWDbmTUig4AhMmAKQrmRuwESJKaY0/StXHfH+K8rekAvD3BuSbibnwcIEmqbylwD+nat7cMce7WdAAWEr8vwORYBbyH5m0WJEnqvnmECX8pnvlPxM8IawgMqjUdAIA/SnC+zeM2wnLBwxSaJEmjWAi8jvhX/aaKPxgyl6jzjTF8I765sSH+7vaElQF3jjznVFYC/wJcBFwP3AE8BKzJcC5JUvfNI7RbexP2IngO8Hzy3HDeBewPPDLEv4ltv4uOAACcmuCcTYqVhMkfZwBLRigPSdJglhDq2psIdW/t+j9lnDxCeUS339EHGNIY8G8JztvEWAecifMSJCmlecCnefzW612JixhuNH1CdPsdfYAR7A08mODcTY0LsBMgSSnMAy6kfr2eK+4HnjRi2US339EHGNFvEr9HQJPjkxFlI0kKPk39+jxXbAB+LaJsotvv6ANE+FCC8zc11gEHRZaPJPXZEkJdWrs+zxV/Elk+0e139AEijAFfSJBDU+NjkeUjSX32CerX47niXEZ77j9ZdPsdfYBIWwJfT5BHE+PGBOUjSX21nPr1eI74GrBFgvKJbr+jD5DAXODzCXJpWgzzPqckaVMrqF+Pp46/Jtz4phCVS4oeSArrCSsr3Q+8m/hhEeWxJWGhioOAg4EDgV2BRYTFMhYBW1XLTuqeVcDDhEXNHiIsFnMLcAPhXfhbgbXVsssv1U1mE4wDHwT+Nw25rtIrAQ7i14EvAjskPm4NNwFPqZ1EhDnAU4HnAccTNmDy9UapOVYDVwDf3hjXEmaWd8Vywo1G2z0AvBr4p8THje5IxA5n5LAXcEmC3GpHGycBziE09ueQdvMmwzDyx72EIebnEn7LbXcG9cs0Ni5i9Pf8ZxObW/wBMhkDXk4Y8qr9AY4S62hXz/VAwmuZP6Z+2RmGER8/Bv4MOID2avNrgD9ltOV9hxGbY/wBMlsE/CGhZ1v7Ax0mPpGjMDJ4DvCvdHtRJsPoc2wAvgk8m3Y6k/plOEz8jLCr37Y5CmMzsbnGH6CQhcBbCZNfan/A15TT5gAACTZJREFUs8W3STfLM4e5wEuBq6lfVoZhlIurgJfQrscD8wjLq9cuu9ni+8BbKLs1fWzO8Qeo4FDgw8B1NGtziHWEO/8mN/7HEsqtdlkZhlEvrgGOoT3mEZZXb9LjgPWEuvR04JB8lz6jqGto4lsAw1pM+CIfRHjW9WRgR8JraQvJP2t9JXAn8C3CqoY3Zz7fqPYhdJpeXDsRSY3xd4RXr++snMegDgJeQ5iovBehjs9pDaGOf4gwk/9W4AeEtxMuJby6XlNU+52iAzCfUEhqprmEH/gf4Tv6kh5vFfB+4M/p1iuEXTef8NmNLEUH4AmEnpGaZ0/C63zPqp2IpMb7DvAK4LbaiWggiwmT40eWYiLIjgmOofReTpgwaeMvaRBHEeYG5H51TWlEL5aXogOwb4JjKJ0xwnDeuYRXKCVpUIuALxEmM7fpTYE+2i/2ACk+4P0THENpzCMM+b+vdiKSWu3NwF/h0t9N9iuxB0jRATgqwTEUbyHwL4Shf0mK9QrgfPLPtNdootveFJMAfwY8McFxNLoFwD8T3vGXpJSuAE4gbM2rZhgD7gF2ijlIihGAnYEjEhxHo1lIWMr32Mp5SOqmowmji44ENMdRRDb+AFskSATCUNF3Ex1Lg1tIWON7aeHzTmxBejVwPWHxo3sJr4M+VjgXqcu2JrxqvZiwYddhwNMIDcD8gnksJdQ1JxIWxlFdr0h1oBRLIt5P2fWPFRr/yyi37OX9wGeBk/CzlmpbALwQ+Bzht1mqHrgMRwJq25Zws5Xi80z2xXh7zivWJko1/usJk4BeTNm7DUmDm0/Y4Od8yuyNYiegrneT7rNMdqCf4peihBKN/yrg8/iKp9Q2BwBnEX7DdgK6ZzvC5L/GdQDGgY/ku26Rv/FfD3wR2K3UBUnKYnfgbPKOCNgJKO8M0n6GSQ+2Bjg826X3W+7G/1LqbWkpKY9DyVtv2Ako5whgLQ3uAIwD/4FL0Ka2ALiYPD/gx4DTCLsGSuqeMeB1wKPkqUMuJ0xMUz7bA7eT/rPL8oX4J9K9Yth3Oe/8byfsry2p+54C3EGeusSRgHy2IEzwzPG5ZTnoOPAFQs9To8vZ+F8F7FLuUiQ1wBMJv307Ae0wRtiTIVc7ne3A48BfA1umLpGeyDnsvwyH7KS+ylm3+DggnbmEt7FyttFZDz4OfAPnBAwr552/vXRJ1jHNtj35hv2LdgDGgdsIy1dqdv4wJZVgXdNMR5Bnwl+1DsA44fWFTxAWMtDUHPaXVJKPA5pjAfAh0r/q14gOwETcDbwTe4ebszcuqQbrnrq2JSzvm3KFv8Z2ACbiAeDTwJH4toA/QEk1WQeVNUbYZvmzpNvYZ+gY2/hfaruXMAx1JfADwvOP+4AVhNUFuyznlr7LcPtOSYOxLkpvHuEOfzGwD2GvhiOBZ2/8s6qa0gGQJEkFzamdgCRJKs8OgCRJPWQHQJKkHrIDIElSD9kBkCSph+wASJLUQyk6AKsTHEOSJA0uuu1N0QE4HLguwXEkSdLslhMWFIqSogOwHDgK+DBhEwNJkpTeWsKGQYcD18ceLMVKgJPX8X8yYce/EyKPKUmSfuli4M3ATZP+LKr9Tj0J8IeE9Z5/Hbg28bElSeqba4AXAc9h08Y/WuoRgM3//AXAu4BnRp5DkqS+GAcuBf4cOH+WvzeynB2AyfYHXgucAjwx8nySJHXRXcCXgc8Dtw7w91vRAZgwB/hVwnDG8cChwBaR55ckqY3WAt8HvgV8Hbga2DDEv29VB2BzWxNmMx4O7AvsvTG2nRR2ECRJbbQOWDEp7gBuB24jzJO7Bngs4vit7gDI8pfUXtZfdTXqLQBJktQCdgAkSeohOwCSJPWQHQBJknrIDoAkST1kB0CSpB6yAyBJUg/ZAZAkqYfsAEiS1EN2ACRJ6iE7AJIk9ZAdAEmSesgOgCRJPWQHQJKkHrIDIElSD80B1kQeY9sUifTUdpH/fnWSLCRpNLYf9US3H3OAFZEH2SPy3/fZnpH/Pvazk6QYth/1RLcfc4AHIw/yvMh/32exZRf72UlSDNuPepK0H98ExiPiJmBuZCJ9NBdYTlzZn188a0n6JduPOpK0H3OAWyMTOQh4Q+Qx+uiNwIGRx4j97CQphu1HHcnaj98mrhcxTpgIclxkMn1yHKHMYsv9t0onLkmT2H6Ul7T92BnYkOBgq4E34XDOTLYA3kKaD289sLhs+pK0CduPcrK1H1cmOOBELAfeBiwBFqYvg9ZZSCiLtxP/zGZyXF7yIiRpGrYf+RRpP34/4YGNMvF6JKk+24/2xesBxjZ+gDsCPwIWoDZYATwJXwOUVJ/tR7v8ov2YWAr4AeAv6uWjIX0GG39JzWD70S6/aD/GJv3hrsAP8blL0z0C7Af8rHYikrSR7Uc7bNJ+TJ5xuRJYiyszNd1pwEW1k5CkSWw/2mHG9mNL4GrqT1Awpo7vEl4FkaSmsf1odjyu/Zj8CGDCvsA1wKIp/j/V8xDwVOCO2olI0jRsP5ppqPbjhYThnNo9FiPEWuD5M35iktQMth/NipHaj/9FmhWejLjYAJw6y2clSU1i+9GMiGo/XkmaZQeN0WId8NpZPyVJah7bjw60HycRnh/Uvpi+xYM47C+p3Ww/OtB+7AN8rwEX1Zf4LrD3QJ+MJDWb7UcH2o+JnYgebsAFdjVWEt7T9FU/SV1i+9GR9mMX4M8J6wnXvuCuxCPA6YStNSWpq2w/OtJ+7AC8AfgOzvYcJTYQtmR8/caylKS+sP1oQPsx1UJAo9gJeDZwJLA/4ZnPYmBbYF6ic7TVGkJv9z7gduAWwv7ZF2/8M0nqM9uP6dl+SJIkSZIkSZIkSZIkSZIkSZIkSZIkSZIkSZIkSZIkSZIkSZIkSZIkSZIkSZIkSZIkSZIkSZIkSZIkSZIkSZIkSZIkSZIkSZIkSZIkSZIkSZIkSZIkSZIkSZIkSZIkSZIkSZIkSZIkSZIkSZIkSZIkSZIkSZIkSZIkSZIkSZIkSZIkSZIkSZIkSZIkSZIkSZIkSZIkSZIkSZIkSZIkSZIkSZIkSZIkSZIkSZIkSZIkSZIkSZIkSZIkSZIkSZIkSZIkSZIkSZIkSZIkSZIkSZIkSZIkSZIkSZIkSZIkSZIkSZIkSZIkSZIkSZIkSZIkSS31/wED2OWiBqRnHwAAAABJRU5ErkJggg==;" parent="1" vertex="1">
          <mxGeometry x="224" y="50" width="52" height="52" as="geometry" />
        </mxCell>
        <mxCell id="kxb5aIU8mdvdAVlikhvM-5" value="" style="shape=image;verticalLabelPosition=bottom;labelBackgroundColor=default;verticalAlign=top;aspect=fixed;imageAspect=0;image=data:image/png,iVBORw0KGgoAAAANSUhEUgAAAgAAAAIACAMAAADDpiTIAAAAA3NCSVQICAjb4U/gAAAACXBIWXMAAA3XAAAN1wFCKJt4AAAAGXRFWHRTb2Z0d2FyZQB3d3cuaW5rc2NhcGUub3Jnm+48GgAAAelQTFRF////AAAAAAAAAAAAAAAAAAAAAAAAAAAAAAAAAAAAAAAAAAAAAAAAAAAAAAAAAAAAAAAAAAAAAAAAAAAAAAAAAAAAAAAAAAAAAAAAAAAAAAAAAAAAAAAAAAAAAAAAAAAAAAAAAAAAAAAAAAAAAAAAAAAAAAAAAAAAAAAAAAAAAAAAAAAAAAAAAAAAAAAAAAAAAAAAAAAAAAAAAAAAAAAAAAAAAAAAAAAAAAAAAAAAAAAAAAAAAAAAAAAAAAAAAAAAAAAAAAAAAAAAAAAAAAAAAAAAAAAAAAAAAAAAAAAAAAAAAAAAAAAAAAAAAAAAAAAAAAAAAAAAAAAAAAAAAAAAAAAAAAAAAAAAAAAAAAAAAAAAAAAAAAAAAAAAAAAAAAAAAAAAAAAAAAAAAAAAAAAAAAAAAAAAAAAAAAAAAAAAAAAAAAAAAAAAAAAAAAAAAAAAAAAAAAAAAAAAAAAAAAAAAAAAAAAAAAAAAAAAAAAAAAAAAAAAAAAAAAAAAAAAAAAAAAAAAAAAAAAAAAAAAAAAAAAAAAAAAAAAAAAAAAAAAAAAAAAAAAAAAAAAAAAAAAAAAAAAAAAAAAAAAAAAAAAAAAAAAAAAAAAAAAAAAAAAAAAAAAAAAAAAAAAAAAAAAAAAAAAAAAAAAAAAaLVX6QAAAKJ0Uk5TAAECAwQFBgcICQsNDg8RExUWGBkaGx4gISIjJCUoKissLS4vMjM0NTY3PD0+P0BBQkRHSElOUVRVVldYWVpbY2VoamtsbXBxcnR1eHl7fH5/gYKDhIeIiYuPkJKTl5manZ6ho6aoq7Cys7S2t7i5uru8vb7Ex8jJysvMzc7P0tPV19jZ293e4OHi4+Tm5+jq6+zt7u/w8fLz9PX2+fr7/P3+diz87QAADjlJREFUeNrt3ft7FdUVh/GVqFgql4oWAgqCgEERTVEwFBBoEfCG8QK1XhBvqFURo2gLKFWQKKJiFQPKLfOX9gdBuQSSmbPW3mvNft/fyTPP/n5Ecs6ZOSJERERERERERERERERERERERERERERERERERERERERERERERERERERERERERERERERERERERERERERERERERERERERERERERERERERERERERERE1KCJ85b2r9k4sGUrOW3LwMY1/UvnTdTfftLKF3YOjVQUopGhnS+snKS3/k3r3j3JqUbr5LvrbtJYf/ajH/FfftS/CT56dHZn69/wxOccY+w+f+KGxvNft/47DjB+362/rtn+/Qc5vHZ0sL/B/Es+5uDa08dLas5/21scWrt667Y6+286w4m1rTObxj3/hJc5rjb28oTx7X/jh5xVO/vwxvHsP3+Ik2prQ/PH3n/5Cc6pvZ1YPtb+m3ndt9WNbL76/s9xRG3vuavtv5bzaX9rr/Lq3ymOp/2duuKrgj1HOZ0SOtpzhfd+93M2ZbR/1HeIu9/kZErpze5RAGzlXMpp6+X7r+BUSmrFZR/5/ppDKamvL/3o+GOcSVk9dvH+U49xJGV1bCovAZfdRS8J93DjR3GdvPDloNc4j/J67ff9F/IecIGNLPwNwCCnUWKDv30IjLMos/MfEBvgKMps4ByAfXV/hRwil9V9MWffr/tPrwvnm9lCDpv9Td0lp4uIyPoKAWXuX60XEZFdFQLK3L/aJSIyuckHARHQhv2rU5NFZFWjf0AioAX7V9UqEXm9QkCp+1evi3T9VCGg1P2rn7pkRuOXERAQfv+qmiH3VQgod//qPtlQIaDc/asNsq1CQLn7V9s6fCsYAbH3rwZlT4WAcvev9siBCgHl7l8dkCMVAsrdvzoiwxUCyt2/GhaFz4MiIOz+1YhofLQIAVH3ryoVAAgIu78SAARE3V8LAAKC7q8GAAEx99cDgICQ+ysCQEDE/TUBICDg/qoAEBBvf10ACAi3vzIABETbXxsAAoLtPw4A235AQNT9f9imAGDdAgRE3X/BOg0AgoCo+4sOAARE3V8LAAKC7q8GAAEx99cDgICQ+ysCQEDE/TUBICDg/qoAEBBvf10ACAi3vzIABETbXxsAAoLtrw4AAbH21weAgFD7GwBAQKT9LQAgIND+JgAQEGd/GwAICLO/EQAERNnfCgACguxvBgABMfa3A4CAEPsbApCFCPC0/0JJDQABAfY3BYAA//vbAkCA+/2NASDA+/7WABDgfH9zAAjwvb89AAS43j8BAAR43j8FAAQ43j8JAAT43T8NAAS43T8RAAR43T8VAAQ43T8ZAAT43D8dAAS43D8hAFn4IwLS7f/j+PZPCQABDvdPCgAB/vZPCwAB7vZPDAAB3vZPDQABzvZPDgABvvZPD0DuQIDt/neIbwAI8LR/DgAIcLR/FgAI8LN/HgAIcLN/JgAI8LJ/LgAIcLJ/NgAI8LF/PgAIcLF/RgAI8LB/TgAIcLB/VgAIyL9/XgAIyL5/ZgAIyL1/bgAIyLx/dgAIyLt/fgAIyLq/AwAIyLm/BwAIyLi/CwAIyLe/DwAIyLa/EwAIyLW/FwAIyLS/GwDSi4C6+/dKmwAgIMv+jgCULiDP/p4AlC0g0/6uAJQsINf+vgCUKyDb/s4AlCog3/7eAJQpIOP+7gCUKCDn/v4AlCcg6/4OAUjvsaIE1Nz/mO7+HgGUJSDz/i4BlCQg9/4+AZQjIPv+TgGUIiD//l4BlCHAwf5uAZQgwMP+fgG0X4CL/R0DaLsAH/t7BtBuAU72dw2gzQK87O8bQHsFuNnfOQBZ1E4BdfdfJKUCaKcAR/u7B9BGAZ729w+gfQJc7R8AQNsE+No/AoB2CXC2fwgAbRLgbf8YANojwN3+QQC0RYC//aMAaIcAh/uHAdAGAR73jwMgvgCX+wcCEF2Az/0jAYgtwOn+oQBEFuB1/1gA4gpwu38wAFEF+N0/GoCYAhzvHw5ARAGe948HIJ4A1/sHBBBNgO/9IwKIJcD5/iEByJ1xBNTd/04BQJsEuN8/KABZWYUQUHP/aqUAYFzdcriKIKDu/tXhWwBgsn8eAbX3zyEgIoAG++cQ0GD/DAICApjVZP/0AhrtX1WHZwHAZP/UAhrun1xAOACN908roPH+qQVEA9DB/ikFdLB/YgHBAHS0fzoBHe2fVkAsAB3un0pAh/snFRAKQMf7pxHQ8f4pBUQCoLB/CgEK+ycUEAiAyv72AlT2TycgDgCl/a0FKO2fTEAYAGr72wpQ2z+VgCgAFPe3FKC4fyIBQQCo7m8nQHX/NAJiAFDe30qA8v5JBIQAoL6/jQD1/VMIiADAYH8LAQb7JxAQAIDJ/voCTPa3F+AfgNH+2gKM9jcX4B6A2f66Asz2txbgHYDh/poCDPc3FuAcQM39f96Q546Ruvd/bPjZjQDfAOru35fnnqH69//0uRHgGkD9/bPcNdbk/i83AjwDqLv/vSI5BDS7/+9eJwIcA5j1VZP9kwtoev9nTQFfzSoNQNP9Ewtofv+vDwFuATTfP6mATu7/diHAK4CZHeyfUEBn9//XFTCzHACd7Z9MQKfPf3AgwCeATvdPJKDz53/kF+ASQOf7JxGg8fyX7AI8AtDYP4EAnef/5BbgEIDO/uYCtJ7/lFmAPwBa+xsL0Hv+V14B7gDo7W8qQPP5b1kFeAOgub+hAN3n/+UU4AyA7v5mArSf/5hRgC8A2vsbCdB//mc+Aa4A6O9vIsDi+a/ZBHgCYLG/gQCb5//mEuAIgM3+6gKsnv+cSYAfAFb7Kwuwe/53HgFuANTd/54aP1tRgOXz3+/JIcALAMv9FQXYPv8/hwAnAGz3ry9g7ug/Zq7x9z9kEOADgPX+tQUMLxvthywbtt0/hwAXAOz3ry3g7OPXXPoTrnn8rPX+GQR4AJBi/9oCqs8e6Lrwj3c98Fllv396AQ4ApNm/voBq3yNzzv/ZOY/sq5Lsn1xAfgCp9m8goKqG3t7+zDPb3x6q/Qc7+P6vtAKyA0i3fyMBDevo+9+SCsgNIOX+6QR0+P1/KQVkBpB2/1QCOv7+x4QC8gJIvX8aAQrf/5lOQFYAM79MvX8KASrf/1pTwJczIwLoybC/vQCl7/+tK6AnHoA8+1sLUPv+50QC8gHItb+tAMXv/04jIBuAfPtbClD9/vckAnIByLm/nQDV/dMIyAQg7/5WApT3TyIgD4C6+y8RCSBAfX+RJeYCsgCouf8J/f0tBBjsL7LkhLGAHAA87K8vwGR/ewEZAPjYX1uA0f7mAtID8LK/rgCz/a0FJAfgZ39NAYb7GwtIDcDT/noCTPe3FZAYgK/9RXqPaux/tNf4Mg0FpAXgbX+RWw91vv+hW80v005AUgD+9heZ9kmn+38yLcFlmglICcDj/iKT3uts//cmJblMKwEJAfjcX6R785nm85/Z3J3oMo0EpAPgdX8RWdz4q8kOL053lTYCkgFwvL/I1B3N9t8xNeVVmghIBcD1/iKy6P3687+/KPFFWghIBMD7/iLSt7ve/Lv70l+jgYA0AALsLyLLPh3/JX66LMsl6gtIAiDG/iJdqw+O7woPru7KdInqAlIAiLK/iFy7fPu3Y13ft9uXX5vvCrUFJAAQaH8Rka7eJ/eOXOniRvY+2duV9/qUBdgDqLv/3ZK/m9e+cfzySzv+xtqbHVzc3aoCzAFE3F9ERKbM6Vu96dlXd+3fv+vVZzet7pszxcuVqQqwBjBjKOj+nqspYGhGPgDs712ALQD2dy/AFAD7+xdgCYD9AwgwBMD+EQTYAWD/EALMALB/DAFWANg/iAAjAOwfRYANAPYPI8AEAPvHEWABgP0DCTAAwP6RBOgDYP9QAtQBsH8sAdoA2D+YAGUAdfdfzHqZBegCYP9MLW4sQBUA+8cToAmA/QMKUATA/hEF6AFg/5AC1ACwf0wBWgDYP6gAJQA19z/O/jYCjtcWoAOA/cMKUAHA/nEFaADYyv5xBWxVADDC/nEFjD2e1NuX/YMJGFOIDLN/yQKG5Qj7lyzgiBxg/5IFHJC97F+ygL3yAfuXLOADeYn9SxbwkmxS2v8uVknZXUoCNsn97F+ygPulh/1LFtAj3cPsX66A4W6RHexfroAdIvIg+5cr4EERmXKa/UsVcHqKiMgg+5cqYFBERB5i/1IFPCQiItPZv1QB03/9Gfua/4QTQ5S5E83X23cO0UBFRTZwDsB8jqLM5p///8ggZ1Fig7/9Q2LhCKdRXiN3/P5Pydc4jvJ6/YLfJXpOch6ldWrWhb9NPseBlNbzF72cMPUYJ1JWw3+6+AWlxziSstp8ySuKE7/mTErqmz9e+pryCg6lpB68/F2Ff3Aq5fTPUd5W6v4X51JK714z2huLk/7LyZTRZ5NHf2t51v84mxL64dYrfbig7zSn0/5O/+XKHy/5O8fT/tZf7QNGL3I+be/Fq37CrOtpTqjdPd01xocM//oLh9Teflkx9sdMFxzmnNra4QXj+aDxtN2cVDvbPW18HzW//hXOqo29cv247zZ4+CzH1bbOPlznfpPb3+HE2tU7t9e85ahvD4fWnvb01b/prGvVIQ6uHR1a1dXovsMJG77n8OL3/YYJjW89nfzUFxxg7L54anJntx/P3fwf7hsK2si/H5+rcQv6n/+28xSnGa2T76y7We8xBJNWvrBziL8JovzKP7Tz+f4b9B9GMXHe0v41Gwe2bCWnbRnYuKZ/6bw/8OAUIiIiIiIiIiIiIiIiIiIiIiIiIiIiIiIiIiIiIiIiIiIiIiIiIiIiIiIiIiIiIiIiIiIiIiIiIiIiIiIiIiIiIiIiIiIiIiIiIiIiIiIiIiIioib9H/OKlU8I+jPsAAAAAElFTkSuQmCC;" parent="1" vertex="1">
          <mxGeometry x="407" y="84" width="32" height="32" as="geometry" />
        </mxCell>
        <mxCell id="kxb5aIU8mdvdAVlikhvM-11" value="" style="edgeStyle=orthogonalEdgeStyle;rounded=0;orthogonalLoop=1;jettySize=auto;html=1;" parent="1" source="kxb5aIU8mdvdAVlikhvM-6" edge="1">
          <mxGeometry relative="1" as="geometry">
            <mxPoint x="560" y="190" as="targetPoint" />
          </mxGeometry>
        </mxCell>
        <mxCell id="kxb5aIU8mdvdAVlikhvM-46" value="NÃ£o" style="edgeLabel;html=1;align=center;verticalAlign=middle;resizable=0;points=[];" parent="kxb5aIU8mdvdAVlikhvM-11" vertex="1" connectable="0">
          <mxGeometry x="-0.32" y="2" relative="1" as="geometry">
            <mxPoint as="offset" />
          </mxGeometry>
        </mxCell>
        <mxCell id="kxb5aIU8mdvdAVlikhvM-17" value="" style="edgeStyle=orthogonalEdgeStyle;rounded=0;orthogonalLoop=1;jettySize=auto;html=1;" parent="1" source="kxb5aIU8mdvdAVlikhvM-6" target="kxb5aIU8mdvdAVlikhvM-13" edge="1">
          <mxGeometry relative="1" as="geometry" />
        </mxCell>
        <mxCell id="kxb5aIU8mdvdAVlikhvM-45" value="Sim" style="edgeLabel;html=1;align=center;verticalAlign=middle;resizable=0;points=[];" parent="kxb5aIU8mdvdAVlikhvM-17" vertex="1" connectable="0">
          <mxGeometry x="-0.1511" y="-4" relative="1" as="geometry">
            <mxPoint as="offset" />
          </mxGeometry>
        </mxCell>
        <mxCell id="kxb5aIU8mdvdAVlikhvM-6" value="" style="rhombus;whiteSpace=wrap;html=1;" parent="1" vertex="1">
          <mxGeometry x="520" y="60" width="80" height="80" as="geometry" />
        </mxCell>
        <mxCell id="kxb5aIU8mdvdAVlikhvM-12" value="Envio automatico&lt;div&gt;dos dados ao&lt;/div&gt;&lt;div&gt;sistema&lt;/div&gt;" style="text;html=1;align=center;verticalAlign=middle;resizable=0;points=[];autosize=1;strokeColor=none;fillColor=none;" parent="1" vertex="1">
          <mxGeometry x="363" y="125" width="120" height="60" as="geometry" />
        </mxCell>
        <mxCell id="kxb5aIU8mdvdAVlikhvM-26" value="" style="edgeStyle=orthogonalEdgeStyle;rounded=0;orthogonalLoop=1;jettySize=auto;html=1;entryX=0;entryY=0.5;entryDx=0;entryDy=0;" parent="1" source="kxb5aIU8mdvdAVlikhvM-13" target="kxb5aIU8mdvdAVlikhvM-21" edge="1">
          <mxGeometry relative="1" as="geometry">
            <mxPoint x="940" y="100" as="targetPoint" />
          </mxGeometry>
        </mxCell>
        <mxCell id="kxb5aIU8mdvdAVlikhvM-13" value="&lt;div&gt;&lt;br&gt;&lt;/div&gt;&lt;div&gt;&lt;br&gt;&lt;/div&gt;&lt;div&gt;&lt;br&gt;&lt;/div&gt;&lt;div&gt;&lt;br&gt;&lt;/div&gt;Processamento e analise&lt;div&gt;preventiva dos dados&lt;/div&gt;&lt;div&gt;recebidos&lt;/div&gt;" style="rounded=1;whiteSpace=wrap;html=1;" parent="1" vertex="1">
          <mxGeometry x="690" y="45" width="140" height="110" as="geometry" />
        </mxCell>
        <mxCell id="kxb5aIU8mdvdAVlikhvM-14" value="" style="shape=image;verticalLabelPosition=bottom;labelBackgroundColor=default;verticalAlign=top;aspect=fixed;imageAspect=0;image=data:image/png,iVBORw0KGgoAAAANSUhEUgAAAgAAAAIACAYAAAD0eNT6AAAABHNCSVQICAgIfAhkiAAAAAlwSFlzAAAN1wAADdcBQiibeAAAABl0RVh0U29mdHdhcmUAd3d3Lmlua3NjYXBlLm9yZ5vuPBoAACAASURBVHic7d13tG1lee/x78OhNwEFwYKoKEVURDGKogw1YuxRjCHGEh1Y0IhITGxRTMZVNFbsol5rlGG7Ika5V70qCCJG5aogNsAuIuXAgUM5PPePOQ/7tL33anO9s3w/Y+xxGMLZ++dea67nt975rjkjM5E0HxGxAvgL4IANvnYtmauAPwE/2uDr7MxcUzSVNCBhAZDmIyIeA5wA7F86S0udB7w0M79QOog0BBYAqWERcTDwH8CDS2fpiG8AL8nMc0oHkfpss9IBpD6LiFcBZ+PwH8eDgbPr352khrgCIDUkIv4ROLF0jo57YWa+vXQIqY8sAFIDIuIpwEeBKJ2l4xJ4amZ+vHQQqW8sANKMRcThwKnA5qWz9MSNwKMz87TSQaQ+sQBIMxQRAfwY2K90lp75CbB/+oIlzYybAKXZejgO/ybsC/xV6RBSn1gApNl6UekAPXZs6QBSn3gKQJqRiNgHOB83/jXpHpn5w9IhpD5wBUCanaNw+DftOaUDSH1hAZBm5yGlAwyAv2NpRjwFIM1AROwE/BlL9TzcOjMvKR1C6jpfrKTZeCAeT/PyoNIBpD7wBUuaDa/1Pz/+rqUZsABIs+FQmh9/19IMuAdAmlJE7ABcDqwonWUgEtg1M/9cOojUZa4ASNN7AA7/eQrg0NIhpK6zAEjTc0l6/vydS1OyAEjTcxjNn79zaUruAZCmEBHbAlcAW5TOMjA3Abtk5pWlg0hd5QqANJ1DcPiXsBnuA5CmYgGQpuNSdDn+7qUpWACk6TiEyvF3L03BPQDShCJia6rz/1uVzjJQa4CdM/Oq0kGkLnIFQJrc/XD4l7SC6hoMkiZgAZAm501pyvMxkCZkAZAm5zno8nwMpAm5B0CaQERsSXX+f5vSWQbuBmCnzLymdBCpa1wBkCZzMA7/NtgCuH/pEFIXWQCkybj03B4+FtIELADSZBw67eFjIU3APQDSmCJic6rz/9uVziIArqPaB7C6dBCpS1wBkMZ3bxz+bbIV8BelQ0hdYwGQxueSc/v4mEhjsgBI43PYtI+PiTQm9wBIY4iIFcBlwI6ls2g911LtA7i+dBCpK1wBkMZzIA7/NtqG6toMkkZkAZDG41Jze/nYSGOwAEjjcci0l4+NNAb3AEgjiogA/gzsXDqLNulqYOfMvLF0EKkLXAGQRncPHP5ttj3VNRokjcACII3OJeb28zGSRmQBkEbncGk/HyNpRO4BkEZQn///I7Br6Sxa0pXALTNzTekgUtu5AiCNZj8c/l1wC+CepUNIXWABkEbj0nJ3+FhJI7AASKNxqHSHj5U0AvcASCOIiN8Du5fOoZFcBtwqfXGTluQKgLSMiLgrDv8u2QW4e+kQUttZAKTluaTcPT5m0jIsANLyHCbd42MmLcM9ANIyIuLXwO1K59BY/pSZu5UOIbWZBaDFImI34JHAo4B9gFX119X1n2cCH8/MK4qF7LmIuBPwi9I5NJG7ZeZ5pUP0RURsTvVa9ESqe2JsA2xbf60Evgx8MTPPLRZSY7EAtExEbAEcCxwB3AeIZf7KauCzwAeA/+vO59mKiH8APlg6hyZydGa+u3SIrouIOwPPAp4B7DHCX/kN8EXghMy8qLlkmpYFoEUiYh/gP4GDJvwWPwP+KTNPmV2qYYuIDwFPL51DEzk5M/+2dIiuqle/3gw8luXfiGzKSuD5mfmxmQbTzLgJsCUi4jnA95h8+APcBfh8RJxat3ZNz81k3fWg0gG6KCK2jojjgR8Dj2Oy4Q+wI/DRiPjPiLjFrPJpdlwBKCwitgY+Djxhxt96NfAG4HWZuXrG33sQImJP4OLSOTSVfTLzp6VDdEVEPAZ4G3DHGX/ri4HHZOYPZ/x9NQVXAAqqh///YvbDH2Br4FXAefVBrfH57r/7fAxHEBF3iohTgVOY/fAHuAPw1YjwAk0tYgEoZJ3hf3jDP+qOwCn1aYE7Nfyz+sbh0X0+hkuol/tfQ7Xc/6iGf9yuWAJaxVMABcxx+G9oNfB6qt25nhZYRkT8DNi7dA5N5TeZefvSIdooIh4LvJVm3vEv5U/AQz0dUJ4FYM4KDv91XQgck5lfKJih1SLiNsBvS+fQTNw5M39ZOkRb1BuE30bz7/iXYgloAU8BzFFLhj8snBb4gqcFFuUO8v7wsQQiYpuI+Dfms9y/HE8HtIAFYE5aNPzX9WjgxxFxfJ1PCzx33B+Dfywj4nHAecC/AlsVjrOWJaAwTwHMQUuH/4Z+SXVa4NTSQdogIs4D9iudQzNxYWYOcqUrIvamWu5/ZOksS/B0QCEWgIZ1ZPiv61SqIjDYc6b1PRj+WDqHZmrPzPx16RDzEhHbAC8HXkJ73vEvxRJQgKcAGtTB4Q8LpwVePeDTAp4z7p/BnAaIiMdTLfe/km4Mf/B0QBEWgIZ0dPivtTVwPFUReHThLCUMZlgMSO8f04jYOyL+C/gcsFfhOJOwBMyZBaABHR/+67oT8IWIOCUi5v1Z4ZJ6PywGqLePab27/9+BHwF/VTrPlCwBc2QBmLEeDf91PYbqksK9PS1QXxHtyRHxReCA0nk0c3eJiC9HxN9FxLalw8xKRPw1cD7dWu5fjiVgTtwEOEM9Hf4b+iXwwsz8YukgsxARDwSeBvwN4B3LhuEq4NPAR4BvZAdfBCPiLsCJwCNKZ2mQGwMbZgGYkYEM/3V9gerTAheWDjKu+uJHT6Ua/IP8eJhudjHwUeCjXbhrYL168XLgn+jPO/6lWAIaZAGYgQEO/7VWA68D3tD2ewtExI5U7/KfBjyQye9xrv76NtWqwMmZeVnpMBuql/vfCuxZOsucWQIaYgGY0oCH/7p+QbUa0KrTAhGxAng41dB/HLBN2UTqiOuprofxYeBLmXlDyTD1cv/bGfZrjCWgARaAKTj8N3IKVRG4qGSIiLgH1dB/CrB7ySzqvEuBTwAfyczvzvMH18v9r6Ba7t9ynj+7pSwBM2YBmJDDf1HXAicAr8/M6+b1Q+vH45nAUcCB8/q5GpQfUN1O+1OZuabJHxQRTwDewvCW+5djCZghC8AEHP4j+QXVpwX+q8kfEhHbAc8DjsN3+5qPXwBvAD4865IbEXelWu5/+Cy/b89YAmbEAjAmh//YGjktEBG3AF4AHAvccpbfWxrR74E3A+/NzKum+Ub1cv8rqYqsy/3LswTMgAVgDA7/iV3LwqcFpnrHFBG3BF4E/CN+bl/tcDnwTuBtmXnpuH85Ip5Itdx/+1kH6zlLwJQsACNy+M/ExKcFIuLWVJuhngtsP+tg0gxcA7wfeOModx6MiH2olvv/sulgPWYJmIIFYAQO/5n7PPCiUU4LRMTtqW5pehTVTYqktrsB+DjVRtifbPgv630rrwRejMv9s2AJmJAFYBkO/8YseVqgvlrfS4Gn44ukuimp7sx3QmaeAxARR1DtG3C5f7YsAROwACzB4T8XP6c6LfAlgIjYl+pSp0cCm5cMJs3QV6kKwcNKB+kxS8CYLACLcPjP3eeB64Aj8C6VkiZjCRiDBWATHP6S1FmWgBH5TmsDDn9J6rRdga9GxN1LB2k7C8A6HP6S1AuWgBFYAGoOf0nqFUvAMiwAOPwlqacsAUsYfAFw+EtSr1kCFjHoAuDwl6RBsARswmALgMNfkgbFErCBQRYAh78kDZIlYB2DKwAOf0kaNEtAbVAFwOEvScISAAyoADj8JUnrGHwJGEQBcPhLkjZh0CWg9wXA4S9JWsJgS0CvC4DDX5I0gkGWgN4WgIjYCoe/JGk0a0vAAaWDzEtvCwBwAg5/SdLodgU+FxHblw4yD70sABHxcOCY0jkkSZ2zN/C20iHmITKzdIaZiohbAf8P2KN0FklSZz0xMz9bOkST+rgC8H4c/pKk6ZwUEbcpHaJJvSoAEbE/8LjSOSRJnbcL8NzSIZrUqwIAPKp0AElSb/R6plgAJEnatHtFRG9PKfemAETETsADSueQJPVGAI8sHaIpvSkAwGHA5qVDSJJ65S9LB2hKnwrAVqUDSJJ6p7ezpU8F4JrSASRJvdPb2WIBkCRpcb2dLRYASZIW19vZ0qcC8KfSASRJvdPb2dKbApCZPwe+WzqHJKk3Evhk6RBN6U0BqJ1UOoAkqTe+Xr+57KW+FYBPAKtKh5Ak9UKv31T2qgBk5lXAyaVzSJI67zLA2wF3zJuBG0uHkCR12omZeV3pEE3qXQHIzB8Dby+dQ5LUWb8EXl86RNMiM0tnmLmI2BG4ANi9dBZJUuc8JjNPLR2iab1bAQDIzJXAS0rnkCR1zqlDGP7Q0xWAtSLim8ChpXNIkjphNXC3zPxl6SDz0MsVgHU8H1hTOoQkqRNOGMrwh54XgMz8IfCO0jkkSa03iI1/6+r1KQCAiLgF1YbAW5fOIklqrUFs/FtXr1cAADLzSuCfS+eQJLXWF4Y2/GEAKwAAERHA6cADSmeRJLXKamD/zLywdJB56/0KAEBWLccNgZKkDZ0wxOEPAykAAJl5LvCu0jkkSa0xuI1/6xrEKYC1ImInqg2Bu5XOIkkqbnAb/9Y1mBUAgMy8AviX0jkkScUNcuPfuga1AgA3bwg8AzikdBZJUhGD3fi3rkGtAMDNGwJfgBsCJWmoBrvxb12DWwFYKyLeQfXJAEnScPyS6nr/q0sHKW3IBWBnqg2Bu5bOIkmam0Fv/FvX4E4BrJWZlwMvLZ1DkjQ3g9/4t67BrgDAzRsCzwTuVzqLJKlRbvzbwGBXAGC9KwTeVDqLJKlRbvzbwKBXANaKiHcBzyudQ5LUCDf+bYIFgJs3BP4UuFXpLJKkmXPj3yYM+hTAWvWGwJeVziFJmjk3/i3CFYBavSHw28B9S2eRJM2EG/+W4ApAzQ2BktQ7bvxbgisAG4iI9wDPKZ1DkjQVN/4twwKwgYjYhWpD4C1LZ5EkTezRmfnF0iHazFMAG8jMy4CXl84hSZrYFxz+y3MFYBMiYjOqDYEHl84iSRqLG/9G5ArAJmTmTVQbAm1HktQtr3P4j8YVgCVExPuAo0rnkCSNxI1/Y7AALCEibkm1IXCX0lmkZayiur31BcBFwErgKuDq+s/F/hlgB2D7+s/F/nlHYC9gn/pru8b/H0njc+PfGCwAy4iI5wLvLp1Dojol9SuqIf8TFgb+BZn5m3kGiYjbsVAG9gH2rf/cE4h5ZpFqX8jMx5YO0SUWgGXUGwK/A9y7dBYNzmrgW8DX6q9zM/PaspGWFhHbAPcEHlJ/PQDYumgoDYEb/yZgARhBRPwFcBa+s1GzbqAqm2sH/lmZeV3ZSNOJiK2A+7NQCO4LbFE0lPro1Zn5b6VDdI0FYEQR8X7gWaVzqHfOA75INfBPz8xVhfM0KiK2Aw6lKgOPAvYvm0g94Ma/CVkARhQRt6LaELhz6SzqvEuATwAfyczvlQ5TUkQcBDwNOBLYrXAcdZMb/yZkARhDRBwNvLN0DnXSauAU4CPAaZl5Y+E8rRIRmwOHU5WBx+K+AY3mlMx8XOkQXWUBGEO9IfC7wL1KZ1EnJHAG1dD/VGZeWThPJ0TELYAnUZWBB+LeG23atVRL/278m5AFYEwRcX+qndm+KGkx1wInAW/1xWk6EXFH4EVUF+TapnActYsb/6ZkAZhARHwQ+IfSOdQ6VwPvAt6UmZeUDtMnEbEbcBxwNNXFiTRsvwAOcOPfdCwAE4iIXak2BO5UOota4QrgROBt9d0k1ZD6dt3HAC/E42/I3Pg3AxaACUXEC4C3l86hoi4F3gy8MzNXlg4zJBGxI9UNu14M3KpwHM2XG/9mxAIwoYhYQbUh8MDSWTR3lwKvBd6bmdeUDjNkEbEt8Bzg5VgEhsCNfzPk7YAnlJlr8JbBQ5NUm/v2ycy3OPzLy8xrMvMtVPchOAmPx757m8N/diwAU8jMM6k+4qX++wFwSGY+2/P87ZOZl2Xms4FDqB4r9dMBpQP0iacAphQRt6a6I9stSmdRI1YC/0p1nn9N6TBaXn167vnAv1Pdxlj9kcA9M/OHpYP0gSsAU8rMPwKvKp1DjfgksG9mnujw747MXJOZJ1LdoviTpfNopgJ4WekQfWEBmI1flA6gmboAeFhmHpmZvy8dRpPJzN9n5pHAw6geU/XD30TEnUuH6AMLwGy8pHQAzcx7gQMz86ulg2g26sfyQKrHVt23AviX0iH6wD0AU4qIg6nu4a5uuwo4KjNPLh1EzYmIJ1N9WmCH0lk0leuBO2bm70oH6TJXAKbnu//u+x5wkMO//+rH+CCqx1zdtSXVpaE1BVcAphARd6K6JPCK0lk0sXcCx2XmdaWDaH4iYivgTVSfFlA3rQL29GO5k3MFYDovxuHfVVcCR2TmCxz+w5OZ12XmC4AjqJ4L6p7tqO4JoQm5AjChiLgl8Ctg29JZNLZzgCd7RTHBzbccPhk4uHQWje0y4A6ZeXXpIF3kCsDkno/Dv4s+DRzq8Nda9XPhUKrnhrplF+C5pUN0lSsAE4iIbYCLgV1LZ9FY3g28IDNvKh1E7RMRmwHvAJ5XOovG8nuqTwR4Km9MrgBM5uk4/Lvm+Mw82uGvxWTmTZl5NHB86Swayx7AM0qH6CJXAMZUv0u4ANi7dBaN5Cbg6Mz0IjAaWUQ8B3gXvknqil8Cd/WS3ePxyT2+x+Pw74rrgCc5/DWu+jnzJKrnkNrvTsCTS4foGlcAxhQRZwH3K51Dy1oJPC4zv146iLorIg4DPo93FeyCH2bmPUqH6BJXAMYQEQ/E4d8FfwQe5PDXtOrn0IOonlNqt7vXl2bXiCwA4zmmdAAtayVweGaeWzqI+qF+Lh1O9dxSuz2tdIAu8RTAiCJiJ+APwFals2hR1wGP8J2/mlCfDvgyvga02aXAbTLzhtJBusAVgNE9CQ/8NrsJ+DuHv5pSP7f+juq5pna6FfDI0iG6wgIwuqeWDqAlHZ2Zny0dQv1WP8eOLp1DS/I0wIg8BTCCiLgDcCEQpbNok47PzNeUDqHhiIhX4wWD2up6YA/vErg8VwBG8/c4/Nvq3Q5/zVv9nHt36RzapC3xmgAjcQVgBBFxPrBv6RzayKep7urnOVnNXX1V0JOpbimsdjk7M/3I9jIsAMuIiPtQ3T5W7XIO1V39vFKbiomIrYDT8VbCbbRPZv60dIg28xTA8tz81z5XUr3zd/irqPo5+GSq56Taxc2Ay7AALCEiNgf+tnQObeRZ9T3cpeLq5+KzSufQRv4+Ity7tQQLwNIeDuxWOoTW887M/EzpENK66ufkO0vn0HruADy4dIg2swAs7e9LB9B6vgccVzqEtIjjqJ6jag9PAyzBTYCLiIgdqG4Ask3pLALgKuCgzPx56SDSYiJib6oSsEPpLAKq143dM/Oa0kHayBWAxT0Rh3+bHOXwV9vVz9GjSufQzXYAHl86RFtZABbn7v/2eG9mnlw6hDSK+rn63tI5dDNPAyzCUwC1eunuMKpNIw8Gbl80kNa6ADgwM1eXDiKNKiK2Bn4A7FM6iwD4GfCNtV+Z+evCeVphsAUgIvZh/YF/m6KBtJiHZeZXS4eQxhURDwW+UjqHNulCFgrB1zPzorJxyhhEAag/C7o/C8P+wcCti4bSKD6ZmUeWDiFNKiI+gdcS6YJfsf4KwSD2G/WyANQD/+4sDPsHAbsWDaVxrQT2zczflw4iTSoi9gB+AuxYOovG8jvWLwQ/KZynEb0oAPVNOe7J+gN/l6KhNK1jMvPE0iGkaUXEC4G3lc6hqfwR+CYLpeDH2YPh2ckCEBErgHuxMPAPBXYqGkqz9APgPpm5pnQQaVr169V3gQNLZ9HMXMr6heCHXbwraScKQH1N/ntTDfvDgAfgklpfJXBIZn67dBBpViLifsCZgNem76fLqe4KubYQ/KALb2BaWQAiYguq22uuHfiHANuXzKS5OSkzn106hDRrEfE+vEjQUKwEzmChEPx3Zt5YNtLGWlEA6ntq35eFj+XdH9i2ZCYVcSnVPbwvKx1EmrWI2IXquha3Kp1Fc3c18C0WCsE5mXlD2UiFCkB9kYz7s3AO/37A1nMPorZ5cWa+pXQIqSkRcSzw5tI5VNw1wFksFIKzM/O6eYeYSwGIiG2plvHXDvz7Als1/oPVJZcCd/CmHeqz+rXwYlwF0PpWA2ezUAjOysxrm/6hjRSAiNieaqPe2oF/MLDFzH+Q+uTlmfm60iGkpkXEy4DXls6hVrse+A4LheDMzFw16x8ykwIQETsCD2Rh4N8b2Hzqb6yhuILq3f/K0kGkptWvlxfjR5c1uhupPkq6thCckZlXTftNJyoAEbET1Wfv1w78ewErpg2jwfq3zHx16RDSvETEa4BXlc6hzloDfJ+FQnB6Zl4x7jcZuQDUN885CngocA+8lbBm42qqd//u/Ndg1J8IuBg/3qzZuAk4F/ga1UepLxjlLy05xKNyeER8CTgfOI7qalYOf83Kuxz+Gpr6Of+u0jnUG5tRrcQfB5wfEV+qZ/eSF55adAUgIg4H3gLsN+ukUu1aYK/MvKR0EGneImI34CJgm8JR1F/nA8dm5mmb+pebfCcfEU8BTsXhr2ad5PDXUNXP/ZNK51Cv7QecWs/0jWy0AhAR/0h15yqvWa0mJXDnzLywdBCplIi4I/ALfL1Vs5LqDqtvX/d/XG8FICJeBZyIT0Y17wyHv4auPgbOKJ1DvRfAifWMv9nNBSAiDgaOn3MoDddHSgeQWsJjQfNyfD3rgXVOAUTE16k+0y81bTWwe2ZeWTqIVFpE3AL4A94PRfPxjcw8DOoVgIh4DA5/zc8pDn+pUh8Lp5TOocF4cD3z2SwiVgAnFA6kYXHJU1qfx4Tm6YSIWBFUd+n7Vuk0GoxLgNtm5o2lg0htERGbA78FdiudRYPxgM2AA0qn0KB8wuEvra8+Jj5ROocG5QALgObNpU5p0zw2NE8WAM3VeZn5vdIhpDaqj43zSufQYFgANFdfLB1AajmPEc3LAZsBu5ZOocH4WukAUst5jGhedg2qawRLTbsB2DkzV5UOIrVVRGwHXA5sUTqL+m+TdwOUGvAdh7+0tPoY+U7pHBoGC4DmxaVNaTQeK5oLC4DmxRc1aTQeK5oL9wBoHlYDO2XmdaWDSG0XEVsBV+DNgdQwVwA0D99y+EujqY8VL8+uxlkANA8uaUrj8ZhR4ywAmgdfzKTxeMyoce4BUNMS2C4zry0dROqKiNgGWEX1Gi01whUANe1XDn9pPPUx86vSOdRvFgA17YLSAaSO8thRoywAatpPSgeQOspjR42yAKhpvouRJuOxo0ZZANQ0X8SkyXjsqFEWADXNFzFpMh47apQfA1STVmXm9qVDSF0VEVcD25XOoX5yBUBN8h2MNB2PITXGAqAm+eIlTcdjSI2xAKhJF5UOIHXcRaUDqL8sAGrSytIBpI7zGFJjLABq0lWlA0gd5zGkxlgA1KSrSweQOs5jSI2xAKhJvnuRpuMxpMZYANQkX7yk6XgMqTEWADXJ5UtpOh5DaowFQE3y3Ys0HY8hNcYCoCb54iVNx2NIjbEAqEkuX0rT8RhSYywAapLvXqTpeAypMRYASZIGyAKgJu1QOoDUcR5DaowFQE3avnQAqeM8htQYC4Ca5LsXaToeQ2qMBUBN8sVLmo7HkBpjAVCTXL6UpuMxpMZYANQk371I0/EYUmMsAGqSL17SdDyG1BgLgJrk8qU0HY8hNcYCoCb57kWajseQGmMBUJN2LB1A6jiPITXGAqAm7VU6gNRxe5UOoP6yAKhJ+5QOIHWcx5AaE0CWDqHeWpWZbmKSJhQRVwPblc6hfnIFQE3aLiJuVzqE1EX1sePwV2MsAGqaS5jSZDx21CgLgJrmi5g0GY8dNcoCoKb5IiZNxmNHjbIAqGn7lg4gdZTHjhplAVDTfBcjTcZjR43yY4BqWgLbZea1pYNIXRER2wCrqF6jpUa4AqCmBXDP0iGkjrknDn81zAKgeXhI6QBSx3jMqHEWAM2DL2bSeDxm1Dj3AGgeVgM7ZeZ1pYNIbRcRWwFXAFuXzqJ+cwVA87A1cP/SIaSOuD8Of82BBUDz4pKmNBqPFc2FBUDz4ouaNBqPFc2FewA0LzcAO2fmqtJBpLaKiO2Ay4EtSmdR/7kCoHnZAji0dAip5Q7F4a852Qz4U+kQGgyXNqWleYxoXv60GfCj0ik0GI8qHUBqOY8RzcuPLACap/0j4qDSIaQ2qo+N/Uvn0GBYADR3TysdQGopjw3NkwVAc3dkRGxeOoTUJvUxcWTpHBqUH20GnA2cVzqJBmM34PDSIaSWOZzq2JDm4Tzg7M0ycw3w0tJpNCgudUrr85jQPL00M9dEZnUdoIj4OvDgopE0FKuB3TPzytJBpNIi4hbAH/D6/5qPb2TmYbD+hYBeglcF1HxsDTypdAipJZ6Ew1/zkVSzHlinAGTmOcDxBQJpmFzylCoeC5qX4+tZD8DNpwBu/h8i/hF4G9V9AqSmJHDnzLywdBCplIi4I/ALfL1VsxI4JjPfvu7/uNG9AOr/4KnAjXMKpmEK4EWlQ0iFvQiHv5p1I/DUDYc/bGIF4OZ/EXE48BZgv2azacCuBfbKzEtKB5HmLSJ2Ay4CtikcRf11PnBsZp62qX+56N0A679wN+ARwJdxg6BmbxvguNIhpEKOw+Gv2Uuqmf0I4G6LDX9YYgVgo/8wYh/gKKq7Vd0TbyWs2bgauENmXlY6iDQvEbELcDGwfeks6oWbgHOBrwEnZeYFo/ylkQvAen8pYieq+1Y/uP66F7Bi7G8kVf4tM19dOoQ0LxHxGuBVpXOos9YA3we+UX+dnplXjPtNJioAG32TiB2AB7JQCO4NbDH1N9ZQXEG1CrCydBCpaRGxI9W7/51KZ1Fn3Ah8l4WBf0ZmXjXtN51JAdjom0ZsBxzCQiG4L7DlzH+Q+uTlmfm60iGkpkXEy4DXls6hVrse+A4LA//MzFw16x/SSAHY6IdEbAPcj4VCcD+88pXWdynVKsA1pYNITYmIbane/d+qdBa14Zvy9wAAFgpJREFUymqqG/OtHfhnZea1Tf/QuRSAjX5oxFZUqwJrC8EhwLZzD6K2eXFmvqV0CKkpEXEs8ObSOVTcNcBZLAz8szPzunmHKFIANgoRsQVwH+AwqkLwANwdO0SXAvv4iQD1Ub3z/wJ89z9EVwPfYmHgn5OZN5SN1JICsKGI2Bw4iIUVggcCtygaSvNyUmY+u3QIadYi4n1UH6VW/60EzmBh4P93Zrbu6rqtLAAbiojNgANZKASHArsUDaWmJHBIZn67dBBpViLifsCZeNnfvrocOJ2Fgf+DzFxTNtLyOlEANhQRAdydhULwIGDXoqE0Sz8A7tOFA0haTkSsoPoI14Gls2hmLgW+ycLA/2Fm3lQ20vg6WQA2JSL2Z6EQPBjYvWwiTemYzDyxdAhpWhHxQqo7rKq7/sj6A//H2YPh2ZsCsKGIuCvrF4LblU2kMa0E9s3M35cOIk0qIvYAfgLsWDqLxvI7Fob9NzLzJ4XzNKK3BWBDEXFn1i8EdyibSCP4ZGYeWTqENKmI+ATwt6VzaFm/Yv2B//PCeeZiMAVgQxFxB9YvBHcum0iLeFhmfrV0CGlcEfFQ4Culc2iTLmRh4H89My8qG6eMwRaADUXEbVm/EOxTNpFqFwAHZubq0kGkUUXE1lSbWX0daYefsf47/F8XztMKFoBFRMTngceWziEA3puZzy0dQhpVRLwHeE7pHALgf2fm4aVDtNFmpQO02EdKB9DNnhMRTy4dQhpF/Vx1+LeHr+WLcAVgERGxJfAHYOfSWQTAVcBBQ9mco26KiL2B7wE7lM4ioHrd2N2bjG2aKwCLyMzrgZNL59DNdgBOrm8kJbVO/dw8GYd/m3zG4b84C8DSXDpql4OAN5UOIS3iTVTPUbWHr+FL8BTAMiLip8BdSufQeo7IzM+UDiGtFRFPBD5dOofW82vgDn24Yl9TXAFY3kdLB9BGPhARdywdQgKon4sfKJ1DG/mYw39prgAsIyL2An6Jd/Fqm3OAQzPzutJBNFz1ef/TgYNLZ9FG9uvrJXxnxRWAZdRXiDq9dA5t5GDgY/WtoqW5q597H8Ph30bnOPyX54vnaNxI0k5HAO8oHUKD9Q6q56Dax9fsEXgKYAQRsSPVNQG2KZ1Fm3R8Zr6mdAgNR0S8Gji+dA5t0g3AbTLz0tJB2s4VgBFk5krg86VzaFHHR4RXXtNc1M+140vn0KK+5PAfjQVgdC4ptdu7IuIJpUOo3+rn2LtK59CSfK0ekacARhQRK4DfALuXzqJFXQc8IjO/XjqI+iciDgO+DHg1yva6HNjDTweNxhWAEWXmGuA/S+fQkrYCPh8R9ywdRP1SP6c+j8O/7U52+I/OAjAel5bab0fgNEuAZqV+Lp1G9dxSu/kaPQYLwBgy81zg3NI5tKxbA9+sl2ylidXPoW9SPafUbt/PzLNKh+gSC8D4vBlNN+wIfNmNgZpU/dz5Mr7z74oTSgfoGjcBjikiNgd+BuxVOIpGcxNwdGa+t3QQdUf9Ub934ZukrvgZsG9m3lQ6SJf45B5TZt4IvKF0Do1sM+A99YVbpGXVz5X34Otjl7zB4T8+VwAmEBFbAxfiRwK75t3AC3yh0KbU1/Z/B/C80lk0lt8Cd8rM60sH6Rob7gQyczXw5tI5NLbnASfXd3CTblY/J07G4d9Fb3b4T8YVgAlFxA7AxcDOpbNobOcAT87MC0sHUXkRcUeq4e9d/brnMmDPzFxVOkgXuQIwocy8Cu9E11UHA9+PiCeWDqKy6ufA93H4d9XbHf6TcwVgChFxS6pVgO1KZ9HE3gkc59XDhqVe8n8T8PzSWTSxVVTv/i8rHaSrXAGYQmb+GXhf6RyayvOBMyNi79JBNB/1Y30mDv+ue5/DfzquAEwpIm4L/BLYsnQWTeUq4KjMPLl0EDUnIp4MnATsUDqLpnI91c7/35YO0mWuAEypfgJ6/enu2wH4ZES8p/6Yp3okIraOiPcAn8Th3wcfdfhPzxWAGaiXFH8CrCidRTNxAfD8zPxq6SCaXkQ8lGqvxz6ls2gmbqK66t/PSgfpOlcAZiAzfw58qnQOzcw+wFci4hMRsUfpMJpMROwREZ8AvoLDv08+4/CfDVcAZiQi7oF3CuyjlcC/Au/MzDWlw2h5EbGCaoPfv+ONfProoMz8fukQfWABmKGIOBV4VOkcasQPgOdl5rdLB9HiIuJ+VJd8PrB0FjXiZ5l519Ih+sJTALP1xtIB1JgDqT4u+L6I2KV0GK0vInaJiPdRfbzP4d9fd4mIvy4doi8sALP18NIB1KgAjgIuiIhjI2Lb0oGGLiK2jYhjqTZuHkX1GKnf3uqxNxueApiRiLgr8EO8HsCQXEp1U6h3ZubK0mGGJCJ2pDrP/2LgVoXjaP7+R2a+snSIrrMAzEhEnIYrAEN1BXAi8DavTNas+vTLMcALgZ0Kx1E51wMH+GmA6VgAZqC+ocinS+dQcVcD7wLelJmXlA7TJxGxG3AccDSwfeE4aofTMvMRpUN0mQVgSvW5qPOBPUtnUWtcS3W52bd6y+Hp1LfqfRHV+f1tCsdR+zwhMz9XOkRXWQCmFBGvBV5WOodaKYEzqC4V/anMvLJwnk6IiFsATwKeBjwQN/Zpcb8C9svMa0oH6SILwBTc+KcxrAZOoSoDp2XmjYXztEpEbA4cTjX0Hwt4PwaN6rWZ+YrSIbrIAjAFN/5pQpcAnwA+kpnfKx2mpIg4iGroHwnsVjiOuskNgROyAEwoIp4AfKZ0DnXeecAXga8Bp2fmqsJ5GhUR2wGHAg+humrm/mUTqSfcEDgBC8AE3PinhtwAfIeqDHwNOCszrysbaToRsRVwf6qB/xDgvsAWRUOpr9wQOCYLwATc+Kc5WQ18i4VCcG5mXls20tIiYhvgniwM/Afg+XzNhxsCx2QBGJMb/1RQUr3IXQD8pP7zAuCCzPzNPINExO2obrG79mvf+s89cde+ynFD4BgsAGNy459aahULheAiqtsYX0V1caKrlvhngB2oLq6zwxL/vCOwFwsDf7vG/x9J43ND4BgsAGNw458ktZ4bAkdkARiRG/8kqTOemJmfLR2i7bwd8OhegcNfkrrgLd4yeHkWgBHUG//+qXQOSdJI9qR606YleApgBBHxZarLlEqSusENgctwBWAZ9cY/h78kdcuWwNtLh2gzVwCW4MY/Seo8NwQuwhWApbnxT5K6zQ2Bi7AALCIi7oIb/ySp69wQuAhPASzCjX+S1BvXA3fPzJ+WDtImrgBsghv/JKlXtgROLB2ibVwB2IAb/ySpt9wQuA5XADbmxj9J6ic3BK7DArAON/5JUq+5IXAdngJYhxv/JKn33BBYcwWg5sY/SRoENwTWXAHAjX+SNECD3xDoCkDFjX+SNCyD3xA4+ALgxj9JGqTBbwgc/CkAN/5J0mANekPgoFcAIuKvcfhL0lAN+pbBg10BcOOfJKk2yA2BQ14BcOOfJAkGuiFwkAXAjX+SpHXsCbyydIh5G+QpADf+SZI2MLgNgYNbAXDjnyRpEwa3IXBQKwBu/JMkLeOIzPxM6RDzMLQVgJfj8JckLe7NQ9kQOJgCUG/8e0npHJKkVhvMhsDBnAKIiC8BjyidQ5LUeoPYEDiIFYCI+Csc/pKk0WwJ/EfpEE0bRAEAnls6gCSpUx4dEb3eM9b7AhARewCPLJ1DktQpmwHPKh2iSb0vAMAzgM1Lh5Akdc4zI2JF6RBN6XUBiIgAnlk6hySpk25Hj/eP9boAALcF9i4dQpLUWYeVDtCUvheA7UsHkCR1Wm8vCtT3ArBd6QCSpE6zAHSUBUCSNA0LQEd5CkCSNA0LQEddVDqAJKnTLiwdoCm9LgCZeR6WAEnS5L5YOkBTel0Aar198CRJjVoFfL10iKZYACRJ2rSvZuZ1pUM0ZQgF4P8CV5YOIUnqnM+VDtCk3heAzFwNPL90DklSp3wD+EjpEE2KzCydYS4i4mPAU0rnkCS13uXAPTPz16WDNKn3KwDrOJoef5xDkjQzz+n78IcBFYDMXEm1AnB96SySpNZ6f2Z+qnSIeRhMAQDIzLOAJ2EJkCRt7NPA80qHmJdBFQCAzDwFS4AkaX2fBo7MzBtLB5mXwRUAsARIktYzuOEPAy0AYAmQJAHwGQY4/GHABQAsAZI0cJ8B/naIwx8GXgDAEiBJAzXo4Q8WAMASIEkDM/jhDxaAm1kCJGkQHP41C8A6LAGS1GsO/3VYADZgCZCkXnL4b8ACsAmWAEnqlc/i8N+IBWARlgBJ6oXPAk92+G/MArAES4AkdZrDfwkWgGVYAiSpkxz+y7AAjMASIEmd4jn/EVgARmQJkKROWDv8bygdpO0sAGOwBEhSq30Oh//ILABjsgRImtBNwKWlQ/TY56jO+Tv8R2QBmIAloDHnAE8B/qt0EGmGbgQ+BOwP7AWcgK8ds+bwn0BkZukMnRURjwU+BWxZOkvH/Rl4OfD+zLwJICIOBF4GHIFFVd10HfBB4PWZefG6/yIi9gHeDvxliWA94/CfkAVgSpaAqdwEnAS8PDMv29R/EBF3Af4FeCr+jtUNq4D3Am/MzN8v9R9GxBHAm4HbzyNYDzn8p2ABmAFLwES+Azw/M787yn8cEbcDjgOeDWzbZDBpQldSvat/a2b+edS/FBHbAa8EXoyvIeNw+E/JAjAjloCR/Zlqaf/9OcGTLyJuBRwDvADYacbZpElcCrwFeEdmrpz0m3haYCwO/xmwAMyQJWBJNwHvA16x2HL/OCJiB+B5VO+abj3t95Mm8DvgjcB7M/OaWX1TTwss638Bf+Pwn54FYMYsAZt0NtVy/3/P+htHxNbAM4GXUO2wlpp2IfB64EOZeV0TP8DTAoty+M+QBaABloCbXUq13P+BSZb7xxERmwNHAv8MHNDkz9Jg/TdwIvCf87rErKcF1uPwnzELQEMGXgJmutw/roi4N/A0qkKw67x/vnrld8DHgI9k5o9LhfC0gMO/CRaABg20BDS23D+uiNgCeARVGXgMsFXZROqIa6k2mX0Y+Mraa1OUNuDTAg7/hlgAGjagEnAp8FLgg00v908iInYG/oaqDBxSOI7aJ4HTqYb+pzLzqsJ5FjWw0wIO/wZZAOag5yXgJqqLnrwiMy8vHWYUEbE31YWFngrcsXAclfUL4CNUS/wXFc4ylgGcFvg88CSHf3MsAHPS0xLwbarl/u+VDjKJiAjgUKpVgScBO5ZNpDm5EjiZauh/q3SYafT4tIDDfw4sAHPUoxLwJ6rl/v/ZxuX+SdQfJ3w8VRl4BBBlE2nGEvgS1bv9z2fm6sJ5ZqpnpwUc/nNiAZizjpeAm4D3AK/synL/JCLi/wF3L51DM/XDzLxH6RBNi4gnUl2VsKunBRz+c+Rd1uasw7cSPgu4T2Y+v8/Dv/aN0gE0c4N4TDPzM8B+dPOWww7/ObMAFNCxEvAnqivtPSAzv186zJwMYlgMzGAe08xclZkvo1rF+j+l84zI4V+ApwAKavnpgDUsLPdfUTrMPEXEbsAfS+fQTN06My8pHaKEDpwWcPgX4gpAQS1eCTiTarn/BUMb/gD1oDi/dA7NzPlDHf5w82mBfYHX0b7XmlNw+BdjASisZSXgEuAfgAdm5g9KhylsMEvGAzD4xzIzr8nMl1OdFvjfpfPUTgGOcPiXYwFogRaUgDXAO4B9MvNDfflo35QGPzR6xMeylpk/zczDgSOAXxeM4vBvAfcAtEihPQFnUl3MZ+jv+NcTEbcBfls6h2bitpn5u9Ih2iYitqW6iNBxzPc1x+HfEq4AtMicVwIuAZ6By/2bVA+Mn5fOoan93OG/aYVOC3jOv0UsAC0zhxKwhuqKYXfNzA+73L8kl467z8dwGXM8LbB2+Ldhv5OwALRSXQIeQXUv8ln6FnDvzHxhZl454+/dRw6P7vMxHFGDnxZI4G04/FvHPQAtFhG3BN5PdY36afwR+Gfgo77jH11E7AlcXDqHpnKHzPxV6RBdExF3pVopfPiU3+oPwDMy87TpU2nWLAAdEBHPprqQx7Zj/tXfAR8E3ug7/slExIXAXqVzaCIXZaa3e55CRDweeBHwIMa/QdYpwLMy89KZB9NMWAA6IiJ2Bx4FPBJ4GIvfuvYG4FTgA8CXM3PNfBL2U0R8CHh66RyayIcz8xmlQ/RBROxNdUnwpwO3WeI//QHV688XM/Pb88imyVkAOigitgAOAQ4ArgWuWefPc4d81bNZi4h/oFpFUfc8MzP/Z+kQfRIRK4D7ATsD2wPb1X9eBZyWmX50tkMsANISIuJOwC9K59BE7pyZvywdQmorC4C0jIj4NXC70jk0lt9kZltvfiO1gh8DlJbnR8m6x8dMWoYFQFqew6R7fMykZVgApOU5TLrHx0xahnsApBFExO+B3Uvn0Ej+kJl7lA4htZ0rANJofEfZHT5W0ggsANJoHCrd4WMljcACII3GodIdPlbSCNwDII0gIoLqpkq7ls6iJf0JuLU3vZKW5wqANIJ6oJxeOoeWdbrDXxqNBUAanUvL7edjJI3IAiCNzuHSfj5G0ojcAyCNqN4H8GeqO6GpfS4HbukpAGk0rgBII3IfQOt5/l8agwVAGo9LzO3lYyONwQIgjcch014+NtIY3AMgjSEiVgCXATuWzqL1rAR2ycw1pYNIXeEKgDSGesCcUTqHNnKGw18ajwVAGp9Lze3jYyKNyQIgjc9h0z4+JtKY3AMgjSkiNgeuALYrnUUArAJ2yswbSweRusQVAGlM9aD5Vukcutm3HP7S+CwA0mRccm4PHwtpAhYAaTIOnfbwsZAm4B4AaQIRsSXVPoBtSmcZuGupzv9fXzqI1DWuAEgTqAfOWaVziLMc/tJkLADS5Fx6Ls/HQJqQBUCa3DdLB5CPgTQp9wBIE4qIran2AWxVOstAXUd1/n916SBSF7kCIE2oHjzfKZ1jwL7j8JcmZwGQpuM56HL83UtTsABI03EIlePvXpqCewCkKUTEtlT7ALYonWVgbqA6/39N6SBSV7kCIE2hHkDfLZ1jgL7r8JemYwGQpudS9Pz5O5emZAGQpucwmj9/59KU3AMgTSkidgAuB1aUzjIQa4CdM/Oq0kGkLnMFQJpSPYi+VzrHgHzP4S9NzwIgzYZL0vPj71qaAQuANBsOpfnxdy3NgHsApBmIiJ2AP2OpbtpNwC0z84rSQaSu88VKmoF6IJ1bOscAnOvwl2bDAiDNztdKBxgAf8fSjHgKQJqRiNgHOB+I0ll6KoH9MvOC0kGkPnAFQJqRejCdVjpHj53m8JdmxwIgzdZbSwfoMX+30gx5CkCaoYgI4MfAfqWz9Mz5wN3SFyxpZlwBkGaoHlDHAjeWztIjNwLHOvyl2bIASDOWmacBz6DatKbpJPCM+ncqaYYsAFIDMvPjwDGlc/TAMfXvUtKMWQCkhmTm24FX40rAJBJ4df07lNQANwFKDYuIg4H/AB5cOktHfAN4SWaeUzqI1GeuAEgNy8xzMvMw4LHAeYXjtNl5wGMz8zCHv9Q8VwCkOYqIFcBfAAds8LVryVwF/An40QZfZ2fmmqKppAH5//O1yx6iptcVAAAAAElFTkSuQmCC;" parent="1" vertex="1">
          <mxGeometry x="735" y="60" width="50" height="50" as="geometry" />
        </mxCell>
        <mxCell id="kxb5aIU8mdvdAVlikhvM-28" value="" style="edgeStyle=orthogonalEdgeStyle;rounded=0;orthogonalLoop=1;jettySize=auto;html=1;entryX=1;entryY=0.5;entryDx=0;entryDy=0;" parent="1" source="kxb5aIU8mdvdAVlikhvM-15" target="kxb5aIU8mdvdAVlikhvM-19" edge="1">
          <mxGeometry relative="1" as="geometry">
            <mxPoint x="849" y="420" as="targetPoint" />
          </mxGeometry>
        </mxCell>
        <mxCell id="kxb5aIU8mdvdAVlikhvM-15" value="&lt;div&gt;&lt;br&gt;&lt;/div&gt;&lt;div&gt;&lt;br&gt;&lt;/div&gt;&lt;div&gt;&lt;br&gt;&lt;/div&gt;&lt;div&gt;&lt;br&gt;&lt;/div&gt;&lt;div&gt;&lt;br&gt;&lt;/div&gt;Dados da intervenÃ§Ã£o" style="rounded=1;whiteSpace=wrap;html=1;" parent="1" vertex="1">
          <mxGeometry x="959" y="365" width="140" height="110" as="geometry" />
        </mxCell>
        <mxCell id="kxb5aIU8mdvdAVlikhvM-16" value="" style="shape=image;verticalLabelPosition=bottom;labelBackgroundColor=default;verticalAlign=top;aspect=fixed;imageAspect=0;image=data:image/png,iVBORw0KGgoAAAANSUhEUgAAAgAAAAIACAYAAAD0eNT6AAAABHNCSVQICAgIfAhkiAAAAAlwSFlzAAAN1wAADdcBQiibeAAAABl0RVh0U29mdHdhcmUAd3d3Lmlua3NjYXBlLm9yZ5vuPBoAACAASURBVHic7J13mGVF8Ybfj4wEUcmgIAgoUXIQBQERlZwUkKQSRAkKChhQUAyAoj8TIiqiKIJhSaISlSAiIJKzgCTJScn7/f7os7KuM7szt/vcc8699T7PfQbd7eqanTu361RXfSXbBEHQDiS9DFgFeAPwyiler5rifwM8OcLrfuCm6nUzcKvtZ/v3XQRB0AUUAUAQNIek1wJrTvZaAZih8DYTgTuAK4DzgPNs31x4jyAIOkYEAEHQRyTNC7wHWA9YA5ivIVfuJgUD5wKn2360IT+CIGiICACCoGYkzQRsDOwMvJPyT/i5PAecAZwA/Mb28w37EwRBH4gAIAhqQtLKpEN/e9L9fRd4GDgJ+IHtK5t2JgiC+ogAIAgKImlGYHdgT2DZht3J5ffAF2z/oWlHgiAoTwQAQVAISdsAXwQWb9qXwlwMHG77rKYdCYKgHBEABEEmkt4MHAms3rQvNXMFsK/ti5t2JAiCfKZr2oEg6CqSXi9pAvBHBv/wB1gZuFDSD6tuhiAIOkxkAIJgnEiaE/gy8AHaV9HfLx4DPgkcY3ti084EQTB+IgAIgnFQVfb/nMG75++Vy4HtbN/atCNBEIyPuAIIgjEiaR/gEuLwn5xVgCslvadpR4IgGB+RAQiCaSDpFcAPgM2b9qXlHEsqEnymaUeCIJg2EQAEwVSQtAZJGGeRpn3pCNcAW8esgSBoP3EFEASjIOkjwIXE4T8elgMukbRa044EQTB1IgMQBCMg6VDgkAZd+DvwF1Lv/T3Ao1O8HgNmARaoXguO8vW1NNOp8C9gS9u/b2DvIAjGQAQAQTAFkg4DPt3HLV8ELgDOJ1XVX2774RKGq/qFjYHNgI2A2UrYHSPPAzvb/lkf9wyCYIxEABAEkyHpc8Cn+rCVgT8BPwNOsf3PujeUNAuwASkY2BToh5iPgb1tf6sPewVBMA4iAAiCCkmHA5+oeZt/AN8CTrJ9Z817jYqk6YA1gW1Iw4tmrXE7A7va/lGNewRBME4iAAgCQNIXgINr3OIe4AvAcbafq3GfcSNpQeBQYFdg+pq2eYFUE3B6TfaDIBgnEQAEQ0/Naf/7SBMCj7X9bE17FEHS60lByhY1bfEMsKHtC2uyHwTBOIgAIBhqJG0F/KIG088DnweO6JowjqQ1SbMO3lyD+ceBdWz/rQbbQRCMgwgAgqFF0mLAlcDLC5u+mlT9flVhu31F0sbAV4AlC5u+E1jR9qOF7QZBMA5CCCgYSiTNDJxC2cP/ReBwYNWuH/4Ats8AVgXOKmx6EeD4wjaDIBgnEQAEw8pXgZUK2rsdWNP2p9pW5JeD7SdIOgJHFTa9qaT9C9sMgmAcxBVAMHRI2pY00rcUVwLv7Ecvf5NI2ok08GfmQiafB95i+9JC9oIgGAcRAARDhaQlSPK6cxQy+XtgK9tPFbLXaqrhSL8G5i9k8i5geduPF7IXBMEYiSuAYGiQND3pyb/U4f9jYONhOfwBqqf1VUlBVAleQ+qWCIKgz0QAEAwT7wNWLGTraFKl//OF7HUG23eTWgQvLmRyL0krF7IVBMEYiSuAYCiQNBtwC2lCXi4/A3bwkP/ySJqHNLGwxLjky4HVbU8sYCsIgjEQGYBgWDiAMof/hSRd+6E+/AFsPwhsApS4AlkF2LOAnSAIxkhkAIKBR9L8wK3kj8K9CVjL9iP5Xg0OkjYlFQbmPlA8DixeahRyEARTJzIAwTBwKPmH/4OkVr84/KfA9mmUmaL4cmDfAnaCIBgDkQEIBhpJS5OkeXOn3G1k+3cFXBpYJP0I2CnTzGPAIpUAURAENRIZgGAgkDS9pDkqid/JOYL8w/9HcfiPid2BP2XamAvYq4AvQRBMg8gABK1G0pzAEpO9lgQWBOasXnNUXydP8U8kjZ59GnhVpgv3A0vH4JqxIWlJ4DpghgwzDwCL2n66jFdBEIxEBABBa5A0A7Ay8NbqtQIwX6NOJZW/XzXsQ6eQ9C3yn+L3tv3NEv4EQTAyEQAEjVLd0b+TdOC/mXIqfSX4he1tmnaia0ial9R1kfOzvNb2coVcCoJgBKIGIOg7kuaX9BFJV5LSxUeSgoA2Hf4Ar5e0m6SXNe1Il7D9AOlnmsOykkpOawyCYAoiAxD0BUmzAFsBOwIbkF+Y108eI82v/7btWxr2pRNUQdOt5Ikv/Z/taAsMgpqIACColaqI74PAfpSbINcUBs4GvgmcGbK1U0fSbqTxwb3yILDQMM5bCIJ+EAFAUAvVPfC+wIdIAi+Dxp3Ad4Dv236oaWfaSDV98Wpg6Qwzm1VCQ0EQFCZqAIKiSJpL0tHAHSR1uEE8/CENwPkScJukfavDLpgM2y8Cn8408+4SvgRB8L9EBiAogiQBuwBfBuZp1ptGuAr4oO1Lm3akTUiaiZTKn7NHE/+03cqrI0kzkoYYLQ3MTXrfzwPMCNwH3APcW329xfb9DbkaBCMSAUCQTTXL/ZvAGk370jAGjgMOipkBLyHpp8B2GSaWtX1dKX9ykLQEsA2wLrAWY58xYeAK4DTgVNtX1+JgEIyDCACCnqkqvY8kjXGN66SXeAg4EPhhjA0GSdsCP88wsY/tb5TypxckrU8qZH0XoAIm7wS+Bxxt+98F7AXBuIkAIOgJSSsAJwGvb9qXFnMJ6VpgqJ/2JM1BugaYck7DWDnV9uYFXRozktYFvg4sX9MW9wKHAMdXNRNB0DfiqS0YN5I+BPyZOPynxVrAFZL2bNqRJrH9JHBehol1JPX1s0rS3JKOB86nvsMf0lyL44C/Sdqgxn2C4H+IACAYM5JeKWkC6b6/16e5YWMG4DuSvtbvQ6xl/Dpj7VykIVB9QdImwI3Azv3aE1gG+J2kg/q4ZzDkDPMHUjAOJC0FXA5s1rQvo/Ai8K+mnZgK+wKnVenwYeQ00pTGXlmqlCNTo8pu/Zr8KZK9MB3wRUknSpq1gf2DISNnZGcwJEhaEzidZj4UIY32vRG4qfp6I0lm9lHgSeDJSaNjq7azeYB5R3gtDKwNvKbP/k/iXcBFkjaxfVdDPjSC7X9KupR0LdILtQYAVRvrEcABde4zRrYHlpS0qe37mnYmGFwiAAimiqTNgJ8B/X4ieYAUdJwKnDPW2fC2nyP1Xd8z2t+RtDiwXvV6K/0dObw8cFn14X5ZH/dtA3+ipQEA7Tn8J7EKcIakN0eXQFAX0QUQjIqkDwLfoH+De24iHfinApf2S2tf0jK8FBC8g/7UNzwD7Gz75D7s1Qok7Q8c1ePyi22vXdKfSUjamTTsqY2cArw72kmDOogAIBgRSR8BvtqHra4k9YifavumPuw3VSTND+xD0jZ4Rc3bGfiI7a/XvE8rkLQd8NMelz9ku7jCZHW9dT7tLmr9rO1Dm3YiGDwiAAj+B0nvJ7Um1clNwCds/6rmfXpC0uzAB4CPUG/NgIFtbf+ixj1aQdVTf36GiZmrK54iSJoNuAF4dSmbNWFgU9tnNO1IMFhEF0DwX0h6N3kjXKfFfaSn62XbevgD2H7K9teAxYEdSFr/dSDgx5KGQUb53sz1pTsoPkX7D39I75GvVbMHgqAYkQEI/oOkd5FaoOr4oHmCVGjVWelTSe8AjqGejMCDwBq2b6/BdiuoWiCfyDDxWtt3FPJlKdKo4plK2OsTH7b9raadCAaHCAAC4D93oecBsxQ2/RzwbeBw2w8Vtt13JM0J/B/1iMTcBKxp+9EabLcCSU8Cs/e4fHnb1xTy40zgnSVs9ZEHgMVtP9W0I2OhmhWyJrAQsAAwf/X1FaR5GfdVr/uBu4A/l7ziCaZNBAABkuYB/kr6RS3J34CtbN9W2G7jSNqcdFVSujDtj8DbBvWDUNLNwBI9Ln+T7UsK+LA4cAtlhvpM4jaSUNZfSPoUKwOrkto+SxYYtrogUNKrgE2AzYENGV/78BPAmcAE4KxKQjqokQgAhpxKnvb3wPqFTf8K2Ml2m9X5spA0L2mi26aFTZ9o+72FbbYCSRcA6/S4fCPbvyvgwxeBEpK7L5LaGo8YbfxzdW+/CfAt0hNwLvcBC7WtLVDSasBhwAaUaRt+lqQeeYjtGwvYC0YgigCDwyh7+LuyufUgH/4Ath+wvRnwfpIiYSl2kNTap7xMHstYm309VR3Iu+baIV3XrG37oNEOfwDbz1fFrsuQBLVyWQBYvYCdIkhaUtIppOFgb6ecZsjMwDbAtZKOlbRgIbvBZEQGYIipiv5Op1wq9N/ALrZPKWSvM0h6PXAuabpbCSaSUt6XFrKXhaTFSAfnKqT0dvGe/DFwGekJOIeXA+tm2pgAbGf7mfEulLQL8MPM/Y+wfWCmjSyqFsojgd3oj6Lsv0m6JIfafqEP+w0FEQAMKZLmA64HXlnI5D+AzWz/tZC9ziHpdaQ+94ULmbwGWNn284XsjZtKI38v4MvAbE350SLuJbWw9lyoKemHwC4ZPtxiu2/TEadE0iKk9HydY5JH43xSdnHUrEswdiIAGFIk/Qx4TyFzlwBb2v5nIXvjoqrMX4RUcPSy6jXpv6cD/mT75j75shipm2KRQiYPtv2lQrbGjaTvArs3tX8Lya5DqN6vV5P3HnlDE3fjktYm1fc0kQGaxG0kYaTrG/RhIIgAYAip+tl/U8hc36vWq66FtYG3VK8VmPbd410kGdrP1O1r9YR0HrBYAXNPA8s10UlR+H0yCBxne7cShiStD5yTYWIz26eV8GWsSNqJVPTaBu2EJ4BtbP++aUe6TAQAQ0Z1d3ctsGgBc38HVutHf39VBLQPqeL+DRmmLiN9cNQ6jlfSwqR05esKmDvb9oYF7IwZSTMAd1C+NbTLvL3kgSPpYXq/gvug7WNK+TItqmDwdPo3GGws/JtUiDm01465RBfA8HEoZQ7/J4FN6j78Jb1B0g9IwcaB5B3+AKsBF1UiJbVh+25Su1uJAUdvk9TvtsBlicN/Si4vbO+KjLV9+9lIWho4iXYd/pCu+E6rBngFPRABwBBR/SLvV8DURGB729cVsDUikt4k6VTgOlL1ecm046sp0wc+VWzfC2wMlFBu+6qkUgWbY2GVPu7VBW6vofDsLxlr+9IWVwn7nA7M2Y/9emBhYIKk0gqmQ0EEAMPFIZSJ4g+qazKZpNklHQ9cREr3l1Rrm5wDKiGfWrF9K/ChAqbmIYnO9IvGqsxbSs7Teh02FyjmxdQ5iTK1LHWyOvDNpp3oIhEADAnV0/82BUz9yPaRBez8D5Wa2FXUo7M/JbMCb+zDPtg+gVSAmMuukpYrYGcslLi6GCTqyL7k2Hy6mBejUMldb1D3PoV4n6SVmnaia0QAMDwcQv7P+xJgjwK+/BeSppN0MHAxafxuvyhRoDdWPgiUmPS3TwEbY6H0fXfXWaXSRCjJqhlrc0crT5WqCLSx9tMeEGnaaDAOIgAYAgo9/T9BGuzzbAGX/oOkuUkKel+gP4pik9OvNCq2nwC2B3JVzHboUy3AdSRxpyDxcnofYjQaOQHAPcW8GJkPAEvVvEdp1pe0UdNOdIkIAIaDT5P/s/6y7ftLODOJShDlt+RLs/ZKThHWuLH9Z1ImJodZSR/OtVLJrRbpeR8gimnwS5oVyLnOqS0DULUKf7agyRdJAeUJpCLkTYCPAz8HbiXNDynFl2vI1AwsoQMw4FSSv3eT93R9D7CE7WL3jlUb3u9Igj5N8ALwyn6PHK2mL55H7xPxAO4kzYV/sYxXoxNKgP/F9cBKJbJgkg4HPpFhYgPb5+b6MRKStiUdziU4DjjA9uNT2W9h4LvAOwvtubrtywrZGmgiAzD47Ex+av2Qwof/TCQ50aYOf4Azmpg3bnsiSc8gh0UoP4J4NPYEPgwM9GTHMbI08PlcI5JWJ+898Dz1dCVMosR76x7gHbZ3m9rhD0kzw/a7SO2+OdMiJ9Gv343OExmAAUfSTeS1dF0HrFDqaVPS9MDJwJYl7PXIP0hPcrUrGI6GpLPJq7C+wPZbS/kzLVoyDbANTATWsX1RL4ur1P9fybtfr00Zsir+ewB4RYaZq0n/RuM+zCUtRLqay6nPudZ2v7plOk0EAAOMpLcAf8g0s7HtM0v4AyDpC8DBpez1wOOkgS6NjtmVtA5wQaaZ5W1fU8CdviFpArBZj8u/RJo7n8PcJD37HO4FdrY9Li1/SQsAPwByC9U+ZPvbmTZGRNJbSVdUvfIcsKrtqzN8eBeQqzOyuO0SXTeDje14DeiLVHTjjNf5hf1ZjpS+zPGp19eLpPvIeZv+uUz273Fh5vd0bNPfQw/f84SM73fzQj5cUug99V1gjjHuuTPwSIE9JwIL1fjzOSrTv4ML+fHDTD8+3PR7vQuvfrddBX2iquTdOsOESZW6RaiK346lvlY/k4Yc3UwaEvI06d76LtL40Gtt/72mvXvlcOCsjPU7SPqw+ziJcUA4FlizgJ3dgY0kHUNKW19h+1EASTOSAt5VgK2AUin7P9uuswUwRxvjKsr14u8HvIver5r6qfHRWSIAGFzWJbWM9coE2yXb5PYE1ihoD9IhfwJwJnCxy2u114rt30q6nN51919Gak27sJxXQ8HPgaOBuQrYeg1JwwIASbeRnvSXA+rQp88uQpwGOTMGznShWiHbj0v6A70/xPRlVkLXiS6AwSX3nrGEdC3wn1G+XyxlD3gI+AzwGtt72j69a4f/ZByeuX7dEk4ME04dLV+pyfziJIGfOg7/P7hgPc4o5EwZLN2ZkNPKF5Msx0AEAIPL2zPWPksS6CnFEZSbJnY68Hrbh7nBKv6CnEoaddwr6xbyY9g4kiRC0yWKXcmNRNWhM1+GidIBQOunJXadCAAGkKplK0e29BzbJUbYTpL6LTGE6Flgb9ub2n64gL1W4FTxlFMHsGalqxCMAycxn37NVSjBya5f3GYeep8W+pjtu0o6Q2qX7JW+yXx3mQgABpOcp3+AXxfxIrETkHtAvQBsY3tQR37mZFtmBVYr5cgwYfssyine1cndwL592CdH4XCOqvC4JDlP8X0X+eoiEQAMJutlrJ1ISrOX4v2Z6ycCO9ou6VPbOI/UP90r6xbyYxh5P/C3pp2YCk+T2h+LzuEYhcdIv2+9MD3lx2u3eVjSQBABwGCS84t4ie0HSjghaU2SfGoOB9k+qYQ/bcX2v4CelOUq1i3kytBR/dtvRlK/ayO72K5T9vc/VNdRj2aYWLmULxWtHZc8KEQAMGBUQ3YWyzBRMv2fO7XuCuCrJRzpAL/LWLtW1AH0ju07gS1oX9r4UNsn93nPnECo9FVUTttwZADGQAQAg8ey5P1cJ5Rwoqoo3jbDxIvA7qX6ijtA1AE0iO1LgLfQjifHF4B9bH+2gb1zCg23lbRSCSckbUXv+hgQAcCYiABg8MgZgnGdy+lnLwbMnrH+RNtXFvKl9Thpp+ccPjH8JBPbV5GeOq9t0I1HgLfb/kZD++dcRc0InCBp5hwHJM0DfCfHBnnfx9AQAcDgsXzG2pLFUMtkrs8d2NJFcua7D+t0vqLY/gfwJtL7z33e/lrSIJ2cYTy55KpKLgN8LtPGd8h7Pz9O/hC0oSACgMEjp+juxmJeZPrhHsetdpw7MtZGAFAI20/Y3h1Yh7K/E6PxMEn7fuWCGbiesH0Tee9DgP0lfX68dSmS5pT0PdLshBzOsv18po2hIAKAwSNHyastAcBAV/1PhZxWrwgACmP7QmAF4KPkqTWOxtOkEceL2/56i4Y6/SBz/XTAJ4G/SFpxLAskbQhcQ37hMCR1zWAMRAAweLwqY21bAoCeZ4l3nH9mrJ27mBfBf7D9nO2jSdPlNiNd0+RcDUwE/gQcDCxp+2Dbj+d7WpQfkopwc1ke+LOk4yR9QNKK1ZREJM0qaQ1JH5J0CqkL5jUF9nyaPGXNoSKmAQ4eOQFAEW10SQJen2HihhJ+TA1Ji5DkQq+pesHbQGQAWorticBpwGmSXkW6Hli3+voGUgHcSDxOqki/iTS18gzbOYFe7di+W9JZwMYFzM1IEluaJAj2nKR/AIvSu+zw1PhqCwOq1hIBwABRSXH2WoH7fDUlLRvbltTrE8Tz1DSkRdJSwJdJRV6TnphflHQDcCJwZMNthxEAdIBqFsWvqhcAkl5O+hnMQzr07gPusf3vRpzM59PAOymfJZ6JNDGxDh4g/X4HYySuAAaLV2asLS2CckeP6y6z/UJJR5TYH7iKlMadPF0+PUk74YvAnyS9oeTe4ySuADqK7cdt32r7T7b/aPuWDh/+k1oij2vaj3FyqO22iTm1msgAtICqb/Z1wFKk1NgcpB76SV9nB2Yj3W89QpLrfGSE/86ZgFX6F+d20sE6Xn5f2A+ADwNHjeHvrQqcI2k524/U4MdUsf2UpH+RftbjZUZJc9l+rLRfwdDyKeDdwMubdmQM3AQc27QTXSMCgD4jaSHSsJ6VSAf+pEO/6WxM6QDgG8Cm41xjyg4iQtLrSJXWY2VB4FvAdiX9GAf303uKdB7SQJcgKMGaJJXJtvM0sH3pzOEwEAFAzUial1QstF71WqJRh0YnZxTo/2D7HEm/ALYex7Kv2M6ZAT4ShwEvG+ea90g6ug/z10fibnoPALIU2IJgEpI2A05h9OLGNrHLMKmGliQCgBqoqoS3A3YkpZXVrEdjYq4abO4DLMnY1An/DHyiBh/WzFjXRABwFamyfLw8S0qDBkEWkjYHTqYbh/9hDQxMGhiaTjsPDJJmlLS5pF+TNN2/QRrQ0oXDH/LaB0fE9n2kg/SnU/lrL5AK8NYtrd5VBWKL9ri89GjTsdJrBuTqUD8LcpG0Bd05/E8GPtu0E10mMgCZVCn+/YDdqeEQ7SMvlzR96Ta4qhJ6B0lHAxuQrkEWBq4nHXan2q5r+MpCGWt7KWAswblAL4WAJcc4B0OIpC1JKpxdOPyPAg603e95DQNFBAA9IunVwMdI0pVdKJSZFgJeATxUh3HblwOXM76CvFxy+upzgoeeqURY9geOGceyy4Eja3IpGAKq8bsn0f4z4VlgD9s/atqRQSCuAMaJpCUkfR+4DdibwTj8J5GjI9BGHiQJC/XCPJIa+TC0/V0mE5mZBo8AO0UFdNArkramG4f/fcBb4/AvRwQAY0TS7JKOJKWu30c30mTjpctXGP9DlR7sNQsgYP6C7oyXrUn6BVOTKT4NWMZ27dLJwWAiaRvgZ7T78H8KOJQ0O+FPTTszSLT5h94aqgj5aNLd9SAziG1k9wKv7nHtgqS2vL5TBS/fknQmsAmpKPGNpKegvwAX2a5DNCkYEiRtS5LAbus58DxJ3Ocw2w807cwg0tYffCuoRGS+Cby9aV/6xH1NO1AD92asXYZmWgH/g+07SB0lQVAMSe8GfkLZM+BGkpDXO0m/O71g4FJgAvBz23cW8i0YgQgARkHSXsBXGcyn4tFo5Gm3ZnICgE1Jo1GDYGCQ9B7S4V9yGt8NwHq27wc+Luk1wDuADYHXkmTK55lizxdIV3T3A3eRZMBPrWwEfSACgCmopnodx/gU7AaBx1o0FrckOQHAhpJmLTUlMQiapsbD/62Tjzm2fRfw3eo1ae/pSUHApG6jh6KNr1miCHAyJK0CXMnwHf4Ag1pZe33G2peRtAuCoPNI2o7yh//1THH4j4btF23fb/sG2w/G4d88EQBUSNoHuBhYrGlfGuA64KCmnaiJ3wPPZKzfvJQjQdAUkrYHfkzZw/86xnj4B+1k6K8AJE0HfI3U098kz5G0BW4GbiH1sD9ZvZ6qXi8jtepNes092X8vUr162XcH2zmHZGux/W9JZ5Mq6Xthe0mftf2Pkn4FQb+QtAMpw1f68F8vqvO7zVAHAJJmIkXF2zaw/VPAWaRq10uBO3NleCUtCKw92Wt5pv5LfxapxeZvOft2gAn0HgDMAhwO7FTOnSDoD5LeSzr8S2Z7ryUd/g8WtBk0gIb1GkbSHKSDYb0+bns/qU1mAnCu7aIjeKek+h7XBNYA5gNeXr0eB746LCM0Jc1D+rfv9UPQwMo1jCoeOiRNADbrcfkWtieU9GeQkbQjcDxlD/9rgPXj8B8MhjIDIGk+0tPvin3Y7mbSgT8BuLSfhS+2nyTdgQ+1YIztByVdQsqK9IJIWvtREBh0Akk7kVpYSx/+69muZV5I0H+GrghQ0lykA7Huw/9i4M22l7J9oO0/RdVro5yauX59SR8q4kkQ1IiknSl/+F9NHP4Dx1AFAJJmJaXgl69xmxuAzW2vbfuiGvcJxsevgImZNr4maf0SzgRBHUjaBfgBZT/b/0Yc/gPJ0AQA1WS3k+k9DTwt7iGNBl7Odu7TZlAY27eTeqBzmAE4RdISBVwKgqJI2hX4PuUP//VtP1zQZtAShiIAkCSSut/GNZh/DDgYWML293Mr+YNa+TR5mgCQVMxOlzR3AX+CoAiS3kf5w/8q4vAfaIYiAAAOA3auwe53gMVtfynkYttPJU9aYrDOUsBfJC1XwFYQZCHp/aQHHBU0+1fi8B94Bj4AkLQh8MnCZp8FdrW9l+1HCtsO6uULQImf2aLAJZJCKTBoDEkfAL5H+cN/g/hsG3wGOgCQtABJ6KfkL8f9wLq2jy9oM+gTth8jCfuUYHbgV5IOkTRjIZtBMCYk7QYcS9nPtytJT/5x+A8BAxsAVBK/PwXmLWj2cmAV25cWtBn0n28BdxSyJeBQ4HpJ767qTYKgViTtTpq0V/L9dgXpyf/RgjaDFjOwAQBwCLBuQXs/JfX131PQZtAAlQLjfiSFv1K8DjiJVBsQgkFBbUjaEziG8of/2+LwHy4GMgCQtCap4rsEE4GDbA/swJxhpGrVPLQG0ysDZ0u6UdKXJa1VZaOCIAtJs0v6BPBtyh7+lxNP/kPJwM0CqPr9r6CM2M+LwNahPz6YVOn6nwPb1LzVA8BvSFMe7wXuq77eDzxf895t40TgnT2ufS9wZkFfusIiwB6k73+Owrb/AmxY1cYEQ8YgBgD7A0cVMref7a8XshW0kEod8kLSk3sQDBOXkQ7/x5t2JGiGgQoAa3aINwAAIABJREFUJL0auJ5UnZ3LcbZ3K2AnaDmSFiI9CS3QtC9B0Cfi8A8Grgbg/yhz+F8I7FXATtABqsLOzclXCQyCLvBn4vAPGKAAQNJGpA/xXO4AtrI9bHezQ43ty0i1AE817UsQ1MilxOEfVAzMFYCkS4HVM808Baxl+5oCLgUdRNLypNHBizbsShCU5k/ARrafaNqRoB0MRABQ9V2fnWnGwBZtmuQnaT5gNuDeaEHsH5LmAX4JvLlpX4KgEH8C3m77yaYdaStVB9n8wELAgtVrXpJ0+D2kzp17SZ/HzzXlZ0kGJQD4A/CWTDOftV1HX/i4kLQWcACwKrDwZH/0KJO9AXmplexe4Abb1/fZ1YGmkvb9NmnEcxB0mUtIT/5x+E+BpIWBTavXW4GZxrDsRdK/6anAabZvqc/Deul8ACDpzcAfM838HXh9k1GdpFmAzwEfpbfajNtJb8hTgYtiLHEZJO0LfAWYvmlfgqAHLgbeEYf/S1SftXsB21Om/fcG4GTga13TUxiEAOB3wIaZZra3/bMS/vSKpJ8B7ylk7hGSYMqpwO9sR2FbBpJWJ2lLrN20L0EwDi4iHf7x+w9Imp40Fv5Q/ju7WopHSNNGv1nJjbeeTgcAkpYEbso0czmwmhv8h5C0LUmRrg6eBc4FjrJ9fk17DAWSNgG+CCzTtC9BMA0mADvG4Z+Q9C7gCGDpPmx3F/Bp2yf0Ya8sut4GuGMBGx9r+PCfjjSdri5mJkmvnifpTEnL1bjXQGP7dJLE9PuAfzTsThCMxETgE8CWcfinz1dJRwBn0J/DH+A1wI8k/aS6bmgtnc0AVDrut5PXrnWm7Y3LeNQbkpYGruvjlhOBE0gR6t193HegqH6x9wb2B+Zr2J0ggDRrYi/b5zTtSBuQNCdpiuu7GnTjMmBz2/c16MOodDkDsDZ5h/+LwIFlXMmi3xr00wG7ALdI+pKkufq8/0Bg+xnbR5Jahd5ESi/e3KxXwZByF6lbZek4/BOSFiO1PjZ5+AOsRhoR3spZI10OAHLT/8fb7ueT92jUUYwyFmYhBUC3SdqnyqgE48T2RNuX2D7Q9lLAG4CDSB8+3UyvBV3gOeAs0nXUEra/b/uFhn1qBZLmBc6jfyn/abEQcI6kpZp2ZEo6eQUgaWbgn8DLezTxNPA62/eW86o3JL2DNCq2aX4J7Gz7X007MihImhtYjJdERaZ8zc/Y+o4HidmAGXpc+2+Gb3wypM+re4C7q9clwBmh6Pe/SJqJdPi/qWlfRuBmYPU2tQp2NQDIVf77he26Z8CPiUp17oGm/ai4CtjM9l1NOxIMJpImAJv1uHwL2xNK+hMMFpJ+AOzatB9T4WxSa2YrdFq6egWwfub61nyI2H6Q1KbXBt5Iuq+KfvcgCDqFpH1o9+EP8DbgyKadmMQwBgDPk0Ry2sT7gbYodc0LnCspJHCDIOgEkhYgifB0gX0lvbFpJ6CDAUBVtZ5TUfmHNt3BANi+kyRN2Zb7zZmA70n6v2pARhAEQZs5jFRf0gWmoyVZgM4FAKSBDTl+tyb9Pzm2f0JqGbm6aV8mY2/glEqsKAiCoHVIWob2p/6nZANJGzXtRBc/2HPS/ybp47cS21cBq5CKpD4P/JYkdvR0g25tTpK/DYIgaCNHUH5Y153Ar4DDgZNIIkulK+aPaPrhqovp3ZUy1l7RdvU7288Dp1Wv/1BdfSwILFB9XRrYhP7o0n9c0nVd0LYOgmB4kPQ6ktR5Ce4kKXteYPvhEfaaE1iTFHAsX2C/5YD1gMbEm7qYAVgyY20r0/9jwfZjtq+3fa7tH9s+2PaywOtII4QvIKkb1sWxktas0X4QBMF46bWldHIMfBdYzvYvRzr8AWw/Yft3wKqk0e0lhJdK+N8znQoAJL0SeFWGic4GAKNh+zbbR9t+K6mC/2CgjiLHmYFfS3p1DbaDIAh6IfcAfRrY0PaetsfUiWX7OduHAKuTBOly2DRzfRadCgDIe/p/oiXSv7Vh+xHbXwIWB75CGgVckvmA0yR1pdo2CIIBpVLaXCvTzEG9zk+wfSWwR+b+r2myJXCYAoAbi3nRcqpA4ADSv9fxpAmApXgjcELMDgiCoGHeSV7x3/nAN3IcsH0q8KMcGzSYBYgAYICxfZftXYF1gQcLmt6SNFEwCIKgKZbNWPsUsKvLaOHvS5rR0Cs530cWXQsAFslYO3QBwCRsX0gqXCmpMXCYpFkL2guCIBgPC2asPacSYMvG9uOkYWq9kvN9ZNG1AGDOjLU3FfOig1Rv9rWAXxcyuTCwXyFbQRAE42WhjLVXFPMicXnG2pzvI4thCgAeKuZFR6lG/W5FamEpwYFVIU4QBEG/yXlyLh0A5NhboJgX46RrAcAcGWvbMmynUZw4hNQlkMvLgU8VsBMEQTBe2pQBuAn4V49rZ27qQaprAUBOBiACgP/m48BvCtj5oKTFCtgJgiAYDznCZzMX8yIxHXkdCXWKuI1K1wKAyAAUwvZEYDvg+kxTM9GdMZxBEAwO92SsXbWYF4llgFl6XPu07UdLOjNWhikA6DU9M7DYfoLUgzqi9OU42FbSKgVcCoIgGCttCgByRtTfW8yLcdK1AOC5jLU5wcPAYvs24L2ZZgS8r4A7QRAEYyXn4Cz9wJITAOQEMll0LQDIeYqfp5gXA4bt35JGD+ewaagDBkHQR3IOznUkrVDCCUnzAdtmmIgAYIxEAFAfB5InGbwQeVFwEATBePhrxtoZSZLmMxXw43tAThV/zveRRQQAAQC2rwZ+nGmm0dGWQRAMFb8l71p4eeAzOQ5Iej+wSY4N4NTM9T3TtQDgqYy1EQBMm08Dz2SsjwAgCIK+UI3vPT/TzIHVIT5uJG0CHJ25/022b8600TNdCwAez1g7bzEvBhTb/wC+nWFiudAECIKgj+Q+PU8PHCfpLEkLj2WBpFdIOgE4jfzi8sae/qF7AcDfM9ZGBmBs/CRzfWQBgiDoF6cBJSb6bQRcK2l/SStKmnHyP5Q0naSlJe0OXAfsWGBPaDgAmKHJzXvg9oy18xfzYoCx/VdJd9L75MXNyE+LBUEQTBPb90j6KbBDAXMvB46q/vsZSX8jHfavA1YCZi+wx+RcZPuSwjbHRdcyADkBwBrFvBh8cqLStWNMcBAEfeSTwLOFbc4CrE7SN3kL5Q9/gI/VYHNcDFMGYD5Jy9i+rpg3U1D1wb+M9GYZ6TUTcANwre0X6vKjAL8G9ulx7fSklsBby7kTBEEwMrbvlPRNYP+mfRkHv7R9adNOdC0AyKkBAFiPlNLpGUmzAIuR0kKLT/F1Ecb2b/qMpD8C+9i+KcefmriQJA/8qh7XL0gEAEEQ9I/DSU/rr2jakTHwPHBw005AxwIA2/+WdAuwRI8m1gO+Mda/XD3RLwu8CVgbWAtYlCR9m8MswIbAVZI+ZbvEaN5i2H5R0nnANj2ayJnTHQRBMC5sPyppH/K1TPrBYbZvadoJ6FgAUHEJvQcA60iarpqE9z9UqlCrkw77SQf+XD3uNRZmAY6S9KDtE2rcpxfuzFgbAUBQBydKer5pJwaAJ4C7q9c/gHOBc2zniOo0ju2fSFoGOKhpX6bCSbY/37QTk+hqALBzj2tfAbwRuHLS/yFpZuDtwNYkRac6D/zR+Lqkc2w3NhVqBO7LWBsBQFAHL2vagQHh5cCrJ/vfHwWekPQb4GfA6bZLtNY1wSeBN9DOduTLgF2bdmJyutYFACkAyGE9SbNK2rJqH3mQVPW+I80c/lT7HtDQ3qORE4xEABAE3WJO4D2kz8IrJL2zYX96osruvhf4W9O+TMHdwOa2c5RWi9PFAOB68hQBP0Y69H8JbEd7xgSXnk+dSwQAQTCcrAicKeliSW9o2pnxYvspYH3yZYJLcTWwtu2crGotdC4AqCK8izJMzAvMVsidkqwoqU0/j6EOAGK0cRCwFvBnSVs07ch4sf0wqdD6mIZdmQC8yXZOTVVttOnAGQ8TmnagBmYm6QS0hQcy1s5XzIs+UUl9fkDSiZJuIrVqXinpWEnvaNq/IGiIOYBfSvpc14Ji2y/Y/iDwIaAJ3ZUvAFtWGYlWoi7WekiaG7ifJDozKPzN9hubdmISkl5D750Ad9nuVUq470haHDie1PkxGscD+9p+oh8+DSqSJtDOAq1g2hwD7NXFAkFJKwBfJhV8182fgQNt/6EPe2XRxS4AbD8k6QLSPc+g8JemHZiCnDR+m7oZpoqkpYDLmbbU5y7AmpJWtv2v2h2bDEnTkyqbVyENtbpvste9th/rpz/B0LInMJ2kPbsWBNj+G7CRpPVIgcAqNWxzM/AJ27+swXYtdDIAqPgFgxMAvEDzd1VTMvABgKQZgBMYu873UsARpJRi7VQ1IR8BPstUfJT0DHAPqehpAqmnu7Q2ehAA7E4qkdmja0EAgO3zJK0GbEHqFng7ee2lz5F+704CftJyiff/oas1AJDGQA4KX7J9RdNOTMHABwDA3sBq41yzl6S16nBmciS9GriYNJ1sWgHKLCQ56g8AZwAPSTpF0g6SmmptDQaX3YDvda0mYBJO/Mr2lsDcpCup40kZtbEENQ8BJ5O6yOaxvZHt47t2+ENHMwCSliA9uQ0CvwI+17QTIzAMAcDbelz3dvL1KEal+mD9Cb1PsJydJGy1NfC8pOOBz7ZMaCroNu8nvVV3G01ZtQvYfpr0MHka/EcNdgHS59+CpK6xR0gZtntJV26t6uXPoVMBQPXBuBcpDdt1VbBHgb1tn9i0I6MwDAHAij2uq+P+cHL2IY0gLcGMpCe2HSR9Hfiy7RwdjSCYxPtIH8sf6HIQMDmVHPKd5Emhd4bOBACSFgZ+CGzQtC/T4DnS4f7UCK/HgWtIRWdX2v53U06OgZwDqPUBgKR5gfl7XL5MSV9G4MAabL6MNIFsd0lfAL4VdQJBAXYlFQa+b1CCgGGiEwGApB2B/6M5qd6RuJs0Wvhm4JbJvt5p+8UmHculapl5bYaJe0r5UiOvnvZfGZXahqZIWpCUgqyLVwFfAfaUtJntG2rcKxgOdiZlAnaNIKBbtDoAkDQPqTp+y6Z9Af5JqvY8Dzjf9iDPu988c33rMwDkXXE8WcyL/6Xu64VJLAFcKml722f2ac9gcNmJFATsEkFAd2htACBpU+B7pCKMJngE+APpwD/P9vUN+dEEOQHAdR3pS18oY22dAUA/W6vmBE6TdLDtI/q4b6+8F4hgJZ8VST39W5BqREqxI+k6YOeuZ0GHhdYFAFXv89dILVr95mpS9fU5JGW+oYtkJS1KGpncK12RaW5rBuDyGm2PxHTAlyUtB+zW8grnf3UkuGw75wPnS5qfJFdbckTtDqRMwE4RBLSfVgUAkmYBTqS/Kf+nSDOwj7N9WR/3bSvbZK4/tYgX9dPKDIDt+yTdQ55/vfBeYH5J7+hiP3MwfmzfL+n9wNOk7qpSbE8KAnaMIKDdtEYISNIrgN/Tv8P/zyThlAVs7x6HP0iaHTggw8S99P8JtldyMgB3F/NiZA6v2f5obEDKvgVDQiWK8yHgW4VNbwecWMlYBy2lFQFApXp2IfDmmrcycArwRttr2P5+myc1NcAB5NVcnNYhedCcJ+wbi3kxMseQak+a4EOS9mxo76AhbH8Y+GZhs+8GflpJbgctpPEAQNKyJFW1unurzwSWtb1tNRgimAxJ8wH7Z5rpRPq/UvvKaXOstXWuCqJ2JAXFTfANSes2tHfQELb3Br5R2Oy2RBDQWhoNACS9hfQht3CN2/wd2NT2xkNWyT9eDmHsQ3FG4kmae2odL28l73utOwNAJdu7LvBR6i06HIkZgF9IWqzP+wYNY3sfkuZKSbYBvlTYZlCAxgIASVuT7vzrEvd5hjRFbWnbp9e0x0AgaUnSlK8cflvJaHaBnDbHf9p+tJgnU8H2RNtHA68AliNVax8B/Bg4myREVdeVy6uAH9RkO2gxtvelfBDwEUlrFrYZZNJIWkbSB0n3TXUFIKcB+9n+e032BwZJswE/J/+98LMC7tRONU9iswwTV5fyZaxUldTXVq//omrl2pQU1GxA2b7udSS9K4SChg/b+0oysG8hk9MB3weWLmQvKEDfMwCStiFVnNax923Au2xvFof/tKkOwxPI6/sH+Avd6f9fjTyp3T+UcqQEtu+3faztdwKvJwViJbMCX6q0OYIhw/Z+lO0KeYOk1xS0F2TS11/sKgV0AlB6jvSLwKHAMrZ/U9j2IHMYZdouP9ah6v8tMtefX8SLGrB9u+3tSXLCfylkdlmS1nswhNj+CHB0QZMrF7QVZNK3AEDS4qTU/CyFTT8CvMP2Z2O62diR9B7gUwVMnWG7VU/F0yDn/v9flDtYa8P2laRpjqVGTR9WiXQFQ4jtjwJfLWQuCktbRF8CAEmvBH4DzF3Y9N+AVWyfXdjuQCNpQ8oUeL0IHFTATl+o5G6XyjBxke3nS/lTJ7afsf1e0gjgXBamrFJc0DFs70+aIplL7R00wdipPQCQNDPpfnjJwqZ/BqwVd/3jQ9JHScHYrAXMHW/7ugJ2+sWhmevPKeJFH7H9Jcq0YL23gI2gw9g+ADgq08xfS/gSlKHWAKAqMvshZRX+XgQOsL297X8XtDvQSJpZ0vGkKL6EPOe/SdoBnUDSm8i7/59IRzodRuAT5BdprihpkRLOBN3F9seAI3tcfkmlbxG0hLozAJ8jaUKX4mHg7bZLpKKGBkkLkKrXSxZzHd2xX+ZeP7Qmcbbte4p40meqAs33ArdnmsqpnwgGBNsfJ+lRjIdngPfV4E6QQW0BgKT3AZ8saPJqYGXb5xa0OdBImkHSHqS02+oFTV9Ph5S9JG0F5IqQ/KiEL01h+1+kTEAOuR0UwYBg+0DGPrTKwMdt31SjS0EP1BIAVMVW3ylo8gZgfdt3FrQ50FRKi9eRBsvMV9D0wyRp5U4MUao0yL+YaeZx4NcF3Gmak8nrYlhbUulC3qCj2P4U8Dbgjqn8tTuADWyXnjEQFKC4EmA1/vGHwEyFTN5OegM9VMjeQFMNcfkySfCmNM8DW9u+rQbbdbEHsESmjRNtP1PCmSaxbUmHAGf1aGJ6YGPg+GJOBZ3G9jnVA98upB7/SaJiVwFXkAqFO/GwMIzUIQX8ccqJPdxDOvy7dNfcV6pCy1VI97ObU6/U5t62L6jRflEkLUp+5f8L5Fc+t4lzSNoZr+xxfd1TO4OOUR3wpUcJB32gaAAg6Q3AZwqZe5B0+Eeb32RImhGYn3TQb0bSgc+ZbT9WvmH7u33YpwiS5gBOJw21yeHEQXoP2n5B0hnATj2aWLCkP0EQNEexAKDSC/8BMHMBc4+Rqv2HUjRC0jzASsCKpPT1giT9+gVJYkqlpZSnxdnAR/q8Z89U78WfkmRsc5hIfv1AGzmV3gOAfgSbQRD0gZIZgI8AaxSw8y/SQJ+hE4yonlq/RrvaZW4Gtq0m0nWFL5HuqnP5xYBWLl+TsTYyAEEwIBQJACQtQer5z+U5YDPblxSw1SkkrQT8CmiT2MplwBa2H2vakbEiaWfgYwVMPUeHhI7GSU5NTWQAgmBAyG4DnCz1X0Ja9pPD2OcvaXbgFNp1+P8EWKdLBZiV2t+xhcwdNaBP/5M0AR7vcfnLJL28pD9BEDRDiQzAh4G1C9g5hzLDJrrIUbRnStZE4GDb41X6ahRJ7yLd+5doP/078PkCdtrMI0CvB/kr6T2AGDiqbpMVgHkme80GPADcN9nrDtv3N+NlEPwvWQFAVaz2hQJ+PAzs3KGZ8sWonv53a9qPiieA7W2f2bQj40HSgaT3YSlhq71tP13IVluZN2PtA8W86CBVBmRz4K3AuowjcyfpStJchlNtX12Lg0EwRnIzAPuTIt1cPtClVHNhVqRPY5mnwa0khb8bmnZkrFQz6o8Ddiho9pSuBUDjpTrAev29fby6Qhg6qjbnD5M6KGbv0cxK1eswSX8nSUx/1faTZbwMgrHT88Ej6ZXAhwr4cKzt3EllXWaVph0gydyu1rHDf0HSgKOSh/+1tKsDoy5yKvk7ORApB0mvk3QmSVp7L3o//KfktcBngdsk7V1pfARB38h58tyP/F+EG+lQf3lNPNvg3pcAb7a9pe1HG/RjXEham6RpX1Lu+CFgkyGRLV01Y+3QZOqqYVoHkdom30l9+hvzAP8H3FjN8AiCvtBTAFClEPfJ3Ps50n3zvzPtdJ3LG9jzRlJ735tsX9TA/j0haUlJvwAupGw/+vPAVrbvKGizzeRM9RuKDEDV2nw5SQhqlj5tuxhwiqSvVjNVgqBWes0A7EPvFcSTOGQYxX5G4G/0LwtwL7A7sGyXrl0kzS/pGFIKdqsattjL9h9rsNs6JL0MeHuGiYHPAEhak5QdW6EhFz4CnBntlkHdjDsAqKrW98vc907g6EwbA4HtZxn7XO1eeZA0C/51tr/XFVU/SXNK+hypQHEP6hle9XXbx9Vgt61sRZ5mRxMZq74haSvgPJLkdpO8HfizpNc17EfrkbSIpNc07UcX6SUD8CF6nyQ2ic/Yfi7TxiDxRZLqXkluB74KvAWY3/YXu9DaJmk6SWtJOgK4DfgUZTpNRuL3pE6WoUDSTKSis155BvhdGW/ah6TNgZPpX8p/WiwF/L5qtw4mo/qM+K2kh4A7gDslPSLpnKpGKBgD43qiqtKHuR+YN5BU5oKKakLbNsCJ5IkqXUHqMZ5g+9oizvUBSTMDG/DSdMP5+rDtTcC7u5INKcSe5AlOnT2oLYCS3kj6XGpDS+7kvBb4paQN4qHpP62/nwM+yv/+rF4BrA+8VdLXScqyrX/oaZLxplT3IFWs5vCpIfvQHRO275K0DinAOojRsyzP8ZKy2L3V6wbgdNv/6IevvVLJRs/DS9MNX006+DeiXGvVWLiXpHnQmRkHuUhaAPh0pplfl/ClbUiaHziN+jJNubwZOIbhaFGdFt8Htp/G35mOVEexqqR3DElnT09oPOJ7lXDFohn7XW47pwVpaJC0OEkjYDZeOujvBR5us2JidcgvRfJ9ZdIT56RRxvNSzz3+eJg04Gjgi9kmUWXu/kCe5sSLpKukhzJ9mUDK9PTCFnUUr0o6mxSItp19bH+jaSeaQtIWpIFp4+ESYKMQWhqZMX8YS1qNvMMfUiFaMAZs30a6A+8MlVLa8ZTtzy/JT4DdbD/TtCP9QpKAE8gXnLo49/BvI5K2pRuHP8DnJZ1k+8GmHek3VVvkd3pYuhbwO0kb2X6isFudZzz3Xdtm7nWB7bMzbQQtRdIHgCtp5+E/ETjQ9o5DdvjPShqQVKJ18gcFbLSKqqOpSwPI5iT/GqerLEnvtUFrkoKAOQv6MxCMKQConiK2ydwrnv4HFEkrAt+mPdXTk/MESeGvU9MNc5G0EPBH4D0FzF0L/LiAnbZxMLBw006Mkz2HtDXwjZnr1yB1VIS2wmSMNQOwOpDTZ3m+7T9lrA9aSlXBfwLQRh3zW4E1bP+maUf6RdVGuQupX7/UnImDbE8sZKsVVO/bPQqbfRQ4FziSJJb2PVJWrGT1/oyUmcDaNeYvYGN1Igj4L8ZaA5Cb/h/Ep4cgsTawbNNOjMA5wLZdmnGQQ5WlexdJU6Lkz+MPAzodcWvgVYVs/QI42PatI/1hpb+wLvAtoMTT+1aS5rU9TGOZS41OXg04W9KGw9QFNBrTzAAUSP8/DfwyY33QblZs2oEpeAr4GKnyd6APf0kzSdpQ0reBfwCnUz4Y+3hhe21h9wI2Hga2s73NaIc/gO3nbP+eJC38dVJNSg7TARtn2ugaVxS0tSopCJiroM1OMpYMwJrk3ZOdFtWXA03u3VxJfg7sb3ugBtZUg2lWIQVbrwcW4qW2yjqFa06xXVqhMof9JZWoaZiOpJCZw9XAhrb/OdYF1eCz/apWyN8BM2XsvxkDWJg5GrYfk/Rr8gZZTc4qwDmS3jboDwpTYywBwLsz94j0/2DTBmW460k90uc27UhJqieUrwM7NbD9bSTlwDbRFonX54D3jufwnxzbF0j6DOm6plfeJmnWIVO6+yApcCt1dbMyLwUBjxSy2Smm+vRQpf9z5lM/yABrhwdAKnJqimtIVe7LDeDhvyKp+r6Jw39S58RQfiiOgUNsX5Np40jy5n/MSpK9HRqqgGsP8q9QJmclUhCQO9+mk0wrA7AmeXPXT7L9Qsb6oP38paE9DyddL7VWFbFXqgr1E0mp/n4zEXiP7Rsa2LsLXAYclWvE9ouSdiZdJfTaQfN64IxcX7qE7V9WmiPHUe76a0Xg3GrewsNjWVBpSCxavRYBXiAptd5TfX2gC50zYwkAcuhE+l+SBvEg6Qe2r5T0C/IyRWPhMeAU4ATbF9W8V9McBryhob0/bvushvbuAieXmmVi+0ZJf6V38awmAsTGsf1DSSbNBSgVBLyRl4KA/1K8rDLh65KyccuRDv1pXUO8IOkq4FTg1AIZo1qY1j/eyhm2b7LdxNPhmKiqp4+RdAXwtKSbJf1U0h6V7GQwdvYC6mhJep5U2b4tSYd+9yE4/AF2a2jf79nukjJeE1xe2F7OZ2ROdrbT2D6eNByp5FP2CqQgYG4ASa+R9GlSPcx5wC6kM3EsNQgzkAoNPwdcLel2SUdLWrSgv9lMKwOwUobtUzLW1kYlAnE0sOsUf7RE9doOeL+kXWxf32//uojtByW9i6S1v1SGqYnAVaRftvOAC4dtkpekxUhjTfvJRODTtodRYGY8GPhrYZs5AcBQZgAmYftHVSbgh5TLBCwPXCDpXlKNRSm7rwX2Az5Yte0ePtbrhjoZdRpgdcfxOL3/A2zcNgGRShv9StLd2bR4lqQid1W9Xg0Ok83q3onUojY1/gncDNxUvW4ELhn2wjNJW9Pf4PkJYAfbfblLzpwG2DS32F6ypEFJy5CKPXvh77YXK+lPF5G0I2kIWZ0tsaV5AvgycHSTnRxTywC8kbx/0Db1D0/ii4zt8AeYGfiRpFVtl5TyHFiqQTsfAz4m6dWkDNJ2CnyUAAAgAElEQVTMwJNTvB4KbYhRebyPe90KbBoFf2OmDgnZHJtDM9hqatj+cZUJ+BHdCQLmJBUybyVpc9v/aMKJqQUAOen/O9o2slLSyiR97vGwPLA/ef26Q0n1hm7kTd1xSiqeTY3TgZ2HWQSlB+aVtLDtuwvazJmeeW8xLzqO7Z9MFgR0qYZrJeAvkra0fUm/N59atJRTANjGp/8NAfWw7m2lHQmC0aiuQG6ucYsrgbfZ3jQO/57I+VwciVUz1g6U4mUutk8kXT8W6dLoI/MB50t6X783nloAkJMBaGMA0OtktLZp3QeDTx36+3cAOwCr2D6nBvvDQqkJi5OIAKAgtn8K7Ej3goCZgO9LmrI4vVZGDACqYrmcPuQ2BgC9fj9zScoZhRwE48L2qaSOihLcBXwUWMr2T0PvIps9JM1TwpCkbUmdR70SVwAjYPtnwHvpXhAAcIykN/Vrs9EyAMvT+z3Ki/TvHnM85KQ7IwAI+s0HSUInvXAVcCiwku1FbB8dhazFmAf4bq4RSfOSxgPn0MYHrVZg+yRSxqtrQcBMwK8kLdKPzUYLAHImvF1XTb1qGznR8lD32wb9x/ZTtj8AvJPUez6SpPYLwN2kg+CXwN7AIrZXtP1Z26V71oPEFlXrWQ7HAHNnrL+PZmS4O4PtnwPbM/LvTpuZFzi1ysTXymhdAPNl2GxrVBoBQNA5Klnes6oPgxVIh8a9dEhvvCBfoYwS33QkLfmcD9hvSnra9i/Gs6jSyvgC+WNtB3IORmlsn5yUfDmRsU2/bQsrkDrQPl/nJqP9g+Qokd2asbZOcgKAhYt5EQQ9UImFXNq0Hw1zke0JJQxJejt5kxbnBE6R9HPgQ2NRdZO0Bkm1bqxaJFPjtAI2hoIqCDDwU7oVBHxM0nfrbKkf7QogJwBoq5JbTgCweDEvgiBoA8cWsvNu4DpJB0haR9Kck/+hpFdL2rySf72YMof/E8BAjb/uA7+ge10TcwKfrnODOjIAbe0tzgkA1pc0s+1ni3kTBEFj2L5Y0nXAMgXMzQccOcm0pFtJIljLkYoGS/OV+CwaN28lje0tyXMkGecrgdlJrfNL0JvezGjsKenrtm8raPM/RAZgbMwGbFDKkSAIWsHhNdgU6RBYj3oO//tItRDB+CglsvMiKdhbBZjD9sq2d7O9ne2lgLmAdYBfF9pvRlJxby0MUwBwF3nVoF0dYBIEwQhU/eIXNO3HODnE9r+adqJLSJoL2KqAqeuBtWx/3PYVI7XW2n7C9h9tb0lqQyxxHm5ewMaI1BEAtPIKoPql+UOGiU1UlZMGQTAwfJjutIldRyoiDMbHdsAsmTa+TdLVGHOXW6VKuAxwUebei0iqRZF2tABgrgybbc0AAORUEM9PjZFYEAT9x/Z1vHR/32aeBnax3TVhmzaQK6/7Z2CfXuoubN9PKhTNfTCu5ez5nwBA0kykO+9eeMH2k3ku1coEIKd39kuSutRGEgTBtPkU8JumnZgG77NdQgNhqJA0PXnzXJ4hM/CyfS/59/j9CQDIe/pvZfp/EtUYz5xfoiWBPQu5EwRBC6jElN5DSrG3kcMradtg/CxMXu//p2zfmOtENanwlxkmlpE0teF9PTGSwUEsAJycXCGRQ6bs9Q2CoNtUmctNaF+v+K+ouRd8wFk0Y+1ECsx9mIzvZKydniQRXJSRAoBBl5fMbc+Yh27cGQZBMA5s/x1YA7imaV8qjgHeHZK/WSyasfYG20+VcoT8IXkLFPFiMkYKAHKe4nOuD/qC7RuAmzLN7C5prxL+BEHQHqprwrWBcxp04wXgw7Y/aLsrHQptZdGMtUWHLdl+DMgR9OlLAPAovWcBWh8AVBxVwMbXJa1fwE4QBC3C9hOkKYyHA8/3eftHgI1s544KDhKLZqytY9piThag/gCgqnZ8okd7M1fTrtrOD0miDjnMQBoGskQBf4IgaBG2n7f9KWBl+jPh9Hngm8AbbIfOfzmmb9qBNjNaVeE0J1tNhZwiwr5QBTkHFTD1CuCP1ZSvIAgGDNvXAGsCuwM31LEFcBLp4N/b9gM17DHM5EjAr1rMi5dYOWPtfcW8qBgtABjoOgAA26cDfyxgan7gAkk5o0WDIGgptifa/h5J1W1D4AxShXgOtwNHk9Tltqtr2EuQ1dWxSjEv+I8k8WIZJooHAKP1Rw58AFDxMZLKUy4zAz+StBxwYNVXHATBAFFV458NnC3plcBbgHWr17KMnm6eCDwI/J0kODShyiwE9ZOTAVha0mwFZy+sSN6kwE4EAK2/ApiE7csknQxsW8jkAcCGkg6yfVYhm0EQtAzbj5A0RSYAVCItryS1Cc9DUlN9gPSh/c+Q8G2MnAzAdMAHgK8X8mWPjLUvkt5PRamjBqBLGQCAT5B0tkuxPPAbSedLquMOKQiClvH/7d15/GZz+cfx1zvZyS5bRZaEKEuWhLQge0hIUlF+hbQoZYuKLJVSaRVRSHZC1uxr2cpaEjMRWZJlLO/fH58zNcZ3Zr7f+/M59znnvq/n43E/pphznWvMzH0+57NcV7VM8LDtP1fd4H5bdYwbFw//Rv2ZvJMcB0laKjcJSVuTegL06rY6Zpbr2APw6oxr+65ae/twDaHXAa6V9FtJO0laoIZ7hBBCmALbjwMXZ4SYmbS82/NpAkkLkboJ5sitYDuiOgYAtbQtrJPtk4ADawq/PvAjYJykqyXtJeldkpapNoWEEEKoT+7DczXgO5JmHOuF1YvfiaTloRy1DAA0UpXJakf7MT3GvM32cllZNUCSgJOB9/X51k+T1gnr6KI4gVTW9AbgohJNLUqq/nKsR9pt+xZgtmYzCn2wKDBHj9duZvv0grmEIVC9gd9P3gY8SLVjdrQ9qroQkrYFvkv+w/9vthfNjDGiKQ0A1gV6LUbxAvAq20/lJNYESbMCVwArNJ1LDV4ADgIOsN3v6mYvI2l74Dt0b89IaM7mtmt5EwqDTdLVwKoFQr0AfJNUu+GWyb9LJc1GepnZA9i8wP0AjrD96UKxXmJKA4BXkUoC99p+cA3bV+Uk1hRJryWVgCzeeaklbgDWLni0ZcwkHU09+y7CYIsBQOiJpK2AkwqHfQa4idRifjZS4aCl6f25OZLnSEWiaqkTMWKiVS3snKpXK2Zc2yjb95FGbr2WQ267lYCDm7q5pB2Ih38Iob9Opnxt/5lIswqfBHYAlqHswx/gh3UWiZpasldnxO3sAADA9pWk39i7ms6lJp+UtFa/b1qtxZU6UxuGT7TFDT2pijh9oek8xuhJ6tucDkx9AJBTIS+n3nErVBvmViVV/ho0Iu9Maq82pPcNYCHkbuIKQ8z2xcC5TecxBofV3RuirhmAZXo5MtE2th8FNgC+3XQuNSha57rF9wwhhIk+TTeWd2+jTNv6qZraAOA20hREL6ZnQL7sbb9gew/gI6RjdYNi+eroYz+9uc/3CyGE/7J9B2n2s83VGR8GNu7HRu0pDgCqsoM5mya2yLi2dWwfDawN3Nh0LoWM80hHQOp1f5/vF0IIL2H7XOCzTecxBROALWz/tR83m9aOxZxlgK0aeMOsle2rSTMb25LaeXbZDUNyzxBCeAnbRwA/bjqPEexiu0Sb+lGZ1gAgZyPgIsDqGde3kpNfkc577kZq89lFlzdwz8sauGcYHHEKIJS0C6kYWRtMAD5q+2f9vGmdMwDQzE7zvrD9nO3vAosDBwCNFdbpwa3AUf2+qe3LgF/1+75hYAzUjGJoVrW/a3dgZ/I6BuZ6EHhHvx/+MIVKgC/5CdJfSfW7ezEOWKSBtea+kzQXsBGpiNB6wCzNZjRFzwOr2m5kL0P13+lWYKEm7h86LSoBhlpUdVF+A8zb51vfSOpx8fc+3xcYXdWiXnsCQPqSXzPj+s6w/ajtX9h+H+kP0abAz4FHGk3spf4KvLOphz/892jl24nlgBBCS1Tr7isAP6M/JwSeAPYG1mzq4Q+jmwFYC7g04x5H2t414/pOq/pIr0mqE73gZJ8FqL8wznOkI50XAvvb7vVoZ1GSXkHaQ7EV6S/erM1mFDogZgBaSNIrqlNjA0HSMqTGaZvUEH4Cafn1QNsP1xB/TEYzABBwD7BYj/f4B7DwIP0BKUnSLKSBwOyUX+OcANxtu9X1C6rBwOLEIGAYfAtYp8drYwDQkOo5sCzp9+5tpE3e81WfuUiNccZP9rkaONv24w2knE3S20gbBTckv2vp34HTgG/bbs0JsmkOAAAk7Q/sl3GfLWyfknF9CGEASDqNtDzWixgA9NkkD8H3kB72Y/UccAlwKnC67XHlsusPSdOTasBsRpoVeM0oL72F9NA/3XYrj0CPdgDwetIsQK9utN35/gAhhDwxAGg/STOQap3sStnGbi+Q9kXtZ/uBgnH7StKswMKkPW4Tf5xA2vT+QPXjuLbPvMIoBwAAkn5P2rzVqw1tn5NxfQih42IA0G6S1gF+CCxV422eJnUF/Ybtx2q8T5iGsfQuPjbzXntnXh9CCKEGkuaW9DPgYup9+APMDHwRuEfSljXfK0zFWAYAJ5FGbr1aXdK6GdeHEEIoTNJywE3Ajn2+9dzASZL2G7Sy8V0x6gGA7SdIGxpyxCxACCG0RDXlfzlpV38jKQD7kwYCbS2eNrDGMgMAcEzm/d4haY3MGCGEEDJV0+/nUX8tktHYErhMUhtyGRpjHQBcQNrhmCNmAUIIoUGS1gSOB2ZoOpdJrAicUBVPC30wpgGA7RfI3wy4QewFCCGEZkhaDDiFdj38J1ofOLzpJIbFWGcAIP3mPJF53x/Hek8IIfSXpNmAM+mtqE+/7C5pp6aTGAZjHgBU9YsPzrzv64GvZcYIIYQwNvuRSvq23fckvaHpJAZdLzMAAN8mVTzKsZuk1TNjhBBCGIWqyc3uTecxStOT/6IZpqGnAYDtp4F9Ctz7p5JmzIwTQghh2r5LerB2xWbVZsVQk15nACAdCbwl8/5vBPbNjNF3kuaUtI2kr0vaXdL7JS3QdF4hhDASSesBdW2+Hl09+d4cUmPsoffKXi+0/aKkPYHfZuawp6Rf2/5jZpzaSVoe+AbwTl4+kn5K0pGk+tb/6ntyIYQwZR8vGOvvpCPhNwA3An8E5gFWmuSzHlDiON/qkjayfVaBWGEyo24GNMUA0gWkB2KOPwCrtbV7UtX9aT9gD6Y9aPo7sIrtB2tPLISOiWZA/SdpQeA+Ml74KgaOBPay/Z9p3POtwNHAMpn3BDje9gcLxAmTyf0DAbAncD2ppGOv3gL8FNi+QD5FSdqI9If+daO85DXAqZLeYfvZ+jILYejMKmnOppPooI+T/11/D/BR25eO5ifbvlbSisBXgM+RNxvwXkmvtP18RowwguwZAABJxwHb5afD/ra/UiBONkkLA98B3tdjiK/ZjqqHIUwicwYgNONBYLnqCPiYSdqN1P43x7q2L86MESaTswlwUl8GSrzt7i+p8akeSdsDf6b3hz/A1oXSCSGEJu3U68O/8l3gkswcYtBYgyIDANt/o1z5xp9KWqtQrDGR9EpJR5DKHc+eGW4JSW8skFYIITTlp7bPzAngNM28I/DvjDBRPr4GpWYAILV0vK5AnBlIa+hLFYg1apLmJ+1s3a1g2DcVjBVCCP00gbTxOZvte4HDMkK8pkQe4aWKDQBsPwd8gPw+AQBzA2dLmqdArGmStAppI+PahUP/o3C8EELol1tt57y1T+7yjGvnjP4x5ZWcAcD2X4BdCoVbAji9al5RG0k7ApdRzwhzfA0xQwihH26oIV7OrvOFSiUSkqIDAADbvwR+Xijc24CLq+n54qpCRj8D6ihHfDvp6EwIIXRR0QGA7ceBuzJCLFwql5AUHwBUPgXcWSjWysAVkl5fKB4Akj5LqupXl/1tv1hj/BBCqFMdLzB3Z1w7d7EsAlDTAKCqEvUB0iaSEpYArqwKS2ST9GnyNqRMy+XASTXGDyGEupWo4je5nFbEDxXLIgD1zQBg+w+kKoGlvBq4RNK7c4JI2hX4VpmURvRL4N0uUWEphBCas1LJYJLmY/QVVUcyrlQuIaltAABg+wjgjIIhZyedDti2l4slfZJU3a8OzwKft72d7WdqukcIIfRL0QEAsErm9TEAKKzWAUBlG+CqgvGmB46T9PmxXCTpA6SKVHW4DFjBdp3LCiGE0E9LSyq58/5dGdc+Er1Vyqt9AGD7KWBD4NaCYQUcIukcSQtM8ydLywE/Ia9h0UieIB17XNv2HYVjhxBCk6YjfW9mk/QW0ubwXt1bIo/wUv2YAcD2o6T+0PcWDr0BcKukKdbslzQHcAowa+F7nwEsY/uoWO8PIQyoDSTtlBNA0gzAMaTZ216dn5NDGFmJdsCjYnucpPeQdsiXPNc/D/AbSccAu9n+byVCSSLV9V+y4P2eAj5m+1cFY4YQpu0p4Lmmk+igWch7+H5T0kW2ez0W+BXyy6Kfnnl9GEGRdsBjumGaCroEeFUN4e8FPmT7supeewMHFoz/ELCx7WsLxgxhaGS2A97c9mkl8xkGhdrxPgrsbvsXY7jvvMCR5HdG/QewUMy0lteXJYBJVccDNwHq2Cm/KOmo4MGSNiGNPEu5A1g9Hv4hhI75BfB0Zoy5gGMlnSFpwWn95GpZ9jbKtEU/Mx7+9ejbEsCkbF9a7cr/DWmjSUmvAL5QOOblwKa2/1U4bggh1Mr2o5J+DXyoQLiNgXUlXUsqFXwj8AdgXtKxwYmfkkWEjisYK0yikQEAgO3TJW0JHE9ao2qrE4Ed4ghKCKHDfkCZAQCkDdXvqD51O9v27/twn6HU9yWASVXreWvT3ra5vwS2iYd/CKHLbF8NnNx0HmP0AuVnc8MkGh0AANi+HlgVuKXpXCZzJfCRWHsKIQyIzwD/aTqJMTja9m1NJzHIGh8AANi+D1gTOK/pXCr3ApvFm38IYVDY/jtlT0XV6XFg36aTGHSN7QGYnO0nJG1EKtf7iQZTeQLYyPY/G8yhFpJmBhYEFgJmazidpo0HbrP9fD9uJmk64I2knualK1KO1j+BW2yX6tIZuuebwHuBtZpOZCpeAD5ge3zTiQy61gwAAKov410k3Q0cQv9nKF4Atu7ytFNVdesdpL0VC5Me9guRHvxzNZhaGz0t6Y/AN2zXUmhE0nuBLwFvoR2bXSdIuhn4nu2fN51M6C/bz0naArgGeH3T+UzB522f23QSdZA0O/Ba/ve9vDCpMN5jpGZH44AHgAds197+uO+FgEZL0mbAz4E5+njbPWx/u4/3K0LSnKRR/abA+tRTZGnQHQfsavuxEsEkvQr4NrBjiXg1+S2wk+0H+nXDKATUDpKWITVpa9t3xdG2P9J0EiVJWgzYDNgceBujf7H9M3AqcBpwfR370Vo7AACQ9BpSM4r39OF2VwJrdmXTX/XQ3570ZboWeaU+Q3Ku7Q1KBJJ0KukvfdvdBKxiuy8ldmMA0B6S1iT1NGnLzODZwPsGYYlK0kzAJ0lHL5cvEPIB4NfAISWXRlqxCXBKbP/d9nrAzsC/a7zVc8DHu/DwlzSjpM8B9wDfAd5JPPxLWV/Sx3ODSNqBbjz8AVYA9m46idB/ti8H1qAdnfYOBzbp+sNf0isk7QjcBRxGmYc/pKWCTwN3S/pqNcOYrdUDgIls/5jUTOLCmm5xuO2S7YqLq/5g7QDcCRwKzN1wSoPqUEk9742pGlAdXjCffviSpHmaTiL0n+3bgdWApkqcTwB2tP052y82lEMRkjYAbgZ+BixS021mAb4M3CNp92pzcc86MQAAsP034N3A/wFPFgz9F+CAgvGKqzaS/ZG0J+K1zWYz8GYHls24/vWkDpVd8kpg5aaTCM2w/SBpbXov6unRMiV3Au/o+mbU6uXsIOAc8r47xmJe0h6js6vl4J50ZgAA4OQHpGmVSwuF/T/buY0yaiFpbkm/Ja2N5bbTDKO3Usa1bymWRX/l/JpDx9l+3vbBpO+Zi2u+3XjSUe9lbV9Z871qVU3Fnw58saEU1gOukbR0Lxd3agAwke2/ko663Z0Z6te221J86CWqXbrXknb1h/6aN+Parr39T5Tzaw4Dwvbdttclfb+eQjoaXcrjwD7AErZ/2K8aHHWRtDhwNbBRw6ksBVxdLUGMSavqAIzR64AlMmN8tUQipUnamNQkafamcxlSN2Zce1OxLPor59ccBoztS0it1V9L2oS9PvBmxt699UHSSYNTgYsGpbqqpHmBC0gt6NtgDuA0SevavmK0F3V5ALBV5vXn2765SCYFSdqLNDDp5OzMgLgh49qbSW9Npdtc1+36phMI7VOVad8b2FvSHMDbSfsFFgHmqz7zknoMjJ/sczVwddc3901O0vSkVvaLNpzK5GYATpG0SvX7Nk3DPAA4tEgWhVRlen8GfKDpXIbcKbYf7fVi209JOhHYtmBOdbsSuKPpJEK72X4cOKv6DLPv095SyvMDZ0h6m+1pNn7q5FumpEWBVTJC/NH2BWWyyVcdHfsF8fBv2kOU6UPxKVJJzy54GvhwF2pghNA0Sf8HfKzpPKZhBeDo0fzETg4AgC0zrz+sSBblfAXYoukkhtzjwPYlmkBVMwjbAT3PJPTJs8AnbN/VdCIhtF217n9Q03mM0laSpllBt6sDgHdnXPskcHKpRHJJ2pq0MzY050LgTbbPLxWw2kS1HNDWpibXASvaPrbpRELoiH1pX++EqTlE0lSf8Z3bA1BVPlo9I8S5bdmJKmklRjlVU8jTpKnp8aRNO8NsPGnj23XAdXVMgdseB2wgaWVSoZ2Vab4d8A2kX/PVtkse8QphYFVH/ppsU9+LFYAPAlMc5HduAEA6ipJzPK6Wtq9jJWlBUi4z13SLCaSCHmeQiiY9UKrTXRgb29cTu+xD6LKDKNtz5UVSJcTrgFuAxUgvCCuQdvOXcqCkk2yPWOGxiwOAt2dc+zypql6jqmmZU0lvg6WdR+qgeJ7tOhsohRDCwKte1nL3nU10L7A7cPFI38+SZiBV5TwEWLPA/V5L6r554kj/sot7AHIGAL/POeJV0IeBVQvHvAF4p+31bZ8cD/8QQihiU8os2/2QtNfojCl9P9ueYPsqYG1gD+CpAvfdZEr/oosDgJz1/za8/c9M2eZD40hnzlexfVHBuCGEEPJbe08ANrD9CdujamRn+0Xb3yYtCfwl8/7vnVKH004NACTNBiyYEaIN67C7U27q/xpgZdu/inPcIYRQVlX98B2ZYfa13dNpINt3AzuQ9gz0ak7SjMLLdGoAQGq1mqPR0r9Vz/VSXaN+Aaxte3yheCGEEF5qA/I25V1BZtVZ25cD38qJAWw80j8cpgHAvS3YBf9lUtOGXPvY/lBbjjOGEMKAemPGtU8DOxTqhbA3eeW6lx3pH3ZtALB4xrWNdmmryhd/skCoH9tuZRfDEEIYMDlLzlfZvqdEEtUxvl9nhFhopH84TAOAPxbLojf/R/75zt9TZhARQghh2nIGADldRUdyXca1I+4761odgEUyrm263vnmmdf/FdjC9nMlkgkhDDdJS5O62i3G/1r7zgc8Rzpd9MAkP95k+/aGUm1SmwYAOZvY55A0i+2XHCvs2gAgpwLg48WyGCNJywJLZIb5uO2HS+QTQhg+VZGZrUgbwtYGFhjj9XeRqpeeAVw5JKWkcwYANxbLglRaXNI4pjCdPwoLAXdP+g+6tgQwW8a1jQ0AyD9Her7t3xXJJIQwVCQtKOkrwH3AccDWjPHhX1kS+BxpKfJBSXtLmqVcpq30fMa1dZR5z4n5sl9L1wYAnZwBIG8A8CKwZ6lEQgjDQdLMkr4B/I3Uye7VBcPPAxwI3C3pY1WTtkGUc8x6pWJZAJKWAObq8XKTlnNeomsDgM7NAEhahNTkoVfH2W70BEMIoVskrUtqMrMnZZvYTG5B4MfAzZLWqvE+TWnNAABYJePaR2xPmPwfdm0A0MUZgE0zr/9+kSxCCANP0nSSjgAuJO/U1FgtA1wo6f/6eM9+yBkA5Lz4jeStGdc+MNI/7NoAICffpn6tOWUkxwHXlkokhDC4qvX4U4DdGkrhlcD3JB0lqc5Zh37KGQCsUmpWRNKrge0zQrxs+h+6NwD4T8a18xfLYmxyji6eFjX+QwjTIml+4BKm0vmtjz4OXFDV0e+6nKN8rwB+XvWwyXUUad9Fr0b8dXRtADCqTkpTUHIDzFj0emQD4NRiWYQQBlL15n8OeWvEpa0FnDAAmwMvBHJaqy8GfDMnAUkfJP8k2ekj/cOu1QHImQHo+wBAkujtuA2k3f+XFkynFSStB6xDWh9bAniIlxYcmfjjA8CdQ3LWOISeVN8xx1B+w1kJ65Ma4Xym6UR6ZftZSb8F3p8RZidJ9wCHjrUvgKQNge9m3BvSd+mIMwAxAKjXfPS+A/ehQar6V01R/gB432T/atGpXPawpLNJo9fzbef8/ocwiA4Atmw6ianYQ9Itto9uOpEMp5E3AAA4GNhE0odtT7MqraQ5gW+TWgHnOnNKS8ldWwLo2gAgZ/p/YNr8SlocuJWXP/ynZV7SX4BTSIOBsyTtLCmnOlcIA0HSGqQOo213lKQ3N51EhnOAEp1X1wBukrSfpLdLesmpNknTS1pR0i7AbZR5+EMawIyoawOA+zOu7doAYMRdm11TTVEeTZoNyTETsCHwQ+ABScdXHRZDGDrV2vr3ADWdyyjMQFoK6CTbj5NmL0uYGdifVE3xcUm3S/qNpOtJe9xuIB39znl2TOpG4Pwp/cuuDQByWit2bQAwKDMAnwDeXjimgG2BOyR9U1LO7tgQumgXoEtv1e+S9J6mk8hwIPBY4ZgC3kCaGV2J/G6xI/n81E6SDdMAoNfNeDn+lXHtn4tl0azcLohTMwOwB3CPpC9KqqP2dgitUk0dH9h0Hj04RFLXnjkA2P4X8PWm8xijc2xfNLWf0LXfjJwBwPINNK7Iad+Yc22blK6GNZI5gIOAOyXlHpcJoe22BeYsGG8cqcPfPsAGpG6BXyGtfZtEuxQAACAASURBVP+z4H1WALYpGK/fvkPqq9AFLzCKHjLDNACYkbyqfGNm+z7gwR4ufYHCrSSbIGkhem9e0YtFgFMk7V/tPQhhEO1UKM59wLttL2x7U9tftX2u7bNs7297Q9vzA1uQjuuWsGOhOH1n+1ngY6Tv57b7qu3bpvWTOjUAsP0I8EhGiPVK5TIG+/dwzWG2c4oetcWDwFN9vqeA/YCTJc3a53uHUCtJK1LmzP9PgDfZvmBaP9H2KcCywIkF7ru2pH6+FBRV/ffao+k8puFk0gzONKlrlWarc+Hv7fHyu2wvVTKfaaneRC8A1h3lJbcDb65Gm50n6QrS8Zcm3Axsavvehu4fJiPpNHpvkHUvzbb1boN5gYUzY3yk13P5kj4DHJ55/+1tH5cZo1GSfgjs3HQeI/gDsKbtUb14da0QEMAV9D4AWFLS623/pWRCU2PbkrYHfsG0BwE3AdsMysO/cjHNDQCWB66TtIXt3zeUQyhn0aYTGAAnZRbl+RZpn8C7MmJsDnR6AAB8irSDf+2mE5nEg6QXnlHPunZqCaByReb1fV8GsD2O9BdmF0beE/A4aVfvKrYHZff/RAcBfRtwjWBe4PyqaEoIw2w86TuoZ9WRso+QNxOzXldPA0xUVWndEPhN07lU/gSsYfvvY7moi78J1wI5JXLXL5XIWDg5yvYCwOtIG2u2BZYC5rK97yCV/p2oKt/7EVJvg6bMCJwq6bUN5hBC0z5VHWfLUj1kvpQRYlaaa85WTPXdthWpHHOTzgZW72Vmu3N7AAAkXQO8tcfLnwTmHsSHbZtVb+A/I02bNeUm4G3RU6A5mXsAQu9eBOYotbm4qsL514wQK9vOabXbKpLeD/ycVOmvnw4FvjjWJkMTdXEGAKZS2nAUZqMdPbOHiu0rSZXL9gLOBR5uII0VgOPiiGAYQneWPFlUbazN+Tucu5GxVWyfBLwJOAHox1v1tcA7bO/Z68MfujsA+HXm9XsXySKMie1nbB9sewPb85G+BFYllcL8FGm/wO+p95ztZsDXaowfQhvV8bZ9Xca1pWrdt4bte2xvA6xCOvlVhzuBrWyvavuS3GBdPAWA7Zsl3QUs2WOIN0vayPZZJfMKY1NtjnxZ0yNJ85KqkW1K2rMxY+Fb7yXpRtsnF44bQlvdXEPMm0gnAnrRRGn2vqiWNt4t6Z3AB4GNSJuRe/UMaUBxMnC87efzs0y6OgMA6T9Gjn2KZBGKs/2w7aNtb0baJPlzym8iPFzSTIVjhtBWdUy5L5Jx7RPFsmgp2xfa3pE02FkLOIzUFn1aSzHPkvZX/Jx0ZHIe2xvbPqbkwx86ugkQQNJbyC+Xu57tnP0EoU8kLUuaui+5gezztg8rGC9MQ2wCbMwVttcsGVDS7fS+qfcDtktUFuykqqHTQqSB2fykToPjgHG2+7Y/qrMDAABJd5DeEHt1ue3SrWpDjSTtDBwJTF8g3KPA4rYfLRArjEIMABrzH9IpgCL7ayTNQfr70+uG2rVsX1Yil9C7Li8BAHwv8/o1Ja1TIpHQH7Z/BLyHvJ4QE81FOpUQwqCbFViuYLxV6f3hD/BAqURC77o+ADga+HdmjNgL0DHV7te3AncVCLerpNcUiBNC2x1W4gispFeSTuz0yoyw+Tf0X6cHALb/TRoE5FhX0nYl8gn9U1W92hDIrWw2E81X8gqhH94FfLJAnL2BFTOuv9b2MwXyCJk6PQCofJf8wgs/kLREiWRC/9i+C9iSvNLQANtKelWBlEJou0Mk9bxvqmpH/OXMHE7LvD4U0ulNgBNJOpN01jLHjaR6yhMKpBT6qNoY+MPMMEO9K7lfMjcBfobUXXKYrQ18OzPG30ktgcdUrEbSZsBR5Nfxf6Pt2zNjhAIGZQDwFlKlq9z1rSNsf7pASqHPJJ0PvDsjxAlVFa9Qo8wBwOa2h/rtUdIMwP3AfAXCHUU6CjvVc+mS5ibNtG5b4J63235jgTihgEFYAsD2H4BfFQi1u6TcmYTQjC+QtxT03urLNYTWqmYojykU7hPArZIOl7SNpCX0P0tL2l7Sd0itZks8/CG/jHsoaCBmAAAkLQbcDuR+iT8CrGA7jql0jKTjyfuiWt/2eaXyCS8XMwD5JC0J3EH+jOdIHgOmA2avKfbiJVoShzIGYgYAwPZfgR8UCDUP8EtJ0xWIFfprbyCnVOZmpRIJoS7V5tdf1BR+Tup5+AMcFA//dhmYGQD4bxOZu4E5CoT7lO3cQkOhzyT9jnTcqRfjgEU8SH8pRiBpZlIZ0pE+C5IKJNXVMnkxoNcTFzEDUJH0atIsQInvun74O7BUHP9rl052A5wS2w9L2gP4WYFwX5F0vO3HCsQK/XMavQ8AFiLV5X6wXDrtUC2RbUKafn87A/Z3f9jYflDSvsARTecySvvGw799BmYJYCLbRwPnFAg1D7BngTihv04nbzNgHV3T+q7ayLWypAMl3Qz8hXR87B3Ew39QfA+4sukkRuEk2z9vOonwcoP6RbATcBtpPSvHqgVyGSiSFgCWJ7UCnRu4Cri6VJORXLbvl3QDsHKPIRYmv8tkYyRND3ycdCoip11raDnbL0jaHLgWeF3T+UzBDcCHm04ijGzgZgAAbI8Ddi8Q6vUFYgwESfNL+jZwL3Ae8FPgUOBy4GFJh1Y1wtvghoxrFyqWRZ9J2op0ZOu7xMN/KNh+CNiYafeYb8I/gM1sP910ImFkAzkAALB9LHBKZph5SuTSZdVU8qdIU8i7AzOO8NPmBD4HXCBp/n7mNwU5jUY6twQgaW1J1wAnAVHSesjYvgXYCniq6Vwm8STp4X9/04mEKRvYAUDlw6Q3ol5dUyiPTpK0CHA+6Y1y1lFcsjZwnqSm/1zl1HDozABA0lKSzgIuIXVHDEPK9rnAusA/m86F9LKwuu2h/v7sgqa/qGtVdQvcjFSAohcXFUynU6oOibcw9h31b6Zc1bBe5QwAOrEEIGlD4DpSR8QQqB64qwF3NpjGRcBbbd/aYA5hlAZ6AAD/LZqxLfDiGC/9N3BC+YzaTdI8kn4NHEfvmygPbLiQUk6xkbmLZVETSXsCZ9D7efowoKo22W8Ffkx+l9Qx3Rr4DrCe7Uf6eN+QYeAHAAC2f8vYW1juXFUXHAqSZpT0aVI55S0zwy1KfsewHDn3bm0NAEkzSToO+AZD8nc3jJ3tx23vDKxDf2YDLgRWtr277ZxKnKHPhuZLxPbBwK7AtNr9GviG7aF4+5f0CkkfJn1RfAuYt1DoJqfSc+6ds4GwNpIWBi4Dtms6l9ANtn9POrL7KdLAvrRbgA1sv8t2Z4/ODrOhGQAA2D4SWBO4eQo/5SpgVdtf7F9Wzan6e98CHA28tnD4uQrHG4ucjXytawIlaQnSen+vtQ3CkLL9bFXSfBlgPeAs4NmMkPcD3wfWB95cbT4MHdWWc9t9Y/s6YAVJC5Kqor2atGv1L8CtQ1AHfl5gB+BjwNI13eYF4PqaYo9GzgCgVTMAkuYAziTV6A+hJ9X32vnA+ZJmIm0WXAdYi9SfYT5eetLnBdI5/nGkQfFNwBnxpj9Yhm4AMJHt8cAvm86jHySJdERoZ9KpiLr73l9r+9Ga7zE1a2Rc25oZgGoj5QnUN1ALQ6iqyX9J9fmvqknUfMBzwENtqe4Z6jO0A4BBV73pvxt4T/Xp55p8iWZMPZH0BvIemG2aATiUNNUaQu2qin33NZ1H6J8YAHScpNlJJYsXm+TH1YEVqa+l69QcbfsnDdx3os0zr2/FDICkjwJ71Hybf5HObf8NGF99xtF73YzR+CZp6a0XA708F0K/xQCgRSStRDrD+xrSOvYrSKcWnpvkR1f/fuIDv03lii8Fdmk4h80yrr2rDWeYJb2dtNGqDn8hdUw8A7is39O8kp7IubxYImGoSZoFWID/7a0ZD4wftr4FMQBogapX+8HA+5vOpUcvAF8HDmjyHLCkFckriXt6qVx6VW3QOo7y+zT+BOxl+4zCcUNoNUlzkSpmbgq8ifTQH7GIlqTHSYOBm0nfB2fbfrxPqfZdDAAaJmkV0pvzzE3n0qO/AR+0fXnTiQCHkPeWeFqpRDLsRtkjmeOA/UhLM7GpKwwFSXMC25NmBNdi9M+6OarP0qQXsuckXUL6bjjOds4MVusMVR2AtqmOIp5Kdx/+vwRWaMPDX9J6wDszQjxIqgPRGElzA3sVDHk8sKTtn8TDPwyDqlrm50hLXd8hnX7KedGdnrSZ+nvAPZI+LanuU1R9EwOAZn2PDnWfm8QTpLf+7dowPVZ1HzwkM8yZtsfaL6K0vem9/8KkXgS+YPuDttvUIjaEWkxW0fRQ6ilENi+pWuodkrarjld3WgwAGlKt9a7XdB49uJL01n9804lM4hBSydMcjU7/V/tAPlkg1BPAxrZzB0QhdIKk+Ug1DY4mbZCu26KkfTq/q2btOisGAM1ZC5il6STG4GHgc8Batu9tOJf/krQj8NnMME8CFxRIJ8fXyd/4NwHY0PY5BfIJofUkvQm4Fnh7A7d/J3CNpDc2cO8iYgDQnKWaTmCUHgL2BBa1fXib1pIlrQkcVSDU923n1EfPIml5YOsCoXZpw36MEPpB0qakGclFG0xjCeBqSRs0mEPPYgDQnFYUnJmKf5DerBezfajt/zSd0KQkrUWats99a/4XcFB+RlneT/4Z92/ZbqwCYwj9JGlb0gbq2ZrOhXSk8CxJWzSdyFjFAKA5bS25OR74NPB6299s4yYySTuTpuxLFEH6mu06K9+NxqaZ118GfL5EIiG0naTVgJ/SrsJQrwCOrWqRdEYMAJpzG+2aBfgPsCvpwX9EGytiSZpe0pHAD0nHc3L9jXQSozGSXg8slxHCwGfatDQTQl0kvYb05j9T07mMYBbg9Op4dyfEAKAhVUeuLzWdxyT+YvvIKq/WkbQVadBUYqf8RF9ucu2/kvv2f4LtJlsvh9AXkmYllbBeoOlcpmIR4LTqlFfrxQCgWb8gTd+2QVsf/OtIugY4CViyYOg/0I520DkDgAnAl0slEkLLfQl4c9NJjMJb6ciSXAwAGmTbpFa9RzedC+Vrz/dEyeqSviHpduBi8ur7j+RZ0o75RrvLSZoHWDMjxDG2/1oqnxDaStJCpL1JXfH5qj5Bq0UvgIZVU+4fkXQh8CFgHXp7GD9HKgLT68a42Xu8rieSFgZWABYiNeeY+FmN+qf4drZ9Tc33GI0NgOkyrj+pVCIhtNx+dKtuyuykyp67N53I1MQAoCWqynrHS5oNWJV0vGVG0mBg0h+nJ/Vr/+ckn4dsPyZpceDuHlOofQBQbeA5hDTIaWod7xDbxzZ078ktnXHto6TqZyEMNElLAx+tIfTzpC6ZAMtQ/nn4CUlH2P5L4bjFxACgZWw/CVzY4+X/zLh1rQOAqk73t0mdtppyJmWb7eRaKOPas5psvRxCH32BvJmySV0FHAvcCNw8cdNztWlvBWBFYEdglQL3moG0F2CXArFqEXsABkjVqnJCj5fPJKmWAaGkD5D2OTT58L8V2K4FDX8mlTMAOL1YFiG0VPWdtEmBUM+QHsZr2j7K9rWTnniy/Yzta2z/AFid9KJQ4oTQZlWzslZqbWKhZ49kXPu6YllUJL0aOLJ03DF6kNQg598N5zG5nAHA7cWyCKG91gJyG+78AVjR9mGjeQGw/YLtg0mzAX/IvPcCpH1NrRRLAIPnn6TNdL1YGrinYC6QNsKUqNjXq5uBTWz/rcEcpiRnADC+WBbd8VVJbd4J/m9Shc+/VZ9Lbf+j2ZQ6b7PM6x8FNrI9bqwX2v6TpI1Js4c5bbo3I/UsaJ0YAAyehzOuXRo4u1QilbcVjjcWpwLbt62PAYCkGel9YPSs7X+VzKcjlm06gTGypGtJyzW/sX1n0wl1UO4A4P96efhPZPsBSbuR9g30ajNSQ7XWiSWAwZPTY6BoW8vqIZdT5jbHV4Et2vjwr+SUCx3Gt/8uEulEz9eB2yX9UlLJYlYDrToq/JqMECfaPiE3D9u/IDUe69WSVc2P1okBwOC5KePa0m9Yc1CmZv9YPA18wPY+TRf6mYacLmZtXM4IUydgG+BPkn7U1gdCyyycef2BRbJIvpp5fe6vpRYxABg8OQOAVUp+Mdl+COh5+q0HlwNr2D6xj/fs1R30vsv4xpKJhL56JbATcL2kLpS1bVLOHpkngT+XSoS0lyjnVEDOr6U2MQAYPDdnXDsdsHGpRCr9aFRzG2mj39tt/7EP98tm+zl6/72K5j/dtyhwpaTtmk6kxXLemm8seeS3+vua83IVMwChfrYfAe7PCJG76WZydVbdux/4CLCC7TNrvE9dellXfAK4qHQioREzA8dJ2qPpRFoq5635umJZlIkZMwChb3JGqu+RVKzmtu3fUL5m/XhSdbAlbR9t+4XC8fvlUMY+C7BHHC0bON+U9Jmmk2ihmTOureOUTE7MnF9LbWIAMJiuzbh2ZlKHwpI+Sd7SBKTCNweTqnQtbPuQSSt5dVE1rfhh0nrlaJxi+2f1ZRQadLikzzadRMvknHZZqVgWZWK28uRODAAG07mZ1xddBrD9MLAycACpa+FovEiq2/0F4A2232h7L9tXt3x3/5jY/gPwJqY+rf8UqavYln1JKjTlMEmfazqJFnkg49oStfxLxsz5tdRGA/RdGipV7ekHgXl7DPEvYP46ptarjoBrkAYES5AqF44nnRaY9McHh6nZjSQBm5IKJ61MqhPwR9K646lt7ig2FpJOI/06w5R9wfYhTSfRNEnrABdnhFiw1HKZpEWBv2aEWN321SVyKSkqAQ4g2y9KOg/odYfx3MDbqaHdrO2/AydWn1CpZjVOI6/gSBgM35Ak299oOpGG5b41bw0cUSIR4P2Z17dyBiCWAAbXbzOv36JIFiGEXhws6YtNJ9Gw+0iFvXr1dUlL5CYhaWngKxkh/k3sAQh9dh5pHb1XH5XUyqMrIQyJgyTt1XQSTbH9LHB+RohZgGNy2vFKmg74OTBTRh7ntHU5MwYAA6raePf7jBAzkzbthRCa83VJX246iQblLomtAXyt2mMzJtU1XyX1c8jR2mW92AQ4wCRtA/wyI8QLwPK2/1QopTDkMjcB7kMq99xWywK7UE/Xwn1s59aj75yqNPmDpCqlOS4BPmJ7VBv5JC0O/BRYO/O+E4D5bD+RGacWMQAYYFU3vgfove0swJm2NymUUhhymQOAzW239m1qIklrkWbPch8ek9vXdskGN50g6WJgnQKhniS15T12Sl1CJc0G7AgcBMxa4J7n2t6gQJxaxBLAAKvW0H6eGWbj6gsthDAKtn8PrEd+PY7JHSBp38Ixu+CoQnFmA74PPCHpT5J+IWmP6nOcpD8DjwPfoczDH8rlXouYARhwkt5AqqKX4xrbq5XIJwy3YZgBmKiagTsVKP0G+BXb+xeO2VrVWvy1pPoYXXK57bc3ncTUxAzAgLN9B/nn+VeVFFXoQhiDagZuc+CcwqH3k5RzLK1TqhoZezadRw9an3MMAIbD10vEkDR9gTghDI1qEPA+yg8C9pU0NKd0bF9Mfm2TfjrV9lVNJzEtMQAYArZ/B1yWGWZJylXVCmFoTDIIOLtw6H0kDdPJgM8CI27ea5kn6MDbP0Qp4GGyL3l1tQF2kXSr7e+XSCiEYWH7WUnvA34DbFQw9JerssEj1gqQND/wemDh6rNQ9aNJ1en+Uf04Hritqh/SSrb/LOlDwMnAmM/198mLwLa27246kdGIAcCQsH2JpIuAdTNDHSHpDtsXlsgrhGFhe4KkLSg/CPhSNQj4Evy34daW1Wd1Rv+wfEHSFVQ9KUZ7Zr6fbJ8iaT/aW6Tsi7ZLz/TUJk4BDBFJawBXFAj1KLCq7bsKxApDZJhOAUyJpBlIb7EbFw59IvA6UuW6Em/INwGHA8fbzikrXpykE0jNftrkWNs7NJ3EWMQegCFi+0rS20euuYAzJc1ZIFYIQ8X2BNLb+RmFQ28NrEa56fEVgGOBP0hqWzGbHSnzXVbKr4Cdm05irGIAMHx2JRW7yPUG4MSqWUaYAklzS1pb0i6SNpW0YNM5heZVg4CtKD8IqMPywDmSLpa0XNPJANh+mvTf7wDSfobGUgG+bHvbarNnp8QAYMjYHg98oVC49wDfLBRroEh6raSzgUdIdRi+T1pbHSfpz5LWbDK/0LxJZgJObzqXUVoHuFrS5k0nAqk+gO39SDMfTzWQwpOkZakSx6wbEQOA4fQjyjVV2U3SYTET8D+SPgncBrx3Cj9laeBSSQfntCoN3Wf7OdKbbFf2NswK/KZNHQpt/5q02fHSPt72AmA1210ZvI0ovnyGUFVZaydSp6oSPgucNex7AiTNIOlo4EhS3fGpeQVpJubTtScWWq0aBLyfVDa4CwR8VdKvqg2NjbN9s+11gA2BW2q81R+A9Wy/2/ZtNd6nL2IAMKRs3w7sXTDk+sA1Ve+BoVOdt74I+PAYLz2waj0ahlg1CNia7gwCAD5Amk1sDdvnAG8GdgBuLBUWuA7YDljJ9vmF4jYuBgBDzPahlP3CWYo0CGjbjuFaSVqe1KzkbT1cPguwX9mMBtZAn1meZBBwStO5jMEOklpV9c72i7aPtb0S8FrSxucLgefHEOY54HfAJ4HX2H6r7V96wM7NRx2AISfpVcD1pFK/pbxIKohxaMGYrSRpU+A4pj3lPzV/sr1soZRardoYOaW9EdOyvu3zSubTRpJeCZwAbNF0LqP0ImkzXKtPNFRLlEsDCwILVD9OPJUzfrLP7bZLnJZqtRgABKqjPdeQ3kZLOg7YyfYzheM2TtIspPLKe5J/7vp5YNZqV/hAk3QxaTd5L95W1bIYeB0cBDwJrBjFwbollgACtm+lniIWHwRulbR11dN7IFTlXG8nbeIr8euaDpixQJwumDnj2n8Xy6LlbD8PbEM6RtoFswGHNJ1EGJuYAQj/VdXY3r+m8DcAX+hyDwFJSwHfJdU/KOl2228sHLOoagC3DLAysBIwf4+h3kOqJNmLxWzf2+O1nSPpXaR16C5Z03aJcuOhD2IAEF5C0jeBPWq8xfmkgcAfa7xHUdV0/96k4451HHtqdQ1xSYsCPwPe0WwmzGu7K2/E2SSdA3RtQ+1VttdoOokwOjEACC8j6cfAx2q8hYFfAvu0sePYRJIWIdVL2Jm0aagOE4C32r6ppvhZqqpvx5K3ybGUGYdhnwSApGWAWylX138C6Xz8jaTZuOlIMzkrActStjPslrbbVKc/TEEMAMLLVNXpfkn93bYmAD8lNdK4og0dx6qp7ncBuwCbkL4o6/Q524fXfI+eVG1lbwVe1XQuwMO252s6iX6R9CPS4DPXo8BuwInVMcOR7jUT8BHSGv6sBe55vu31CsQJNYsBQBiRpOmB40llSvvhn8CZpJKoF1TNPvpG0nzA9sAnKHskcmpOBLZp69liSedRfr9Dr66wPRT9E6o/i/cBM2WGOgvYuer/MZr7LkYakOcu9UwA5rP9RGacULM4BRBGNElRkm/16Zbzkd5CzgAelnSKpA9JmruOm0laSNIHJH1f0q3Ag6Te5/16+B9Kux/+r6U9D3+AO5pOoI8+Tv7Dfy/bG4/24Q9QLce9Ezg4894zkCqDhpYrue4TBkz1cPqMpPtID8d+DRhnATavPi9Iuhy4Cbhzks9903p4VkWO5icNLuYnFf14K7AW0FT53eeBT9n+YUP3H62Vm05gMsM0AMidPj/Pdk8PcduWtDdpFmDVjBw2BU7KuD70QSwBhFGRtCXwC/LfTEqZADxBOhs+8fMM6YjZxId+287W/xt4v+1zm05kWiR9FWhNxzdgs653XhuNqgDQE/ReL+FRYDnb4zLzeAOp8U2veTwGzN3WGa6QxAxAGBXbJ0t6gFSd7LVN50OaZpy3+nTB/cCGtm9uOpFRalsZ1GGZAViBvGJJe+Q+/AFs3yFpf+AbPYaYkzQIfyg3l1Cf2AMQRs32VaROW11qVtIG5wCrdOjhD6k/RFs8Rlr2GQbLZFxr0ibaUnIbhS1UJItQmxgAhDGx/ajtLUjH5Pq6U7+DniTtwt7Q9j+aTmaMbiB1RGuDS9twRLRPcja93lO4gc3dpMFXrxYulUioRwwAQk9sH0XaUHdr07m01O+B5W3/uOlEelEd4fpa03lUOls+ugc5A4Abi2XBfzcB58wExQCg5WIAEHpWNRFaEfgcQ9SoZRqeIZUMfkebqxyO0tdIG8GadlHTCfRRr30SoJ7fq5xBxYLT/imhSTEACFlsP1dVsluKdEpgmHf9ngK82fY3B2HKuupItwnNPoAftH1bg/fvtyczrq1jQ2xO9cX/FMsi1CIGAKEI2/+w/SFgTQpPRXbA70ib/LawPVC71W3fTyqNvBtpTbjfA7xhmv4HGHXhnhGsVCyL/1kl49rs0wihXlEHIBRX1dPfCNgLWL3hdOp0FfAl25c0nUi/SJqTtOwz2nbA3wZenXHLTW2fkXF9p1T1Nn7d4+VPAHOWOnsvaVbScdBe+2GsY/vSErmEesQAINRK0tqkgcAgNQe5FDjc9plNJ9JmkjYj7yjZP4GFp9TEZhBJehtweUaIpUvNQlV/dy/JCLGU7btK5BLqEUsAoVa2L7W9Pumt8WjSW0oX/YNUI31J2+vEw3/qJE0HHJQZ5lfD9PCv5E6bH1giiWoWb//MMA8USCXUKGYAQl9VrUc3BLYD3kv7yvVO6gVSEZ+fAmdXm+LCKEjaCfhRZpiVbA/VfpLqwfsAeTvot7X9q8w8dgW+kxHiZtsr5OQQ6hcDgNCYaj15C9KAYG3yzkDX4VTb72s6ia6RNAtwF3mV4G61/aZCKXWKpB+Q2lL36l+kfgA9bSiUtASp+dYsGTkcaHvfjOtDH8QSQGiM7cds/7R6yM5HWib4LHA27Vgq2FzS5k0n0UGfJr8MbNu7JdYpt5zv3MA5kpYd64WSVgbOJO/hD6mtd2i5mAEIrVStIS8OLFl9lprkfy9C7zuTx+pBGzq9CgAABnhJREFUYBnb/+rT/TpN0htJ1eNyHiAPAYvaHspS05JmIG2AfFVmqGeB/YDDbL8winvuB+xJfpO4B4DXRCfA9osBQOgkSTMDswGzT/LjLKQ2wU9P8vkB6Rx7juNtfzAzxsCrfk+uBZbLDLVXr/3sB4Wk40j7ZEq4FjieVJ/jj7afrO4xB/AWUv2AHYExzxhMwZG2dy0UK9QoBgBhoElanlQiNXe5a6jOo/dC0k+Aj2aGeQx4XdWLYGhVMym3UH6m60VSZ8XpgCUAFY7/DOn4398Lxw01iD0AYaBVLXiPLhDqx5IWKxBnIEnalvyHP8B3h/3hD2D7z8BPagj9CmBp0lJa6Yc/wBHx8O+OmAEIA0/SgqRd6bNmhrodWMP2o/lZDQ5JS5Kml2fLDPU4sLjtR/Kz6j5JryaVX87979ovj5B+/0q2JA41ihmAMPCq41CHFgi1NHBqtWEq8N+H1BmUeUh9KR7+/2P7Qcr8ue2XA+Lh3y0xAxCGQqGz6RPFpkBA0vzAxcAyBcJdD6w6CF0US5I0I+m/cdt7avwO2GBapw1Cu8QMQBgKtp8C9i4UbjtJw75LfV5Sp74SD/8XgU/Ew//lbD8LbA60eV39TuD98fDvnhgAhGFyDOVaFX9B0o8l5Z6Z7hxJ8wAXkH/cb6Lv276hUKyBUy0FbAo81XQuI3gM2MT2Y00nEsYulgDCUJG0FGm6efZCIX9Levt5slC8VpM0H3Ae6fx4CfcBy8fa8bRVrYJPoH9FsKblOWAj2+c3nUjoTcwAhKFi+05gp4IhNwAulbRAwZitJGlNUk2FUg//54Ct4+E/OrZPBjYinZZo2sPAu+Lh320xAAhDx/aJwPcKhlwRuErSSgVjtoaSz5M2oy1cMPRetq8uGG/g2T4XWI10PLAptwCr2P59gzmEAmIJIAyl6ijfFcDKBcM+D3yDdBxqQsG4jak6Nh4DbFI49Bm2Ny0cc2hImgs4ifwy12N1OvDBYVnyGnQxAAhDS9KipE2BcxUOfQvw4a73spe0NqmKYukKiH8D3hIFlfJIErA18FVS46w6/Zk0Y3N6zfcJfRRLAGFo2b4X2AEoPQp+E3CNpAMkzVQ4du0kLSnpFOASyj/8Hyf1VYiHfyYnJwBvBHYldVEs7QHgY8Cb4uE/eGIGIAw9SfuTWqHWYTxwMPAj28/UdI8iqmnlfYFPAtPXcItngPfYvqyG2ENP0mzANsBmwDuBGXsM9TRwPnAacOKwtmUeBjEACAGQ9DXgSzXeYhz/Gwg8W+N9xkzS7KS3vH0ovxwy0fPA+2yfWVP8MInq93QDUv2A5YAFgPl4eQOgF4F/kgaqN5Me+udVhbPCgIsBQAgVSQeQHoJ1egA4EjihWoJojKS1gI8AW5LfKGlqDOxo+5ga7xGmoSpa9WpgQdKDfzzwUFTwG14xAAhhEpL2A/bv0+2uBk4ETrI9rh83lLQIad/Dh0n94OtmYFfbJY9dhhAKiAFACJORtA9wQB9v+SJwOam2/vXAdbb/WSKwpMWBNSb5LEf/Nv8+B+xg+1d9ul8IYQxiABDCCCR9Cfhagyn8DbiONCC4H3h0ss9jwCuBeYC5qx8nfuYjVetbnTTl24T/kNb8o1JcCC0VA4AQpkDSbsBh1LMjfpA9ArzX9rVNJxJCmLIYAIQwFZJWJTVgWbThVLriFmDLqudCCKHFohBQCFNh+xrSdPpvms6lA34EvDUe/iF0QwwAQpgG24/Z3pJUIKfVxXwa8m9gG9sfb3uxoxDC/8QSQAhjIGkF0tG9NzSdS0tcT3r4N9mdLoTQg5gBCGEMbN8ErERqJ/x8w+k06THSjMiq8fAPoZtiBiCEHklailTed/Omc+kjk9oDf8F2Hc1nQgh9EgOAEDJJWgM4lFRoZ5DdAOxu+4qmEwkh5IslgBAy2b7S9tuA9wGDuAP+CtK5/pXj4R/C4IgZgBAKqhqufJS0Pv6mhtPJdT7wdduXNp1ICKG8GACEUBNJK5Ga7mxDKtHbBY+QCh/9zPaNTScTQqhPDABCqJmkGYCNSIOBDUg1/NtkAnAWcCxwju3nGs4nhNAHMQAIoY8kvRrYFlgXWA2Yt6FU7gcuInUgPNP2ow3lEUJoSAwAQmhQ1a53tUk+K1C++dCLwL2kXfwXARdFud4QQgwAQmgRSTORCg0tw0tb/c49yWfi/4dUhnfyzz+AO6rPncDdtp/t368ihNAF/w+25Q+nsKR7/gAAAABJRU5ErkJggg==;" parent="1" vertex="1">
          <mxGeometry x="1014" y="394" width="52" height="52" as="geometry" />
        </mxCell>
        <mxCell id="kxb5aIU8mdvdAVlikhvM-32" value="" style="edgeStyle=orthogonalEdgeStyle;rounded=0;orthogonalLoop=1;jettySize=auto;html=1;entryX=0.5;entryY=0;entryDx=0;entryDy=0;" parent="1" source="kxb5aIU8mdvdAVlikhvM-19" target="kxb5aIU8mdvdAVlikhvM-29" edge="1">
          <mxGeometry relative="1" as="geometry">
            <mxPoint x="550" y="600" as="targetPoint" />
          </mxGeometry>
        </mxCell>
        <mxCell id="kxb5aIU8mdvdAVlikhvM-19" value="&lt;div&gt;&lt;br&gt;&lt;/div&gt;&lt;div&gt;&lt;br&gt;&lt;/div&gt;&lt;div&gt;&lt;br&gt;&lt;/div&gt;&lt;div&gt;&lt;br&gt;&lt;/div&gt;Agendamento da&amp;nbsp;&lt;div&gt;manutenÃ§Ã£o preventiva&lt;/div&gt;" style="rounded=1;whiteSpace=wrap;html=1;" parent="1" vertex="1">
          <mxGeometry x="480" y="365" width="140" height="110" as="geometry" />
        </mxCell>
        <mxCell id="kxb5aIU8mdvdAVlikhvM-20" value="" style="shape=image;verticalLabelPosition=bottom;labelBackgroundColor=default;verticalAlign=top;aspect=fixed;imageAspect=0;image=data:image/png,iVBORw0KGgoAAAANSUhEUgAAAgAAAAIACAYAAAD0eNT6AAAABHNCSVQICAgIfAhkiAAAAAlwSFlzAAAOxAAADsQBlSsOGwAAABl0RVh0U29mdHdhcmUAd3d3Lmlua3NjYXBlLm9yZ5vuPBoAACAASURBVHic7d152GdFeeD9b2Nv0E2zCYJKBAyIG0oiicENSFwQNCajiTrReWMSjYyvRoOaTIyCr0mUCKIxLokkMzrjFZ0ZJwmijigOsrgkUbBFRSIoiMgOTYM0dPczf9TTb5oGup/nV3XqPnXq+7muusDl93vuuuucU/fvLHVAkiRJkiRJkiRJkiRJkiRJkiRJkiRJkiRJkiRJkiRJkiRJkiRJkiRJkiRJkiRJkiRta0l0ABrcPsBTgUcDhwKHAHsAuwOr5/8/64FbgJuBS4HvAJcA5wHXVY5XZTn+fXP8pc4cAZwGrAU2A3Mzts3z33Eq8ISqPVAOx79vjr/UmTXAicC3mH2H31G7ZP5v7FqpT1o4x79vjr/UoT2Bk4GbGG7H37bdBJxEOpWoWI5/3xx/qUNLgJeSrtHV2vG3bTcCrwF2GrivujfHv2+Ov9SpnwYuIG7H37adDzx80B5ra45/3xx/qVO/QrpbN3qn37atA144YL+VOP59c/ylDu0EvIv4HX1H7VQ8JTgEx79vjr/UqeXAR4nfuRfa/huwbJBM9Mnx75vjL3VqOXAW8Tv1Ytsn8SBQguPfN8df6tQS4L8QvzPP2j6KpwNzOP59c/yljrVwzW9H7c+LZ6Ufjn/fHH+pUy8gfuct1V5UODc9cPz75vhLnXo46eUc0TtuqXYLcFDRDE2b4983x1/q1BLGtchHqfZFfPvkQjj+fXP8pY79NvE761DtPxTM01Q5/n1z/FWNFdm47El6H/cDB/judaTHic4BLga+Tzo1B+nd4AcAjweOAY5jmDd+XQc8Yqu/q3ty/Pvm+Esdeyvlq+5LgZcBuywijl2A3wK+O0A8b15EHL1x/Pvm+EudWkPZV3reAfw+sDQjpmXA64GfFIzrRnyf+H1x/Pvm+EsdO5FyO9l3gccUjO2JwI8Kxve6grFNhePfN8df6ti3KLNzfQ3Ye4D4Hkq6dlgixrUDxNc6x79vjr/UqSMos2N9l2F2/i0eClxTKNbDB4yzNY5/3xx/qWOnkb9D3UHZ037354nAnQXidYnQf+P4983xlzq2lvwd6vcrxvvmAvFeVDHesXP8++b4S53aB9hM3s50KXl3+y7WavJPBW5imOedW+P4983xVxhf1RjvqeQvyPQOYGOBWBZqPemZ5Rw7kfreO8e/b46/wlgAxMu9brcO+LsSgSzSh4HbMr/j0SUCaZzj3zfHX2EsAOIdkvn5s0g3ANV2O/CpzO94RIlAGuf4983xVxgLgHi5B4BzikQR87dz+z4Fjn/fHH+FsQCIl3sjzMVFopjNNzI/701Ajn/vHH+FsQCItzrz81cUiWI2l2d+3jXBHf/eOf4KYwEQL3cnWFckitncmvl5DwCOf+8cf4XJffxE+eYyPx89hq3HH631/LUef7TW89d6/F3zDIAkSR2yAJAkqUMWAJIkdcgCQJKkDlkASJLUIQsASZI6ZAEgSVKHLAAkSeqQBYAkSR2yAJAkqUMWAJIkdcgCQJKkDlkASJLUIQsASZI6ZAEgSVKHlkYHkGkf4HDgEVu1fYBVwB7z/1weFp0WIvd94mqb49+3sY//XcDtwM3z/7wW+C7wHeBS4OvA9WHRZVoSHcAi7QI8HTgGOBp4DO31obTo/o99B546x79vjn+sOWAt8AXgHOBs4CehES1C9MazEDsBRwIvAV4IrIkNZ3Six7D3A0A0x79vjv+4rAP+AfjvwKeATbHhbF/0xrM9K4GXAScCBwbHMmbRY+gBIJbj3zfHf7wuB94J/A2wITiW+xS98dyXXYATgNcB+wXH0oLoMfQAEMvx75vjP37XkAqBDwB3BMdyD9Ebz7aeA7wHOCA4jpZEj6EHgFiOf98c/3b8EHgt8D+iA9kieuPZ4gDgL4Djg+NoUfQYegCI5fj3zfFvzz8C/y9wZXQg0RsPwPNI10j2iA6kUdFj6AEgluPfN8e/TeuA3wE+HhlE5EJAK4B3A/8LJ39JUj/WAB8DPkiaC0NEVY97AZ8Enhj096fEXwB9c/z75vi37wLgucBNtf9wxMbzYOAzwGMD/vYUeQDom+PfN8d/Gr4NPBO4quYfrX0J4FDgyzj5S5K0xSOB80nL2VdTs3p8COlUx8Mq/s0e+Augb45/3xz/abkaeBLwgxp/rNYZgL1IayQ7+UuSdN8eQlpCeM8af6xGAbCCdMPfIyv8LUmSWvYo4EwqPB1QowA4Fe/2lyRpoY4EThn6jwx9/ej5pLciDe160usYv0y6m/KK+f9uPel9zmOWew2t9WuA0fFHaz1/rccfrfX8tR7/jiwHVgN7AweRzmQ/EThq/r8b0hxpDv3EwH9nEAcAt5A6MUS7CXgfaTDGvhFtT24eorUef7TW89d6/NFaz1/r8c9qCelX+vuBmxlunruZRu+dO5NhEnIN8HpSVTYFre9ArccfrfX8tR5/tNbz13r8JewKvBG4lmHmvH+o15Uynkf5JNxNWjp4TcV+1ND6DtR6/NFaz1/r8UdrPX+tx1/SKuDtpLmq9Pz3nIr9yLIL8H3Kdv57wBEV+1BT6ztQ6/FHaz1/rccfrfX8tR7/EH6edB9ayTnwcmDnmp2Y1YmU7fgngd2q9qCu1neg1uOP1nr+Wo8/Wuv5az3+oewBfJqyc+HvVe3BDFaQVjIq1eGPAMuq9qC+1neg1uOP1nr+Wo8/Wuv5az3+IS0FzqDcfPgjYGXVHizSCZTr7H+m7bv7F6r1Haj1+KO1nr/W44/Wev5aj39oS4APU25efEXd8BduJ9J1ihKdPJNUPfWg9R2o9fijtZ6/1uOP1nr+Wo+/hmWk5X1LzI3/ykh/GB9NmQ5+n0rrII9E6ztQ6/FHaz1/rccfrfX8tR5/LbtT7gfyU0sFVXIp4JcU+I6NwAtIi/xIkjQFtwAvAjYV+K4Sc21RO1Nm1b9Tawc+Aq1X0K3HH631/LUef7TW89d6/LW9h/yc3crIHgn8ZfI7dQ1pRaXetL4DtR5/tNbz13r80VrPX+vx17YbcB35eTuuRDClLgEcU+A7TgVuK/A9kiSN0a3A6QW+5+gC31HMN8irZm6iz1//0H4F3Xr80VrPX+vxR2s9f63HH2EN+ZfMv14ikBJnAPYBHpP5HX+Hv/4lSdO3Dvh45nccBjwwN5ASBcDh5D+X+OECcbTqrszPLy8SxWxWZH5+Q5Eo2ub4983x71PunLcTae7N/pJcj8j8/PXAVwrE0arcMx+Rb0fMfUeDZ30c/945/n26kPzH3XPn3lEUAOfQ77UggPWZnz+wSBSzOSjz8z0fALZw/Pvm+PdpM/B/Mr/jkNwgShQAuUH0/Osf4IbMzz++SBSzeVzm53P7PgWOf98c/359KfPzozgDsG/m579TIIaWfTfz8yUewZzVL2Z+PrfvU+D4983x71fu3Jc79xYpAFZnfv6yAjG07NLMzx8H7FIikEVaBRyb+R25fZ8Cx79vjn+/cue+7EfnSxQAuUHcXCCGln0z8/O7ktaYru3F5Bd/uX2fAse/b45/v3JvAhzF2jkbyFvQIPdRktbtQ7ohJCeH3yW9crKW5cD3MmPeRIHnWCfA8e+b49+vFeTl8M76Id9bTgfmAuIdo9yVFOeA11eM9w8KxFtkJauJcPz75vj3q/n5s/kOjMBp5OfxJ8ATK8R6JKnyzI33lAqxtsLx75vj36/m58/mOzACTyA/j3OkNyruP2CcDwZ+WCjWyMeXxsbx75vj36/m58/mOzASl1Bmx7oYeOgA8e1PmVOVc8DaAeJrnePfN8e/T83Pn813YCROpMzONUf6JVDydOAvzH9nqfheVzC2qXD8++b496n5+bP5DozErqTHQkrtZHcCbyY9rzur5cAfUuaa35Z2A/mPD02R4983x79Pzc+fzXdgRE6i3I62pV0DvJLFHQhWAS8n/1Gf+2p/vIg4enMSjn/PTsLx701uPrPkvsaXAkGUiGEq9iCtjrX3AN+9HjgL+AJwEXAFcMv8/7Y76aUihwNHA89mmCr9WtL61bcO8N1T4Pj3zfHvT/PzZ2gFM0Evo3zVPZb2koJ5mirHv2+Of19ycxqu+Q6MzBLgfOJ31tLtXEZQrTbA8e+b49+X3LyGa74DI/Rw0um56J22VLuZ/HeH98Tx75vj34/c3IZrvgMj9Xzid9xS7VcL56YHjn/fHP8+5OY2XPMdGLFTid95c9s7imelH45/3xz/6cvNb7jmOzBiS4C/JX4nnrX9N8q8crpXjn/fHP/py81xuOY7MHLLSI/vRO/Mi21nUvcVpVPl+PfN8Z+23DyHa74DDVgKnEH8Tr3Q9hHc+Uty/Pvm+E9Xbq7DNd+BRiwB/pz4nXt7bTPpmp+P+5Tn+PfN8Z+m3JyHa74DjXkeZdcML9VuBX5twH4rcfz75vhPS/PzZ/MdaNBBwBeJ3+m3tHNJS4mqDse/b47/dDQ/fzbfgUYtAV5KWl87ase/kfTSEE/51ef4983xn4bm58/mO9C43Umv/byRejv+DaS3eu1WoX/aPse/b45/25qfP5vvwESsBl4HfJPhdvy1wGvxfd5j5Pj3zfFvU/PzZ/MdmKDDSXcMXwRsYvax2QR8HTgFeHzVHiiH4983x78dofNniWs3uUF4/WhYDwSeCjwKeCRwCLAn6dThlkp+PenlIzeR3kf+HeAS4DzS6T61y/Hvm+M/bqHzpwWAJEkxQudP12mWJKlDFgCSJHXIAkCSpA5ZAEiS1CELAEmSOmQBIElShywAJEnqkAWAJEkdsgCQJKlDFgCSJHXIAkCSpA5ZAEiS1CELAEmSOmQBIElShywAJEnqkAWAJEkdsgCQJKlDFgCSJHXIAkCSpA5ZAEiS1CELAEmSOmQBIElShywAJEnqkAWAJEkdsgCQJKlDFgCSJHXIAkCSpA5ZAEiS1CELAEmSOmQBIElShywAJEnq0NLoAIC56AAkSeqNZwAkSeqQBYAkSR2yAJAkqUMWAJIkdcgCQJKkDlkASJLUIQsASZI6ZAEgSVKHLAAkSeqQBYAkSR2yAJAkqUMWAJIkdcgCQJKkDlkASJLUIQsASZI6tDQ6AGBJdACSJAWYi/zjngGQJKlDFgCSJHXIAkCSpA5ZAEiS1CELAEmSOmQBIElShywAJEnqkAWAJEkdsgCQJKlDFgCSJHXIAkCSpA5ZAEiS1CELAEmSOmQBIElShywAJEnqkAWAJEkdsgCQJKlDFgCSJHXIAkCSpA5ZAEiS1CELAEmSOmQBIElShywAJEnqkAWAJEkdsgCQJKlDFgCSJHXIAkCSpA5ZAEiS1CELAEmSOmQBIElShywAJEnqkAWAJEkdsgCQJKlDFgCSJHXIAkCSpA5ZAEiS1CELAEmSOmQBIElShywAJEnq0NLoADqyBjgOOAZ4HHAAsDuwLDAmgLuBW4DvAxcB5wBnAbcFxjQE8x/L/Mcy/xrEXGabukOAM4Dbyc9VrXY78CHg4AHyUZv5j2X+Y5n/ccvNVbjmOzCQnYF3kirc6B1q1nYXcAqwsnBuajD/scx/LPPfhtwchWu+AwM4GFhL/A5Uqn0J2K9ohoZl/mOZ/1jmvx25uQnXfAcKOxy4jvidpnS7CjisYJ6GYv5jmf9Y5r8tuXkJ13wHCjqYae58W++E+xbLVnnmP5b5j2X+25Obk3DNd6CQlaS7WKN3kqHbP5OuL46N+Y9l/mOZ/zbl5iNc8x0o5J3E7xy12smFclaS+Y9l/mOZ/zbl5iJc8x0o4BDavtt2se02xnUqzvzHMv+xzH+7cnORxZUAy3gjfS2qtBp4c3QQWzH/scx/LPOvmSwp8B25VUiJGCKtAa4BdokOpLLbSY/mRK/YZf5jmf9Y5r9tofOnZwDyHUd/Ox/AKuDZ0UFg/qOZ/1jmXzOzAMh3THQAgcbQ9zHEEGUMfR9DDFHG0PcxxBCl574XYQGQ73HRAQQaw8Ic5j+W+Y9l/jUzC4B8B0YHEOig6AAw/9HMfyzzr5l5E2C+DcDy6CCCbCD+RR3mPz4G8x8bg/lvV+j8aQGQr/X+G38s449l/LFajz+XTwFIkqS6LAAkSeqQBYAkSR2yAJAkqUMWAJIkdcgCQJKkDlkASJLUIQsASZI6ZAEgSVKHLAAkSeqQBYAkSR2yAJAkqUMWAJIkdcgCQJKkDlkASJLUIQsASZI6ZAEgSVKHLAAkSeqQBYAkSR2yAJAkqUMWAJIkdcgCQJKkDlkASJLUoaXRAUzAXcDyjM/PlQokwIboADD/0cx/LPOvmXkGIN+66AAC3RodAOY/mvmPZf41MwuAfFdEBxDo8ugAMP/RzH8s86+ZWQDkuyg6gEAXRweA+Y9m/mOZf83MAiDfOdEBBPp8dACY/2jmP5b518yWFPiO3JtISsQQaTXwY2BVdCCV3Q7sC6wPjsP8xzL/scx/20LnT88A5FsP/F10EAE+yjh2PvMfy/zHMv8KNZfZpuBg0uM4ublopW0ADiqSuTLMfyzzH8v8tys3F1k8A1DGZcDp0UFUdBrjugPX/Mcy/7HMv8KEVjAjshL4EvHV8dDtQmBFoZyVZP5jmf9Y5r9NufkI13wHCtoXuJL4nWSodjXwkGLZKs/8xzL/scx/e3JzEq75DhR2GHAV8TtL6XYl8NiCeRqK+Y9l/mOZ/7bk5iVc8x0YwN7AucTvNKXahaRfF60w/7HMfyzz347c3IRrvgMDWQGcTHpUJXoHmrVtAP6UNq+5mf9Y5j+W+W9Dbo7CNd+Bge0LvI+2dsT1wAeZxqM25j+W+Y9l/sctN1dZXAmwntXAccDRwOOBA4HdyXuVZwl3AbeQXirydeALwKeY3iIb5j+W+Y9l/scpdP60AJAkKUbo/OlCQJIkdcgCQJKkDlkASJLUIQsASZI6ZAEgSVKHLAAkSeqQBYAkSR2yAJAkqUMWAJIkdcgCQJKkDlkASJLUIQsASZI6ZAEgSVKHLAAkSeqQBYAkSR1aGh1AR9YAxwHHAI8DDgB2B5YFxgRwN3AL8H3gIuAc4CzgtsCYhmD+Y401/7eTcv854EPAN0OjGc6ewEOBnwL2n//3/YF9gRXAKmBnYCWwmjQuu5F+JK4nbaebgVvn//3GrdoNwHXAVaRcXgFcW6VXCjeX2abuEOAM0oEmN1e12u2kg+HBA+SjNvMfq6X8bwTeCywfJBN17As8C/gD4GPAJcTk/g5SMfXfgT8GngccBCwZrutNys1zuOY7MJCdgXeSquXoA9us7S7gFNKvgtaY/1gt5//ztFEE7Ab8MvBnwKeBa4jP3Y7araSzXG8lFSq7Fc9KW3LzGa75DgzgYGAt8TtbqfYlYL+iGRqW+Y81hfz/RfGs5FsGPAU4GbiQNourbdsm4GLgNOAZtFns5sjNX7jmO1DY4aTrYdE7Vul2FXBYwTwNxfzHmkr+NwKPLpybWTwYeBXwSdJ9IdF5GbrdPt/X/0i6T2HqcvMVrvkOFHQw0zj43V+7inSNcazMf6yp5f+0sulZsD2AlwJnMo1f+bO2TcD5wGtIhdAU5eYoXPMdKGQl6S7u6J1m6PbPpOu7Y2P+Y+1M+6f9t21ri2Zo+3YFfoP06/euwv2YQttIunfgJYxz+59Vbl7CNd+BQt5J/E5Sq51cKGclmf9YU8z/uqIZum+PBj5IG09JjKXdBLyHNi6J7UhuLsI134ECDqGvU3W3Ma5T0eY/1lTzP1QBsBPwHOBs0rP10f1suV0IPB94wKJGYDxy+x+u+Q4UcAbxO0Lt9r4imSvD/Meaav5LXwLYFXg58K0R9G1q7XLSvQKrFjwa45Db73DNdyDTGvo8fbeedECLZv5jTTn/pxbK0a7AW0grPkb3aertRuDNpO2yBbn9Ddd8BzK9iPiNPqr9eoH85TL/saaa/43AozJzs5z0i//HI+hPb+1G4CTGXwjk9jOLLwPKd0x0AIHG0PcxxBBlDH0fQwxD+EvSqfpZLAdOIK2J/0HgQaWC0oLtSTrrchnp0kD0OycmK7SCGYGvEl/tRrUvFchfLvMfa4r5P5vZJ4wXk65HR/fBds92KellVGOT269wzXcg0/XEb9xRbQxv/DL/saaU/43Au5lt8v9p4H+PoA+27bfPAY+9nzGMkNufLCXezJQbROtvh9pAGy8OGcIG4tfuNv/xMbSc//WkV9h+lvQ0w2JP+68E/hB4I+m1uhq/u0k3eL4V+ElwLKHzpwVAvtb7b/yxjL9dTyfdK9DKa5tvAr4NfI905uaa+X9eT7pR8WbS2/q29hPgTmA16c19u5FurNvy73sDDyO96vcg4EBg94H7UcplwO8A5wbGYAFQIIZIrfff+GMZf3v2JL0t8MXRgdyPDcA/kd6ydwnwHdKZjVqXjPYkFQOPB44Afg54DLC00t9fjDngr4E3cO/ip9bfz2EBEKz1/ht/LONvy9OAjwD7RweylVuAC+bbeaT3RdwZGtG97Ux6U+QRpFca/xLpDMJYfJ/0noHzK//d5vef0JsYRqD1/ht/LONvw1LgbaQbBXP7XKJdRHrO/XDafJx7GXAU8A7gG8Tnc440tm+l7pmK5vef5juQqfX+G38s4x+/A0mPXOb2NadtIv26fx3p9PrU7A+8knQWIzLPc8CXSWNeQ/P7T/MdyNR6/40/lvGP24tJ14Zz+zlr+x7pKYP9hu7oiBxCOtvyA+LyfiNw7NAdLRBnuOY7kKn1/ht/LOMfpwcAp5Pfv1naBuDjpKcMWjy9X8pOwC+S7rnYQP1x2AT8McNeZ29+/2m+A5la77/xxzL+8VkDfIr8vi22XUv6tb/P8F1szoOBtxPzQqV/ZLgbFpvff5rvQKbW+2/8sYx/XA4Evkl+vxbTfkxaSGiXCv1r3WrS2v61Lw98k7TeQWnrMmKKeGzxXqZ2AFis1vtv/LGMfzyeDFxHuUljR+1y4BW4guAslgEvpe57F34E/GzhflySEc/awrHMZEoHgFm03n/jj2X84/AfSM/Ol5godtSuJb0meIwL47RmBXAiaZXDGmO3HnhOwfhz7jM5tWAcM5vKAWBWrfff+GMZf7xXA5spN0ncX7uLdNAe0wI4U7En8C7q3Cy4kVQwlvAYZltbYiPwqEIxZJnCASBH6/03/ljGH+v1lJ8g7qudBTyiUp969nDgEww/npuBEwrF/N4Z/v67C/3tbK0fAHK13n/jj2X8cd5Efvw7at+nzvPkuqd/R7q5csix3Ux6h0Cu5aTXFC/0757NbK+sHkTLB4ASWu+/8ccy/hj/3w7iKtHOID1SqBh7Ah9m+HF+S4FYl5NeMLW9ywEbSb/8RzP5Q7sHgFJa77/xxzL++t62yBgX234M/HK13mhHnsXwjw3+QaFYHw2cRrrD/7b5tpZ078gorvlvq8UDQEmt99/4Yxl/XUP/8v8YsFe13mih1pDGZqhxL3lPQFNaOwCU1nr/jT+W8dfzigLx3l/7CfD/VOuJZvVqhntSYBPlng5oRksHgCG03n/jj2X8dTyX4V7leyXwhHpdUaYnksZsiG1hI3B8va7Ea+UAMJTW+2/8sYx/eEeQFnAZ4oD/ReBBlfqhcvYCPs0w28TtwM/V60qsFg4AQ2q9/8Yfy/iHdQhwfYE476u9C1fza9lOpJvrhtg2fgT8VL2uxBn7AWBorfff+GMZ/3AeBHyvQIzbto3AywaOXfW8lnT9vvR2spYOVn0c8wGghtb7b/yxjH8YDwA+WyC+bdsG4PkDxq0Yv0q6kbP09nIm6UzDZI31AFBL6/03/ljGP4w/KxDbtm098IwBY1asXwBuoPx286aanahtrAeAWmq8fGKs7c4C+ctl/mPl5n896V3rp5NejFLC8ZR/uc+NwM8Xik/j9VjS2xpLbjubgGfW7ERNuclp3VA3GLXQri2Qv1zmP1bJ/G8kvRhleUY8B1L+1bA/Iq3Qpj4cRvkzATcCB1TsQzW5iWndV4mfCKLalwrkL5f5j/UVyvfr88xWBKwA/rlwLDcDj5shFrXt8aRJu+S29FVGto7/pG9OqOSi6AACXRwdAOY/2hAxHEN6PGuxTgd+tmAc60nryI8hz6rrIuDZwLqC33kE8EcFv28Ucqui1r2Q+F+CUe0FBfKXy/zHGir/G1ncafdjC//9DUz4uq0W7EjSC3lKbVebgKdV7cHAchPSutUMt8rYmNv6+b5HM/+xhsz/aQuMYQ1ll3bdCPzKojOhqTqOsstIX86EXhOdm4wp+BDxE0Lt9ldFMleG+Y81VP7XLvDvv7/w33WRH23rdZTdxj5QN/zh5CZiCg4G7iJ+UqjVNgAHFclcGeY/1lD5X8j116Mo+8jfQs86qD8foNx2tpl0r0vzchMxFacQPzHUan9WKGclmf9YQ+R/RwXALsBlBf/eeYzsLm2NyjLSEyqltrdLgZVVezCA3CRMxUrSY1nRk8PQ7ULS41ZjY/5jDZH/HV0CKPkilx8Ae+ckQF3Yi7JF59vqhl9ebgKmZF+Ge8/0GNrVwEOKZas88x+rdP639yjg4ZS7MesnwBOye69ePJ60CmeJbW8D8Ii64ZeVm4CpOQy4ivjJonS7krRM5tiZ/1il8r8ReNR2/s7nCvyNLe03C/Rbffk9ym1/n6wce1G5nZ+ivYFziZ80SrULSb/uWmH+Y+1L/uWAd2/n+4/L/O6t2yeK9Fi9WUJ601+p7fDYuuGXk9vxqVoBnEzbz6hvAP6UcV5z3hHzHysn/2dz/zfjPYB0b0CJ/F4L7FOsx+rN3qT3RJTYFr9Nozeg5nZ86vYF3kdbE9F64IOM61GzWZn/WIvJ/0bSL//tHQh/ZwHfs9B2fLFeqlfPpNxjqK+qHHsRuZ3uxWrg10nPkn6Z9OtjDK+y3TAfy5dJC6r8GuNYYa408x/r/vJ/G+kX/als/5r/lu8o9YvrjGI9U+9KLUR1DenR1qZYAEiq4WTKHGivYEJLsSrcbpQrTE+sHHs2CwBJQ9udtDBQiYNsszdcabR+gzLb5nU0dgbQAkDS0P6AMgfYs2oHri4sTPXqEQAAFgNJREFUodwqgU29MtgCQNKQVlDmFGvzi65o1A4mLSqVu53eCKyqHPvMLAAkDem3KPPLansrC0olvI0y2+orawc+KwsASUNZAlxC/nHmWtLNWtKQdgNuIH97/R5pzYvRswCQNJTnUOYX1ctrB65uvYEy2+yv1g58FhYAkobyRfKPMZfT6CpratIulLln5fzagc/CAkDSEA6nzC+pV9QOXN17FWW23UfXDnyxLAAkDeHd5B9frqLNdymobctJZ55yt9931Q58sSwAJJW2jLQoSu7x5TW1A5fm/S752++NwMragS+GBYCk0p5H/rHlxzS4tromYxfKPBHwoqEC3GmoL5akDC8t8B3vBu4o8D1q14OAE4C/A84FPgW8l/QWv6HnvzuAvy3wPS8r8B2D8QyApJL2Au4k77iyAdinduAajaXAW4Hbuf9t5GLgyIHjeBjpNdc52/JGUiEzShYAkkp6NfnHlY9Vj1pjsRr4HAsvFAc7xT7vEwuMZXtttCsDWgBIKumr5B9Xnl49ao3BauA8Fret3An8woAxHbXIeO6r/Z8B48tiAbAwa0iV5l+TDnDXAXeRn7/cdtd8LF8F/gp4IbDrQDmIZP7bsB+wmbycfg/vb+rRKuALzLbNfINht5lLZ4xrS9sEPHjA+GZmAbB9hwBnsP1rUWNrtwMfIr3dqnXmvy2/SX7+/rB61Io2yy//bdszBozvpMzY5kiPFY5ObqemamfgncDdxE8os7a7gFMY+XOo98P8t+nj5OVsI+ksgvpRYvKfA04fMMZDC8T39wPGN7PcTk3RwcBa4ieQUu1LtHVQNf9tWgrcTF6uvlg9akXKOe2/bTtr4Fi/lhnfeka4qmVu0qfmcMqsYDa2dhVwWME8DcX8t+tp5OfptdWjVpRSv/y3tHMGjvf1BWI8ZuAYFy23Q1NyMNOcfLaehPYtlq3yzH/b3k5+jg6qHrUilJ7854D/OnDM+5Nu5suJ8ZSBY1y03KRPxUrgIuIniaHbP5Our4+N+W/fxeTl5uL6IStAydP+W7cab438SmaM/1IhxkXJTfpUvJP4yaFWO7lQzkoy/23bk/zH/06qHbSqG+KX/xxwG7B3hfj/JDPOjYzsMeHcxE/BIbR9t/ksO8uYTkWb//Y9k/y8/Ez1qFXTUJP/HPCWSn04ukCsv1Qp1gXJ7cwUnEH8pFC7va9I5sow/+37Y/LycTMu/jNlQ07+ZwMPqNSP5aS7+XPiPalSrAuSm/zWraGtRWZKtfWM41SU+Z+GfyQvH5+sH7IqGeqa/xxwPvX3o89kxnx2qUCsmPMdR5/vHF8FPDs6CMz/VByR+fkLikShsVlFKu6OGuC7LwCOJV1Sq+lzmZ9/ArCkRCAWAPlG91xmRWPo+xhiiDKVvu9P/j0N55UIRKMyxckf0tmMHLsDP1UiEAuAfI+LDiDQGBamMf/t+7nMz28gPR6p6Zjq5A9pldK7Mr+jyL5vAZDvwOgAAo1h0RXz377cu/f/ifRKV03DlCd/SJP/tzK/47ElArEAyLcmOoBAu0UHgPmfgty3Hl5UJAqNwdQn/y1yt1nPAIzE8szPLwluOcbwYgrz377cMxnfLhKFovUy+QN8PfPzjywSRQG5j2G0rvX+G3+s1uMv4SbycnBU9YhV2tQe9duRp5LXp3X1Q75vvR/AWu+/8cdqPf5cu5OfgwdVj1ol9Tb5Q7p8l7v09QOrR30fej+Atd5/44/Vevy5foa8/t9YP2QV1OPkv8W15PXvCbkBeA+ApEi51/9z76ZWnJ6u+d+XH2Z+PvsJKAsASZFyD2KXF4lCtfU++QNclfn57MWALAAkRXpw5uevKxKFanLyT3ILgOzXF1sASIq0e+bnry0ShWpx8v83uQXAXrkBWABIimQB0A8n/3vKvQcg+ykACwBJkXLv0r6+SBQampP/vV2T+XkLAElNy13O2HsAxs/J/77dnvn5PXMDsACQFCn3EoBnAMbNyf/+3ZH5+V1yA7AAkBQptwDIfa2qhuPkv30/yfx89rtALAAkRcq9B2BTkShUmpP/juVeAsguAJbmfoEkZcj9EXJ3kSjy7Qy8ADgOOABYCVwNnAt8lPxHvlqyGvg08OQBvvt80uS/foDvri38DEAJva9l3nr/jT9W6/HnuoO8/q+qH/K9/Crpka77i/FO4O308YNrNXAe+dv1fbXz5r9/KpaRl49RFL+9H8Ba77/xx2o9/lzryOv/yvoh38OJLPytbl9g3C+nyeXkvzhLycvJKO5/6f0A1nr/jT9W6/Hnuom8/i+rH/L/71dY/Ctdx/6Gulk5+S/eKvLyckv9kO+t9wNY6/03/litx5/rOvL6H3UJYCVw5QJj3LZdAKypH/Jgen6lb449ycvNj+qHfG+9H8Ba77/xx2o9/lw/Iq//uS8TmtVLFhHjlCc2f/nPbj/y8vO93AB8DFBSpI2Zn89dR2BWx2Z+/kmkO+VbLgK82z9P7v0ruU8RWABICnVn5udzlxKe1cMLfMeTgM/Q5uWAVcCZDDP5XwA8m2lP/pC/lG/uSoIWAJJC5a7lH1UAlLr58EjgU7R1JmA1qXA5aoDvPh94Fu0v8rMQe2d+3gJAUtNaLQBK3oDV0uUAT/uX4xmACch9FnOIm2dq3US2IfPzJZj/tl2b+fm9ikSxeOcW/r4tlwPGXAR42r+s3Nf5Zr8J0wIg37roAALdGh0A5r91uQXAw4pEsXgfJf/+hW0dyXjPBHjav7yHZH7+ytwALADyXREdQKDLowPA/Lcu91fMQUWiWLyrgdMG+N4xXg7wtP8wDsz8fPb7JSwA8l0UHUCgi6MDwPy3rtUCAOAtwOcH+N4xFQFO/sOxAJiAc6IDCDTEwW+xzH/bci8BRBYAG4HnklbBK20M9wR4zX9YuQXA1UWiyBR5E9QYrCZtxNE3k9Vu6xnHKl3mv20PJj8XuXdT59qFVIgOMc4XEFMEuLzvsHYnP49Ri2DdQ24npuBDxE8ItdtfFclcGea/bTeTl4sn1A/5XqZUBDj5D+8p5OVxNDc/524QU3Aw6XG06EmhVttA7KnXbZn/tl1IXj5+u37I92kKRYCTfx0nkJfLtSWC8B6AMi4DTo8OoqLTGNcd6Oa/bd/O/PwRRaLIdwdwPMPcE3Akw98TsAr4JMM86ncB6Ya/3h71uz+Py/z8N4pEUUBuVTgVK4EvEf/rcOh2IbCiUM5KMv/tOpG8nHytfsjb1eKZAH/515V71uv19UO+b7kbx5Tsy+zvCG+hXU3+4hVDMv9tOo68vNwN7Fw96u1rqQhw8q9rBelNfjl5/aXqUd+P3A1kag4jPZ8ZPVmUblcCjy2Yp6GY//YcRH5+jqwe9Y61UAQ4+df3JPJzm7uMcDG5HZmivUlrhUdPGqXahaRf160w/23ZCbiFvBy9pnrUCzPmIsDJP8bryctt9gJAJeVuKFO1AjiZtp9R3wD8KW1eczb/bfk0ebn6H/VDXrAxFgFO/nH+nrz8nlk/5PuXu7FM3b7A+2hrIloPfJBpPGpm/tvwR+Tl7FZgWfWoF25MRYCTf5wHADeSl+OTq0e9HbkbTC9WA78OfAD4MmkJ1A3ETzYb5mP5MvB+4NeYxgpz2zL/4/Y08nP5tOpRL84YigAn/1hPJj/Pz64e9XbkdkaSdia/IHt79agXL7IIcPKP9yfk5XkDI/uBYAEgqYTcZ6NHszjKDkQUAU7+4/A18nJ9bv2Qt88CQFIJ7yD/eLJ/9ahnU7MIcPIfh/2BzeTl+83Vo94BCwBJJeQuCDQHvLJ61LOrUQQ4+Y/H68jP+ejWu7AAkFTCzuQ/rXFh9ajzrAa+yDAT9HnzbajvHtW16AZ8lbycr2OET7pYAEgq5RPkH1MOrR51niHPBAzR/OW/eAeRf/r/70sH5dsAJY3J/yrwHb9R4DtqGvItgqX5Vr/ZvBhYkvkdny0RSGmeAZBUyu7kPw54FWnBldaM/UyAv/xnswT4V/JyvxF4UO3AFyJ3Z11eP2RJI3Y2+ZPVMdWjLmOsRYCT/+yeTn7+R/nrH/KXNdyrfsiSRuw/kn/A/Ej1qMsZWxHg5J/nY+SPwcuqR71AV5DXsYPrhyxpxB5C/g1TG4AH1w68oLEUAU7+efYj/yz5naRLY6O0lrzOHVs/ZEkjV+IyQAtLA29PdBHg5J/vz8gfh09Uj3oRcnfU19YPWdLI/Rr5B85bgd1qB15YVBHg5J9vFXAD+WPxgtqBL8Zfkte5j9UPWdLILSe9JTH34Pn7tQMfwC4Mt5qfk/9wXkP+WKwjjf9ovZq8Dt6A6xFIurdTyD+AXskIV0+bwZBL+jr5l7eCtO3ljsd7age+WM8gv5OjW99YUrhDyL8ZcA54ae3ABzJ0EeDkX86ryB+PzaR9YNT2Jn8n/UD1qCW1oMSEdwXpF9kUDFUEOPmXsxL4IfljclbtwGd1MXkdvRk3Pkn39iLKTHAn1g58QKWLACf/skq89W8OeFbtwGd1OvmdfUP1qCWN3TLy1xrZ8iNjSouOlSoCnPzL2gO4nvxx+S4N3Rv3XPI7fC2wpnbgkkavxMqAc8C7agc+sNwiwMm/vL+gzLZ6Qu3Ac+wM3EJ+p0+vHbik0VsJ/Ij848sG4OGVYx/arEWAk395jwbuJn87vQlYXTn2bGeQ3/GNwBNrBy5p9EpdVx31qmozWs3iioAv0OAE04ASq1fOAf+pduAlHEWZzl/JtK7VScq3CriOMseYf1c59hqWk04/b2T7P7Deg29gHcJLKLNtXkejZ2Z2Ar5HmSR8mmks3iGpnD+i3EF278qx1/Io0r0Oa4Hb5ts35v+7RwbGNWV7UWbVyjnS6oHNeiVlkjAHfBhYUjd8SSO2hnR9tNTxRSrhI5TZJq8k3e/SrBXA1ZQrAv4rngmQ9G9KrK++pT27cuyanhJPwG1pv1059kGUullnS/sU6dlKSVoGfItyv7h89Fiz2o9y96V8F1haN/xh7EKZhTu2blcAP1+zE5JG61mUO7b4NlLNYgnwvym3HT6/bvjDOpayBcAcsIl03c4nBCSdSbljy6srx672lTzT/enKsVfxD5QvAuZIp1z+EE/dST17OHAnZY4pdwFPqhu+GnYkaVGpEtvenTTwxr9Z/BRp/e0hioA50sqDfwU8mYbWTJZUzJ9T7nhyFdN9NFDl7EvZG93fVDf8un6FMu/z3lG7EfifpDd+HQ8cCjyQ6bwCVNK97UaauEsdRz6DPyZ0/5aRllAutb19hw7mqHczfAFgs9nG2dYD3yS95+MxlPdLlP2R8ZcDxKhpeD9l941frBt+jBXABcQfiGw2W2zbCLyX8kvRvq9wnK8tHJ/a9ybKbmNdLUS1J+lXQPQByGazxbfPU7YIWEV6jrpUfJtJa7tLAL9O2bNMV5HmxK48lLTwRvTBx2azxbe/oKwnkx4VLhXfnaQXnKlvz6TcHf9zpLNgT67agxF5BPAD4g8+Npsttm0kvT+9pFMKx3gz8NjCMaodTwFup+w2dVLNDozRfsDFxB+AbDZbbDuNslaS3oJXMsZrgcMKx6nxOwK4lbLb0nnAA2p2Yqz2xBsDbbbe21rKO4S0RkjJOG8AfmaAWDVOR5AeLS+5Dd1EWhtH85YCb6fOOgE2m218bR3DOJ6y9wPMkS4H+D6S6XsK5X/5zzGxtf5L+mXKvePbZrO1025lOG8ZIN71wNEDxqxYRwO3UX67eUfNTrToYQz37gCbzTbONsQlgC2WMMwxZT1w3IBxK8a/p9y7JbZuf4+rSy7Y8cDlxB+YbDbb8O1UhrUrcMkAcW8E3jhw7KrnNQxzKfqb+NK6RdsZ+D3gh8QfoGw22zBtI/AohvdIhrmmOwf8NWl9eLVpGfA3DLNtXIM3/WVZAbwC+FfiD1Y2m61sezf1HEk6dT9EP87Htwi2aB/gHIbZJn4CPLFeV6ZtCfBUUrVd+vEem81Wv51N/V/OzwXuLhD7fbXLgMfX64oyPYX0C32IbWET8KJ6XenLStINOKcBX6f8oz42m224tpH0yz/qtPlLGO6x4ztJly6XVOuNFmsJ8DrgLobZBjaTzlo3o/WN9YHA4aTFPw4lLTW8D+nmn92B1ZR/85ikhVsPfB/4LHAG8K3QaOAEhn3l7+eAl5J+YWo89gH+Fnj2gH/jDcCfD/j9kqRMJzHsmY4fk14io3F4LnAdw47566v1RpKU5TSGnRA2A+8H9qjVId3L3sBHGHac54A31eqQJKmMNzL85HAj8HLav9zamhcw/K/+OeCttTokSSrr1dR5H8nnSfcoaViPJj1lMvR4bsZf/pLUvJcw3COCW7c7gbfh6nBD2BN4D3XG8W7gN+t0S5I0tOeQFnAZevKYI71e+A3ALlV6Nm07kx7tu4E6Y3cbcGyVnkmSqnkadRcb+xHwKnxUeRYrSLm7mnrjdS3whBqdkyTVdyjwbepNKnOkdRJ+F1g1fPeat5r08p4rqTtGlwEPr9A/SVKgNcS8nvwm0kIyBwzew/bsB/wpKUe1x+WzpEXnJEkdWAK8mZjlxjcCnwCOGrqTI7cT8HTgY8AG6o/DJuDk+TgkSZ05ntiXkF1KWrnw0IH7OSYHkh6xu5y4vF+PqzlKUvcOAdYSNxltaV8jLTk7xffM70+6m/8rxOf5wvl4JEliJXAK43gD6Wbgq8CfAEeT7ohvzVLgyaQ+/At1FmNaSF7fRdzbKiVJI/Yk4F+Jn6y2brcDnwFOBH6WcT5WuBw4knQG4x+Am4nP29btcuCYwXo/Uq5PLUmLs4p0t/7vMs5j6N3AJcBF8+3rwMXArZX+/u7AY+fbYfPtcNJZlLHZDLwX+E+kQqorY9x4JakFzwDOAB4aHcgCXUtaOOeHwA/m/3k1cA2pOLiLNAneQbrr/lbSBLkr6ZT9CtLqhXuQ3rS313x7COnGvS1tr1odynQp8FvABdGBSJLas4Z0b0DEY2q22drdwNsZ5xkJSVJjDgbOJH5ys22/fYZ0aUKSpKJ+kXE8Mmi7Z7uEtKaDJEmDWQb8HjHL1tru2a4ivbrX1fwkSdWsId1dfh3xE2Fv7Rbgj/CVy5KkQKtIb7C7iviJcertx6Slk/dYyMBIklTDcuClpFfLRk+UU2uXkYos7+yXJI3WMuCFwOcZxxK4LbcvAs/BNW0kSY05GHgHaZGe6Mm0lXYtcDppdUFJkpq2nPRL9uPARuIn2bG1O0nrLLwAX9YjSZqoBwOvBD5LWp43evKNaptIr+Y9AdgzK6OSJDVmFenMwIdJa/NHT8pDtxtJZ0FeTiqENCBvnJCkNqwEjgaeMt+OIL2gp2VzpLcVfhr4FPAV0i9/VWABIEltWgo8Dngy8CTSMsRjP1V+DfAvW7ULSb/6FcACQJKmYQlwAHAo8Kit/vlI6i+Mcz1w+Xy7jDTZ/xOpANBIWABI0vQ9CPhpYG9gX2Cfrf79QfP/vnz+/7sr6ezCFjvN/+d1pPsQtvzzlq3+89X824R/ObB+0N5IkiRJkiRJkiRJkiRJkiRJkiRJkiRJkiRJkiRJkiRJkiRJkiRJkiRJkiRJkiRJkiQN5P8CbLxldBmZFH8AAAAASUVORK5CYII=;" parent="1" vertex="1">
          <mxGeometry x="527" y="380" width="46" height="46" as="geometry" />
        </mxCell>
        <mxCell id="kxb5aIU8mdvdAVlikhvM-24" value="" style="edgeStyle=orthogonalEdgeStyle;rounded=0;orthogonalLoop=1;jettySize=auto;html=1;" parent="1" source="kxb5aIU8mdvdAVlikhvM-21" edge="1">
          <mxGeometry relative="1" as="geometry">
            <mxPoint x="1030" y="360" as="targetPoint" />
          </mxGeometry>
        </mxCell>
        <mxCell id="kxb5aIU8mdvdAVlikhvM-21" value="&lt;div&gt;&lt;br&gt;&lt;/div&gt;&lt;div&gt;&lt;br&gt;&lt;/div&gt;&lt;div&gt;&lt;br&gt;&lt;/div&gt;&lt;div&gt;&lt;br&gt;&lt;/div&gt;Envio do alerta ao&amp;nbsp;&lt;div&gt;Gestor de Frota&lt;/div&gt;" style="rounded=1;whiteSpace=wrap;html=1;" parent="1" vertex="1">
          <mxGeometry x="960" y="45" width="140" height="110" as="geometry" />
        </mxCell>
        <mxCell id="kxb5aIU8mdvdAVlikhvM-22" value="" style="shape=image;verticalLabelPosition=bottom;labelBackgroundColor=default;verticalAlign=top;aspect=fixed;imageAspect=0;image=data:image/png,iVBORw0KGgoAAAANSUhEUgAAAgAAAAIACAMAAADDpiTIAAAAA3NCSVQICAjb4U/gAAAACXBIWXMAAA3XAAAN1wFCKJt4AAAAGXRFWHRTb2Z0d2FyZQB3d3cuaW5rc2NhcGUub3Jnm+48GgAAAelQTFRF////AAAAAAAAAAAAAAAAAAAAAAAAAAAAAAAAAAAAAAAAAAAAAAAAAAAAAAAAAAAAAAAAAAAAAAAAAAAAAAAAAAAAAAAAAAAAAAAAAAAAAAAAAAAAAAAAAAAAAAAAAAAAAAAAAAAAAAAAAAAAAAAAAAAAAAAAAAAAAAAAAAAAAAAAAAAAAAAAAAAAAAAAAAAAAAAAAAAAAAAAAAAAAAAAAAAAAAAAAAAAAAAAAAAAAAAAAAAAAAAAAAAAAAAAAAAAAAAAAAAAAAAAAAAAAAAAAAAAAAAAAAAAAAAAAAAAAAAAAAAAAAAAAAAAAAAAAAAAAAAAAAAAAAAAAAAAAAAAAAAAAAAAAAAAAAAAAAAAAAAAAAAAAAAAAAAAAAAAAAAAAAAAAAAAAAAAAAAAAAAAAAAAAAAAAAAAAAAAAAAAAAAAAAAAAAAAAAAAAAAAAAAAAAAAAAAAAAAAAAAAAAAAAAAAAAAAAAAAAAAAAAAAAAAAAAAAAAAAAAAAAAAAAAAAAAAAAAAAAAAAAAAAAAAAAAAAAAAAAAAAAAAAAAAAAAAAAAAAAAAAAAAAAAAAAAAAAAAAAAAAAAAAAAAAAAAAAAAAAAAAAAAAAAAAAAAAAAAAAAAAAAAAAAAAAAAAAAAAAAAAAAAAAAAAaLVX6QAAAKJ0Uk5TAAECAwQFBgcICQsNDg8RExUWGBkaGx4gISIjJCUoKissLS4vMjM0NTY3PD0+P0BBQkRHSElOUVRVVldYWVpbY2VoamtsbXBxcnR1eHl7fH5/gYKDhIeIiYuPkJKTl5manZ6ho6aoq7Cys7S2t7i5uru8vb7Ex8jJysvMzc7P0tPV19jZ293e4OHi4+Tm5+jq6+zt7u/w8fLz9PX2+fr7/P3+diz87QAADjlJREFUeNrt3ft7FdUVh/GVqFgql4oWAgqCgEERTVEwFBBoEfCG8QK1XhBvqFURo2gLKFWQKKJiFQPKLfOX9gdBuQSSmbPW3mvNft/fyTPP/n5Ecs6ZOSJERERERERERERERERERERERERERERERERERERERERERERERERERERERERERERERERERERERERERERERERERERERERERERERERERERERERERERE1KCJ85b2r9k4sGUrOW3LwMY1/UvnTdTfftLKF3YOjVQUopGhnS+snKS3/k3r3j3JqUbr5LvrbtJYf/ajH/FfftS/CT56dHZn69/wxOccY+w+f+KGxvNft/47DjB+362/rtn+/Qc5vHZ0sL/B/Es+5uDa08dLas5/21scWrt667Y6+286w4m1rTObxj3/hJc5rjb28oTx7X/jh5xVO/vwxvHsP3+Ik2prQ/PH3n/5Cc6pvZ1YPtb+m3ndt9WNbL76/s9xRG3vuavtv5bzaX9rr/Lq3ymOp/2duuKrgj1HOZ0SOtpzhfd+93M2ZbR/1HeIu9/kZErpze5RAGzlXMpp6+X7r+BUSmrFZR/5/ppDKamvL/3o+GOcSVk9dvH+U49xJGV1bCovAZfdRS8J93DjR3GdvPDloNc4j/J67ff9F/IecIGNLPwNwCCnUWKDv30IjLMos/MfEBvgKMps4ByAfXV/hRwil9V9MWffr/tPrwvnm9lCDpv9Td0lp4uIyPoKAWXuX60XEZFdFQLK3L/aJSIyuckHARHQhv2rU5NFZFWjf0AioAX7V9UqEXm9QkCp+1evi3T9VCGg1P2rn7pkRuOXERAQfv+qmiH3VQgod//qPtlQIaDc/asNsq1CQLn7V9s6fCsYAbH3rwZlT4WAcvev9siBCgHl7l8dkCMVAsrdvzoiwxUCyt2/GhaFz4MiIOz+1YhofLQIAVH3ryoVAAgIu78SAARE3V8LAAKC7q8GAAEx99cDgICQ+ysCQEDE/TUBICDg/qoAEBBvf10ACAi3vzIABETbXxsAAoLtPw4A235AQNT9f9imAGDdAgRE3X/BOg0AgoCo+4sOAARE3V8LAAKC7q8GAAEx99cDgICQ+ysCQEDE/TUBICDg/qoAEBBvf10ACAi3vzIABETbXxsAAoLtrw4AAbH21weAgFD7GwBAQKT9LQAgIND+JgAQEGd/GwAICLO/EQAERNnfCgACguxvBgABMfa3A4CAEPsbApCFCPC0/0JJDQABAfY3BYAA//vbAkCA+/2NASDA+/7WABDgfH9zAAjwvb89AAS43j8BAAR43j8FAAQ43j8JAAT43T8NAAS43T8RAAR43T8VAAQ43T8ZAAT43D8dAAS43D8hAFn4IwLS7f/j+PZPCQABDvdPCgAB/vZPCwAB7vZPDAAB3vZPDQABzvZPDgABvvZPD0DuQIDt/neIbwAI8LR/DgAIcLR/FgAI8LN/HgAIcLN/JgAI8LJ/LgAIcLJ/NgAI8LF/PgAIcLF/RgAI8LB/TgAIcLB/VgAIyL9/XgAIyL5/ZgAIyL1/bgAIyLx/dgAIyLt/fgAIyLq/AwAIyLm/BwAIyLi/CwAIyLe/DwAIyLa/EwAIyLW/FwAIyLS/GwDSi4C6+/dKmwAgIMv+jgCULiDP/p4AlC0g0/6uAJQsINf+vgCUKyDb/s4AlCog3/7eAJQpIOP+7gCUKCDn/v4AlCcg6/4OAUjvsaIE1Nz/mO7+HgGUJSDz/i4BlCQg9/4+AZQjIPv+TgGUIiD//l4BlCHAwf5uAZQgwMP+fgG0X4CL/R0DaLsAH/t7BtBuAU72dw2gzQK87O8bQHsFuNnfOQBZ1E4BdfdfJKUCaKcAR/u7B9BGAZ729w+gfQJc7R8AQNsE+No/AoB2CXC2fwgAbRLgbf8YANojwN3+QQC0RYC//aMAaIcAh/uHAdAGAR73jwMgvgCX+wcCEF2Az/0jAYgtwOn+oQBEFuB1/1gA4gpwu38wAFEF+N0/GoCYAhzvHw5ARAGe948HIJ4A1/sHBBBNgO/9IwKIJcD5/iEByJ1xBNTd/04BQJsEuN8/KABZWYUQUHP/aqUAYFzdcriKIKDu/tXhWwBgsn8eAbX3zyEgIoAG++cQ0GD/DAICApjVZP/0AhrtX1WHZwHAZP/UAhrun1xAOACN908roPH+qQVEA9DB/ikFdLB/YgHBAHS0fzoBHe2fVkAsAB3un0pAh/snFRAKQMf7pxHQ8f4pBUQCoLB/CgEK+ycUEAiAyv72AlT2TycgDgCl/a0FKO2fTEAYAGr72wpQ2z+VgCgAFPe3FKC4fyIBQQCo7m8nQHX/NAJiAFDe30qA8v5JBIQAoL6/jQD1/VMIiADAYH8LAQb7JxAQAIDJ/voCTPa3F+AfgNH+2gKM9jcX4B6A2f66Asz2txbgHYDh/poCDPc3FuAcQM39f96Q546Ruvd/bPjZjQDfAOru35fnnqH69//0uRHgGkD9/bPcNdbk/i83AjwDqLv/vSI5BDS7/+9eJwIcA5j1VZP9kwtoev9nTQFfzSoNQNP9Ewtofv+vDwFuATTfP6mATu7/diHAK4CZHeyfUEBn9//XFTCzHACd7Z9MQKfPf3AgwCeATvdPJKDz53/kF+ASQOf7JxGg8fyX7AI8AtDYP4EAnef/5BbgEIDO/uYCtJ7/lFmAPwBa+xsL0Hv+V14B7gDo7W8qQPP5b1kFeAOgub+hAN3n/+UU4AyA7v5mArSf/5hRgC8A2vsbCdB//mc+Aa4A6O9vIsDi+a/ZBHgCYLG/gQCb5//mEuAIgM3+6gKsnv+cSYAfAFb7Kwuwe/53HgFuANTd/54aP1tRgOXz3+/JIcALAMv9FQXYPv8/hwAnAGz3ry9g7ug/Zq7x9z9kEOADgPX+tQUMLxvthywbtt0/hwAXAOz3ry3g7OPXXPoTrnn8rPX+GQR4AJBi/9oCqs8e6Lrwj3c98Fllv396AQ4ApNm/voBq3yNzzv/ZOY/sq5Lsn1xAfgCp9m8goKqG3t7+zDPb3x6q/Qc7+P6vtAKyA0i3fyMBDevo+9+SCsgNIOX+6QR0+P1/KQVkBpB2/1QCOv7+x4QC8gJIvX8aAQrf/5lOQFYAM79MvX8KASrf/1pTwJczIwLoybC/vQCl7/+tK6AnHoA8+1sLUPv+50QC8gHItb+tAMXv/04jIBuAfPtbClD9/vckAnIByLm/nQDV/dMIyAQg7/5WApT3TyIgD4C6+y8RCSBAfX+RJeYCsgCouf8J/f0tBBjsL7LkhLGAHAA87K8vwGR/ewEZAPjYX1uA0f7mAtID8LK/rgCz/a0FJAfgZ39NAYb7GwtIDcDT/noCTPe3FZAYgK/9RXqPaux/tNf4Mg0FpAXgbX+RWw91vv+hW80v005AUgD+9heZ9kmn+38yLcFlmglICcDj/iKT3uts//cmJblMKwEJAfjcX6R785nm85/Z3J3oMo0EpAPgdX8RWdz4q8kOL053lTYCkgFwvL/I1B3N9t8xNeVVmghIBcD1/iKy6P3687+/KPFFWghIBMD7/iLSt7ve/Lv70l+jgYA0AALsLyLLPh3/JX66LMsl6gtIAiDG/iJdqw+O7woPru7KdInqAlIAiLK/iFy7fPu3Y13ft9uXX5vvCrUFJAAQaH8Rka7eJ/eOXOniRvY+2duV9/qUBdgDqLv/3ZK/m9e+cfzySzv+xtqbHVzc3aoCzAFE3F9ERKbM6Vu96dlXd+3fv+vVZzet7pszxcuVqQqwBjBjKOj+nqspYGhGPgDs712ALQD2dy/AFAD7+xdgCYD9AwgwBMD+EQTYAWD/EALMALB/DAFWANg/iAAjAOwfRYANAPYPI8AEAPvHEWABgP0DCTAAwP6RBOgDYP9QAtQBsH8sAdoA2D+YAGUAdfdfzHqZBegCYP9MLW4sQBUA+8cToAmA/QMKUATA/hEF6AFg/5AC1ACwf0wBWgDYP6gAJQA19z/O/jYCjtcWoAOA/cMKUAHA/nEFaADYyv5xBWxVADDC/nEFjD2e1NuX/YMJGFOIDLN/yQKG5Qj7lyzgiBxg/5IFHJC97F+ygL3yAfuXLOADeYn9SxbwkmxS2v8uVknZXUoCNsn97F+ygPulh/1LFtAj3cPsX66A4W6RHexfroAdIvIg+5cr4EERmXKa/UsVcHqKiMgg+5cqYFBERB5i/1IFPCQiItPZv1QB03/9Gfua/4QTQ5S5E83X23cO0UBFRTZwDsB8jqLM5p///8ggZ1Fig7/9Q2LhCKdRXiN3/P5Pydc4jvJ6/YLfJXpOch6ldWrWhb9NPseBlNbzF72cMPUYJ1JWw3+6+AWlxziSstp8ySuKE7/mTErqmz9e+pryCg6lpB68/F2Ff3Aq5fTPUd5W6v4X51JK714z2huLk/7LyZTRZ5NHf2t51v84mxL64dYrfbig7zSn0/5O/+XKHy/5O8fT/tZf7QNGL3I+be/Fq37CrOtpTqjdPd01xocM//oLh9Teflkx9sdMFxzmnNra4QXj+aDxtN2cVDvbPW18HzW//hXOqo29cv247zZ4+CzH1bbOPlznfpPb3+HE2tU7t9e85ahvD4fWnvb01b/prGvVIQ6uHR1a1dXovsMJG77n8OL3/YYJjW89nfzUFxxg7L54anJntx/P3fwf7hsK2si/H5+rcQv6n/+28xSnGa2T76y7We8xBJNWvrBziL8JovzKP7Tz+f4b9B9GMXHe0v41Gwe2bCWnbRnYuKZ/6bw/8OAUIiIiIiIiIiIiIiIiIiIiIiIiIiIiIiIiIiIiIiIiIiIiIiIiIiIiIiIiIiIiIiIiIiIiIiIiIiIiIiIiIiIiIiIiIiIiIiIiIiIiIiIiIiIioib9H/OKlU8I+jPsAAAAAElFTkSuQmCC;" parent="1" vertex="1">
          <mxGeometry x="1004" y="58" width="52" height="52" as="geometry" />
        </mxCell>
        <mxCell id="kxb5aIU8mdvdAVlikhvM-37" value="" style="edgeStyle=orthogonalEdgeStyle;rounded=0;orthogonalLoop=1;jettySize=auto;html=1;entryX=0;entryY=0.5;entryDx=0;entryDy=0;" parent="1" source="kxb5aIU8mdvdAVlikhvM-29" target="kxb5aIU8mdvdAVlikhvM-33" edge="1">
          <mxGeometry relative="1" as="geometry" />
        </mxCell>
        <mxCell id="kxb5aIU8mdvdAVlikhvM-29" value="&lt;div&gt;&lt;br&gt;&lt;/div&gt;&lt;div&gt;&lt;br&gt;&lt;/div&gt;&lt;div&gt;&lt;br&gt;&lt;/div&gt;&lt;div&gt;&lt;br&gt;&lt;/div&gt;Analise do&lt;div&gt;alerta recebido&lt;/div&gt;" style="rounded=1;whiteSpace=wrap;html=1;" parent="1" vertex="1">
          <mxGeometry x="480" y="610" width="140" height="110" as="geometry" />
        </mxCell>
        <mxCell id="kxb5aIU8mdvdAVlikhvM-30" value="" style="shape=image;verticalLabelPosition=bottom;labelBackgroundColor=default;verticalAlign=top;aspect=fixed;imageAspect=0;image=data:image/png,iVBORw0KGgoAAAANSUhEUgAAAgAAAAIACAYAAAD0eNT6AAAABHNCSVQICAgIfAhkiAAAAAlwSFlzAAAOxAAADsQBlSsOGwAAABl0RVh0U29mdHdhcmUAd3d3Lmlua3NjYXBlLm9yZ5vuPBoAACAASURBVHic7d15tF9lfe/x90lOBjJBBhLDGFBmQhilQIKKYVCgihVBtNrWpaVarrVdvVxd67pcy/5hV3sHh1oHtEq1tVi4Fm4FZRIMc0BCCFMvJIQQSCRASAhkOMn94zlpxnNyzu/svb97P/v9Wuu7EkGXn3XO77ef736eZz8bJEmSJEmSJEmSJEmSJEmSJEmSJEmSJEmSJEmSJEmSJEmSJEmSJEmSJEmSJEmSJEmSJEmSJEmSJEmSJEmSJEmSJEmSJEmSJEmSJEmSJEmSJEmSJEmSJEmSJEmSJEmSJEmSJEmSJEmSJEmSJEmSJEmSJEmSJEmSJEmSJEmSJEn10hUdQFKpxgKTgSnAMGCf3n8+svffAawFNvb+/dXev78MrALWVZZUUqVsAKTmmgi8FZgBHNL75wzgANKgPxkYPcT/jzdIzcBLwFJgSW892/vnk6QGQlLD2ABI9TcMOBI4DpgFzOz9+4GRoXptARYDjwCLev98EHg6MpSkPbMBkOpnDHAKMBs4DTiddLffJCuAe4C7e/98AFgfmkjSDmwApHo4FLgQuACYA4yKjVO4N4C7gFt668HYOJIkxRgBnAd8B3iONJXepnoG+N+kWY5hQ/xZSpJUa8OBuaRB/yXiB+G61PPA14AzsRmQJGXkCOBvSOvi0YNt3Wsx8EXgoI5+0pIkBRsNfAT4FbCZ+IG1adUD3AR8iLRcIklSrU0DvoxT/EXWMuC/AZMG8XuQJKkSRwNXAW8SP2DmWmuBbwKHD/B3IklSaY4H/g2n+ausHuBHpL0VkiRV6ijgatJgFD0gtrV6gGuwEZAkVWAG6e7Tgb8+tQn4HjC971+bJEmdGQN8ifR2vOgBz9p9rQW+Aozb/a9QkqSB6wI+RjqsJnqAswZWzwIfxqPOJUkdOpp0fn30gGZ1VjcDb9vltypJUh9GAFfiI3051DrS0s1IJEnqx2nAo8QPXFaxtQA4GUmSdtJNulPcRPxgZZVTG3t/x8ORJIn0aN884gcoq5q6B/cGSFLrfQJYQ/ygZFVbq4GPIklqndGks/ujByIrtq4G9kKS1AoHAvcTP/hY9aj5pGUgSVLGzsVX9Vq71krg3UiSsvQp0k7w6MHGqmdtAj6DJCkbXaTHv6IHGKsZ9VVgGJKkRhsD/Iz4QcVqVl1H+uxIkhpoMnAf8YOJ1cy6G5iIlCnflqVcTQN+CRwXHUSNtgg4G3ghOohUNBsA5Wg66U1wx0QHURaeIDUBy6KDSEWyAVBuDgVuAQ6JDqKsPAPMBRZHB5GKYgOgnBwA3ImDv8rxHDAHeDY6iFQEH3VRLqaSpv0d/FWWA0mfsenRQaQi2AAoB1OA24Ajo4Moe4cBvyA9YSI1mg2Amm4C6YLshj9VZSbwc2B8dBBpKGwA1GQjgJ8CJ0YHUeu8HbgG6I4OInVqeHQAaQi+AVwaHUKt9TbSfoAbooNInbABUFN9AbgyOoRa7yTgNeDe6CCS1AYXA5uJPyrWsrYAPcD7kRrGcwDUNEeSzvefEB1E2s5a4FTgsegg0kDZAKhJxpMG/6Oig0i78SRpc+Br0UGkgfApADVFF/ADHPxVX0cAP8QbKzWEmwDVFJ8H/jQ6hLQHRwKv4qZANYCdqprgJOAe0nP/Ut1tBM4AHogOIvXHBkB1NxZ4CDg8Oog0CI8DJwProoNIfXEJQHX3LdJrWKUm2RfYG7gxOojUF2cAVGcfAK6NDiF1aAtwPjYBqikbANXVJNIz1dOig0hDsBw4GlgdHUTamUsAqqtvArOjQ0hDNJ60FPDv0UGknTkDoDp6F3Arfj6Vh83AmcBd0UGk7XmBVd2MAR4B3hodRCrQItJrqzdEB5G2cglAdfNFfLGK8jMVeBP4dXQQaStnAFQnBwJPkGYBpNysI50U+Fx0EAmcAVC9XAUcHx1CKskIYCLwb9FBJHAGQPVxOjAPP5PK22bSa4PnRweRfBug6qAL+BoO/srfMOBvo0NIYAOgeriI9MIfqQ3eQTohUArlHZeiDQN+AxwXHUSq0EOklwVtiQ6i9nIGQNEuwcFf7XMizgIomDMAijQceJT0aJTUNs4CKJQzAIp0MQ7+aq8TgQujQ6i9nAFQpPuAt0eHkALNA+ZEh1A7OQOgKO/EwV+aTToXQKqcDYCi/EV0AKkmPhsdQO3kEoAiHEl6O5oNqAQbSW+/9B0BqpQXYEX4Y/zsSVuNAD4dHULt4wyAqjYKWAZMiQ4i1cgK0tswN0YHUXt4F6aqfRAHf2ln04D3RIdQu9gAqGqfjA4g1dQnogOoXVwCUJUOA57Ez520O5uAg4AXooOoHZwBUJUuxcFf6ks38JHoEGoPGwBV6ZLoAFLNfSg6gNrDuzFV5VhgYXQIqQHeCjwTHUL5cwZAVfHORhqYD0QHUDvYAKgqH4wOIDWE3xVVwiUAVeFQ4OnoEFJDbCEdCvR8dBDlzRkAVcEDTqSB6wLOiQ6h/NkAqArnRQeQGubc6ADKn0sAKtso4CVgXHQQqUFeAfYFeqKDKF/OAKhsc3DwlwZrInBydAjlzQZAZTszOoDUUHOjAyhvNgAq2+zoAFJDnR4dQHlzD4DK1E1ay3QJQBq8V4HJwOboIMqTMwAq0ywc/KVO7QMcGR1C+bIBUJmcwpSG5rToAMqXDYDKdGJ0AKnhfic6gPJlA6AyzYoOIDXczOgAypebAFWWbmANMDo6iNRgrwMTcCOgSuAMgMpyBA7+0lCNBWZEh1CebABUFqcupWIcGx1AebIBUFmOiA4gZcIGQKWwAVBZDokOIGXC75JKYQOgssyIDiBlYkZ0AOXJBkBl8a5FKsaM6ADKk48BqgwjgDeA4dFBpAxsAPbCRwFVMGcAVIb9cPCXijISmB4dQvmxAVAZpkYHkDIzLTqA8mMDoDJMiQ4gZWZydADlxwZAZfBiJRXL75QKZwOgMjgDIBXLBkCFswFQGSZFB5Ay43dKhbMBUBnGRgeQMjMhOoDyYwOgMoyMDiBlZkR0AOXHBkBlsAGQijUqOoDyYwOgMtgASMWyAVDhbABUBhsAqVh+p1Q4GwCVoTs6gJQZv1MqnA2AyrAhOoCUGb9TKpwNgMrgxUoqlt8pFc4GQGXwYiUVa310AOXHBkBlsAGQimUDoMLZAKgMXqykYtlUq3A2ACrD6ugAUmZejQ6g/NgAqAyrogNImfE7pcLZAKgML0UHkDLjd0qFswFQGbxbkYrld0qFswFQGbxbkYrld0qFswFQGVZEB5AyszI6gPLTFR1A2VoLjI0OIWVgDTAhOoTy4wyAyvJsdAApE0uiAyhPNgAqy5LoAFImFkcHUJ5sAFQWL1pSMZZEB1CebABUFhsAqRh+l1QKGwCV5dHoAFImFkYHUJ5sAFSWR6IDSJmwAVApfAxQZVoJ7BsdQmqwF4Hp0SGUJ2cAVCbvXKSh8Tuk0tgAqEwuA0hDYwOg0tgAqEz3RweQGu6+6ADKlw2AynRXdACp4e6ODqB82QCoTEuB56JDSA21BFgWHUL5sgFQ2byDkTozLzqA8mYDoLK5DCB1xu+OSmUDoLLdFh1AaqjbowMobx4EpCo8CxwUHUJqkMXAodEhlDdnAFSFX0QHkBrmxugAyp8NgKrgxUwanJuiAyh/LgGoCuOBVcCI6CBSA2wAJgNro4Mob84AqAprcEOTNFC34uCvCtgAqCr/Eh1AaoifRAdQO7gEoKrsA6wARkYHkWpsPTANWB0dRPlzBkBVeRW4JTqEVHM34eCvitgAqErXRAeQas7viCrjEoCqNA5YTnoqQNKO1gLTcQOgKuIMgKq0Fu9wpL78GAd/VcgGQFX7bnQAqab8bqhSLgEowm+A46NDSDXyCDArOoTaxRkARfh+dACpZr4dHUDt4wyAIowHlpLOBpDa7hXS2zJd/1elnAFQhDW43ilt9S0c/BXAGQBF2R94Bk8GVLttBA4FlkUHUfs4A6Aoz+MjgdKPcPBXEGcAFGkW6YkAP4dqo82k78Cj0UHUTs4AKNIC4GfRIaQg/4qDvwJ556Vox5CegbYZVZv0ADOBx6ODqL286CraIuCn0SGkiv0zDv4K5gyA6uBwUiPQHR1EqkAPaebryeggajdnAFQHTwE/iA4hVeS7OPirBpwBUF1MJTUCe0cHkUr0KnAY8FJ0EGl4dACp1+ukqdGzo4NIJfo8cFt0CAmcAVC9jAQWkvYESLl5AjiOdPqfFM49AKqTDcBfRoeQSvLnOPirRmwAVDfXA9dFh5AK9hPgxugQ0vZcAlAdvQV4DJgYHUQqwMvA0cCK6CDS9twEqDpaS3pH+oXRQaQCfAaYFx1C2pkzAKqrLtJu6XcG55CG4lbSky1booNIO7MBUJ0dAjwMTIgOInVgNXA8sCQ4h7RbbgJUnS0GrogOIXXo0zj4q8bcA6C6WwAcQXpzmtQUVwNfjg4h9cclADXB3qRG4ODoINIALCZN/b8WHUTqj0sAaoLVwGWkg4KkOlsPXIqDvxrAJQA1xXOkRwPfGx1E6sefADdEh5AGwgZATfIAaRnghOgg0m78I/Dfo0NIA+UeADXNaNKhKidFB5G28zBwOvBGdBBpoGwA1EQzgHuBacE5JIAXgFNJy1RSY7gJUE20BDgfeD04h7QOeD8O/mogGwA11YPAJUBPdBC1Vg/p6ZT7o4NInXAToJrsP4A1wLnRQdRKf0Y68EdqJBsANd29wF7A7OggapW/Ar4SHUIaChsA5eAW0guDTosOolb4OvBfo0NIQ2UDoFzcDOyHjweqXD8ELo8OIUna0XDgJ6R3r1tW0fVPeNMkSbU1HPg+8YOFlVf9COhGyojdrHKzBbgemEg6nEUaqm8Bn8RHTpUZGwDl6hfAWNLxrFKn/hr4HKmxlCQ1yBeAzcRPIVvNqs3AXyJJarQPko5sjR5UrGbUm8CHkSRl4TRgJfGDi1XvWgXMQZKUlcOBp4gfZKx61uPA25AkZWk8cC3xg41Vr7oe2AdJUta6gCuBTcQPPFZsbQK+hG9GlaRWOQ94ifhByIqplcBcJEmtNA34OfGDkVVtbX13hCSpxbqAz5Ie/4oemKxy603S8o9T/pKk/3QCsIj4QcoqpxYCs5AkaTdGkO4QnQ3IpzYAXwFGIUnSHhwL3EP84GUNre4CjkGSpEEYBlwBvEL8QGYNrl4GPo1r/ZKkIZgEfBXYSPzAZvVfPcDVwNTd/iYlSerAkcCNxA9y1u7rVuC4Pn97kiQN0QXAg8QPeFaq+cB7+/2NSZJUoLnAQ8QPgG2tR4GLSec4SJJUqWHApcBviB8Q21IPkgZ+N/hJkmphNnADsJn4QTLHmgdciHf8kqSamgl8D3id+EGz6bUWuAqf5ZckNcgE4FOkTWrRA2nTahHpRMZJg/6pS5JUIycC3wBeJH5wrWstB75GeieDJElZGUbaK/BVbAa2AKtIB/dcCHQP4ecqaZDcTCPF6QbeAZwHvIf2rHMvBG7qrTtIp/dJqpgNgFQfB5KagXOAM4DpsXEKs5y0g/9m0qC/LDaOJLABkOrsUFIjcAZwOuko4hGhifZsI/A4cHdvzQMWhyaStFs2AFJzjASOJj1mOBOYBbyVNHMwsuIsG4ClwNPAAtK0/kLS4L+h4iySOmADIDXfcGA/4BBgBnAAMAWYvFMNB/YmbUQcAYzr/d+vJd25bwZWk9bkV21XL/X+uYx0N78EeL73vy9JkiRJkiRJkiRJkiRJkiRJkiRJkiRJkiRJkiRJkiRJkiRJkiRJkiRJkiRJkiRJkiRJkiRJkiRJkiRJkiRJkiTF6ooOIGlIJgKTev/c/u979/77McCoPfx9PbBuD39fDbwMvLJdbf3PkhrIBkCqnxHAfsCBwEHAAb11MPAWYDLbBvo62NoIrAJeAJYCzwHLev9c2vvPN0YFlLQrGwApxijgCOBI4KjeOpg04L8FGBYXrRSbgRdJzcAS4HHgid56kjTbIKlCNgBSucYAM4Fj2HGwnwEMj4tVKz3AYnZsChYBC9m2BCGpYDYAUnG6SXf1J21XpwAjI0M1WA9pduDB7Wo+8GZkKCkXNgBS544ATicN8icDs3CwL9t6YAGpEZgP3AU8FZpIaigbAGng9gPOAOYC55LW7BXvReDXwC2khmBRbBypGWwApL5NB2aTBvxzSOv2qr8XgHmkhuBm0v4CSTuxAZC2GQ4cD1wIXAwcHRtHBXkG+L/ADcAd+DiiBNgASGOBs4ALgPcB02LjqGQvA7eSGoLrgVdj40hxbADURgcBv0ca9M8k7d5X+2wE7iQ1A9eSDi2SJGVmIvAx0prwZmCLZe1U84HPAlORJDXaXqT1/GtIj49FDzBWM2oTqVH8GDAeSVIjDAfOB34MrCV+MLGaXWtJn6Xz8eRGSaql/YArSefMRw8aVp61HPgKnv8gSeGGkZ7Rv4a0oSt6gLDaUT2kJYKLcQOpGsynANRE00nrs5fj4TyKtRz4R+CbpDcdSpJKcCrwU7zbt+pXG0kzUacgSSpEF2ma/wbiL/KWNZCaR1oecNOgJHVgJGmafxHxF3TL6qT+g3SuwF5IkvZoEvAF0gtdoi/gllVEvQB8nnQYlSRpJ+NJj/G9QvwF27LKqDWkxwhtBCQJGEca+F8m/gJtWVXUa6RGYG8kqYXGkNZHXyT+gmxZEfUS8CU8blhSS4wEPkV6fjr6AmxZdaiVpFkwNwtKylIX8BHSK1ejL7iWVcdaCnwYD2iTlJFTSM9GR19gLasJdT9wBpLUYPsD3yadnR59UbWsJtVm0smCByOVxJOqVIYxwJ+TLmCn4ZSmNFhdwDGk/TITgPuADaGJJGkPLsV1fssqupYClyAVyDszFWV/4OvARdFBpIz9HPgMsCQ4hzLgEoCGqhu4ArgOmBWcRcrdYaRlgR7gXtLsgNQRZwA0FMcD38FXoEoRFgCfBB6IDqJmGhYdQI00hnSU6Xwc/KUos4C7ga+SjtSWBsUZAA3Wu4B/wMeTpDpZAvwBcEdsDDWJewA0UCOALwJX4dvMpLrZB/g46XXat5P2CEj9cgZAA3E08CPghOggkvZoEfBR4OHoIKo3ZwDUny7SjuNrgYOCs0gamKmk5YBNwD34pID64AyA+vIW4PvAe6KDSOrYraRmYFlwDtWQTwFodz4API6Dv9R07wYeAd4fHUT14xKAttdN2uj3d/hucikXe5GOEZ5EmhHYHBtHdeESgLaaCvwT6Y5BUp5+TXpfx/LoIIpnAyCAM4GfANOjg0gq3W+By4BbooMolksA7dYFfJb0iN/ewVkkVWMs8BHSHrA78SmB1nIGoL32Bq4Gfjc6iKQwPyMdIPRadBBVzwagnQ4AbiC9zEdSuy0CLsBXDLeOjwG2z++QXuLj4C8J4BjSNWFOdBBVywagXS4GbgOmRQeRVCuTgZtJRwirJdwE2A5dwJXA3wMjg7NIqqdu4CLSuQG3BmdRBdwDkL9RwHeB348OIqkxriEdIfxGcA6VyAYgbxOB64HZ0UEkNc480lNCr0QHUTlsAPI1DbgJN/tJ6twi4Bw8OTBLNgB5Opi0oeew6CCSGm8xcDbwdHQQFcunAPJzFGnqzsFfUhEOIb1DYGZ0EBXLBiAvJ5OO9jwgOoikrEwH7iCdI6JM2ADk452kR3emBOeQlKeJpKXFs6ODqBg2AHl4L3AjMCE6iKSsjSM9WXRedBANnZsAm28u6Vz/0dFBJLXGetKhQTdGB1HnbACabTbpUb+x0UEktc464HzgV8E51CEbgOY6nTT4j48OIqm1XictQd4ZHUSDZwPQTKcCv8Q1f0nxXiNtDLw/OogGxwageY4n7fafFB1EknqtJu1Hmh8dRANnA9Asx5KexXXwl1Q3q4Azgceig2hgbACaYz/gHuCg6CCS1IfngdOA56KDaM88B6AZJgA/x8FfUr3tT7pW7RMdRHtmA1B/I4BrgVnRQSRpAI4F/g8wKjqI+mcDUG9dwPdIm2skqSneCfwAl5lrbXh0APXrb4A/iQ4hSR04FhhJempJNWQDUF9/CvxVdAhJGoI5wEp8PLCWnJ6pp7mkU/5s0CQ1XQ9wAemaphqxAaifGcAD+FpfSfl4GTgFeCY6iLZxE2C97EXa8e/gLyknk4Dr8MVltWIDUB9dwD8AJ0YHkaQSzAJ+iDPPteEac31cCfxZdAhJKtHRwBrSqaYKZidWD276k9QWbgqsCRuAeIeQHpHxBT+S2mIVcDKwJDhHq7kHIFY38GMc/CW1y2TgX0hHnSuIU86xvgxcFh1CkgLsD2wBfhWco7VcAogzB7gdmzBJ7bWZtAfq9uggbWQDEGMi8DC+3leSlgHHk/YFqELuAYjxLRz8JQngAOA70SHayOnn6l1OeuZfkpQcBSwHHooO0iYuAVTrKOBB0pG/kqRt1pFOQn0yOkhbuARQnWGkaS4Hf0na1RjSceiOSxVxCaA6/wX4VHQISaqxA4Hfkt6IqpK5BFCNg4FHgXHRQSSp5l4HZgKLo4PkzqmWanwbB39JGoixwN9Fh2gDlwDK9wfAX0SHkKQGOQx4GngkOkjOXAIo177AY8CU6CCS1DCrgGOAFdFBcuUSQLm+gYO/JHViMvC/okPkzBmA8pwF3BodQpIa7l34wqBS2ACUYzjpRKvjooNIUsMtAE4CeqKD5MYlgHJcjoO/JBVhFvCJ6BA5cgageBOBp3DtX5KK8lvgcODV6CA58THA4v01ac1KklSMscBI4JfRQXLiDECxjiKtV42IDiJJmdlIOiHQlwUVxD0AxfqfOPhLUhlGAP8jOkROnAEoztk4PSVJZTsLuD06RA5sAIpzJzAnOoQkZe4uYHZ0iBy4BFCM9+LgL0lVOIM046ohcgagGPcBb48OIUktMZ90zd0SHaTJnAEYut/FwV+SqnQy8J7oEE3nDMDQdJHu/k+JDiJJLfMQqRFwFqBDzgAMzUU4+EtShBNJM7DqkDMAnesCHsYz/yUpygLgBJwF6IgzAJ07Dwd/SYo0C58I6JgNQOc+Fx1AkuS1uFMuAXTmWOAR/PlJUh3MIl2TNQjOAHTmczj4S1JdXBEdoIkcxAZvKvAsMDo6iCQJgPXAwcCK6CBN4gzA4H0GB39JqpNRwOXRIZrGGYDBGUW6+58WHUSStIOVpFmAN6ODNIUzAINzGQ7+klRHU4EPRYdoEhuAwflEdABJUp/+KDpAk7gEMHCHA0/gz0yS6moL6Vr9/6KDNIEzAAP3hzj4S1KddQEfjw7RFA5oA9NN2vy3X3QQSVK/nidtBuyJDlJ3zgAMzLk4+EtSE+wPzI0O0QQ2AAPzh9EBJEkD5jV7AFwC2LPJpCmlUdFBJEkDsoE0E/BSdJA6cwZgzz6Mg78kNclI4OLoEHVnA7BnvxcdQJI0aB+IDlB3LgH0bwrwAukpAElSc2wCpuMyQJ+cAejf+3Dwl6Qm6gbOjw5RZzYA/bsoOoAkqWNew/vhEkDfxpPeLuWrfyWpmd4kvSRoTXSQOnIGoG8X4OAvSU02GjgvOkRd2QD0zakjSWo+r+V9cAlg90YCq4Bx0UEkSUPyGumJro3RQerGGYDdOxUHf0nKwQTg5OgQdWQDsHvvjg4gSSqM1/TdsAHYvbOiA0iSCmMDsBvuAdjVGOBlPP9fknKxAZgIrIsOUifOAOxqDg7+kpSTkcDp0SHqxgZgV07/S1J+XAbYiQ3ArvyQSFJ+vLbvxD0AO9qH9Oao4dFBJEmF6gEmA6ujg9SFMwA7OgUHf0nK0XA8D2AHNgA78sMhSfk6KTpAndgA7MgPhyTly2v8dmwAduQMgCTly2v8dtwEuM0U4LfRISRJpdkC7Et62VvrOQOwjZ2hJOWtCzghOkRd2ABs49qQJOXPm71eNgDb2ABIUv681veyAdjm2OgAkqTSea3v5SbApJv0lqgR0UEkSaXaQHrra090kGjOACQzcPCXpDYYCRwUHaIObACSw6IDSJIq4zUfG4Ct3hYdQJJUGa/52ABsZTcoSe3hNR8bgK3sBiWpPWwAsAHYyg+DJLWH13x8DBDSO6LfwKcAJKktNgKjgc3RQSI5A5BeAuTgL0ntMQKYHB0img0ATIsOIEmq3NToANFsAPwQSFIbtf7abwPgh0CS2qj1134bAD8EktRGrb/22wDAvtEBJEmVa/213wbALlCS2qj1134bAD8EktRGrb/22wDAxOgAkqTKTYoOEM0GIJ0GJUlql1HRAaLZAPghkKQ2av3Nnw2ADYAktVHrr/02AHaBktRGNgDRAWqg9R8CSWqh1t/82QDYAEhSG7X+2m8D4IdAktrIGYDoADVgAyBJ7dP6a78NAPREB5AkVa71134bAFgbHUCSVLk10QGi2QDAyugAkqTKtf7abwMAT0UHkCRV7snoANFsAOCR6ACSpMotjA4QzQYAfhUdQJJUudujA0Trig5QA3sBK4Dx0UEkSZVYDUwD1kcHieQMALwBXBsdQpJUmX+l5YM/2ABs9d3oAJKkylwVHaAObACSu4E7o0NIkkp3G3BvdIg6cA/ANmcAv8afiSTlagvpWn9PdJA6cAZgm7uAH0SHkCSV5vs4+P8n73Z3tA/wEHBIdBBJUqGeBk4iPQEgnAHY2avAJaQnAyRJeVhHurY7+G/HBmBXDwAfAjZFB5EkDVkP8FHgweggdTM8OkBNPQU8BrwP6A7OIknqzJvAZcB10UHqyD0A/XsHcA0wNTqIJGlQVpBmc33Euw8uAfTvDuAE4NboIJKkAbuZdO128O+HDcCeLQfOJq0hLQvOIknq23OkKf9zgBeCs9SeSwCDMwr4OHAFcGxwFklSshD4OvBDYENwlsawAejcCaRNgmeRni0dExtHklpjHTCfdKzvz4AFsXGayQagGF3AQb01rrckScVZ21tLe2tLbBxJkiRJkiRJkiRJkiRJkiRJkiRJkiRJkiRJkiRJkiRJkiRJkiRJkiRJkiRJkiRJkiRJkiRJkiRJkiRJkiRJkiRJkiRJkiRJkiRJkiRJkiRJkiRJkiRJ0xfN6gAAADBJREFUkiRJkiRJkiRJkiRJkiRJkiRJkiRJkiRJkiRJkiRJkiRJkiRJkiRJkor2/wGHj+Ju4z8LIgAAAABJRU5ErkJggg==;" parent="1" vertex="1">
          <mxGeometry x="527" y="630" width="50" height="50" as="geometry" />
        </mxCell>
        <mxCell id="kxb5aIU8mdvdAVlikhvM-38" value="" style="edgeStyle=orthogonalEdgeStyle;rounded=0;orthogonalLoop=1;jettySize=auto;html=1;" parent="1" source="kxb5aIU8mdvdAVlikhvM-33" target="kxb5aIU8mdvdAVlikhvM-35" edge="1">
          <mxGeometry relative="1" as="geometry" />
        </mxCell>
        <mxCell id="kxb5aIU8mdvdAVlikhvM-33" value="&lt;div&gt;&lt;br&gt;&lt;/div&gt;&lt;div&gt;&lt;br&gt;&lt;/div&gt;&lt;div&gt;&lt;br&gt;&lt;/div&gt;&lt;div&gt;&lt;br&gt;&lt;/div&gt;ExecuÃ§Ã£o da manutenÃ§Ã£o preventiva" style="rounded=1;whiteSpace=wrap;html=1;" parent="1" vertex="1">
          <mxGeometry x="690" y="610" width="140" height="110" as="geometry" />
        </mxCell>
        <mxCell id="kxb5aIU8mdvdAVlikhvM-34" value="" style="shape=image;verticalLabelPosition=bottom;labelBackgroundColor=default;verticalAlign=top;aspect=fixed;imageAspect=0;image=data:image/png,iVBORw0KGgoAAAANSUhEUgAAAgAAAAIBCAYAAAA/JAdfAAAABHNCSVQICAgIfAhkiAAAAAlwSFlzAAAN3gAADd4BtOVx+QAAABl0RVh0U29mdHdhcmUAd3d3Lmlua3NjYXBlLm9yZ5vuPBoAACAASURBVHic7N11uG9F9cfx94cGRUx+UgoCgoABKIjSjXSLhEiINEhaSFggHRKSImnQII2KqDQIgjRKSEhcUJr1+2P2uRwu59xTM2vv797r9Tznoe6dNXAv57O+s2fPyMxoAklTA8sAqwIrAJMDLwIvANcAJ5jZXbVNMIQQwniSJgXmqL7eC0zX74/TTeSvpwL+V339t99X31+PAx4BHq6+/gk8bGYvOP2rdYaa0ABI+hJwEjD9ED/0OmA/M/td+VmFEEIAkDQD8MkJvuYhhbmXZ0kNwYPALcCNwI1m9pTjHFql1gZA0lTAT4HtRvhTzwF2NrOH888qhBC6SZKABaqv/mH/gTrnNYSHqZoB3moKnqt3Sr2htgZA0jTABcDSoxzif8CPgAPN7JVsEwshhA6pHr8uC6wGrAJ8uN4ZjdkbwF+Ai4CLzOz2mufTWLU0ABnCv797gR3isUAIIQyPpOlJYb8asBwwTb0zKuoRqmYAuNLM/lfzfBrDvQHIHP79xWOBEEIYhKRPkAJ/dWBhYJJ6Z1SLl0n582Mzu6XuydTNtQEoGP594rFACCFUJE0HbAFsBcxZ83Sa5tfA5mY2ru6J1MWtAXAI//7isUAIobMkzQ7sCHwNeHfN02myO4BVurpy7NIAOId/f/FYIITQGZKWAHYmnafSxSX+0bgLWNDMXqp7It6K/wapMfwB1gT+Luk7kqasoX4IIRQlaQpJm0i6hXRo2upE+I/EJ4AD655EHYquANQc/hOKxwIhhNaQ9EFga2Abev/VvboZMLuZPVj3RDwV6xIbFv6QNsBcIum3kj5a92RCCGE0JE0uaVfgAWBfIvxzEPDVuifhrcgKQAPDf0LxtkAIoedIWh44DJi77rm00J1mNl/dk/CUvQHogfDvLx4LhBAaT9KswCHAGvXOpNVeNLNp656Ep6wNQI+Ff3/xtkAIoXGqY3r3qL48L97pqmnN7MW6J+ElWwPQw+HfJx4LhBAaQ9JawMFA7Fny8SYwtZm9WvdEvGRpAFoQ/v3FY4EQQm0kzQ0cQbqgJ/h52MxmrXsSnsb8FkDLwh/ibYEQQk0kbQbcTIR/HW6tewLextQAtDD8+1sTuCsOEQohlCZpakknACcAU9c9n446ru4JeBv1I4CWh/+E7gO2j8cCIYTcJM1Bupjm03XPpcPuAT5hZm/WPRFPo2oAOhb+/Z0L7BRvC4QQcqg2+p0EvKfuuYzBS8CdpIt1ngLGAc9P5OsVYFrSv3Pf13T9/vwDwK7ANE7zfxVY1MxucKrXGCNuADoc/n1eAn5IvC0QQhglSZMB+wPfrHsuI/QwcPsEX/ea2Rs5Bpc0KXAasH6O8YbpG2Z2rGO9xhhRA1BT+N9GM5fG4rFACGHEJM0EnAV8se65DMOtpO/5lwO3m9nzpQpJmgQ4FfhKqRoD+I6Z/cixXqMMuwGoKfz3N7M9Ja0IHE7aod808VgghDAskpYFTgc+VPdcBvEKcDVwPnChmf3Lo2gV/icDG3vUq3zfzPZ1rNc4w2oA6gz/fnOYkvRc6Nv4PRsarpdIhwj9NB4LhBAGImkT4ERg0rrnMoGngItI3+Mv8z4JT5JI/102dSy7n5nt5VivkYZsAGoK/wPMbI9B5vNR0pnYazrOZ7jisUAI4R0kbQEcS8EbWEfhOtL30nNyPcMfqSr8jwO2cCz7YzP7tmO9xppoA9C08O+veixwBDBH+SmNWDwWCCEAIGlr4CjSlbN1e530yuEhZnZ9nROpwv9oYCvHsj81s90d6zXaoA1ATeE/ol+c6rHAbqTHAk07PCMeC4TQcZJ2In3KrttzwM+BI7ye6w9F0pHAto4lDzazXRzrNd6ADUAvhH9/1WOBQ2nmVZn3ke4WuKTuiYQQ/EjanfSqX50eJF0odJKZ/bfmuYwn6TBgB8eSh5vZjo71esI7GoBeC//+JK1EelsgHguEEGoj6bvAfjVOobG3m0o6CN/zD35mZp4rDT3jbQ1ATeF/oJntlmuweCwQQqiTpP2A79Y4hbOAXc3skRrnMCBJB5C+P3s5Ftjact173zLjG4BqQ8b5wCqO9bOGf3/VY4HDgNVLjD9G8VgghBaStD9Q1yazv5G+r1xTU/2JkvQj4FuOJU8AtozwH1z/V1K2xzf8DyoV/gBm9rCZrQF8iRS4TTIHcLGkc+LK4RDaQdIPqSf8nyM9T5+/weG/L77hfzIR/kOSmSFpPuAGYCqnugeZ2a5OtfoeC+xO+g0YjwVCCFlJ2oB0wp+3XwI7m9nTNdQeFkl7Afs4ljwV2LRrN/uNRl8DcBp+5y/X9iqGpFlJbwvEY4EQQhaSFgCuxffDxcukQ8eOd6w5YpK+A/zAseQZwMZ1HWzUa0R6DPAk6QrG0hrxHqakL5HeFpi97rkMIN4WCKFHSJoeuBGYxbHs/cA6ZnarY80Rk7QH8BPHkmcDX4nwH75JgIXxCf9DmhD+AGZ2MTAvsBdpCb5J1gDukvTd6tFFCKGBJE0B/Abf8D8XWLAHwn8XfMP/N8CGEf4jMwkwj0OdQ8ysUfdem9krZrYf6d///LrnM4GpSe8Q31GdbRBCaJ4jgUWdar0O7GZma5a8kjeH6vTDAx1LngtsYGavO9ZshUko/wm4ceHfn5k9ZGarAyuTltaaJN4WCKGBJG0DbOlU7jFgKTPzDNVRkbQdvkcfXwCsZ2avOdZsjUlIJ0aVcniTw7+/fo8Fvk88FgghDELSkqQzRjzcDixgZtc61Rs1Sd8gXdDm5WLSXogI/1GaBHi84PjjCo6dXfVYYF9SIxCPBUIIb1O9SfQrYDKHcjeTPvk/4VBrTCRtCfzMseSlwFpm9qpjzdbpew3wbmCuAuO/AsxrZk1bWh8WSSuTOv14WyCEjpM0NfBn4NMO5a4HVjCz5xxqjYmkzYDj8bvu+ApgVTN72alea/WdBFjqXdIpSa/b9SQzuwiYj/RYoGm/2eKxQAi+9sEn/K8DluuR8N+EdM2wV/hfDawW4Z9H3wrAh4AHgHcXqrOGmZ1XaGwXkmYjrQasWvdcBhCHCIVQkKT5SaelTlq41B+Alc3sxcJ1xkzShsAvePuR8iX9HviSmZXct9YpkwCY2VOUvbry0Gr5rGeZ2YNmthrpvoQH6p7PBPreFjhUksezyRA6Q9KkpFXS0uF/FbBSj4T/l4FT8Av/a0mNUYR/Rv1/8Q4B7i5UZ1Zgz0Jju6oeC8wL7E3zHgvsCFzW681WCA2zE7BA4RqXAav0QsBJWpd0B0HphqjPn0mf/P/rVK8zxl8HDCBpGdIGixJeBubr1Q2BA2nwY4ETzGyLuicRQq+r/h+/A5imYJnbgS/0QsBJWgs4C5+3IAD+CixvZj31RlmveNvyjZldSTpPuYSp8Ht31kW/xwKr0qzHAptLWq/uSYTQAsdQNvyfBlbvkfBfHTgTv/C/kfQmRIR/IW9bAQCQNDPpUcC7CtVczcwuKDR2bSRNBexBetThda3yxNxiZqWXLUNoLUkbkza5lfI6abf/NQVrZCFpFdJ5+1M4lbwZWNbMnnWq10nv2MBhZo8A+xaseVgVlq1iZi+b2T6k/QEX1j0fYH5JC9c9iRB6kaQPAgcXLrNTj4T/SsCv8Qv/20iNUYR/YYPt4Cy5IXA2WrIhcCBm9oCZrUp6LPBgzdNZqub6IfSqQ4APFhz/eDM7quD4WUhaHvgt6UwXD38jffJ/xqlepw3YAFRnK29XsO4ekj5WcPzamdmFpJsG96G+twXiAqEQRkjS4sBGBUtcB2xbcPwsqk3h5+L3SPNOYBkze9qpXucN+g5nbAgcu+qxwN7U91hg5hpqhtDr9i449iP0wBn2kmYHziPdQeLhblL4P+VULzD0IQ67AKV2p65SbSxpvX6PBVbD97HA5I61Quh5khal3KOzN4C1m365jySRDj4qtRF8QvcASzf9v0sbTbQBiA2BeVVvP9T9WCCEMLi9Co59iJldX3D8XLYClnSqdR/pxsOSt9KGQbzjNcB3/ABpctJBFXMXmsP3qyt4O6XaA3E4sHLBMpea2YoFxw+hNSQtQno+X8KDpIPQGn3SX/WB7ElgWodyDwBLVB80Qw2GPMfZYUPgt6rTtjqleiywCrA69b8tEEIo++l/66aHf+XT+IT/Q6RP/hH+NRrWRQ4OGwIPLTR245nZ+aRNgvsSjwVCqIWkhYBSq2Wnm9mlhcbObUGHGv8khf8/HWqFiRjJTU4lNwSuJulLhcZuPDN7ycy+D2xe91xC6KhSn/6fIV0m1CtKNwCPkML/ocJ1wjAMuwFw2BB4uCSvwyaaqheWCENoFUkLUm4vzi499mpbyfNZHiWFf5PuTem0kd7lXPKEwNmB3QuNHUIIgyn16f8qMzu50NilqNC4j5Ne9buv0PhhFEZ0q5OZvSZpO8pdGfwtSafG8lAIwYOkuUnnc+T2Gul1ugBPkML/nron0iaS3gMsTnq1fDbgWVKj9Sczu3k4Y4z4Wkczu1LSr4B1R/pzh2Fq0obANQqMHUIIE9q40Li/iE+7ADxFCv9SK8edI+kjpD15X2OQNzYk/Q04gnTnxKDv+o/0EUCfb1JuQ+Dq1e1TIYRQTHXi3YYFhn4T2L/AuL1oGzP7e92TaAtJq5NuS9yBib+u+UngOOB3kmYc7AeNqgGIDYEhhBZYjDIXZp1tZvcWGLcXvVj3BNpC0neBc4D3juCnLQ9cK+lDA/3D0a4AQNkNgXMAuxUaO4QQoMzyvwE/LjBu6DBJ3wP2Y3SbNGcDzhvoQ/WoGwCHEwK/LSmusw0hZFd9Myyxj+kiM7u9wLihoyR9h7GvuC8CbD3h3xzLCkDfCYG/GssYEzE1aZUhhBByWxWYrsC4PywwZugoSd8CfpBpuF0lTdH/b4ypAaiU3BC4pqS4zCaEkFuJ5f+rzewvBcYNHSRpD+BHGYeciQnesBtzA+C0IXCKoX9YCCEMTdIHgBJvGsWn/5CFpN2AnxQYepX+f5FjBQDKbgicE9i10NghhO5ZH5g885h3VI9EQxgTSbsABxQafkVJ43M/SwNQbQjcPsdYg/hOdfhBCCGMVYl3/88sMGboGEk7AwcWLPEh4HN9f5FrBQAzu4JyGwKnITYEhhDGSNK0wMIFhj6rwJihQyTtCBzsUGr8xVfZGoBKyQ2Ba0laodDYIYRu+AIwaeYxb4pjf8NYSNqedAy+hzINQLUhcL+cY04gNgSGEMZi8QJjxqf/MGqStgUOdyw5v6QZIP8KAKQljFIbAj9OugQhhBBGY7ECY55dYMzQAZK2Bo70Lkv1Fkz2BsBhQ+B3Jc1ScPw2mabuCYTQFNXpfwtlHvYvZvZw5jFDB0jaCjiqpvJLQpkVgNgQ2ByLSfp+3ZMIoSEWAnJfMhbL/2HEJG0JHM3ozvbPYSEo1ABUSm4IXFvScoXGbpu9Je1V9yRCaIDcz/+Nch90QktJ2hw4lvrCH+DjkqYr1gA4bAg8IjYEDts+0QSEkP35/y1m9mjmMUOLSdoM+Dn1hj9V/QVLrgBA2Q2Bc5FWGdrECo69T3WlZAidI2lS0iuAOf0183ihxSRtSjPCv89CRRsApw2BMxcc31vpzUT7RhMQOmp+YNrMY8bFP2FYJG0CnEDZx+4j9bnikym8IfBd+Jyc5OVO4JXCNfaV9N3CNUJomhKn/8UKQBiSpI2Ak2hW+EPpFYB+Sm4IXFfSsoXGdlWtmPzNodR+0QSEjvlY5vGeA+7JPGYbdfoOF0lfAU6meeEPMLPLpJw2BOa+3asuXsuK+0n6jlOtEOo2a+bxrjezknt22uJwScvXPYk6SNoA+AX5j57OxrMrKbkhcG5g50Jje/sB8B+vWpK+7VQrhDrNlnm8WP4fnimBcyUtWfdEPElaHziVBoc/ODYADhsC92rDhkAzewLY1rHkD6MJCB0wa+bxogEYvqmBCyQtUvdEPEhaF/glDQ9/cH4u4bAh8KBCY7sys7OAXzuW/KGkbznWC8GNpOmA92Ue9vrM4zXFq4XGfTdwiaTPFhq/ESStDZwOTFb3XIajjo0JJTcEridpmUJje/sacK1jvR9FExBaatbM4z1mZk9lHrMp/l5w7OmASyV9qmCN2khaCziTHgl/qKEBiA2Bw2NmL5JubPqTY9kfSdrTsV4IHnI///935vGa5JbC478fuFzSJwrXcSVpDXos/KG+VxNKbgj8BLBTobFdVU3Aivg2AT+OJiC0zKyZx3sy83hNUroBAJgeuFLSHA61ipO0GulK6J774FlLA+C0IXCmguO7qWkl4MeS9nCsF0JJuVcA2twA/B2416HODKQm4KMOtYqRtCppX5tX+Gf9tantcILCGwLfTUs2BAKY2QukJuA6x7I/kbS7Y70QSpk183hPZB6vMczsdWALyt5L0ucjwFW9+mFN0sqkzdpel9L9A1iCjBs16z6dqOSGwPUlLVVobHdVE7Aivk3A/tEEhBb4v8zjtXkFADP7A3CMU7mPkVYCcv8aFSVpJeA3+IX/vcDSZvY48EKuQWttABw2BB7Zhg2Bffo1AX92LLu/pN0c64WQW+6NWa1uACp7kD5xepgLuELSB5zqjYmkFYFzSIccebgPWNLMHqv+elyugeteAYC0IbDUb7R5gB0LjV2LqglYAd8m4IBoAkIPy90AtPYRQJ/q+8wywANOJecDLpP0Xqd6o1Ida+wZ/vfz9vCHNjUA1YbA7QqW+L6kGQuO766mlYADJO3qWC+EXGIFYBTM7FFgaeBfTiUXAH4nKfe1zVlIWg44D5jKqeQDpPB/dIK/354GAFw2BB5YaOzamNk4UhPgeSf5T6MJCD0o95GsT2cer7HM7GFSE/C4U8mFgYskTeNUb1iqA+Y8w/9BUvg/MsA/a1cDUCm5IXCDNl5GUTUBK+DfBOziWC+Eseqpw1maxszuIz0O8Dr9cDHgPEleYTtRkpYGLiDdaeDhIVL4D7bykm0TYGP+xzCzRyTtB/ykUInTJP2t0Nj/A+4Abq2+HvS6KtTMxklaAbiM1D17OFASZtaaVy1Dq+X+Puf1/LcxzOwuScsCV5NO8yttWeA3ktY0s1L3Ewyp+uDoGf4Pk8L/nxP5MdlWANSkK62rHft/I+0K7WU3AZuZ2e1eBSW9B98mAGAXMzvYsV4IIybpn8AsGYecz8zuzDhez6gu87kSeI9TyXOA9arzCVxJWgK4iHTRnId/AkuY2UMT+0GSjiTTjbFNegTgsSHQy4LAjZL2leTynmj1OGB5fK8pPUjSzo71QhiNWAHIxMxuJB1K9qJTyTWBX0hyzSpJi+Eb/v8iffJ/aBg/9t25ijaqAYDiGwI9TQ58D/h99em8uH57AjyvKj04moDQcLk3AXod/tJIZnYdsCrwklPJDYATJMmjmKRFgYvxC/9HSOH/4DB/fLa3JBrXAFRKbgj09nnS+61eTcDzpJUA7yagFRcwhVaKFYDMzOwa0qfzV5xKbgr8rHQRSV8ALiHjp+whPEoK/5Gct9DuBsDhhEBvC5PuwW5zE3BINAGhoXKHVOcbAAAzuxRYD3jNqeQ3JBXbcyRpEeB3+IX/Y8BSZnb/CH9eex8B9HMIfkdRevg89TQBN3jUqxwiqVUnL4ZWyP0OezQAFTM7H9gQeMOp5M6SfpR7UEkLk8Lf6xCix0nhP5rb/bLNsTGvAU7IzF6VtB1wed1zyaivCVihel5flJk9X51edTnwudL1KodWrwge5lQvhKFEA1CQmf2qemf/ZHw+VH6rOo8/5+uB8+Af/veM8ue3vwGAtCFQ0q+BdeqeS0afJx13uUJ1pG9RVROwPOkVQc8mwMzscKd6IUxM7gbgg5nH63lmdmrVBBwLeGzWm9+hRgn/Jt3qN5bV7U48AuizM+3ZENhnEdJKgEvHaWbPkR4H3OhRr3KYpB0c64UwmMeG/iEj0uvnlBRhZj+nZZevZfYEKfzvHu0AkiYFpss1ocY3AC3cENhnERwvvqiagOXwbwK2d6wXwkByrwB8PPN4rWFmRwC71z2PBnqSFP53jXGc2ci4ct/4BqDStg2Bfb5APU3ATR71KodHExBqlnsFIBqAiTCznwLfr3seDfIUKfz/nmGsrKtPPdEAVGdBt+GEwIF8AbjEuQlYFv8moK2/fqH5cq8AzFYdWx4GYWb7Uu5el17yNLBMxqOju9cAwPgTAn9d9zwK+SKpCXB5/7SmlYAjJGU5vzqEEcrdAEwKzJ55zNYxs28BXX4b6D+k8M95CV03G4BKGzcE9vki6XGAVxPwLKkJuNmjXuXIaAJCDf4N5L71LB4DDIOZ7UR6M6Br+sI/94Vw3W0Aqg2Be9Y9j4K8VwKeJT0O8G4CtnGsFzquukku91320QAM39bAKXVPwtEzwLJmdluBsbvbAACY2ZHAqXXPo6BFaX8TcFQ0AcHZSI9bHUo0AMNk6c75zYGz6p6Lg2dJ4X9r7oElTQd8OOeYPdcAVLYCLqx7EgUtClxcw+OAWzzqVY6UtLVjvdBtue/FmDfzeK1mZm8AGwHn1j2Xgp4DljOzUt9H58s8nvVkA2BmLwGrkd439bqIwttipCbA5UpKM3uGtBLg1QSItBIQTUDw8NfM433O682dtqgexaxPum2vbfrCv+TG6qUyj/evnmwAIC0rVe+bzgJ8B7gHeLPeWWXXlSbgG071QnflbgAmJ/835NarXuleC7iq7rlk9DywvJmVPmQt9++3u5Uez7SDpCmAjwLvp+x51KsB3yo4/oT+AHzJzFzegJD0fuBK4DMe9Ug7tLcxs2Oc6oUOkvQUec/xP8rM4nyLUag+1PyO9Lizl40jhX/uBvNtqnsWngWmyjjsEa1qADxJ2hvf06660ARsbWZdfGUoOJB0EfCljEPeZ2ZzZhyvU6qr0S8HFqp7LqM0DljBzP5SupCkpci/avL1nn0EUDcz2xvY17Hk4sBFNTwOKPEqy0AEHC1pK6d6oXtyf0qbQ9JsmcfsjOpK9BWB7DvmHbwArOgR/pWlC4x5TTQAY2Bm38e3CViC1ARM41HMzP4DLIN/E/B1p3qhW3K/CQDpls0wSv3eQMpxTr6XF4GVzOzPjjVzNwCPmNm90QCMUdUEeN5W2IUm4JhoAkIB0QA0kJk9DSxJb7zafS/pYp8/eRWsXgf/XOZhr4bePQegUcxsL+AHjiWXpJ4mIPexloPpawK2dKoXOqB6rHVv5mGXqe5oD2NgZk+Z2arAFqTl9aYx0r0GnzazG5xrr0x66ySnqyAagGzM7Hv4NwEXtrwJODaagJBZ7n0A09G7m9gax8xOAD4F7E/6lDquxum8Rjoh9ThgCTPbqTqDxtsmBca8CiDeAshM0g9I5xJ4uRpYxcz+51FM0gdJbwd8yqMeqfP+upkd71QvtFR1lOqVwIKZh97FzA7OPGYAJIl0/n3WI3CHYRxwp5m94lz3bST9H/Ao6QbKXO43szkAJss4aADM7Lvp96xbE7AUcIGkVT2aADN7WtIypA7yk6XrkVYCjpNENAFhtKrwv5T84Q8wf4ExA+PvEbi7+uqiDckb/tDvdcJ4BFCAmX0X+JFjyaVJTcDUHsWqTTtLAznvuZ6YviZgc6d6oUX6hf/ChUrMU2jcEIot/0M0AMWY2XeIJiAnAT+XtJlTvdACDuEP9T6nDi0l6dPApwsMfXXfn0QDUFDVBPzYseQy+DcBywB3eNQjNQHHRxMQhsMp/CE9ow0htxKf/v9sZk/0/UU0AIWZ2beBnziW9G4CniKtBHg3AV9zqhd6kGP4g9/v/dAR1dn/GxUY+pT+fxENgAMz+xb+TcD50QSELnIO/zeBXzrUCd2yGTB95jFfAc7u/zeiAXBSNQH7O5ZcltQE5Lw9alD9moA7PeqRfu8eL2lTp3qhBziHP8DlZvaIU63QAZImB/YoMPQF1dHL40UD4MjM9iSagJwmAU6IJiBALeH/IrCDU63QHRsBHykw7i8m/BtxEFANJO0P7O5Y8nJgNTN72aOYpOlJr5rM61GPtAy7mZmdMuSPDK1UQ/gDbGhmpzvWCy0naRLSmQe5r5l+CpjJzF7r/zdjBaAGZrYHcIBjyeWA8xxXAp4krQR43fA1CXCipK861QsNUlP47x3hHwpYj/zhD3DGhOEPsQJQK0kHALs5lrwMWN15JeBq/A5KeRP4mpm9Y6krtFNN4b+Pme3tWC90QHXs8W2UOWH1s2Z204R/M1YAamRmuwMHOpZcHji35SsBJ0kq8f5saJgI/9Ay61Am/P8+UPhDNAC1M7Pd8G0CVsC3CXiC1ATc5VGPt5qAjZ3qhRpE+Ic2kfQu4KBCwx8z2D+IBqABqiag1C/+QFYAzpE0pUexqglYCt8m4ORoAtopwj+00PeBWQqM+wQw6CVq0QA0hJntim8TsCJpJaDtTUCJ07RCTSL8Q9tImgfYqdDwB5vZS4PWjk2AzSLpIOCbjiUvAdb0uvda0odJGwPn9qhH2hj4VTOL09p6XIR/aCNJVwNLFhj6WeCjZvbCYD8gVgAaxsx2AQ52LLkSvo8D/k1aCfC633sS4BRJGzrVCwVE+Ic2qr4vLVlo+MMmFv4QKwCNJelgYGfHkhcDa7V4JeAN0krAaU71QiYR/qGNqt/XdwMfLjD8C6RP/89O7AfFCkBDmdk3gUMcS34J+G0NKwH/8KgHTEpaCfiKU72QQYR/aLGfUSb8AY4eKvwhVgAaT9IhlNsgMpCLSCsBr3oUkzQDaSVgLo96pJWATeIUt+aL8A9tJWlL4LhCw78EzFqdwzJRsQLQcGa2M3CYY8mVSSsBU3gUM7PH8V8J+IWkDZzqhVGI8A9tJemTlP2efvxwwh9iBaBnSDoU2NGx5IXA2i1fCdjYzM5wqheGKcI/tFV14M+NlNv79CwwV3Uz65BiBaBHmNlOwOGOJVcBflPDSsA9HvVIKwGnSvqyU70wDBH+oeWOoezG528PN/whVgB6jqTD8L2D/AJgHceVgBlJKwEf96hHWgnYyMzOdKoXBhHhODL4DQAAIABJREFUH9pM0mbACQVL3AB83szeHO5PiAagB0k6HNjesWQXmoANzewsp3phAhH+oc0kfQG4Api6UIk3gYUGu/RnMPEIoAeZ2Q7AEY4lVwV+5fg44DHS44B7PeqRHgecJml9p3qhnwj/0GaS5iXtqSoV/gDHjDT8IVYAepqkI4DtHEueT1oJeM2jWLUScA0wp0c9YiXAXYR/aDNJHwGuA2YqWOZJ0sa/50b6E2MFoIeZ2fbAkY4lVyOtBEzuUazGlYD1nOp1WoR/aDNJHwQuo2z4A+w2mvCHWAFoBUlHAts6ljwPWNdxJWAm0krAHB71gNdJKwFnO9XrnC6Fv6R3AwsAnyM1mTcAN5nZOO+5BB/Vr/lVpF/zkv5oZouP9idHA9ASNTQB5wLrtbwJ+IqZ/cqpXmd0JfwlrQvsBczDO1dbjXT41U/M7BTPeYWyqr1SFwDLFy71X2BBMxv1IWrRALSIpKOAbRxLRhMQRqQL4S/pQ8BRwLrD/CkXAF+v7scIPaz65H8OsKxDuY3Hes15NAAtIkmkPQGeTcA5wPqOTcDMpCZgdo96pCZgAzP7tVO91upI+M9HWvr90Ah/6jPAsmZ2S/5ZBQ9V43cx8FmHciea2eZjHSQagJapmoCjgK0dy0YTECaqI+E/GfBX0vP+0bgD+KzXldwhH0kfJW348zi75A7SO/8vjXWgeAugZSx1dNuSjpz0siZwpuPbAY8ASwL3e9QDJgPOkLS2U71W6UL4V77D6MMfYD5gn0xzCU6qVZ/r8An//5Ieu445/CFWAFqrWgn4GfANx7K/Ja0EvO5RrKaVgC+b2W+c6vW8roS/pI8Dd5KaxbF4A/iMmd0x9lmF0iR9kXTIz3udSn7VzH6Ra7BYAWipaiVgG+BYx7JrkVYCxvpNcFiqlYClgAc86pG+uZ8paS2nej2tK+FfWZqxhz+k1wSXyTBOKEzSN0jH+3qF/8k5wx+iAWi1qgnYGt8mYG18m4B/kR4HeDYBZ0UTMHEdC3+ABTOO5bGJLIySpPdIOgs4GpjKqeydFHjNOxqAluvXBBznWHZt0jPzNjcBZ0pa06leT+lg+EPeBiDnWCEjSQsANwOep4U+DqxiZv/LPXA0AB1QNQHfwLcJWAf/JmAp4EGPesDkpJWAaAL66Wj4Q977Kmav9vCEBpG0HWmzn9eeI4DngRXN7KESg0cD0BH9moCfO5ZdBzjdsQn4J2klwLsJWMOpXqN1OPwB7s441j0Wu7MbQ9KHJP2GdAPrlI6lXwZWM7PbSxWIBqBDqm8qW+HbBKxL+5uAs7veBHQ8/AFGfBXrRNyYcawwSpImkbQV6chm7z0/b5DOHvlDySLRAHRMvybgeMey65Ju2fNuAh7yqMdbTcDqTvUaJcIfyBvaOZuJMAqSFgT+TDpP5X01TGFrMzu3dJFoADqoagK+jm8TsB6pCZjUo1hNTcCvutYERPiPdyWQ4wS/14DLM4wTRkHSdNXFatcDC9U0je+ZmcsqbTQAHdWvCTjBsax3E/Aw0QQUE+H/FjN7EPhehqH2G8vtbmF0JE0qaVPScv+21JeNR5nZD7yKxUmAHVftNv45MOaLJUbgLGBDM3vDo1h1Tvc1wKwe9Uif4tYxs/Od6rmL8H8nSZMAfwS+MMohbgQW8TpJM4y/uverwB747u4fyOHATp4bQKMBCH1NwPHAZo5lzwQ2cmwCZiU1AR/1qAe8CqzbxiYgwn9wkuYgPQ74yAh/6mOk2wDvyj+rMCFJUwNbArsBM9c8HYBvm9mPvYvGI4DQ9zhgC+BEx7JfBn7p+DjgIdLjgIc96gFTkB4HrOpUz0WE/8SZ2X3AJxnZmzanAvNG+JcnaVpJe5AeCx5G/eH/BrB5HeEPsQIQ+qmWMI8HvuZY9gxg45avBKxjZhc41Ssmwn9kJC1P2hewADDNBP/4ZeBW4Cdmdp733LqkWuFcDNiE9EbSe+qd0XgvkS4Xq22VMBqA8DYdagJ+z8iXaUfrVWBtM7vQqV52Ef6jV61yzQt8jnTZzw3AHWb2Wo1zmhmYEfg/4DngdjN7vq75lCBpdlLobwzMVvN0JvQcsKqZXVvnJKIBCO9QNQEnAJs6lj0d2MSxCZiNtBIQTcAQIvzbofp13Jj0uO/TA/yQh0ivIF4EXGFm//WbXR6SZgBWJQX/F2uezmAeJR3vW/uVz9EAhAFFE1DEq8BaZnaRU70xi/BvB0mLkVbaZhrmT3mF9P/GhcBF1WuOjSPpA6S9PUtXX3PXOqGh3QqsXp1TUrtoAMKgqibgRNJrMl5OA74aTUD9IvzbQdKuwE9Ijx9G61+kRxd9Xzd6PzKoHqXMSnqcsgQp8D8N9MrFSccAO5vZy3VPpE80AGGiamwCNjGzNz2KSfoYqQmYxaMeqQlY08wudqo3YhH+7SBpb+D7BYY24F7gNtKjg4f7f5nZuNEMWoX8+4A5gLkm+JoD38t4cnkB2NLMzqp7IhOKBiAMqWoCTiI9V/PyS9JKQFubgFdIKwGNawIi/NuhYPgPx/OkjW7/I+12/1+/r9eBdwPT9vtj359PXcdkC7qVdB7IfXVPZCDRAIRhqakJOBXYNJoAPxH+7VBz+IfkaNKSf447IoqIBiAMW9UEnEzaSeylC03AmmZ2iVO9QUX4t0OEf+3GkZb8z657IkOJkwDDsFUhvCkplL1sDJxUNR/FmdkDwFLAIx71SM80z5G0klO9AXUt/CVNJukT1b93a0T41+4yYP5eCH+IFYAwClUYnwJs5Fj2F8DXHFcCZietBHgdFfoKsIaZ/c6p3nhdCX9JC5Ea2AVIu8enIm1mux+4GbgCOMHr91huEf61epS03P+ruicyEtEAhFGpqQk4BdgsmoB8uhD+kqYC9gW+ydCvwv2Z9Hvs7uITyyjCvzavk+4U2NvMXqx7MiMVDUAYtaoJ+AWwoWNZ7yZgDlITMNwDVMbqFdJBIZeWLtSR8P8c6ZHVXCP4aa+Qbmc7uMys8orwr80fgW2acKLfaEUDEMakem/3FHybgJNJN2i1tQl4mbQSUKwJ6Ej4LwpcQnq9bDRWbfrRzRH+tXgS2M3MflH3RMYqGoAwZlUT8AvgK45lT6b9TcDqZnZZ7oEj/IftMdI1vc/lmVVeEf7uxgFHAj9t6u+JkYq3AMKYVcf2bkI6y9/LpsDxjm8H3Ed6O+BRj3qkDWrnVVfKZhPhPyIzAo18DBDh7+o/pGudP2pm32lL+EOsAISMqpWAU4ENHMueRFoJcPmNLGlO0krAjB71yLgSEOE/au9r0jf9CH83jwMHAcf04s2IwxErACGbaiVgY9KtY16+RloJcLkQxMzuJd0+9phHPd5aCVhuLINE+I/JApnHG7UIfxcPA9sCHzOzg9oa/hANQMisXxNwpmPZzYCfOzcBS+HbBJw/2iYgwn/MFiww5ohF+Bf3Z9IHijnN7GdNurWvlGgAQnZVE7ARvk3A5vg2Affg3wScJ2nZkfykCP8s5i807rBF+BfzELAf8HEz+4KZnWxmr9U8JzfRAIQi+jUBnldgbg4cV0MT8LhHPdJNaecPtwmI8M/mmYJjDynCP7txwAnAEqRl/r2qVb3OiQYgFFM1ARvi2wRsgX8TsCT+TcAyE/tBEf5Z3VR4/EFF+GfzGun3ygbAh81sCzP7g9fm4aaKtwBCcdXbAacD6zmW/TmwlePbAXMBVwMzeNQj3bG+qpldOcBcIvzz+rSZ3e5Q520i/MfkDdL9DldVX9ea2f/qnVLzRAMQXEiaDDiNaAJyekcTEOGf3dPADGb2ukOt8WoI/78CawKzkd56WLD64zzAZI7zGC0D7uCtwP+9mT1f75SaLxqA4KZqAk4H1nUsexzwDecm4Brgwx71SE3AKmZ2VYR/EV8xM8/XWusK/xUGCszqIqVP8VZDsAAwHzCF4/wm9CJwD3A38A/gTuAPZvZUjXPqSdEABFc1NQHHAls7NgFzk1YCPJuADYE9iPDP6TwzW8OpFtCs8B+MpClITcCCpEuW3ld9vXeCP74HGM1enFeBF4DngftIId8X9v8ws0dGMWYYQDQAwV3VBJwBrONYtu1NgLe2h/8zpHsA/u1Ur67wX97MxpUYvDqmezre2RhMTfoU/yIp6N/2xy69hle3aABCLWpqAo4hXd8ZTcDYtD38nyd9Kv6rU73WhX/oDfEaYKhFtalqA+A3jmW/AfzM8RXBu4GlgSc86jmJ8M8swj/UJRqAUJuqCfgy/k3AUY5NwF2kw4La0ARE+GcW4R/qFA1AqFW/JuC3jmW3JpqAkYrwzyzCP9QtGoBQu6oJWB//JuBIr2JVE9CrjwMi/DOL8A9NEA1AaISaVgK2keTZBPyd1AQ86VUzgwj/zCL8Q1NEAxAao3r958vAOY5lt62hCViK3mgCIvwzqyH8/0KEfxhENAChUaomYH38m4AjvIr1yEpAhH9mNYX/ChH+YTDRAITG6dcEnOtYdjvnJuBOmtsERPhnFuEfmigagNBIVROwHv5NwOFexfo1AU06wzzCP7MI/9BU0QCExurXBJznWHb7DjcBEf6ZRfiHJosGIDRa1QSsi38TcJhXMTO7g/qbgAj/zCL8Q9NFAxAar18TcL5j2R0kHepVrOYmIMI/swj/0AuiAQg9oaYmYEfPJgD4F/BPx3oQ4Z9dhH/oFdEAhJ5hZq+SmoALHMvuKOmQ0kUkTQdcSrpj3UuEf2YR/qGXRAMQekrVBKyDbxOwU8kmoF/4L1yqxgAi/DOL8A+9JhqA0HP6NQEXOpbdSdLBuQeN8C8iwj+EYYgGIPSkqglYG98mYGdJB+UaLMK/iC6E/5+J8A8ZRAMQelZNTcA3czQBEf5FdCX8V4zwDzlEAxB6Wr8m4CLHst+UdOBof3KEfxER/iGMUDQAoedVTcBa+DYBu4ymCYjwLyLCP4RRiAYgtEK/lYCLHcvuIumnw/3BEf5FdCX845l/yC4agNAaZvYKaSXAswnYVdIBQ/2gCP8iuhT+LzjWDB0RDUBolX5NwCWOZXebWBMQ4V9EhH8IYxQNQGidqglYE/8mYP8J/2aEfxER/iFkEA1AaKV+TcDvHMvuLuknfX8R4V9EhH8ImcjM6p5DCMVImhI4F1jRsez+wI+J8M8twj+EjKIBCK1XUxPwb+DDjvUi/DOL8A9tFw1A6ARJU5GagBXqnksBEf6Z1RD+15He84/wD25iD0DoBDN7GViDtCzfJhH+mUX4h66IBiB0Rr8m4LK655JJhH9mEf6hS6IBCJ1SNQGr0/tNQIR/ZhH+oWuiAQid068JuLzuuYxShH9mEf6hi6IBCJ1UNQGr0XtNQIR/ZhH+oauiAQid1YNNQIR/ZhH+ocuiAQid1u9xwBV1z2UIEf6ZRfiHrosGIHSemb1EWgloahMQ4Z9ZhH8I0QCEALytCbiy7rlMIMI/swj/EJJoAEKoVE3AqjSnCYjwzyzCP4S3RAMQQj/9moCrap5KhH9mNYT/n4jwDw0WDUAIE6iagFWorwmI8M+spvBfKcI/NFlcBhTCICTNANwPTO1YNsI/swj/EAYWKwAhDEDSdMA5RPjnFOEfQoNEAxDCBKrwvxRY2LFshH9mEf4hTNxkdU8ghCaJ8C+iK+G/opm96FgzhDGJFYAQKhH+RUT4h9BQ0QCEQIR/IRH+ITRYNACh8yL8i4jwD6HhogEInRbhX0SEfwg9IBqA0FkR/kVE+IfQI6IBCJ0U4V9EF8L/WiL8Q0tEAxA6J8K/iK6E/0oR/qEtogEInRLhX0SEfwg9KBqA0BkR/kVE+IfQo6IBCJ0Q4V9EhH8IPSwagNB6Ef5FdCH8AX4a4R/aKhqA0GoR/kV0JfwBzpa0Vg11QyguGoDQWhH+RXQp/AGmJDUBW9RUP4RiogEIrRThX0TXwr/PpMDPJe1Z8zxCyEpmVvccQsgqwr+Irob/hA4CdrPM3zglTQbMC7wJ/N3M3sg5fggDiQYgtEqEfxER/m93CrCFmb0+lkEkzQLsDiwEfAqYqvpHLwG3AX8F9jezx8dSJ4TBRAMQWiPCv4gI/4FdAKxnZi+P9CdKErAVcAAw7RA//DlgZzM7ecQzDGEI0QCEVojwLyLCf+L+CKxqZs8P9ydImgn4JbDkCGtdAmwwklohDCUagNDzIvyLiPAfnttI/52eGOoHVuF/DTDHKGudZGabjfLnhvAO0QCEnhbhX0SE/8jcDyxvZg8M9gMkzUgK/znHWGslM/vdGMcIAYgGIPSwCP8iIvxH53HSNcG3T/gPMoY/wL+A+cxsXIaxQsfFOQChJ0X4FxHhP3ozAL+X9MX+f1PSDMDV5Al/gFmAVTKNFTouGoDQcyL8i4jwH7v3ApdLWhneFv4fz1xnwczjhY6KBiD0lAj/IiL885kaOFfSDsBVwFwFakQDELKIPQChZ0T4F9GF8L+JtPN+OseaJT1vZu+texKh98UKQOgJEf5FdCH8ryW9c78kMOSrej2iLf8eoWbRAITGi/Avoivhv5KZvWhmtwJfBAZ9Va+H3Fz3BEI7RAMQGi3Cv4hOhX/f3zCz+4FFgXe8qtdjbqp7AqEdogEIjRXhX0Qnw79PdbHOEtWP6VW/r3sCoR2iAQiNFOFfRKfDv4+ZPQcsD1zoNqt8TjCzG+qeRGiHeAsgNE6EfxER/hOQNBlwArBJ0Vnl8wjpFMC4EChkESsAoVEi/IuI8B+Amb0ObAocXGpSGRmwVYR/yCkagNAYEf5FRPhPhCW7AHvmn1Y2BmxrZhfXPZHQLvEIIDRChH8REf4jIGlz4Fhg0jHPKp++8D+67omE9okGINQuwr+ICP9RkLQGcCYwZa4xxyDCPxQVDUCoVYR/ERH+YyBpSeA84D25xx6BCP9QXDQAoTYR/kVE+GcgaX7gd8D0pWpMRIR/cBENQKhFhH8REf4ZSZoDuAyYrXStCVwLLGFmbzrXDR0TbwEEdxH+RUT45/cy8IZTrf4WBc6UNEUNtUOHxApAcBXhX0SEf2aSZgauJl0jXJcrgDUdG57QMdEABDcR/kVE+GfWkPDvcwPwJTN7uu6JhPaJBiC4iPAvIsI/s4aFf59/AMub2T/rnkhol9gDEIqL8C8iwj+zhoY/wFzAnyR9ou6JhHaJBiAUFeFfRIR/Zg0O/z4zA3+U5Pn/UWi5aABCMRH+RUT4Z9YD4d/nA8CVklaoeyKhHaIBCEVE+BcR4Z9ZD4V/n3cBF0j6ct0TCb0vGoCQXYR/ERH+mfVg+PeZHDhN0rZ1TyT0tmgAQlYR/kVE+GfWw+HfZxLgyOrXKYRRidcAQzYR/kVE+GfWgvCf0M+A7ePo4DBS0QCELCL8i4jwz6yF4d/nLGATM3u17omE3hENQBizCP8iIvwza3H497kMWMvM/lv3REJviD0AYUwi/IuI8M+shvA34BanWn2WB66S9AHnuqFHRQMQRi3Cv4gI/8xqCv8tSP9fnO5Us89CpAODZnGuG3pQNABhVCL8i4jwz6yu8DezE83sNWAj4HCn2n0+QTo6eG7nuqHHRAMQRizCv4gI/8zqDP/xfyPZEfie0xz6zAJcK2kh57qhh8QmwDAiEf5FRPhn1oTwH2BOW5Fe2fP84PUiaWPg5Y41Q4+IBiAMW4R/ERH+mTUx/PtIWgc4DZii+Kze8iqwsZmd7Vgz9IB4BBCGJcK/iAj/zJoc/gBm9mvgS6RP5l6mAM6QtLVjzdADogEIQ4rwLyLCP7Oawn/L4Yb/+J9kdiWwFPB0kVkNbBLgZ5L2cqwZGi4eAYSJivAvIsI/sxrD/4TRDiBpLtLhPR/JNqvhORLYweKbf+dFAxAGFeFfRIR/Zr0Y/n2quV8KzDPmWY3MGcBXq1cVQ0dFAxAGFOFfRIR/Zr0c/n0kvR+4GN//1yD9/712HB3cXbEHILxDhH8REf6ZtSH8AczsGWAZ0v9znlYArqgakNBB0QCEt4nwLyLCP7O2hP/4wdOn8FWBM0uMPxGfJx0dPLNz3dAA0QCE8SL8i4jwz6xt4T++SHoevyFpk56neUhHB8/lXDfULBqAAET4FxLhn1lN4f/10uE/vpjZm2a2Pb6/hpDeRLhW0med64YaxSZAR5ImI53R/VFgGmCy6mvSifz5JMB/gMeBx4DHzWxc5nl1IfxnAu4EpnMqGeGfWY3hf7xTvbeRtA1wBP5HB69RnVUQWi4agIwkTQLMBMwGzDrAH2cmhfpY/ZfUEIxvCqqvR4FbgbvM7M1hzrn14Q8g6SLSCWweuhD+TwGzm9kLHsW6Fv59JK0P/AL/o4M3rE4tDC0WDcAYSJoRWAxYvPrj3MDktU4qeQG4Efhr9XW9mT024Q/qUPhvApziVK4L4d/nYDPbpXSRroZ/H0nLAecA73Is+yawjZkd61gzOIsGYAQkzU4K+77An73eGY3II/RrCIB7gd/S/vCfDHgSeJ9DuS6Ff59vm9mPSw3e9fDvU13rezHwAefS3zOzHzjXDE6iAZiI6hP+GrwV+jPUO6Oe5h7+AJI+TXosUloXw7/PVmZ2XO5BI/zfTtLcpKODZ3EufTiwUxwd3D6T1T2BppE0LbAWsBGwNPGmRA61hH9lQYcaXQ5/gKMlPZPzmXFN4b9VU8MfwMzulvRFUhMwt2PpHYAPSPpaHB3cLhFupGViSStJOh34N3AysCzx3yeHOsMfyjcAXQ9/SP+fnCZpmRyD1Rj+P3eqN2pm9i9gUdJjPE8bAudJmsa5biio0wEn6bOSDiXtnr8Y2ID0el7Io+7wh7LP/iP83zIFcK6kz41lkAj/oZnZf0hHB1/uXHol0tHBHvtpgoPONQCSppa0o6S7gBuAHYHpa55WGzUh/AFuKTRuhP87vRu4pHpWPWIR/sNXnb2wCnC2c+lFSEcHz+hcNxTQmQZA0jSSvgk8CByK7zO0rmlK+APcVGDMCP/BfQC4TNKINqpF+I+cmb1KWrU82rn0vMB1kj7uXDdk1vq3ACS9C9gG2JX4pO+hSeGPpPcCz2YcMsJ/eO4GFjOzp4f6gRH+YydpH2Av57JPkU6CLNFkBwetXQGQ9G5Je5A+8R9AhL+HRoU/gJk9B5yUabgI/+Gbm/Q4YKL3LtQU/t9oU/gDmNn3ge1J/35ePgRcLWkpx5oho9atAFSv8W0H7IL/oRld1rjw71OtAtwJjOW5ZYT/6FwFfMnMXpnwH9QY/tnPLGgKSRuQTr30PJH0FeArZvZbx5ohg9asAEiaVNLOwEPAj4jw99TY8IfxqwBbjWGICP/RW5r0iuDb7sCI8C/DzM4AViXdF+JlSuBsSVs61gwZtKIBkPQZ4C/AwcD7a55O1zQ6/PuY2YWkVaF3fBIdwp3AUhH+Y7I2cEzfX0T4l2Vml5LOMXnGseykwHGSvu1YM4xRTz8CkDQ16RvlLsSphnXoifDvr3pF7UTS60wT8zqwP7BvtdvaRQ3h/1/8Lpn5CXAUEf4uJM1DuuxrZufShwLfjKODm69nG4Dq1LFj6a0Ledqk58K/T3Vt8+akT0kLkH4PCXgJuI306uCJZnaz87z2xjf8/wqsBpwFLOlU8z/4PZ7rbPj3kfQR0tHBczmXPhXYzMxed64bRqDnGgBJ7wcOAjateSpd1rPhP5DqWuQZgXvr+oZVU/ivYGbPS3oP6VP5Ao71S+t8+PeR9EHgEuCzzqUvAtY1s5ec64Zh6qkGoNrheijxSl+dWhX+TVBn+Pebw/TAtcCcjvMoxYCt4y77t1SvY55LOkLY05+AVaqNuKFheqIBkPQB0qstK9c9l46L8M+sCeHfby4fBa5jbK9L1i3CfxCSpgBOA9ZxLv030u+5x53rhiE0vgGQ9CngPGDWmqeSk5F26P4beKL6epH0Os2UpItVppzgawrSZq2PVH/uLcI/syaFfx9J8wJ/pOwlSqVE+A+h2v/yM8b2WuxoPAQsZ2b3OdcNE9HoBkDSOqSreb12Kef0H9JlQ9eTTiPsH/ZPjvZZc/U+9azAxwf4moW0mS23CP/Mmhj+fSQtAlxBb92MGeE/ApL2A77rXPZJYEUzK3VBVxihRjYAkgTsB3yn7rkM08vAzaSwvx643szu955E9VrknMDCwPKk531j+ST3BrCnmR2YYXqh0uTw7yNpReB8fE+UG60I/1GQtANpT1WJDw2DGQesbmbXONYMg2hcA1DtSP4l6TSrpjLSs9JfkZZLb2/i6y7VasFngRVIDcHCDP+8hEeBDczsj4Wm10m9EP59qk23p+EbECMV4T8GkjYk3ZXhfXTwl83sXMeaYQCNagAkzUl63v+JuucyiL+S7t8+28weqXsyI1U1V0uTmoGlSY8NJvzmfgPpG8LpowmNMLheCv8+krYDjsg3pawM2MbMjhnyR4ZBSVoJ+DW+j3zeIN3IeIJjzTCBxjQA1ZLjGcB7657LBG4mHZRytpk9VPNcsqpeDfoM6b/5o8AjZvZUjfOZEvgksCDpG8RNwB1m9lpdc8qlF8O/T01XzQ4lwj+jat/HRfhv/tzTzPZ3rhkqjWgAJO0O/Jjm3E3wHOnI0pNj12p5ktYD9gTm451Lka8At5OO5L3Qe2459HL495F0FLBNrvHGKMK/gOoNkMvwfw30IGC3ODrYX+0NgKQjgW1rncRbngYOAY40s3F1T6btqvMdfgasN8yfchKwUy/92rQh/GH862OnA+vnHHcUIvwLqs6CuIz0eNDTKcAWTdxL1Wa1NgCSDgK+WdsE3vI4cCBwrJl5XqPZWdX5DpcB/zfCn/ovYOleWJlpS/j3kTQ5cCFpD0kdIvwdSPoQ6ejgBZ1LXwisF0cH+6mtAZD0Q6DuqyMfJt34dqKZjfSa2DBKVZDcAHx6lENcCyxhZm/mm1VebQv/PpLeBVxJeqPEU4S/I0nTkjZkL+Vc+lpg1Tg62Ectz9wl7UW94f8YsBkwp5kdHeHv7tuMPvwBFgV2yDSX7Noa/gDVCtnXSYHsxYBtI/z9mNkLwErAb51LLwr8XtKHnet2kvsKgKS3KdJaAAAgAElEQVQ9SPeC18GAY4BvxStu9ZA0F+ls8LG+d/w/YK6mvY7Z5vAHkDQTcA0wh0e9ymvAymZ2uWPNwPizRI4GtnQu/QCwfB0HqnWJ6wqApB2pL/zvBBY1s20i/Gu1AnkOHZmGdJZBY3Qg/GckXRvsGf6Qfr+cI2kh57qdZ2ZvmNnXSW9pefoY8CdJn3Gu2yluDYCkb5COnfT2MunM6/nN7Loa6oe3+1xDxxqTDoV/XdcFvwu4WFJTDwkbE0mTSJpb0pzVUeiNYmbfJm3Y9lwy/j/gGkmLO9bsFJcGQNLXSK97ebsK+JSZ/bANh8m0RM5PcY34RNiB8J+BFP7er4ZN6APAZZI+UvM8spA0k6SDJP0BeB64C7gHGCfpj5IOljTSt2SKMbNDgK8Cnq/qTQdcKml1x5qdUXwPgKT1Se8Pez5ueA7Y2cxOdqwZhiBpMtLBPrl+L7xgZu/JNNaodCj85/KoN0z/ABar89TKsZK0GXAwKeAm5hnS2Renlp/V8EhamXQPytSOZd8AtjSzkxxrtl7RBkDSJ0nfsDx/o/yddNtU498T7yJJ9wGzZxruRjOr7TFAB8L/g6TLrub2qDdCNwFLVbvVe0Z1+NXpjPwshYuBr5rZ0/lnNXKSvkh6b9/76PbdzeynzjVbq9in8uo90l/jG/7nAZ+P8G+06zOOdUPGsUak7eFfOZpmhj+kQ2rOre6P6CU/Y3QHKX0JuLo6pKd2ZvYnYHHSIWqeDpB0gHPN1iq5LH8ifs8MDdgXWLPXPhF0UM4GIOdYw9aF8K/uZ1jHq94oLQ2cXr2q1niS1mL4x14PZD7gqgY1AX8Dvgh4f+DaTdKJvfLr3mRFHgFUr/t57fh/EdjEzM5xqhfGQNI8wG3AZGMc6mXSOQD/HPushq8j4T896bXZD3rVHKPjzcz7PfURkfR+0uPJHJv67iQdh/1khrHGrPr98jtgfufS5wPrm9nLznVbI/sKQHWtpNczmvuBRSL8e4eZ/R3IsYS3V4R/MV+hd8IfYAtJdZ0vMlzrkSf8AeYlrQRMn2m8MakakSVJB0R5Wo30hsBQGynDILI2ANWmobPJc9DLUK4AFjKzOxxqhbz2Acby6/YX0hWibjoU/gC9ePjKHpJ2rXsSE5H7v+m8pD0BTWkCxpGODj7XufTipKODG/O6ZC/J1gBU14WeBsyca8yJuIR0NOgzDrVCZmb2Kul94v+M4qc/DmzqeRFQx8If/JdyczlA0qZ1T2IQJf6bzkNqAhoRftVS/DrACc6lP006NfBjznV7Xs4VgL3wuSb0CmCtKkRCjzKzm0mfYs4fwU87A5jPzP5RZlbv1LXwr85qmKeO2hkIOL5ph8ZUJ/t9stDw85AeBzSlCXjDzLYg3bLqaXZSE/Ap57o9LUsDIGl54Hs5xhrC70nv+MemjxYwsyfMbHXSasBdwECf6t8gXR60jpl9xXPVp2vhD2Bmr5NOpetVkwJnSlqi7on0sbTT+tmCJRq1EgBgZnsCu+J7dPCHgT9IWsyxZk8b81sAkt4N3A3MlGVGg7uO9M3xxcJ1Qk2q30ufIb3j/QbpsJfbzOx/NcxlbzoW/n0kXQ4sm3lYI+392J50pG9p44AlzewWh1pDknQhsHLhMneR3g74d+E6wybpq8DxjP2tn5F4ifR2wAWONXtSjhWA71I+/G8AVorwbzcze9HMrjWzw8zsSDP7c4R/LXKHpgFbmNk+pANtPP4/fg/wO0l1XV40IY9G5BOklYAPO9QaFjM7BViLFMpepgZ+WzUfYSLG1ABI+jiwc6a5DOYW0jfHcYXrhBDhn/wh41hvApub2YkAZnY9sCbgsYdnetLlQTM61BrKtU515qZ5TcAFpGvAPX+PTwacJGkXx5o9Z6wrAIcDU+SYyCDuApYzs5LPz0IAIvz7mNmFjGxz5qBDMcAFLmZ2BbARA+/5yG1WUhPwPodagzKzS/F7RW5u0jW6MzjVG5KZ/ZH0yp7n4wkBB/bAGRG1GfUeAElrACUP4HkR+Kznju/QXRH+b1d9grwTeP8oh+hb9j9xIjW2Ao4Z5fgj9Wdg2ToeKfWpNundic8eCEi3Ji5lZt7n9Q+qelXvMvJdCDZcJwBbmdkbznUbbVQrAJKmAg7JPJcJbRnhHzxE+L9TtZFsO0a3i/sN+i37T6TGsaQ9RB4WAX4jyeOQsgGZ2RPAto4l56J5KwEPkO4PuM259ObAr6vsCpXRPgLYg7S0VspRZnZmwfFDACL8J8bMziCd7TGSI5fvAr4w3HvbzeyH+N0bsiJwSnVoWS3M7CxgT8eSHyc1AU3YBwGMb4SWIO9ek+FYA7hE0nuc6zbWiB8BSJqVdKlFqWt+bwAWjYN+QmkR/sNTXe19EDCxC3feAA4Gvmdmr4xwfAGnABuPepIjc5SZbedUa0CSdsf3sJx7SI8DHnOsOVHVp/GzSGf6e7oFWLEplynVaTQNwDmkTqqEZ4EFzOyhQuOHAET4j4akWUhnNMxffb1K+mZ6K3DTWN4/r04gPJfy78r32cfM9naqNSBJu5HnYqzhupfUBDzqWHOiqit9fw58zbn0fcDyZvagc91GGVEDIGkF0rWPJRiwWrUDOYRiIvybSdLUpA1iizqV3N7MjnSqNaBoAhJJBwC7OZd9nPT/5d+c6zbGSJ+F/bDILJIDIvxDaRH+zWVmLwGrArc7lTxc0gZOtQZkZj/FN/jmJO0JKH1424iY2e7A7s5lZyAdHfxF57qNMewVAEmLAn8sNI/bgAXjFY1QUoR/b6heQfwT4HG722uklcdSK5vDUh1Yc6BjyftIKwGPONYckqSvkR4JTOpY9iVgXTO7yLFmI4xkBWCnYrNIS3ER/qGYCP/eUe0lWA6fQ2MmJ70euIhDrUGZ2UGA56l1c5BWAjyubx+26u2RtQHPC9+mBs6V5LUJtTGGtQIg6aPA/ZTpyk43sw0LjBsCEOHfq6qrXX8PvNeh3LPA4mZ2h0OtQUnamfQ2hZf7SZcmNW0lYHHSaZTTOZY1YBczK33GTWMMdwVge8qE/4v4b/wIHRLh37vM7HbSngCPi2TeB1xaveZcmyp8St+v0t/spJWAWRxrDsnM/gAsCTzhWFbAwZJ+5FizVkM2ANUVrVsUqr9fk95LDe0S4d/7zOxaYF3gdYdyMwKXS5reodagzOxQognAzG4lnRr4gHPpb0k6rnpFsdWGswKwKWWWYf5B+eOEQ0dF+LdHtTlrM0Z3LPFIzUFaCaj1tLiqCSi572pCHyM1AR9xrDkkM7uf1AR4vRnSZ0vgbElTOtd1NdEGoDqha4dCtXc0s9cKjR06LMK/fczsVOCbTuU+A1xQ97nxZnYYsKNjyaY2Af8mHR3sdaVyn7VIRwdP61zXzVArACuT3hvN7bzqeswQsorwb6/qU3HJs0j6Wxw4q+5lYDM7nHIfwgYyG//f3nmHWVYV7/r9hiQMQZLkKCBZQJI/QCUPWZAkUXIQxYiCSlBEvNyfASTDgKADSM5pGDIigoGkBJUgSTJDkjB1/1iruT1Mh3O61669T596n6efZma617e66T717Vq1qpppAl4hzaXw7hWzNun7MaezrgsD3gKQNB5Yt7CmAUvFpL+gNJIOAw53lIzgXwOSTgL2cZI7E9jdhjo3vRCSDgCOc5R8jHQ74HFHzUHJLaNPB3Zxln6E1Dr4MWfdSuk3AyBpGcoHf4ArI/gHpZG0IxH8u4X9gfOdtL4EHOOk1S+5ZbHnAKOFSU++CzlqDoqZvUf6f+J5VRJSJvx2Scs661bKQEcA21WkGYV/QVEkLQWc7CgZwb9GzGwSsBNwvZPkNyV5jvDtEzM7nnpMwMKOmoNiiW8CBztLz0tqHVxr06iS9HsEIOkvwCcL691rZqXXDLqcio6q+iOCf0PIV5RvAFZ1ktzLzE5z0uoXSfsDvyLdW/fgcdJxwGNOei0jaQ+S+fes1XgT2NrMrnbUrIQ+MwA57VNFoI6n/6AokhYF1nGSi+DfIMzsdWBj4G9OkidJ2spJq1/M7ATgy/hciwRYiAZmAgDM7HRSn4j/OsrOAFyajx07mv6OADavQOs54JwK1g26m13xeRKK4N9AzOxFUnX4Ew5yUwHjJHkZzn4xsxNJtRCeJuBmSYs46bWMmV0MjAFec5SdBjhbkuc1zeJ4GoATzMzTpQXdwVIOGhH8G0zuY78B8IKD3HSkwTErO2gNiJmdBOyHnwlYkJQJaKIJuInUOvg/jrICfiHpSEfNokxRAyBpFuB5ksMpxdvAgmb2fME1gwBJtwBrVSgRwb9DyEF5AuDRuOUFYM0m3GiStA9wIn41AU+QRgl7t+gdFEmLkYpDF3aWPhnYPxeodgx9ZQDGUDb4Q5r4F8E/qILRFa4dwb+DMLO7gc/jcx48B3BdE8bpmtnJwL74ZwIWddJrGTN7lNQ62Huq4z6kxlHTOusOi74MwBYV6JxXwZpBAPBgRetG8O9AzGwCsCPwvoPcgiQTMLuD1oCY2SmkIORlAhaguSbgaVInxzucpbcGruqk1sGTHQHkLkvPU3b+9kRgDjN7p+CabZP7ei8LzOgs/SzwcKelhjqFiuan3wOsG8G/c5G0J3Cqk9xdpJ+X1530+iV/3afgdxzwJOk44B9Oei0jaXrgAtJNEU/uBjbuhKz31B/682coG/wBrq0r+EtaF9gZWIlULPbhr9eLN3JfhXuAnzfxPm0Hc2cFa/4tgn9nY2anSZoD+ImD3KrAxZI2qftBJ3/dRjI/HiagJxPwuaaZADN7S9IWwBmkxlFerAzcKmkDM/O4nTJkPnwEUEX1/+UVrDkgkmaQdDypGGRXYDnqC/6QzqnXIA31uE/SvjXuZaTxR6B0sPZqLBNUiJkdjV/L2PWA30hqZcR6peS78XvhdxwwP8kELOak1zK5dfAuwC+cpT8B3CFpaWfdtvjwD+tnCq//PnBl4TUHRNIqwF9Jd2S90mDtMCNwoqTrJM1V92Y6nfwLfmPhZReXVDoTFtTDt4BfO2ltA5zgpDUg2QTsCXgdPTbZBJiZfR34nrP0fKRMwOrOui3zgQHIYy9L36n+fW7U4YKkNUjXgBr3Q9gH65N+YeaueyMjgNI94QWsUnjNoAbyFL89gcucJPdpyr1wMxuLrwmYj/SaVsUI+WFjZkcBe+P3/QCYDRgvaYyjZsv0zgAsDnyk8Ppu6X9J/wNcjX+R33BYErgxTMCwua6CNeMYYISQs0TbAbc4SX5P0tectAbEzM4A9sDXBNzYYBNwKrAtvq2DRwOXSfqio2ZL9DYAy1WwvovrzimWa/BpAFKaMAHDJN/9fazwsmEARhBm9japxukvTpI/k7Szk9aAmNmZ+JuAJmcCLiTdDJjoKDsN8FtJntMcB6VKA/APM/t74TWnQNJqwLV0ZvDvIUzA8Cl9DBAGYISRb3aMAR51kBMwVtKmDlqDkk3A7viZgHlJJmAJJ722yP0i1iZde/dCwHGSjnDUHJAqDcAfCq83BZJWJQX/mavWciBMwPAofQwwt6QFCq8Z1IyZPUeaG/CMg9zUwO8kremgNShm9mtgN3xNwI0NNgH3AGuSxh17cqikE5pwY6RKA3Bv4fUmI1f7XwfMUqWOM2EChs4Eyr+wRRZgBGJm/yKZgJcd5KYHrpBUxXj1tjGzs4Av4Z8J+ISTXluY2cOkK9oPOEvvB5xTd+vgUQCSRgOlWzpWZgDy0I+RFvx7CBMwBMzsJcqf74YBGKGY2f3ApsCbDnKzANdI+riD1qCY2dmk/iheJmAe0mtaU03AU6SBYr93lt4WuFJSbYXrPRmAZSh/Z74SAyDpU6Tz3pF8TztMwNAo7eLjKuAIxszuIPVvf9dBbm7S3IBG/E6b2W+oxwQs6aTXFmb2MqmZ09XO0usBE3LXSnd6DMDyhdd9MbuqokhaiZEf/HsIE9A+DxderxFPbEF1mNnVpJS4R9e8RYFrm9JkKpuAXfAZnATNNwFvkobhjXOWXoXUMMi95qjHAJQ+/7+v8HpIWpEU/GctvXaDCRPQHqUNwNySmthNMiiImY0DDnSSW55UEzC9k96AmNlv8TUBc9NsE/AuaW7Asc7SS5JaB5duxjcgvY8ASvLXkovlAprxpK5K3UaYgNYpbQCmBWof9RpUj5kdB/zQSW4N4Pw8fbV2sgHaGV8TcJN3sGuV3Dr4QOAHztLzkzIBbrVHPQagdE/6Yuf/kpYHbqA7g38PYQJa42HKp3LnKbxe0FDM7DD8evlvApzRlAyTmZ2DrwmYi/Sa1kgTAGBmR5Kq9T1bB89OqgnYwEOsxwCUPpMqYgAkLUcK/vEUFiZgUPIZXunak3kLrxc0m68A5zlp7QT83ElrULIJ2Al/E9DYiXlmdhKwPeA55nk0cLmk7aoW6jEApa/T/XO4C0halhT8a6mObChhAgan9DFAZAC6CDObRHoSvtZJ8kBJ33fSGhQzOxfYkTABH2Bm55MyNq87yk4LjJO0f5Uio3I3otL3EF8bzidLWobU2GXOMtsZUYQJGJjSBiAyAF1GLgT7AnCnk+SPJO3rpDUoZnYeyQS85yT5MdJrWulatGKY2XhS6+AXHGVHAcdLOqxKgZkp2wPgjTx9a0hkJxjBf2DCBPTPQ4XXiwxAF2Jmb5Ce+rw6xB0vaVsnrUGpyQRMaLgJuJvUOvgJZ+nDJf2qitbBU1M+/f/qUD8xF4RMIP0weDAReLDgej1z5D0Ke3pMwNpm9qyDXqdQerhHZAC6FDN7SdKGwO3AQhXLjQLOlvSKmVUx3rptzOx3kox0L97jxkJPJmCd3KmxcZjZQ5LWIB0ReR5bfBmYXdIuOUNVhKkpXwA4JAOQ74XeSPkbCf3xGrCBmRUdWpRTeScQJqAuSs/5jgxAF2NmT+WK7NuoPis5LXCRpHVLvy4NFTM7P5uAc/AxAXOSMgFNNgH/lrQWcBWwmqP09sBskrbKGaphM4oGZAByj2jP4D8RGFPFL1muGt0fn85iEMcBH+btwuuFAehy8sCYMQyztqlFRpP6wzemKM7MLgC+iN9xQI8JKN2grhh59si6+BWL9rABcIOkIjfjajcAeVTkjaTmEB68Tgr+lQ1+CBNQK6UNQK3TuoJmYGZ/IrWJLZ1h6ovZSS2DF3TQaolsArYnTMAH5KfwzYBznaVXIzUMmn+4C1VhAFp2yZIWJwV/r6es14GN8hCQSskmYD/CBHhT+gXaswlI0GDM7CZSEPS4Ijc/cL2kxhRDm9mFwHb4DE+CdAV8Qm4G10jyefyOwPHO0ksBt0saVm3KKGqqAZC0GCn4exVZvQFsbGa3OelhZicTJsCb0hkAr/vQQQdgZpcAezvJLQFcLWkmJ71BMbOL8DcBNzTcBEwyswOAw52lFySNmR7ycUDPNcCSDGoA8lzsm4D5Cmv3xxvAJmZ2q5PeB4QJcCcMQFApZjYWOMhJ7lPApZKmc9IbFDO7mHoyAZ900hsSZnYEqVrfM2u4JKlmZIahfPIoym92moH+UdKi+Ab/N4FNzexmJ70pCBPgSukjgDAAwRSY2THAMU5yawPnSJrKSW9QsgnYFj8TMDspE9B0E3ACsAO+rYNXY4jDpUaRno5L0m9GoVfwH3bxQou8BWyWz+5qJZuAfQkTUDWRAQhcMLODgLFOclsCJztptUQ+DtkGfxOwgpPekMhNlDalfGwdiI2B09r9pFGkJ+SS9GkAJC1COvNfoLBef/QE/wlOeoNiZqcQJqBqSn9vwwAEA7E3cImT1h6Sfuqk1RJmdin+JmB8B5iA64F1gBcdZXeVdGA7n+CSAZC0MCn4e11reRvYwsxucNJrmTABlVO6ajoMQNAvZvY+6WbATU6SB0n6lpNWS2QTsDV+ae+eTMCKTnpDwszuAtYCnnSU/Wk735cqDMBkFav5msKNVN9Ks4ee4H+9k17bZBOwD2ECqqB0M6kwAMGAmNl/ST0C/uQkeYyk3Zy0WsLMLsPXBMxGygQ03QT8DVgD+LuT5HTAuZJGt/LBlWYAciOLG4GFC2v0x3+BLZvSS3sgzOxU/E3ADZKmd9KrizAAgTtm9hqwEfCIk+SpkrZw0moJM7ucekzASk56Q8LMniQNEbrLSXIJWuxLUJkBkLQAKfgvUnj9/ugJ/tc46Q2bGkzA0sBRTlp1UTrLEQYgaAkz+w+wPvCUg9xUpCe9zzpotUw2AV8gTMBkmNmLpNbBXpnpXSXtMNgHVVEEOFNuUXgTsGjhtfvjHeALZna1k14xsgnYGz8T8NU8zWqkUjoDEEOWgpYxs8eBDYGXHOQ+AlzWtDS4mV0BbIWfCZiVZAI+5aQ3JMzsddLtgN85Sf5S0qwDfcAo4D+FRWfCP/hvbWZXOukVx8xOw88EjALGSvKYVlgHpQ3AY4XXC0Y4ZvYAsAk+18BmJnWDW9xBq2Xy6/FW+MxOgGQCru8AE/AOabDSiQ5ycwA/GugDegxAybvTAj5ecL2BeBfYJqedOhpnE7AEsJiDTh2EAQhqx8zuJKXCPa7HfQy4TpJXW/WWqMkEjJe0spPekMitg/cHfuggt+9AzZNGmZnhe02hFO8C2+bq0xFBNgF74WMCVnHQqIPSBuBfhdcLugQzuxbYBZ/WsAuTTMBsDlotY2ZXkZoYeZmAj5IyAY02AQBmdhjwFap9vZ8KOK6/fxyV3z9e4Qaq4D1g+9yJakRhZqfjYwIa/wsyREpPlnys8HpBF2Fm55Je5D1YhtQXvqUrYF7k2qzP428CGv+QY2a/AnaiWpO4Vn8FgZ1oAHqC/0V1b6QqnEzAshWuXQu5+LT0E1BkAIJhkfvDH+YktzpwoaQBZ7J4k29neZuA6zrEBIwDvlexzBGSRn34LzvNALwH7JDnUo9osgnYk+pMwLQVrVsnqxVe7+V8vzsIhoWZ/ZABUrGF2RA4q68X/DrJJmALys/r6I+eTMCqTnpDxsyOBs6rUGIxUj3GZPT8gDxRoXAp3gd2MrPz696IF3nsaJUmYKRR2gA8Vni9oLs5EBjnpLU9foajZXJdxOfxMwGzkDIBjTcBwO7AXypcf4oR1p2SAXgf2DlPWeoqwgS0RWkDEOn/oBi54PpLgFe/kv0lHeGk1TLZBHhmAnpMQOnXh6KY2Zskc/R8RRKrSFq791/0GIC/VSRYgveBXczsnLo3UhfZBHyn7n00mTwrvXRh42OF1wu6HDN7l9Qu9w4nyUMlHeCk1TK5XfvmhAmYjNxIahvScXcVTJYFGJVFnwP+XZHgcJgEfCkXSXQ799W9gYazLDBD4TX/WXi9IOh50tsUuN9J8thW2sJ6kwe2bU4a3e7BzCQTsLqT3pAws5tJx0VVMEbSEj1/6F0kcndFgkNlErCbmf2m7o0EHUEVzv4PFawZBJjZy8AG+BwzCThT0kYOWm1Rkwm4tgNMwAnA7RUt/4EZ7G0A/liR2FCYBOxhZmfVvZGgYyj9Cz0R+HPhNYPgA8zsGZIJeM5BbhrgAkn/46DVFmY2HtgMfxPwaSe9oVLV1cA+DUBTMgAG7GVmZ9a9kaCjKJ0BuMPMYhJgUClm9igwBnjVQW4G4ApJjesBYmY3ECZgMvJRQBXTAxfv6Y/Q2wDcU4FQu/QE/7F1byToHCQtQhp1XJJbC68XBH1iZn/BryBuVtI5uNeY9pbJJmBTyk+o7Y+ZSCagcVmRXny/onV3gF4GIM8rrvPakwH75AY4QdAO21aw5i0VrBkEfWJmtwDbUV31d2/mIZmA0nMzho2ZTcDfBFzTVBNgZncBl1aw9Hbqo1NUXccABuxnZqfWpB90NtsVXu+/wF2F1wyCAcmDzbx6fixGCnyzOGi1hZndSD0mYA0nvXb5AeVnBcwDLPdhA3BTYZFW+bKZnVyTdtDB5DnoKxZe9i4z8+pZHgQfYGa/Br7tJLcCcJmkjzjptUw2AZsQJgAzu49q2gR/9sMG4MoKRAbjADM7sQbdYGRQ+ukf4vw/qBEz+1/gaCe5zwDnSZraSa9lzOwmYGPgDSfJGUkmoIlXBKs4Gp/cAOQuRA9UINQfXzWz4x31gpFHFQYgzv+DWjGzg4HTnOQ2B06TJCe9lsmV8JvgawLGNW2kMumhZGLhNdfqa1qUVxbga2bWuGEVQecgaSnKjzV+H782rUEwEPsCXmPPdwX+r5NWW2QT4JkJWAT4iZNWS5jZO8D4wst+rC4D8A0z+6WDTjCyqeLp/04zK+20g6Btch+KHYAJTpLfkHSwk1Zb5FsSnibgAElrOWm1ylWlF+zLANwBvFJaqBffMrOfV7h+0D1UYQB+W8GaQTAkcjHq5/G7oXWUpL2ctNoim4CNgNcd5AQ0bYhS9QbAzN4Dri0tlDkoF7gEwbCQNAZYsvCy71BNtW0QDJmckdoIeMhJ8iRJX3DSagszuxU/E/ApB42WMbOngb+UXLOvDADA5SVFMt81s2MqWDfoTqrok32lmb1UwbpBMCzM7AXS3ACPqa2jgN9KWtdBq23M7DZ8TMCikj5asUa7FD2i788AXAg8U1DnEDP7acH1gi5G0meANStY+uwK1gyCIpjZEyQT8KKD3HTAJZJWdtBqm2wCxlC+Mr43Aj5Z4fpD4eaSi/VpAMzsbaDU0/r3zaxRFZVBx3NIBWu+RD19MIKgZczsb6RiOI8U+IzA1ZJKH7UVwcxuJ2UCqjQBHmarHZ4uuVh/GQCAExj+dahDzezHw1wjCD4gP5FsWMHS5+WrNkHQaHJ/+K1INStVMwdpbsACDlptk01AVZmAt4G/V7DucHi25GL9GoBcfboF8OgQ1jXgB2b2o6FuLAj6oYqnf4j0f9BBmNn1wE6U7xHfFwuQTMDsDlptY2Z3kB4KSpuA+3JRfJN4CXi31GIDZQB6Ck/WoL3rB68AW5rZkcPZWDAFs9W9gbqRtAzpSlRpHjWz31ewbhBUhpmdD+zvJLck6ThgRie9tsi/vxsCrxVctnEdQc3MgOdKrTegAciC/zGzTYC9gL8O8KETgWOBT5pZFeMLu6hvrTAAAA8MSURBVJbcmzrmJcDBpMKc0sTTf9CR5CFqVc2M/zCrABdLmtZJry0Km4CngKZmsIsdAygZijY+QVoeWJ00TnBW4HHgYeBWMyvpvgJA0qeBa4CZCy99s5l9rvCalSFpaeBeYKrCS08CFjezfxZeNwjckPQL4EAnuQuA7czM4/ihbfID07UM7zVzYzO7utCWiiLpctK45GHT9gQoM7uX9EIcVEweTXk1aVRl15KHlJxC+eAPcEEE/2AE8HVgdlJdQNVsTcpI7uOg1TZmdqekDUgPTkO5xz+2qcE/UywDMOgRQFAPktYk/QBXFfwb6d77YR9SLUppjOam+YKgZfLZ8G74XWXdW1Jjb3iZ2R+A5Wmvq+1bwLdIx91NpljcDgPQQHKjm6tJ93CrYii3O9yRNC/VzUa/yMzur2jtIHAlV6xvA9zmJHmIpK87abWNmT1pZmOA3Rl8vs1twApm9r9NPdroxTylFmq7BiCoFkmfJbn4qudR75sLiBqNpAtJd55LY8CKZjZQYWsQdBy5fe3NpCfgqjHgS2Z2loPWkJE0E7AysBKpx/98pKPsu4F7gAesQ4KhpD8DKxRZq0O+5q5A0trAFcAMDnIrm9k9DjpDRtIWwCUVLX+JmW1Z0dpBUCuS5gZuBxZ1kHuPdPX7CgetrkfSs8BcRdYKA9AMJK1DGsLkEfwnAnM0ufNdduwPAvNXJPEpM/tTRWsHQe1IWpRkAuZ2kHsL2DBP6wsqQtLUwH8pdHwfNQANQNJ6+D35A3yrycE/cxTVBf/LI/gHI518u2VDBj//LsH0wOWSmjY8Z6QxFwXjdmQAakbS+sBlwEecJK8zsyp66Rcj34C4meoM6ipmdndFawdBo8i/T9eRgnTVPAesYWb/cNDqOvIslD+WWi8yADUiaUN8g/+rwJ5OWkNC0nzA+VT3s3l1BP+gm8ijc7clndVXzVzA9ZKKVaoHk1F0KFMYgJqQtBFwKX7BfyKwiZk96aTXNpI+AlxMdWeWBhxR0dpB0Fhygd7upN+BqlkEuDbfRgjKsl7JxcIA1ICkjUmBbjonyYnAmDw6s8mcSuo3XhWn5wYhQdB1mNnZwDec5JYDrpDkcezQTRRpAdxDGABnJG2Kb/B/jVSde4eT3pCQ9E2qbWP6LPDtCtcPgsZjZr8AvDr4rQFckCvXg2GS5/AsWHLNMACOSNoMuBDwmqb1KrBB00fd5lqIn1Ys81Uz86iGDoJGY2bfB7yagG0MnJnneQTDY7PSC4YBcCI3takj+Dc65S1pceBcqhn008NleXZ6EASJ/UnFth7sCPzCSWskU9wAxDVAByRtCZwHTOMk+Qop+Be7LlIFkmYG7gSWqlBmIrC0mf27Qo0g6DgkTUtqO160sGwADjWzGL41BCR9jHSMWTKT8nBkACpG0lb4Bv+XgfU6IPiPJt2CqDL4AxwcwT8IpiQ3A9sSuMtJ8oeS9nPSGmlsQtngD3BLZAAqRNLWwDmAVxHMS8D6Te9yl9v8XgWsWbHU74E1O2C6VxDUhqTZgVup3oxDGkO+g5md56A1YpB0F+VvSO0SBqAiJG0L/Bbf4L+emf3ZSW9ISJoFuAZYvWKpd0nT/h6oWCcIOh5J85PmBhStMu+Hd4DNzOw6B62OJx8hX1TB0gvHEUAFSNoeGIdf8H8RWLcDgv+swHiqD/4AR0fwD4LWyMdkGwAvOMhNC1wkaTUHrY5G0ijgyAqWvs/MHg8DUBhJXwR+Q7VV7b15AVjHzP7ipDckcprxBtJM7qq5G7+7zkEwIjCzh4CNSIWzVTMauErS0g5ancxOQBXfo3EQtwCKImlH4Nf4Bf/nSU/+9znpDYlcwTqe1B2sap4FVjazpxy0gmDEkUeTX4VPs7KnSMODHnfQ6igkTQM8RGqtXBIDFokMQEEk7QychW/wX6cDgv+8wI34BP93gK0i+AfB0DGzCaS7++87yM0HXCdpTgetTmMvygd/gDt6DFcYgAJI2hU4E7/v53+Atc3sfie9ISFpbeBPVJPC6ov9mt71MAg6ATO7EPC6srcEcE2+HRQAkmYAvl/R8uN6/iMMwDCRtBswFr/v5XOk4N/YAjclDgGuJ40H9eA4MxvrpBUEIx4zOxU42EluJeBSSV4zUprOr4AqRir/F/hdzx/CAAwDSbsDp+P3fXwW+JyZPeik1zaSZgOuIBXheR2HTMBvylkQdA1mdjTwMye5tYFzJHm9bjQSSQcCu1W0/K/N7IObHlEEOEQk7QmcQvnuTP3xDOnJ/yEnvbaRtAqpv/hCjrL/AlYxsxcdNYOga8iDfM4AdnWSHGtmezhpNQpJ6wLXUs3D0yRgSTN7pOcvIgMwBCTtjW/wf5r05N/k4L8/cBu+wf91YIsI/kFQHZaeEvcELnOS3F1S1dNBG4ekj5PS81VlQC7pHfwhDEDbSNoXOAm/4P8UKfg/7KTXFpLmknQecDx+kw4hXWXZtem3IIJgJGBm7wHbAbc4SR4k6dtOWrWTCyAvBWarUGYKUxUGoA3yU+4J+AX/f5OC/yODfqQzkqaW9HXgYWDbGrZwmJlV0R4zCII+MLO3gc0Br6Zj/yfXWY1o8hHL2cAyFcrcbGZTDH2KGoAWkXQAcJyj5JOkM/9/OGq2hKT1gGPxGR7SF0ea2Q9q0g6CrkbSXKTjvsUc5N4H9jKzMxy03MnNfk4Eqqx5MGD1vgxAZABaQNJX8Q3+T5Ce/BsV/CUtJOlC0vW+uoL/oRH8g6A+zOw50tyAZxzkpgLGSjpWktdsFRdyh9QJVBv8Ac7oK/hDZAAGRdLXgJ87Sj5OevL/l6PmgEiaHjgI+A4wfY1b+a6ZdV1xUBA0EUnLATcDszpJ3gRs0/saW6ciaUXSmf8CFUu9AixhZs/39Y+RARgASd/AN/g/Rnryb0TwlzRzNkB/Bw6n3uD/zQj+QdAccgHupsCbTpKfA+6WtIKTXiVI2o50hFJ18IdUK9Vn8IfIAPSLpG8BxzhK/ov05F/7UAxJiwJfBXYHmtCe86tm5nkEEwRBi0jaiPQ0O42T5JvAHmZ2rpNeEfJo3x8BhzhJ3gesaGb9znQIA9AHkg6ijysTFfJPUvB/wlFzCiR9FvgaqdK3CdkhI/X3P7nujQRB0D+SdiCNQfe6IQWpXe7hndAHRNKypI6K6ztJvgN82sz+NNAHNeFFvlFI+i6+wf8fpLR/LcFf0nSSdpX0Z9IZ2+dpxs/FJGDPCP5B0HzMbBxwoLPsAcC/JB0uaWZn7ZaQtIiks4C/4hf8AQ4aLPhDZAAmIw+w+bGj5KOkJ/9/O2oi6aPAxqQn/Y2Apv3yvA/sZmZn172RIAhaR9IRwKE1SL8IHA0cb2Zv1aA/GZLmJk3z2xu/o5EeLjezzVv5wDAAGUnfJ53PePEIKfi7zK6XtAgp4G8BrAU09UrN88AOZja+7o0EQdA+ko4H9q9J/mngSOA0M3vXWzw/XB1EyobM4K1Pah63QqvHImEAAEmHAkc4Sj5MCv5PVyUgaVZgedJ93c2BZavSKsjtwHZepigIgvLkYrdxpNbBdfEccGV+u97MJlYlJGle0m2IzYB1qe+21HvAumbWcrvmrjcAub3v8Y6SD5GCf5EmGpKmBZYEliMF/OXy2/wl1nfkZ8B3cs/xIAg6mNzh7nJgw7r3QiqIu4VsCIbbWj237l2JFPA3A1bEt/ixP3Zvt2NiVxsASasCt+I7xOYUkgmYCLzW621ir/fTA7OQzuZn6edtTtJT/Sdobjq/FV4jnfdHX/8gGEFIGg2MB1avey8f4hHgQeBZUjfDZz/09jIwOzAvMM+H3uYlPWDN477rgTnEzH7S7id1rQHILu5B0tNzUA9/BbY2s0fr3kgQBOWRNBvpIWvpuvcygjnWzIZ0A6MJ173qYgwR/OtkLOmeagT/IBihmNlLpDqk2hucjVDOI/VuGRLdbAD2rnsDXcpbpC5eezThuk4QBNWSi3rXJqXeg3JcDuxiw0jjd7MBWKnuDXQh44GVzGxs3RsJgsCPPN9kDeDuuvcyQhgLbGlm7wxnka40AJJmxGcQQ5B4DNjKzNY3s7/XvZkgCPzJQ2nWBq6rey8dzlE5g9pvj/9W6UoDQOrM1IRrGyOdt0hTBJcys4tr3ksQBDVjZq+T7syPq3svHcgk0mC075VasJtvAbxBPZ2auoULSSN8o/gnCILJyLewjgK+QzyMtcLrpOvSF5RctFszAJD68AfleQBYz8y2juAfBEFfWOJgUjbghbr303D+TKqdKhr8obsNQPFvZpfzKuk6ygpmdkPdmwmCoPmY2VXACqReAcGUHEe6Ll3JDYpuPgJYhDSKN9JPw+Np0lzuk/Od3yAIgraQNBWpXugQuvvBtIeXSa19L6lSpGu/0flaiucMgJHGPcDOwMJm9pMI/kEQDBUze9/MfgCsCQw6x36EMw5YturgD12cAQCQND3phy06ArbGJOAy4OftTJwKgiBolTxNcC/gx6Se/N3CvcBXPF9bu9oAAEhakDQlqhPG5dbFROAM4Jdm9s+6NxMEwcgnzxE4EtiHkZ2tfhk4FDixxN3+duh6AwAgaWbgdGDruvfSMB4BTgZOM7NX695MEATdh6RlgIOAL5J6uIwUXiTVTx1nZi/WsYEwAL2Q9EnSvdTNgdE1b6cOJgF3kHpMXxZd+4IgaAqS5ge+TprjMmPN2xkOjwM/Iz1YvVnnRsIA9IGk6YDPAZsAGwMfr3VD1fI6cC3pbP8qM4s7uUEQNBZJHwX2A3YHFqt5O61iwO+BE4Fzzey9mvcDhAFoCUmfIJmBTYC16Pw01BOkp/zLgRuHO1AiCIKgDiStAuwAbA/MXfN2+uJ+UlX/OWb2WM17mYIwAG0iaTRpkuAqwKr5/aK1bmpgngHuI1WY3gv82czur3dLQRAE5ch9BNYGtiJlb5eqaSvvkiYeTgDOM7P7atpHS4QBKICk2UlGYBWSOVgEWAj4qOM23iK14b2XXgE/UvpBEHQbkuYEPpPfPgssTTWZ29dJAf9m4BbgzrrP9dshDECFSJqJZAQWAhbM7+cHZiYVGY4mDSQa3ettelIwfzW/vdLrv/v6u1dIcw0eMbNJTl9aEARBx5AzBAuTagYWAxYnZW5nJRUUztTr/XTAG6TgPrHX++dJN6Me5f+/5j7r+XWU5v8BVivQwhRMMq4AAAAASUVORK5CYII=;" parent="1" vertex="1">
          <mxGeometry x="739" y="631.9599999999999" width="46" height="46.09" as="geometry" />
        </mxCell>
        <mxCell id="kxb5aIU8mdvdAVlikhvM-49" value="" style="edgeStyle=orthogonalEdgeStyle;rounded=0;orthogonalLoop=1;jettySize=auto;html=1;" parent="1" source="kxb5aIU8mdvdAVlikhvM-35" edge="1">
          <mxGeometry relative="1" as="geometry">
            <mxPoint x="1150" y="665" as="targetPoint" />
          </mxGeometry>
        </mxCell>
        <mxCell id="kxb5aIU8mdvdAVlikhvM-35" value="&lt;div&gt;&lt;br&gt;&lt;/div&gt;&lt;div&gt;&lt;br&gt;&lt;/div&gt;&lt;div&gt;&lt;br&gt;&lt;/div&gt;&lt;div&gt;&lt;br&gt;&lt;/div&gt;AtualizaÃ§Ã£o do histÃ³rico de manutenÃ§Ã£o" style="rounded=1;whiteSpace=wrap;html=1;" parent="1" vertex="1">
          <mxGeometry x="916" y="610" width="140" height="110" as="geometry" />
        </mxCell>
        <mxCell id="kxb5aIU8mdvdAVlikhvM-36" value="" style="shape=image;verticalLabelPosition=bottom;labelBackgroundColor=default;verticalAlign=top;aspect=fixed;imageAspect=0;image=data:image/png,iVBORw0KGgoAAAANSUhEUgAAAgAAAAIACAYAAAD0eNT6AAAABHNCSVQICAgIfAhkiAAAAAlwSFlzAAAOxAAADsQBlSsOGwAAABl0RVh0U29mdHdhcmUAd3d3Lmlua3NjYXBlLm9yZ5vuPBoAACAASURBVHic7d15lF1lme/xb04SMgcIgyggkySIoESU2YaEyGA34IgKgqJcW6/d2Ffta9/udW289uC1227h9rBspVXAARVRcACBBASZFGwmSQIyBhkUzEQSIKTuH0+VKYoazjm1z372Ofv7WetdpKrO2fVj77Pqffe73wEkSZIkSZIkSZIkSZIkSZIkSZIkSZIkSZIkSZIkSZIkSZIkSZIkSZIkSZIkSZIkSZIkSZIkSZIkSZIkSZIkSZIkSZIkSZIkSZIkSZIkSZIkSZIkSZIkSZIkSZIkSZIkSZIkSZIkSZIkSZIkSZIkSZIkSZIkSZIkSZIkSZIkSZIkSZIkSZIkSZIkSZIkSZIkSZIkSZIkSZIkSZIkSZIkSZIkSZIkSZIkSZIkSZIkSZIkSZIkSZIkSZIkSZIkSZIkqRgTsgOMYStgLrAXsDswE5gFbAnMACYDq4FVwFPAWuAhYDmwDPh1+ZFVoInALsA84nPwYuIzMKP/v1vlRZMkAJ4m6p5VwJr+f98LLCXqopV50UZXpQbAJOAAYCFwOLAv8KJxHnM1cRGuAZYAPyEukKppB+L6LwAOAvYEpqQmkqTxeQy4HbgaWAzcBGxMTdQvuwGwJfBW4C3A64i7uk7aCPwM+D5wPvBgh3+fxvZq4F3A0cDeyVkkqdPWEjejFwLfJm5UU2Q0ABrEXd6pwJuJ7twMm4DrgXOBb5B4EWroJcDbgHcD85OzSFKWDcAVRD30XeDZ3DidswVR6S8H+ipW1gBnEc+Y1Tl7AJ8nPuTZ19xisViqVO4DPgxMpYdMB/4MWEH+CR6rPAX8M7BjR85Efe0HfBN4jvxrbLFYLFUuK4iGwHS63HHA/eSf0FbLOuBMHIA2XlsTPStW/BaLxdJaeZjoNe86ewA/JP8EjrfcTQxOU2smEB/cx8m/hhaLxdLN5UpiKnzlTQD+HFhP/kkrspxLrD+gse0GXEf+NbNYLJZeKeuBj1HwwP0iD7YN8BXgDws8ZpUsB94O/Fd2kAo7AfgS0fUvSSrWFcS06ceKOFijiIMQC/j8nN6t/CFWorueGJyh55sEfBq4CCt/SeqURURde1gRB5tYwDFOJeYvblPAsapuEnAMsWLdpUTXTN1tBfwIOJn8haUkqdfNBk4hpg3eNp4DjbcB8GHg34mKsU5eA7wSuJiKLOmYZAfgcuDA7CCSVCMTgTcRYwN+Op6DtGMCMU3u09T3rm8v4FCi9+Pp5CwZdiP2V3D5Xkkq3wTg9cAc4LJ2DtBuA+BzwMfbfG8v2RU4glhKuGeXcBzGbkSrc5fsIJJUcwcS++q03AhopwHwl/1FYSdiEOQFxII3vW47Yl7qrsk5JEnhIGJfgZYeB7TaADgVOJv6dvuPZHdi8aPv0tsDA2cRz/z3zQ4iSXqeI4llhH/R7BtaaQAcS9zlFjV1sNfsS2x4dGV2kA6ZCHyP2LZZklQtE4A3ADcCv2r2Dc3YiWhVbNtertroI0Zmfi87SAecCfx1dghJ0qh+Q2yz/vBYL2ymATCJGO1dyMIDNfA74uQ/kB2kQEcQK1AVsW6EJKmzfkI8Ehh1mnozf9D/DjipiEQ1MQ04mFgWeVNyliJsTzz3n50dRJLUlF2Ix/VLRnvRWA2Ag4FzcNBfq3YithS+NjtIAc4DXpsdQpLUksOIFWtHfBQwWsU+EfgZ0Z2t1q0DXgHcn5xjPI4mPkCSpO5zM7FOwLBT1EfrATgDOK0TiWpiMtENc0F2kDZNIZY6rsMeD5LUi15C7Bz4s+F+OFIPwIuBpfjctwh/BPwgO0QbPgl8IjuEJGlcVhJL179gC+GR5vT/FVb+RfkM3bd2wjbAR7JDSJLGbSvgL4b7wXAV04uA93Y0Tr3sDRyfHaJFHwVmZoeQJBXi/cSMrucZrgHwUWIqm4rzCbpnJsWWwAezQ0iSCjMd+LOh3xzaAJgDfKCUOPUyHzgqO0STziC6jCRJveNDwNaDvzG0AfBeYsMXFe+M7ABNmAT89+wQkqTCzQbeM/gbQxsAp5QWpX6OAnbIDjGGbsgoSWrP8+r4wQ2A+cAry81SK5OAd2aHGIMNQEnqXfMZtJ374AaAf/w7r8rneDbdN1tBktSadw38Y6ABMAF4R06WWpkPzMsOMYI3EiNFJUm96/c90QMNgFcQq/+p8xZlBxhBVXNJkoqzM/03ogMNgAV5WWqnque6qrkkScVaCDYAMiygeksDzyW2MJYk9b4FEBVRAzg8N0utzAH2yw4xhA1ASaqPBUCjAexKVEoqz/zsAEPsnx1AklSabYGdG8Q2gSpX1WYCVC2PJKmz5jXwj3+GqjW6/AxIUr3YAEhSpXO+JbEFtCSpPuY1gJdlp6ih3YGJ2SH67ZkdQJJUuj0bOAAwwyRgZnaIfl5/SaqfOQ3c/jfL7OwA/bz+klQ/s2wA5KnKea9KT4QkqTyzGlgBZKlKA6AqOSRJ5ZndAKZmp6ipadkB+nn9Jal+pjWAddkpamptdoB+Xn9Jqp+1DWBNdoqaqsp5r0oOSVJ51tgAyFOV816VHJKk8tgASFSV816VHJKk8qxuAI9np6ih9VRnDMBvsgNIkkr32wawPDtFDS0H+rJD9Lsb2JQdQpJUqmUNYFl2ihqq0jlfD6zIDiFJKpUNgCRVO+dLswNIkkplAyBJ1c551fJIkjprWQP4NfBAdpKauSE7wBA3ZgeQJJXmQeDRRv8XVyUGqZsHgV9lhxhicXYASVJprgAYaAAsSQxSN1dmBxjGIzgOQJLqYjFsbgB4B1ieqja2/AxIUj1cBZsbAA8Bv0yLUh/P0d/1UkGXZQeQJHXc7cDDsLkBAPC1nCy1ciXR3V5FlwK/zQ4hSeqo8wf+MbgBcB6uCNdp52UHGMUzwAXZISRJHbMJ+PrAF4MbAA8CV5cepz6eAr6bHWIMVW6gSJLGZzHxyB94fgMA4CvlZqmVb1OdDYBGciNwV3YISVJHnDv4iwlDfjiFmKO+Y2lx6qEPeA1wS3aQJpwOfCE7hCSpUCuAPYjHvcALewCeBv6xzEQ1cTHdUflD9AK5MqQk9ZZ/YFDlDy/sAQCYDtwHbF9Gopo4BLg+O0QL/hQ4OzuEJKkQjwG7A+sGf3NoDwD9L/hcGYlq4sd0V+UP8EXg0ewQkqRC/BNDKn8YvgcAYBpwJ7BbJxPVwEbi2f+t2UHa8F7gnOwQkqRxeQDYm2EaAMP1AACsBz7UyUQ1cTbdWfkDfAmnhUpSt/sThqn8YeQegAHfA44vPE49PArsBazKDjIO+xCDFydnB5Ektewi4M0j/XDiGG++AfhvwBZFJqqJ99I9I/9H8jiwFXBwdhBJUkvWEjfwI96EjvQIYMD9RANArfkS8K3sEAX5S7q/ISNJdfMhYoXfEY31CGDAl4D3jDdNTSwnBv6tyQ5SoJcBNwOzs4NIksZ0DrGo26iabQBMI6ayvWo8iWpgA3AQ3TvwbzQn4mZBklR1dwIHMMLAv8HGGgMwYCMxIvwkojGgF+ojekmuSM7RKXcCWxMNHElS9TwJHEOT286PNQZgsLuAY4ld7fRCfw58LTtEh/0PhmwmIUmqhPXACcDSZt/QSgMAYre4txM9AtrsM8Bns0OUoI94rnRZdhBJ0u89B5wMXNvKm5p9BDDY3cR+wsfT/BiCXvZlYu38uthErA9xJO4aKUnZNgHvA77R6htb7QEY8GXgrcSgtzr7F+LE92UHKdkaYCFwaXYQSaqxZ4g7/6+08+Z2GwAQKwy9AVg9jmN0qz7gk8Sd/6bkLFmeIp43tdzqlCSN28BCP23/DW7nEcBg9wOX94eYOc5jdYtngPfjjokQz50uImYHHJicRZLq4hHgKFp85j/UeHoABtxMrA/w4wKOVXUPAguIhZEUNgEfJh4JdfO+B5LUDa4C9qeAFVqLaABArBl/DPAXxF1hL7oYmA9clx2koi4kFp/oxUWQJClbH/B/gUU0Oc8/wwLgHiJsL5RVxJrKznhozjTgLGKqaPa1s1gsll4o9wBH0CWmAmcSCxNkn7jxlEuAnYs9NbWxH9Fbkn0NLRaLpVvL08CniTq167wM+CH5J7HVchfRzaLxaRADJn9D/jW1WCyWbio/IOrQrjcf+CYxYCz7pI5WbgdOBSZ15jTU1gxioOAK8q+xxWKxVLlcDhxMD5oPfAt4lvyTPLjcALwRn/N32lRiPMW95F9zi8ViqUp5lqgb96NEWRXeHGLa2KnAoUkZHiZGrn8Z+EVShjrbn7j+JwPbJGeRpAy/JDZY+wrwaNm/vAp3vPsAbybWlj8QmNKh39NHdPEvJgb3XUV9V/GrkmnAccQ00oXALrlxJKljniZ6nBcTN6B3ZoapQgNgsOlEj8ARwL7APGB32nsm/xCwnBjQdw2whBiMpmrbg2gIHATsRXwG7CGQ1G02Eo87lxE3n1cBPwXWJWZ6nqo1AIYzmWgE7EEsN7wVMKv/35OI9ZB/1//ftcRAs+X9/1Zv2IZoCOxAXPeZxGdgK7rjMyypd60n6ps1wMr+f/+KqPyfTcwlSZIkSZIkSZIkSZIkSZIkSZIkSZIkSZIkSZIkSZIkSZIkSZIkSZIkSZIkSZIkSZIkSZIkSZIkSZIkSZIkSZIkSZIkSZIkSZIkSZIkSZIkSZIkSZIkSZIkSZIkSZIkSZIkSZIkSZIkSZIkSZIkSZIkSZIkSZIkSZIkSZIkSZIkSZIkSZIkSZIkSZIkSZIkSZIkSSrKhOwAbZoNzAQmAWuAVcCm1EQq0xbADGDr7CCSam8D8BRRD3WVqjYAdgNeCcwD5vb/dw/ij/7sEd6zjrgIDwHLgaXAMuAu4A7guc5GVoGmAfsBLyeu/8Bn4MXEZ2CLvGiSNKLVRD30K6L+Wd7/39uA+xJzDasqDYAdgNcBi4CjgF0LPv5a4Abgiv7yC+wxqJJJwKuI678IOAyYmppIkor1CHAtUQddBjyQGye3AbAVcCJwKnBIyVlWAF8F/pNooSnH/sT1PwnYNjmLJJXpZuA84OvA4xkBMhoARwMfAN5ANbpyrwe+BJwLPJ2cpQ62AT5IVPx7JmeRpGzPAD8APk/0DPScCcBxwI1AX0XLY8CZjDzGQOOzPXF+V5J/rS0Wi6WK5b+Im6OJ9Ii3EoPwsk9ss+Vx4OPAlE6cjBraDvgXYD3519ZisVi6odwOvIUutgfwQ/JPZLvlbuCYws9KfUwgWrK/If9aWiwWSzeWxcRsqK4xDfg/xNzI7JNXRLkA2LHQM9T7Xk21H/dYLBZLt5T1wCfpwMyoogcBzgO+Sczh7yWrgNOBb2cHqbgJwBnAPwCTk7NIUi+5i5g5d0dRByxyoMEpwPeAnQs8ZlVMBd4GzCG6ZFxU6IW2JRp/Z9BDA1gkqSK2A04jBqzfUsQBi+gBmAL8G/DeAo7VDW4kBmc8nB2kQg4CvgXslB1Ekmrgi8CHiCmEbRtvA2Am0S1+9DiP021+TQwQvD07SAW8HvgO8VmQJJVjCfBGYvnhtjTG8cvnAJdTv8of4CXAVcQKhnX2LmIBCyt/SSrXAuKR9PbtHqDdBsBLibX1D2r3F/eAOcCPib0L6ugjxOqJDvaTpBz7A9cQdXLL2nkEsG3/L9yrnV/Yg9YTjYBrs4OU6P3EspWSpHz3AIfS4p4CrTYAphM7GR3c4vt63SrgcODW7CAlOB64kNjBT5JUDT8DFhK73zallUcAk4k//Fb+L7Ql8Sx8l+wgHXY4sTCSlb8kVctrge/SwjL2rTQAPodL445mR+BiYiXEXrQz0QAsfDUqSVIhjgQ+0+yLm12w5a3E6m4a3YuArYk9EHrJJOD7xEqPkqTqOpCYon7XWC9sZgzAHsDNRDe3mnMy8LXsEAX6R+Cj2SEkSU1ZSezJct9oLxqrATAZuJ6YaqDmrQb2Y4yT3yXeQNz9F71vhCSpc24iZgZsHOkFYz0C+BixpataM4WYJnl+dpBxmk4Mbtw6O4gkqSU7Ej0BN4z0gtHu6nYiniG4ylv73gxclB1iHD4NfDw7hCSpLWuAlzPC3jWjNQC+TWx6o/Y9BOxNC/MyK2QucBstTCmRJFXOBcA7hvvBSI8AXg/8fcfi1MfAwMnFqSnacwGwZ3YISdK47AP8BLh/6A9G6gG4Bjisg4Hq5ClgV+C3yTlacTBwXXYISVIhrgaOGPrN4RYCOgIr/yLNAP4kO0SLPpEdQJJUmMOB1w395nA9AJcDizoep15WEcsEr8oO0oT5xLoPTvuTpN5xKXDs4G8M7QF4LVb+nbAl8IHsEE36K6z8JanXHEMsDvR7QxsAp5eXpXZOp/oV6/bEbn+SpN7zvsFfDG4ATAVOLDdLrbyMWKO5yk4iVn+UJPWedzBoavfgBsDxwFalx6mXU7IDjKHq+SRJ7ZtDLO8OPL8B4JK/nfe81lfF7M2Q50OSpJ7z+xu9gQbAdBz8V4Y5VHeK5ZuyA0iSOu5YYBpsbgAcRnXvTHvNwuwAI1iQHUCS1HFTgYNgcwPAP/7lqWIDYApwSHYISVIpFoANgAyvAWZnhxjiEPq7hCRJPW8hRANgBrB/bpZamQQcmh1iiBcsESlJ6lkHANMbwDyiUlJ59s4OMMQrsgNIkkozGdhzoAGgclXtnO+VHUCSVKp5NgByVOmcN4hVCiVJ9WEDIEmVzvnOxDoQkqT6mNcAXpqdooZeRMzFrAKvvyTVzy4NqjclrS5mZQfo5/WXpPqZ1aA6FVHdVOW8VyWHJKk8NgASVeW8VyWHJKk8sxvAzOwUNVWVrnevvyTVz6zG2K9Rj5uQHUCSVL4GsDY7RE2tzg7Qb012AElS6dY0sALIUpXzXpUckqTy2ABIVJXzXpUckqTyrG5Qna7ouqlKxev1l6T6WdMAHsxOUUOPARuyQ/Tz+ktS/TzQAJZlp6ihKp3zh4B12SEkSaVaZgMgx9LsAINsAu7JDiFJKtWyBtWqjOqiao2uquWRJHXWsgawHNiYnaRmfpkdYIg7swNIkkrzLHB3A3gK+HlymDrZCFyXHWKIn2QHkCSV5mfAuoGlgJdkJqmZn1G9qXfXAeuzQ0iSSnElxFLAYAOgTIuzAwzjaarXKyFJ6owlsLkB8FOiElDnVbEBADYCJakONgA3wOYGwDrgx2lx6uNJorFVRRdlB5AkddyP6H/kO3g74PNystTK16luT8svgVuyQ0iSOur3df3gBsD3gCfKz1IrVW9kVT2fJKl9TwI/HPhicAPgGeDbpcepj7uBm7JDjOFrxPxQSVLvuYBBvdCNIT/8YrlZauULQF92iDE8DlycHUKS1BHnDP5iwjAv+DHw+nKy1MaTwK5UZwvg0cwHbmb4z4YkqTtdChw7+BtDewAA/racLLVyNt1R+QP8ArgsO4QkqVB/N/QbI93l/QR4XWez1MZaYDfgt9lBWnAwLgwkSb3iauCIod8crgcA4JMdjVIvn6O7Kn+A64ErskNIkgoxbJ0+2nPebwJv60yW2ngQ2JvYcKnbzAVuA6ZkB5Ekte0bwDuH+8HEUd50LXA6MLUTiWri3cDt2SHa9AQwAzgsO4gkqS1rgBMYYQzaSI8AAB4BPtWJRDVxKbG4Ujf7FHB/dghJUls+ATw80g/Hmuo1iRgM9toiE9XASmI63f3JOYpwLPADnBYoSd3kJuBQYONILxitB4D+N76VmMeu5p1Ob1T+EBtHfDY7hCSpaSuBdzBK5Q9jNwAgBrK9h+qvYlcV/w+4MDtEwf4X1d3FUJK0WR/wPuC+sV442iDAwZYD2wAHjiNUHdxMtLqeyw5SsE3EtMB3A9OSs0iSRnY28M/NvLCV57qTiUFtx471wppaQTxveTA7SAcdTDQEpmcHkSS9wBXAHxKb+42p1YFd04HLgUNafF+ve4JYOfGu7CAlOA74DjFAVJJUDTcBRxKrzzalmTEAg60DjqceFV2z6nZOLiGeLzkmRJKq4W7i5qzpyh+aHwMw2Hpiy9g3ANu28f5eshZ4I7HOcp3cCqwGjsLpgZKUaRmwiFi7pyXj+eM9B/g+8Vy4jp4kWlx13jTnXcB/EuNDJEnl+jnxzP/xdt483ru3GcC3gWPGeZxu8wBwNNHyqrtFxJiAWdlBJKlGFgNvInpj29LqGIChniLWGf7COI/TTa4jBkFa+YcriEZAL89+kKQq+TwxI6/tyh/G3wCAmG7wfmLFwFUFHK+q+oj5lQuAXydnqZqbgFcSvUGSpM5YA5wMfIAmp/qNpugBXHOBC4D9Cj5utieIRXB+kB2k4iYAZwCfAbZIziJJveSXwInAnUUdsJ1ZAKN5AvgKsf7wQfTGXPGvEyP9b8kO0iVuJAaHvgrYOTmLJHW79cDfAKfSxkj/LLsTd8x9XVqWEwP91J4JxAf2cfKvpcVisXRjuQLYiy72JuA28k9ks+VR4GPYhV2UbYmxE+vIv7YWi8XSDeVWoue5J0wg5szfQP6JHak8Cnwc17nvlO2AM4HfkX+tLRaLpYrlF8DbKGmBtYxV3I4iZg38ETAl4fcP1kdM6/tP4HwKGFWpMc0B/pgYVDkvOYskZXuaGDf1eWKvndJkLuO6FbGG/inEBgZlZnmQGNx3DrGGsnK8grj+pwHbJ2eRpDLdDJwHfBX4bUaAqqzjvj1wOLGgzCJiAGGR1hCj06/oL7cQd/+qhonE1NGB638oMC01kSQV6xHgWqIO+hHwUG6c6jQAhtoV2IcY/TiX6CreHZhJ9BwM5ymiol9BjOBfSqzWtxS4A9jU0cQq0lRiGuHL2Xz95wI7EJ+BqXnRJGlEK4lN4u4l6p+BuugO4P68WMOragNgLLP6yySi0l+Jd/R1MploCGydHURS7W0g6qE12UEkSZIkSZIkSZIkSZIkSZIkSZIkSZIkSZIkSZIkSZIkSZIkSZIkSZIkSZIkSZIkSZIkSZIkSZIkSZIkSZIkSZIkSZIkSZIkSZIkSZIkSZIkSZIkSZIkSZIkSZIkSZIkSZIkSZIkSZIkSZIkSZIkSZIkSZIkSZIkSZIkSZIkSZIkSZIkSZIkSZIkSZIkSZIkSZIkSR0yITtAE7YAXgbsDswAtgRm9/97MrAGWAk8BawFVgDL+r+v3rAdMA/YAZhJXPuZwNaZoSQJ2EDUPav7y1rgXuAe4JnEXGOqWgNgBvA64HBgX+KP/q7ApDaO9WuiIXAXcA2wBHiskJTqpLnAAuAgYC/iM2BFL6nbbATuJ+qh24GribroqcRMz1OFBsCrgLcAC4EDiLv6TrkTWAx8H7gSeK6Dv0vNmQGcABxDVPw75caRpI55FriRqIcuBG7LDJPVANiGqPTfD+yflOER4FvAV4BbkjLUVQM4BDgFeCcwKzeOJKX4JXAuUQ89mpyl4/YnWj0bgb4KlZuANxMVkzpnGvCnwH3kX3OLxWKpStlI1I1ZN8QddShwCbCJ/BM9WrkTOJX2xhxoZDOBDwMPk3+NLRaLpcrlWuBIesBc4DLyT2irZRlwdAfOR900gA8CT5B/TS0Wi6WbyqVEHdp1pgFnEtMjsk/ieMolwEuLPTW1MR+4nvxraLFYLN1angHOInpRu8IiYg5k9okrqqwBzqAaMya6wTTgX4gZFtnXzmKxWHqh3EsHHgtMLPhYfw38BzCnwONm2wI4Fng18ThjfW6cSptHnKPjsMEkSUXZmpg1NY1Y06aviIMW9Ud6e+B84PUFHa+qHiKmrf00O0gFnQL8G13UVSVJXehq4CRisbtxKaIB8FpiYZ3tCzhWN3iWGNh2TnaQimgAZwMfyg4iSTXxGPBHwM/Hc5DxPgJYCPyQ3uryH8tE4HiiK+aK5CzZtiB6fk7LDiJJNTITOJlYxO6edg8yngbAm4DvEEu51tFhxCY1l1LQ85guMxO4iFjGV5JUri2AE4kGwB3tHKDdBsBpxJ1fJ9ft7wYHALsAF2cHKdksYi+Fw7ODSFKNTSRWsX0AuLWdN7fqOKLyL3IGQTfbj9jb4EfZQUqyBXHnb+UvSfkmEPXyHcTut01rtRI/iLjbndri+3rdAcA64LrsIB3WAL6K3f6SVCUNYmza1cCDzb6plVkAexPT37ZqLVdt9BH7CJyfHaSDziIWRZIkVc+TxN47S5t5cbMNgBnEjnl7txmqLjYQvSQtP4vpAicCF2SHkCSN6k4290qPqtntb/8VK/9mTAW+Se/tb/8y4AvZISRJY3oFsTbLmJoZA3AascSvmrMNsBuxt3MvmEIs77trcg5JUnNeDdzHGL3RYz0C2I0YWTi9oFB18g56o8v8s8BHskNIklqyFtiHmCI4rLEaABcT0wvUukeBvYBV2UHGYR9ipam6r/cgSd3oImKdgGGN9gjgBOz6H4+ZxJiAy7KDtGkCMZ5h9+wgkqS2vBy4GVg+3A9H6gGYRowk3K1DoeriOeA1wH9lB2nDe3HDI0nqdg8Qg/hfMCtgpB6A/wm8pZOJaqJBjKA/LztIi6YBl+DWvpLU7bYC1jDMNvbD9QBMB+4nNrpRMQ6lu1YJPINY9EeS1P0eJ3r0n9cLMNw6AH+MlX/R/iI7QAsm46h/Seol2wPvG/rNoT0AU4BfATuWkahG+oixALdkB2nC6bjojyT1mhXAHsAzA98Y2gPwTqz8O2EC8OHsEE3y7l+Ses9OwNsHf2NoA+Dd5WWpnbdQ/UF1BxLTRiRJvefUwV8MbgDsAvxBuVlqZQajLMhQEadkB5AkdcxCYOeBLwY3AE6h+c2B1J4qV7BbMKR7SJLUUxrASYO/GHDSC1+rgi0EXpIdYgTHANtmh5AkddTJA/8YaADsjM9+y9AAFmWHGMHR2QEkSR23L/2D/QcaAEfmZamdBdkBRrAwO4AkqRRHwOYGQFUrpV5UxcbWi4F52SEkSaVYCJsbAEfk5aidnYn9AapkIWNvDS1J6g2LIBoALwFempuldg7KDjDEAdkBJEmleSmwQwPYKztJDc3NDjCEnwFJqpe5DXz2m6FqFa6fAUmql3k2AHJU6ZxPY9DKUJKkWpjXoHrd0XWwJ9UZdLcnVrmF7gAABw9JREFUrgApSXUzrwFsl52ihqZRnY2BvP6SVD/bNYBZ2SlqqirnvSo5JEnlmW0DIE9VzntVckiSyjPLBkCe2dkB+nn9Jal+ZjWA6dkpampGdoB+Xn9Jqp8ZDWBDdoqaWp8doN/T2QEkSaXb0ADWZKeoqaqc96rkkCSVZ00DWJudoqaqUvFWJYckqTyr7QHIszo7QD+vvyTVz5oG8ER2ihp6lur0vDyZHUCSVLrfNYB7slPU0L3Ac9kh+nn9Jal+7m4Ay7JT1FCVzvlK4PHsEJKkUi2zAZCjaud8aXYASVKpbAAkqdo5r1oeSVJnLW0A9+NAsLLdkh1giKrlkSR1zm+BhxrAJuCq3Cy18gRwa3aIIZZkB5AklWYJsKkx6AuVYwnR6KqSZcCK7BCSpFIsARhoACxODFI3VW1sVTWXJKlYV8LmBsBdwMN5WWrliuwAI6hqLklScR4ElsPmBkAf8I20OPVxM/0nvoK+C6zLDiFJ6qjf1/WNQd/8cvk5aue87ACjWA1cnB1CktRR5w/8Y3AD4A6qNzq9l2wELsgOMYYqN1AkSePzC+D2gS8aQ354brlZauUy4NHsEGP4MdXPKElqz/Nu8oY2AL6M28N2ylnZAZqwEfi37BCSpMKtZsij/qENgCeBfy8rTY3cBFyeHaJJZxMbBEmSese/Ar8b/I2hDQCAf8LR4EX72+wALViFjUBJ6iXrgM8N/eZwDYDHgHM6Hqc+7gS+nx2iRZ8F1maHkCQV4j8YZtv3iSO8+BbgdGBqJxPVxHuAu7NDtGg9MAU4IjmHJGl8VgJvB54a+oPhegAgegE+0clENXEh8KPsEG36e6q7aJEkqTl/xTB3/wATRnlTA7geOKATiWpgHfAKYrvlbnU0cGl2CElSW24GDgSeG+6HI/UAQOxYdwbV27muW5xJd1f+EGsXfCc7hCSpZZuADzJC5Q8jjwEY8DDxLPh1BYaqg2uIE98LjaergJOBWck5JEnN+xvgq6O9YLRHAAMmEivELSwiUQ38BphPb+2ueDixfeRYDUZJUr6rgSMZ5e4fmvuD3kc0AN4FzBx/rp7WB7wT+Hl2kII9QDQWj0jOIUka3W+A1xMr/41qtDEAgz0KvJtYKlYj+1vgkuwQHfIpoiEoSaqmjcQj21838+JmGwAQf/xPI+5y9ULn09tTJzcBbyJmhkiSqqUP+GNaWHa+1We6twEbgEUtvq/X/YDo+u+FQX+jeRb4HnACsG1yFknSZh8n1vtvWjuDun4KbAkc3MZ7e9F1wPHA09lBSrKOaPC8DWcGSFIV/DPw162+qd1R3QPPgo9o8/29YglwHPVbN38lcBHwBmCb5CySVGdnAx9p543jmdZ1FbF98NE0N52w11wEvJlh1leuiZXAt4ipJi9OziJJddNHdPv/73YPUETFfTLwJWByAcfqFv+KqyQO2BL4LvYGSVJZniEG5X9tPAcpYmGX24n14hcBWxdwvCrbAHyMeNbibIjwNLHaVB/wB9SzN0iSyvIQMe7sh+M9UJF/rLcEvgi8tcBjVskyYkvFW7ODVNhxwJeBOck5JKkXXUJsMf9kEQdrZR2AsawCTgQ+Suwn3yv6iErtNVj5j+US4NXAtdlBJKmHrCcG+p1AQZV/J+0OfJ+oPLu5LAeOKvjc1MEE4FTgMfKvocVisXRzuQTYjS50HHAf+Sew1fIUsZ3vlMLPSL1sDZxFLE+ZfU0tFoulm8oK4kaqq00B3g88SP4JHausJSqsHTtyJuprH+BcYiXB7GtssVgsVS4PAB8GptNDJhOtmaXkn+ChZTVR8e/Qsf97QTwaOouYTZF9zS0Wi6VK5V6i4p9KSTKmbDWAQ4BTgJPI22J4E7GxzbnA14E1STnq6MXEgNG3AYcmZ5GkLBuIZ/znAT+i5B13s+dszyJW03sLcDgwu8O/71ngRuKEf414xqJcrwTeBRxDPCrI/kxKUietAq4GLgS+Q+JS8lX6YzsJ2B9YSKwqty/jX2J2JfHI4Rpgcf9/67p0bzfYHlhAfAYOAuZSYneYJHXAI8SCeVcR9dDPgecyAw2oUgNgOLOBeURFsAfxuGDL/u/PJBoNa4iKfm1/WUEs2rOUmIam7tUAdiGu/1yiQThzUOn1lSclVd8Gou5ZTdzdrwV+RUwjX9b/fUmSJEmSJEmSJEmSJEmSJEmSJEmSJEmSJEmSJEmSJEmSJEmSJEmSJEmSJEmSJEmSJEmSJEmSJEmSJEmSJEmSJEmSJEmSJEmSJEmSJEmSJEmSJEmSJEmSJEmSJEmSJEmSJEmSJEmSJEmSJEmSJEmSJEmSJEmSJEmSJEmSJEmSJEmSJEmSJEmSJEmSJEmSJEmSJEmSJEmSJEmSJEmSJEmSJEmSJEmSJEmSJEmSJEmSJEmSJEmSJEmSJEmSJEmSJEnqaf8fHYh95K2wWGcAAAAASUVORK5CYII=;" parent="1" vertex="1">
          <mxGeometry x="962" y="629.01" width="52" height="52" as="geometry" />
        </mxCell>
        <mxCell id="kxb5aIU8mdvdAVlikhvM-47" value="Fim" style="text;html=1;align=center;verticalAlign=middle;resizable=0;points=[];autosize=1;strokeColor=none;fillColor=none;" parent="1" vertex="1">
          <mxGeometry x="539" y="238" width="40" height="30" as="geometry" />
        </mxCell>
        <mxCell id="kxb5aIU8mdvdAVlikhvM-50" value="Fim" style="text;html=1;align=center;verticalAlign=middle;resizable=0;points=[];autosize=1;strokeColor=none;fillColor=none;" parent="1" vertex="1">
          <mxGeometry x="1155" y="690" width="40" height="30" as="geometry" />
        </mxCell>
        <mxCell id="kxb5aIU8mdvdAVlikhvM-54" value="" style="edgeStyle=orthogonalEdgeStyle;rounded=0;orthogonalLoop=1;jettySize=auto;html=1;entryX=0;entryY=0.5;entryDx=0;entryDy=0;" parent="1" target="kxb5aIU8mdvdAVlikhvM-3" edge="1">
          <mxGeometry relative="1" as="geometry">
            <mxPoint x="110" y="100" as="sourcePoint" />
          </mxGeometry>
        </mxCell>
        <mxCell id="kxb5aIU8mdvdAVlikhvM-53" value="Inicio" style="text;html=1;align=center;verticalAlign=middle;resizable=0;points=[];autosize=1;strokeColor=none;fillColor=none;" parent="1" vertex="1">
          <mxGeometry x="60" y="125" width="50" height="30" as="geometry" />
        </mxCell>
        <mxCell id="kxb5aIU8mdvdAVlikhvM-55" value="" style="shape=cross;whiteSpace=wrap;html=1;" parent="1" vertex="1">
          <mxGeometry x="539" y="80" width="40" height="40" as="geometry" />
        </mxCell>
        <mxCell id="uBHZid0gvawGvJDmfJTp-1" value="" style="points=[[0.145,0.145,0],[0.5,0,0],[0.855,0.145,0],[1,0.5,0],[0.855,0.855,0],[0.5,1,0],[0.145,0.855,0],[0,0.5,0]];shape=mxgraph.bpmn.event;html=1;verticalLabelPosition=bottom;labelBackgroundColor=#ffffff;verticalAlign=top;align=center;perimeter=ellipsePerimeter;outlineConnect=0;aspect=fixed;outline=standard;symbol=general;" vertex="1" parent="1">
          <mxGeometry x="60" y="75" width="50" height="50" as="geometry" />
        </mxCell>
        <mxCell id="uBHZid0gvawGvJDmfJTp-2" value="" style="points=[[0.145,0.145,0],[0.5,0,0],[0.855,0.145,0],[1,0.5,0],[0.855,0.855,0],[0.5,1,0],[0.145,0.855,0],[0,0.5,0]];shape=mxgraph.bpmn.event;html=1;verticalLabelPosition=bottom;labelBackgroundColor=#ffffff;verticalAlign=top;align=center;perimeter=ellipsePerimeter;outlineConnect=0;aspect=fixed;outline=end;symbol=terminate2;" vertex="1" parent="1">
          <mxGeometry x="535" y="188" width="50" height="50" as="geometry" />
        </mxCell>
        <mxCell id="uBHZid0gvawGvJDmfJTp-3" value="" style="points=[[0.145,0.145,0],[0.5,0,0],[0.855,0.145,0],[1,0.5,0],[0.855,0.855,0],[0.5,1,0],[0.145,0.855,0],[0,0.5,0]];shape=mxgraph.bpmn.event;html=1;verticalLabelPosition=bottom;labelBackgroundColor=#ffffff;verticalAlign=top;align=center;perimeter=ellipsePerimeter;outlineConnect=0;aspect=fixed;outline=end;symbol=terminate2;" vertex="1" parent="1">
          <mxGeometry x="1155" y="640" width="50" height="50" as="geometry" />
        </mxCell>
      </root>
    </mxGraphModel>
  </diagram>
</mxfile>
